<?xml version="1.0" encoding="UTF-8"?>
<svg id="Layer_1" data-name="Layer 1" xmlns="http://www.w3.org/2000/svg" viewBox="0 0 300 300">
  <path d="M173.91,170.2h-49.83c-2.44,0-2.06,2.44-2.06,2.44v6.95c0,2.06,2.06,2.06,2.06,2.06h49.83s2.06,0,2.06-2.06v-6.95s.38-2.44-2.06-2.44Z" style="fill: #ad6f54; stroke: #000; stroke-miterlimit: 10;"/>
  <path d="M149.13,181.19h-25.04l2.44,32.98s1.22,7.33,7.33,7.33h30.28c6.11,0,7.33-7.33,7.33-7.33l2.44-32.98h-24.79Z" style="fill: #ad6f54; stroke: #000; stroke-miterlimit: 10;"/>
  <path d="M151.35,170.47c.99-7.81,2.73-15.48,4.72-23.08,1.94-7.62,5.09-14.88,7.65-22.29,1.32-3.7,2.56-7.42,4.04-11.11.98-2.13,1.87-4.84,4.01-6.36,7.58-4.14,15.76-11.12,22.77-16.29,0,0-.45.61-.45.61,2.81-5.77,7.56-12.52,14.69-12.26.96.08,1.88.33,2.74.67l-.09.29c-7.47-1.34-12.15,6.5-14.57,12.41,0,0-.13.33-.13.33l-.32.27c-7.28,5.99-14.89,11.99-23.59,15.91-1.69,1.09-2.65,3.17-3.75,5.04-3.63,6.9-5.84,14.51-7.56,22.11-2.67,11.46-6.01,22.67-9.9,33.81,0,0-.29-.07-.29-.07h0Z" style="fill: #8fa358; stroke-width: 0px;"/>
  <path d="M157.45,145.5c-.39-5.71-.85-12.06-1.39-17.78-.46-3.83-.72-8.1-3.49-11.06-3.9-4.51-7.99-8.84-11.75-13.48-1.55-1.96-3.17-3.92-4.35-6.16-.22-.44-.48-1.09-.48-1.58-.15-.7-1.06-1.41-1.67-1.88-3.13-2.26-6.91-3.73-10.65-4.66-2.8-.66-5.81-1.09-8.58-.21-.88.33-1.85.73-2.79,1.03-3.8,1.25-7.8,1.93-11.79,1.83,4.74-.43,9.83-1.49,14.32-3.59,6.33-2.04,16.49,1.44,21.31,5.8.35.4.75.83.87,1.57.52,2.59,2.98,5.1,4.52,7.29,2.44,3.12,5,6.15,7.53,9.21,1.8,2.36,4.12,4.43,5.46,7.11,3.05,8.37,3.58,17.95,2.93,26.57h0Z" style="fill: #8fa358; stroke-width: 0px;"/>
  <path d="M151.45,169.49c1.3-16.03,3.4-32.01,3.7-48.09-.04-4.01-.17-8.06-1.01-11.96-.36-2.03-1.58-3.69-1.98-5.69-.48-2.01-.54-4.08-.46-6.11.51-8.16,3.16-15.97,6.4-23.41,2.44-2.77,4.9-5.52,7.48-8.17,2.56-2.43,5.11-5.67,8.34-7.16-2.92,1.9-5.41,4.97-7.86,7.6-2.3,2.55-5.2,5.97-7.11,8.19-3.03,7.32-5.7,15.06-6.33,23-.18,2.95-.04,5.97,1.21,8.67,1.2,2.85,1.32,5.97,1.51,9,.48,18.03-.73,36.55-3.88,54.13h0Z" style="fill: #8fa358; stroke-width: 0px;"/>
  <path d="M160.45,169.49c.91-9.63,1.73-19.26,2.23-28.9.3-8.31,1.17-17.11-1.75-25.06-.44-1.11-1.19-2.02-1.97-2.95-4.7-5.5-10.59-9.92-15.36-15.42-2.34-2.77-4.72-6.14-4.66-9.98.24-3.74,1.75-7.19,3.32-10.5,2.16-4.36,4.78-8.46,7.69-12.34-3.94,6.92-9.22,14.57-9.99,22.86.23,6,5.51,10.41,9.39,14.51,3.43,3.38,7.04,6.66,10.05,10.51,1.65,1.86,2.49,4.24,2.94,6.65,1.29,7.17,1.27,14.49,1.16,21.75-.44,9.6-1.22,19.61-3.06,28.87h0Z" style="fill: #8fa358; stroke-width: 0px;"/>
  <path d="M153.45,150.51c-2.24-6.87-5.92-18.68-12.89-21.8-3.54-1.23-9.11-1.65-12.85-2.35-3.53-.77-10.43-1.58-11.26-5.85,0,0,.1-.02.1-.02.71,2.15,3.05,2.86,5,3.47,5.25,1.35,10.74,1.97,15.97,3.5,3.28.66,6.26,2.37,8.42,4.96,2.95,3.33,4.76,7.48,6.09,11.67.65,2.1,1.2,4.23,1.52,6.41l-.1.02h0Z" style="fill: #8fa358; stroke-width: 0px;"/>
  <path d="M144.14,106.55c-4.63,1.48-9.45.93-14.18,1.67-2.97.33-12.97,2.5-13.41-1.74,1.25,2.2,4.13,1.53,6.25,1.5,2.35-.13,4.73-.33,7.12-.31,4.73.12,9.62-1.72,14.22-1.13h0Z" style="fill: #8fa358; stroke-width: 0px;"/>
  <path d="M189.23,97.37c2.31-.53,4.62-.21,6.86.37,2.28.3,4.63.29,6.84,1.03,1.46.49,2.94,1.09,4.1,2.2l-.06.08c-3.3-.94-7.72-2.44-10.92-2.98-2.3,0-4.55,0-6.82-.59,0,0,0-.1,0-.1h0Z" style="fill: #8fa358; stroke-width: 0px;"/>
  <path d="M198.92,85.85c2.59-2.21,6.38-2.1,8.76.34,2.44,1.96,4.62,4.14,6.35,6.77,0,0-.07.07-.07.07-1.31-.88-2.49-1.9-3.6-2.97-1.08-1.11-2.13-2.25-3.08-3.5-.47-.63-.96-1.18-1.69-1.43-2.23-.52-4.37.38-6.63.81,0,0-.05-.09-.05-.09h0Z" style="fill: #8fa358; stroke-width: 0px;"/>
  <path d="M195.47,92.54c-3.72-1.02-7.66-1.04-11.48-1.52-6.51.04-12.96,1.07-19.49.52,0,0,0-.1,0-.1,6.44-1.23,12.98-.99,19.5-.75,3.26-.12,6.62-.28,9.75.86.64.18,1.23.55,1.78.89l-.05.09h0Z" style="fill: #8fa358; stroke-width: 0px;"/>
  <path d="M178.52,105.04c3.15.56,6.23,1.39,9.24,2.45,2.63,1.08,6.3,2.48,8.97,3.32,1.87.68,3.95,1.3,5.5,2.68,3.04,3.21,5.28,7.08,7.31,10.98,0,0-.08.05-.08.05-2.72-3.43-5.12-7.04-7.94-10.34-2.71-2.15-6.17-3.42-9.42-4.62-4.51-1.36-9.48-2.46-13.58-4.52h0Z" style="fill: #8fa358; stroke-width: 0px;"/>
  <path d="M161.59,133.12c-6.57-5.64-11.95-12.45-18.58-18-5.72-4.6-11.52-10.01-17.98-13.51-.96-.42-1.95-.87-3.03-.88v-.1c8.09-.08,20.18,13.19,26.03,18.58,4.62,4.12,10.06,8.99,13.55,13.91h0Z" style="fill: #8fa358; stroke-width: 0px;"/>
  <path d="M149.35,172.53c-3.89-11.14-7.23-22.35-9.9-33.81-1.71-7.6-3.93-15.21-7.56-22.11-1.1-1.88-2.05-3.95-3.75-5.04-8.71-3.92-16.32-9.92-23.59-15.91,0,0-.32-.27-.32-.27l-.13-.33c-2.42-5.91-7.1-13.75-14.57-12.41,0,0-.09-.29-.09-.29.86-.35,1.78-.6,2.74-.67,7.13-.26,11.88,6.5,14.69,12.26,0,0-.45-.61-.45-.61,7.03,5.19,15.17,12.14,22.77,16.29,2.15,1.52,3.04,4.23,4.02,6.36,1.48,3.69,2.72,7.41,4.04,11.11,4.14,11.04,8.2,22.11,10.38,33.75.8,3.84,1.52,7.71,2,11.62l-.29.07h0Z" style="fill: #8fa358; stroke-width: 0px;"/>
  <path d="M143.45,147.5c-.38-7.93-.06-16,2.06-23.73.43-1.43.85-2.92,1.71-4.17,4-5.06,8.3-9.9,12.26-14.98,1.54-2.19,4.01-4.7,4.52-7.29.12-.73.51-1.16.87-1.57,4.81-4.36,14.99-7.85,21.31-5.8,4.49,2.1,9.59,3.16,14.32,3.59-3.98.1-7.98-.57-11.79-1.83-1.88-.62-3.59-1.52-5.61-1.51-1.93-.07-3.88.23-5.77.69-3.75.93-7.52,2.4-10.65,4.66-.61.47-1.51,1.18-1.67,1.88,0,.49-.26,1.14-.48,1.58-1.19,2.24-2.81,4.2-4.35,6.16-2.52,3.09-5.16,6.06-7.81,9.02-1.86,2.27-4.23,4.26-5.59,6.87-1.87,4.29-1.84,9.96-2.36,14.56-.44,3.88-.39,8.16-.97,11.87h0Z" style="fill: #8fa358; stroke-width: 0px;"/>
  <path d="M149.45,171.51c-2.89-17.88-4.35-36.03-3.78-54.14.19-3.03.31-6.15,1.51-9,1.24-2.71,1.39-5.73,1.21-8.67-.63-7.94-3.3-15.67-6.33-23-1.91-2.21-4.8-5.64-7.11-8.19-2.45-2.63-4.94-5.7-7.86-7.6,3.21,1.48,5.79,4.74,8.34,7.16,2.57,2.65,5.03,5.4,7.48,8.17,3.24,7.44,5.88,15.25,6.4,23.41.09,2.03.02,4.1-.46,6.11-.4,2-1.62,3.66-1.98,5.69-.84,3.9-.97,7.95-1.01,11.96.19,16.03,2.61,32.29,3.6,48.1h0Z" style="fill: #8fa358; stroke-width: 0px;"/>
  <path d="M140.45,171.51c-2.58-16.67-4.38-33.85-1.8-50.63.45-2.4,1.3-4.78,2.94-6.65,3.01-3.84,6.62-7.12,10.05-10.51,3.88-4.1,9.16-8.51,9.39-14.51-.78-8.29-6.05-15.93-9.99-22.86,2.91,3.87,5.52,7.97,7.69,12.34,1.56,3.31,3.08,6.76,3.32,10.5.06,3.84-2.32,7.2-4.66,9.98-4.77,5.49-10.66,9.91-15.36,15.42-.78.93-1.52,1.84-1.97,2.95-2.92,7.96-2.05,16.75-1.75,25.06.4,9.59,1.54,19.5,2.13,28.91h0Z" style="fill: #8fa358; stroke-width: 0px;"/>
  <path d="M147.45,152.49c1.35-7.45,3.97-15.42,10.03-20.36,1.71-1.45,3.87-2.15,6-2.68,5.23-1.52,10.72-2.15,15.97-3.5,1.96-.61,4.29-1.32,5-3.47,0,0,.1.02.1.02-.81,4.25-7.75,5.08-11.26,5.85-3.76.7-9.28,1.12-12.85,2.35-4.06,1.74-6.29,5.89-8.23,9.63-2.02,3.79-3.29,8.27-4.76,12.15h0Z" style="fill: #8fa358; stroke-width: 0px;"/>
  <path d="M156.87,108.46c3.61-.11,7.12.43,10.65,1.04,3.54.31,7.16.16,10.68.49,2.13.03,5,.7,6.25-1.5,0,0,.09.03.09.03-1.17,4.3-10.22,1.99-13.51,1.71-4.64-.82-9.84-.05-14.17-1.77h0Z" style="fill: #8fa358; stroke-width: 0px;"/>
  <path d="M111.77,99.47c-2.8,1.04-6.03,1.28-8.14,3.53-.88.97-2.13,2.37-2.91,3.4-.93,1.15-1.83,2.33-2.68,3.62l-.09-.03c.72-3.96,3.95-6.74,7.27-8.66,1.83-1.44,4.18-2.4,6.55-1.96,0,0,0,.1,0,.1h0Z" style="fill: #8fa358; stroke-width: 0px;"/>
  <path d="M102.03,88.54c-7.92-4.14-7.18,1.03-10.79,6.27-.96,1.47-2,2.9-3.19,4.22l-.08-.05c1.6-4.19,4.34-7.62,6.92-11.23,1.14-1.67,3.4-1.95,5.1-.96.82.42,1.54.99,2.12,1.68l-.06.08h0Z" style="fill: #8fa358; stroke-width: 0px;"/>
  <path d="M105.47,94.46c3.4-2.16,7.67-1.86,11.53-1.75,6.51-.24,13.05-.48,19.5.75,0,0,0,.1,0,.1-6.53.55-12.98-.49-19.49-.52-3.83.48-7.76.49-11.48,1.52,0,0-.05-.09-.05-.09h0Z" style="fill: #8fa358; stroke-width: 0px;"/>
  <path d="M122.51,107.14c-7.52,3.39-16.33,4.01-23.03,9.04-2.82,3.31-5.23,6.92-7.94,10.34,0,0-.08-.05-.08-.05,2.03-3.89,4.28-7.77,7.31-10.98,1.55-1.38,3.63-2,5.5-2.68,2.66-.84,6.36-2.26,8.97-3.32,2.96-.95,6.29-2.12,9.27-2.35h0Z" style="fill: #8fa358; stroke-width: 0px;"/>
  <path d="M139.34,135.05c3.88-4.91,8.89-9.73,13.63-13.84,5.83-5.37,17.95-18.67,26.04-18.58,0,0,0,.1,0,.1-1.08,0-2.07.46-3.03.88-6.45,3.49-12.26,8.91-17.98,13.51-6.65,5.44-12.06,12.67-18.66,17.93h0Z" style="fill: #8fa358; stroke-width: 0px;"/>
  <path d="M160.55,69.5c.6.84.8,1.72.84,2.69,0,0-1.09-.87-1.09-.87.76-.2,1.55-.25,2.34-.12.19.07.84.11.87.35-1.04.25-2.07.52-3.11.76v-.12s.05-2.69.05-2.69h.1Z" style="fill: #8fa358; stroke-width: 0px;"/>
  <path d="M158.55,72c.6.84.8,1.72.84,2.69,0,0-1.09-.87-1.09-.87.76-.2,1.55-.25,2.34-.12.19.07.84.11.87.35-1.04.25-2.07.52-3.11.76v-.12s.05-2.69.05-2.69h.1Z" style="fill: #8fa358; stroke-width: 0px;"/>
  <path d="M156.16,75.63c.86.56,1.38,1.31,1.77,2.19,0,0-1.33-.4-1.33-.4.63-.47,1.35-.81,2.13-.98.2,0,.82-.2.94,0-.87.62-1.73,1.25-2.61,1.86l-.04-.11-.95-2.51.09-.04h0Z" style="fill: #8fa358; stroke-width: 0px;"/>
  <path d="M154.16,77.63c1.1.94,1.74,2.11,2.26,3.4,0,0-1.37-.38-1.37-.38,1.08-.77,2.19-1.4,3.55-1.63,0,0,.06.08.06.08l-3.01,2.34c-.13.09-.09.12-.15-.04l-1.43-3.73.09-.04h0Z" style="fill: #8fa358; stroke-width: 0px;"/>
  <path d="M153.16,81.63c1.1.94,1.74,2.11,2.26,3.4,0,0-1.37-.38-1.37-.38,1.08-.77,2.19-1.4,3.55-1.63,0,0,.06.08.06.08l-3.01,2.34c-.13.09-.09.12-.15-.04l-1.43-3.73.09-.04h0Z" style="fill: #8fa358; stroke-width: 0px;"/>
  <path d="M152.16,84.63c1.1.94,1.74,2.11,2.26,3.4,0,0-1.37-.38-1.37-.38,1.08-.77,2.19-1.4,3.55-1.63,0,0,.06.08.06.08l-3.01,2.34c-.13.09-.09.12-.15-.04l-1.43-3.73.09-.04h0Z" style="fill: #8fa358; stroke-width: 0px;"/>
  <path d="M151.16,87.63c1.18,1.13,1.89,2.5,2.48,3.96,0,0-1.37-.38-1.37-.38,1.23-.88,2.49-1.64,4.01-1.98,0,0,.06.08.06.08l-3.47,2.7c-.12.09-.09.12-.15-.04,0,0-1.65-4.29-1.65-4.29l.09-.04h0Z" style="fill: #8fa358; stroke-width: 0px;"/>
  <path d="M150.16,91.63c1.18,1.13,1.89,2.5,2.48,3.96,0,0-1.37-.38-1.37-.38,1.23-.88,2.49-1.64,4.01-1.98,0,0,.06.08.06.08l-3.47,2.7c-.12.09-.09.12-.15-.04,0,0-1.65-4.29-1.65-4.29l.09-.04h0Z" style="fill: #8fa358; stroke-width: 0px;"/>
  <path d="M162.54,67c.44.83.61,1.77.63,2.69l-.82-.65c.75-.19,1.54-.28,2.32-.22.19.06.79.03.84.22-1,.24-1.99.49-2.99.72-.1.02-.09.05-.09-.07,0,0,.04-2.69.04-2.69h.08Z" style="fill: #8fa358; stroke-width: 0px;"/>
  <path d="M164.52,65c.31.88.38,1.78.41,2.69,0,0-.54-.43-.54-.43.5-.13,1.01-.2,1.52-.27.49,0,1.15-.16,1.59.04,0,0-2.99.71-2.99.71h-.06s0-.05,0-.05l.02-2.69h.05Z" style="fill: #8fa358; stroke-width: 0px;"/>
  <path d="M166.52,63c.31.88.38,1.78.41,2.69,0,0-.54-.43-.54-.43.5-.13,1.01-.2,1.52-.27.49,0,1.15-.16,1.59.04,0,0-2.99.71-2.99.71h-.06s0-.05,0-.05l.02-2.69h.05Z" style="fill: #8fa358; stroke-width: 0px;"/>
  <path d="M168.51,61c.15.89.19,1.79.21,2.69,0,0-.27-.21-.27-.21,1-.23,2.01-.42,3.05-.48v.02s-2.98.7-3.02.71c0-.04.02-2.68.01-2.72,0,0,.03,0,.03,0h0Z" style="fill: #8fa358; stroke-width: 0px;"/>
  <path d="M170.01,59c.15.89.19,1.79.21,2.69,0,0-.27-.21-.27-.21,1-.23,2.01-.42,3.05-.48v.02s-2.98.7-3.02.71c0-.04.02-2.68.01-2.72,0,0,.03,0,.03,0h0Z" style="fill: #8fa358; stroke-width: 0px;"/>
  <path d="M157.29,80.66c1-.24,1.9-.1,2.81.22,0,0-1.21.69-1.21.69.09-.78.34-1.54.75-2.22.13-.15.42-.73.65-.68-.15,1.06-.29,2.12-.45,3.17l-.11-.05-2.48-1.04.04-.09h0Z" style="fill: #8fa358; stroke-width: 0px;"/>
  <path d="M155.7,77.88c.93-.1,1.86.09,2.73.41l-.91.52c.1-.77.31-1.53.66-2.23.13-.15.32-.73.52-.7-.15,1.02-.29,2.03-.44,3.05-.02.1.01.1-.1.06,0,0-2.48-1.03-2.48-1.03l.03-.07h0Z" style="fill: #8fa358; stroke-width: 0px;"/>
  <path d="M154.58,75.3c.94.03,1.79.31,2.65.61,0,0-.6.34-.6.34.07-.51.19-1.01.31-1.51.18-.46.28-1.12.62-1.46,0,0-.45,3.04-.45,3.04v.06s-.07-.02-.07-.02l-2.49-1.02.02-.05h0Z" style="fill: #8fa358; stroke-width: 0px;"/>
  <path d="M153.47,72.7c.94.03,1.79.31,2.65.61,0,0-.6.34-.6.34.07-.51.19-1.01.31-1.51.18-.46.28-1.12.62-1.46,0,0-.45,3.04-.45,3.04v.06s-.07-.02-.07-.02l-2.49-1.02.02-.05h0Z" style="fill: #8fa358; stroke-width: 0px;"/>
  <path d="M151.35,70.11c.89.19,1.73.48,2.57.8,0,0-.3.17-.3.17.16-1.02.35-2.03.68-3.01h.02c-.01.05-.46,3.03-.47,3.08-.04,0-2.48-1.01-2.52-1.02,0,0,0-.02,0-.02h0Z" style="fill: #8fa358; stroke-width: 0px;"/>
  <g>
    <path d="M144.07,85.78c1.15-.14,2.2.06,3.26.41,0,0-1.19.65-1.19.65.22-1.49.64-2.86,1.63-4.08,0,0,.1.02.1.02l-.38,2.12c-.14.74-.25,1.49-.42,2.23l-.1-.04-2.93-1.22.04-.09h0Z" style="fill: #8fa358; stroke-width: 0px;"/>
    <path d="M140.7,80.86c1.1-.04,2.18.2,3.2.55,0,0-.96.53-.96.53.09-.71.28-1.41.49-2.1.25-.71.55-1.38.98-2.01l.08.02c-.26,1.41-.5,2.83-.78,4.24-.02.1,0,.1-.1.06,0,0-2.94-1.21-2.94-1.21l.03-.08h0Z" style="fill: #8fa358; stroke-width: 0px;"/>
    <path d="M137.33,75.95c1.08.06,2.13.34,3.14.7,0,0-.74.4-.74.4.1-.71.28-1.41.47-2.1.24-.69.47-1.37.85-2.03-.06,1.31-.53,2.91-.74,4.32,0,0-.06-.03-.06-.03l-2.94-1.2.02-.06h0Z" style="fill: #8fa358; stroke-width: 0px;"/>
    <path d="M133.96,71.03c1.07.16,2.08.48,3.08.85l-.51.28c.26-1.39.54-2.95,1.2-4.16,0,0-.8,4.24-.8,4.24v.05s-.05-.02-.05-.02l-2.94-1.2.02-.04h0Z" style="fill: #8fa358; stroke-width: 0px;"/>
    <path d="M130.59,66.12c1.03.27,2.04.61,3.02.99l-.29.16c.27-1.4.54-2.89,1.04-4.19-.01.05-.8,4.22-.81,4.26-.03,0-2.94-1.19-2.97-1.2,0,0,0-.02,0-.02h0Z" style="fill: #8fa358; stroke-width: 0px;"/>
  </g>
  <path d="M99,87c-.16-4.05.11-8.33,2.09-11.97,1.41-2.6,3.28-5.25,5.03-7.64.63-.8,1.24-1.61,1.89-2.39-2.07,3.47-4.32,6.85-6.26,10.39-1.94,3.52-2.32,7.66-2.74,11.61h0Z" style="fill: #8fa358; stroke-width: 0px;"/>
  <path d="M108.51,66.52c-.72.33-1.46.63-2.19.94l-.04-.32c-.06-.43-.06-1.36.24-1.65.22.53.28,1.08.2,1.64l-.29-.21c.67-.1,1.46-.44,2.07-.41h0Z" style="fill: #8fa358; stroke-width: 0px;"/>
  <path d="M107.5,68.02c-.72.33-1.46.63-2.19.94l-.04-.32c-.06-.43-.06-1.36.24-1.65.22.53.28,1.08.2,1.64,0,0-.29-.21-.29-.21.67-.1,1.46-.44,2.07-.41h0Z" style="fill: #8fa358; stroke-width: 0px;"/>
  <path d="M107.01,69.24c-.89.38-1.8.72-2.7,1.08,0,0-.03-.32-.03-.32-.04-.61-.08-1.51.24-2,.22.66.28,1.32.21,2,0,0-.29-.21-.29-.21.83-.15,1.8-.53,2.57-.54h0Z" style="fill: #8fa358; stroke-width: 0px;"/>
  <path d="M107.01,69.85c-1.23.51-2.46.98-3.7,1.46l-.03-.31c-.05-.96-.11-2.13.24-3,.23,1,.28,2,.2,3l-.29-.21c1.17-.28,2.46-.8,3.58-.94h0Z" style="fill: #8fa358; stroke-width: 0px;"/>
  <path d="M106.01,71.85c-1.23.51-2.46.98-3.7,1.46l-.03-.31c-.05-.96-.11-2.13.24-3,.23,1,.28,2,.2,3l-.29-.21c1.17-.28,2.46-.8,3.58-.94h0Z" style="fill: #8fa358; stroke-width: 0px;"/>
  <path d="M104.51,73.52c-1.06.78-2.13,1.54-3.2,2.3-.12-1.28-.1-2.55.15-3.82,0,0,.05,0,.05,0,.23,1.14.28,2.28.2,3.42l-.34-.18c1.03-.53,2.12-1.33,3.13-1.71h0Z" style="fill: #8fa358; stroke-width: 0px;"/>
  <path d="M103.51,75.52c-1.09.75-2.21,1.46-3.31,2.19v-.41c0-1.1,0-2.42.41-3.4.17,1.15.16,2.29.02,3.43l-.33-.2c1.05-.49,2.18-1.25,3.21-1.6h0Z" style="fill: #8fa358; stroke-width: 0px;"/>
  <path d="M103.53,76.55c-1.19.91-2.4,1.8-3.6,2.7l-.11-.29c-.34-1.05-.76-2.29-.69-3.36.52,1.04.89,2.12,1.12,3.24l-.33-.12c1.19-.68,2.44-1.63,3.62-2.16h0Z" style="fill: #8fa358; stroke-width: 0px;"/>
  <path d="M102.51,78.38c-1.11,1.01-2.24,1.99-3.37,2.98-.54-1.13-.94-2.3-1.14-3.55,0,0,.05-.02.05-.02.61.99,1.06,2.04,1.38,3.14l-.34-.09c1.13-.78,2.3-1.82,3.43-2.45h0Z" style="fill: #8fa358; stroke-width: 0px;"/>
  <path d="M109.5,65.01l-1.96.74-.14.05c-.02-.58-.08-1.27.11-1.8.12.55.13,1.1.1,1.64l-.15-.11s2.06-.6,2.03-.53h0Z" style="fill: #8fa358; stroke-width: 0px;"/>
  <path d="M100.51,68l.13,2.09v.15c-.55-.15-1.23-.3-1.68-.63.56.05,1.09.2,1.6.38l-.14.11s.03-2.15.09-2.1h0Z" style="fill: #8fa358; stroke-width: 0px;"/>
  <path d="M101.69,71.78c-.27.93-.57,1.85-.86,2.78l-.27-.17c-.5-.35-1.22-.89-1.4-1.45.65.24,1.2.61,1.69,1.09,0,0-.35.09-.35.09.41-.74.72-1.73,1.19-2.34h0Z" style="fill: #8fa358; stroke-width: 0px;"/>
  <path d="M98.53,66.16l.34,2.07.02.14c-.58-.09-1.26-.17-1.75-.46.56,0,1.1.08,1.63.22l-.13.12s-.19-2.14-.12-2.1h0Z" style="fill: #8fa358; stroke-width: 0px;"/>
  <path d="M97.45,67.82c1.18.25,2.55.79,3.04,2,.28,1.23.13,2.46.31,3.71,0,0,.2,2.46.2,2.46-.47-1.99-.49-4.11-.72-6.1-.46-1.14-1.71-1.7-2.83-2.08h0Z" style="fill: #8fa358; stroke-width: 0px;"/>
  <path d="M103.01,65l.13,2.09v.15c-.55-.15-1.23-.3-1.68-.63.56.05,1.09.2,1.6.38l-.14.11s.03-2.15.09-2.1h0Z" style="fill: #8fa358; stroke-width: 0px;"/>
  <path d="M104.19,68.78c-.27.93-.57,1.85-.86,2.78l-.27-.17c-.5-.35-1.22-.89-1.4-1.45.65.24,1.2.61,1.69,1.09,0,0-.35.09-.35.09.41-.74.72-1.73,1.19-2.34h0Z" style="fill: #8fa358; stroke-width: 0px;"/>
  <path d="M101.03,63.16l.34,2.07.02.14c-.58-.09-1.26-.17-1.75-.46.56,0,1.1.08,1.63.22l-.13.12s-.19-2.14-.12-2.1h0Z" style="fill: #8fa358; stroke-width: 0px;"/>
  <path d="M99.95,64.82c1.18.25,2.55.79,3.04,2,.28,1.23.13,2.46.31,3.71,0,0,.2,2.46.2,2.46-.47-1.99-.49-4.11-.72-6.1-.46-1.14-1.71-1.7-2.83-2.08h0Z" style="fill: #8fa358; stroke-width: 0px;"/>
  <path d="M96.78,70.6l.64,2.03.04.11c-.78.07-1.55.1-2.33-.02.66-.22,1.48-.17,2.2-.16,0,0-.09.12-.09.12.02,0-.52-2.12-.45-2.08h0Z" style="fill: #8fa358; stroke-width: 0px;"/>
  <path d="M99.27,73.94c-.16.99-.34,1.98-.52,2.96l-.23-.04c-.77-.18-1.75-.4-2.31-.94.86,0,1.66.21,2.43.53l-.27.15c.31-.85.5-1.93.9-2.66h0Z" style="fill: #8fa358; stroke-width: 0px;"/>
  <path d="M98.27,71.94c-.16.99-.34,1.98-.52,2.96l-.23-.04c-.77-.18-1.75-.4-2.31-.94.86,0,1.66.21,2.43.53l-.27.15c.31-.85.5-1.93.9-2.66h0Z" style="fill: #8fa358; stroke-width: 0px;"/>
  <path d="M95.32,70.18l.36,1.48.03.12c-.58-.05-1.27-.06-1.77-.35.57-.06,1.12.03,1.66.15l-.11.11s-.23-1.55-.17-1.51h0Z" style="fill: #8fa358; stroke-width: 0px;"/>
  <path d="M92.69,71.44c1.52-.11,3.46-.21,4.57,1.06.32.47.35,1.01.55,1.53.67,2.01,1.46,3.98,2.2,5.97-.9-1.92-1.73-3.88-2.43-5.89-.19-.47-.25-1.05-.51-1.46-1.04-1.19-2.89-1.15-4.37-1.2h0Z" style="fill: #8fa358; stroke-width: 0px;"/>
  <path d="M109,74c-1.33.5-2.7,1.03-4.13,1.13-2.24.68-3.52,3.09-4.87,4.87,1.23-1.93,2.5-4.43,4.85-5.11,1.42-.08,2.77-.57,4.15-.89h0Z" style="fill: #8fa358; stroke-width: 0px;"/>
  <path d="M109,68c-.5.61-1.25,1.12-2.09,1.13-2.23.62-3.57,3.11-4.91,4.87,1.21-1.9,2.53-4.5,4.89-5.12.78.01,1.46-.43,2.11-.88h0Z" style="fill: #8fa358; stroke-width: 0px;"/>
  <path d="M109.92,98.56c-.86,3.96-2.18,8.04-5,11.07-2.01,2.17-4.49,4.26-6.77,6.14-.81.62-1.6,1.25-2.42,1.85,2.87-2.85,5.89-5.56,8.65-8.5,2.75-2.92,4.16-6.84,5.55-10.56h0Z" style="fill: #8fa358; stroke-width: 0px;"/>
  <path d="M95.61,116.02c.78-.14,1.57-.25,2.35-.37l-.04.32c-.05.43-.28,1.33-.65,1.53-.08-.57,0-1.12.21-1.64l.23.28c-.67-.07-1.53.06-2.11-.12h0Z" style="fill: #8fa358; stroke-width: 0px;"/>
  <path d="M96.96,114.82c.78-.14,1.57-.25,2.35-.37l-.04.32c-.05.43-.28,1.33-.65,1.53-.08-.57,0-1.12.21-1.64l.23.28c-.67-.07-1.53.06-2.11-.12h0Z" style="fill: #8fa358; stroke-width: 0px;"/>
  <path d="M97.74,113.77c.96-.14,1.92-.25,2.88-.37l-.05.32c-.11.6-.3,1.48-.74,1.88-.05-.69.06-1.35.3-1.99,0,0,.23.28.23.28-.84-.07-1.87.07-2.63-.11h0Z" style="fill: #8fa358; stroke-width: 0px;"/>
  <path d="M97.89,113.18c1.31-.18,2.63-.33,3.95-.5l-.05.31c-.2.94-.43,2.09-.98,2.85.03-1.02.22-2.01.55-2.96l.23.27c-1.2-.02-2.58.16-3.7.02h0Z" style="fill: #8fa358; stroke-width: 0px;"/>
  <path d="M99.36,111.49c1.31-.18,2.63-.33,3.95-.5l-.05.31c-.2.94-.43,2.09-.98,2.85.03-1.02.22-2.01.55-2.96l.23.27c-1.2-.02-2.58.16-3.7.02h0Z" style="fill: #8fa358; stroke-width: 0px;"/>
  <path d="M101.22,110.24c1.22-.5,2.45-.96,3.68-1.43l-.07.4c-.23,1.08-.49,2.36-1.08,3.25.06-1.16.29-2.28.65-3.36l.28.26c-1.13.26-2.39.76-3.46.88h0Z" style="fill: #8fa358; stroke-width: 0px;"/>
  <path d="M102.69,108.55c1.24-.45,2.5-.87,3.75-1.3l-.09.4c-.29,1.07-.62,2.34-1.25,3.19.13-1.15.41-2.26.83-3.32l.27.28c-1.14.22-2.43.67-3.51.75h0Z" style="fill: #8fa358; stroke-width: 0px;"/>
  <path d="M102.93,107.56c1.38-.59,2.77-1.15,4.16-1.71l.03.31c.07,1.1.16,2.41-.16,3.43-.25-1.13-.33-2.27-.27-3.41l.29.2c-1.32.36-2.77.97-4.04,1.19h0Z" style="fill: #8fa358; stroke-width: 0px;"/>
  <path d="M104.38,106.03c1.33-.7,2.67-1.37,4-2.05l.05.31c.16,1.09.36,2.39.12,3.43-.34-1.11-.52-2.24-.55-3.38l.31.18c-1.29.47-2.68,1.19-3.93,1.52h0Z" style="fill: #8fa358; stroke-width: 0px;"/>
  <path d="M94.27,117.24l2.09-.23.15-.02c-.13.57-.24,1.25-.56,1.72.02-.56.15-1.09.31-1.62l.11.14s-2.15.07-2.1,0h0Z" style="fill: #8fa358; stroke-width: 0px;"/>
  <path d="M103.72,116.59l.4-2.06.03-.14c.51.29,1.12.6,1.48,1.04-.53-.19-1-.46-1.46-.77l.17-.07s-.57,2.07-.61,2.01h0Z" style="fill: #8fa358; stroke-width: 0px;"/>
  <path d="M103.52,112.63c.49-.84,1.01-1.65,1.52-2.48l.22.23c.4.46.96,1.16,1,1.75-.57-.4-1.01-.89-1.36-1.48,0,0,.36,0,.36,0-.58.62-1.13,1.5-1.74,1.97h0Z" style="fill: #8fa358; stroke-width: 0px;"/>
  <path d="M105.18,118.86l.18-2.09v-.15c.55.23,1.19.48,1.59.88-.54-.13-1.05-.36-1.53-.62l.16-.09s-.35,2.12-.41,2.06h0Z" style="fill: #8fa358; stroke-width: 0px;"/>
  <path d="M106.64,117.52c-1.08-.54-2.27-1.4-2.44-2.7.04-1.26.49-2.42.63-3.67,0,0,.42-2.44.42-2.44-.04,2.04-.55,4.1-.82,6.09.16,1.22,1.23,2.07,2.22,2.72h0Z" style="fill: #8fa358; stroke-width: 0px;"/>
  <path d="M100.55,118.87l.4-2.06.03-.14c.51.29,1.12.6,1.48,1.04-.53-.19-1-.46-1.46-.77l.17-.07s-.57,2.07-.61,2.01h0Z" style="fill: #8fa358; stroke-width: 0px;"/>
  <path d="M100.35,114.91c.49-.84,1.01-1.65,1.52-2.48l.22.23c.4.46.96,1.16,1,1.75-.57-.4-1.01-.89-1.36-1.48,0,0,.36,0,.36,0-.58.62-1.13,1.5-1.74,1.97h0Z" style="fill: #8fa358; stroke-width: 0px;"/>
  <path d="M102.01,121.15l.18-2.09v-.15c.55.23,1.19.48,1.59.88-.54-.13-1.05-.36-1.53-.62l.16-.09s-.35,2.12-.41,2.06h0Z" style="fill: #8fa358; stroke-width: 0px;"/>
  <path d="M103.47,119.8c-1.08-.54-2.27-1.4-2.44-2.7.04-1.26.49-2.42.63-3.67,0,0,.42-2.44.42-2.44-.04,2.04-.55,4.1-.82,6.09.16,1.22,1.23,2.07,2.22,2.72h0Z" style="fill: #8fa358; stroke-width: 0px;"/>
  <path d="M107.99,115l-.12-2.13v-.12c.76.12,1.52.29,2.25.6v.02c-.75-.03-1.47-.2-2.17-.41l.12-.1s-.02,2.18-.08,2.13h0Z" style="fill: #8fa358; stroke-width: 0px;"/>
  <path d="M106.4,111.14c.4-.92.82-1.83,1.24-2.74l.21.1c.7.36,1.59.82,2,1.49-.83-.22-1.56-.62-2.22-1.12l.3-.08c-.51.75-.96,1.75-1.53,2.36h0Z" style="fill: #8fa358; stroke-width: 0px;"/>
  <path d="M106.87,113.33c.4-.92.82-1.83,1.24-2.74l.21.1c.7.36,1.59.82,2,1.49-.83-.22-1.56-.62-2.22-1.12l.3-.08c-.51.75-.96,1.75-1.53,2.36h0Z" style="fill: #8fa358; stroke-width: 0px;"/>
  <path d="M109.29,115.77l.02-1.52v-.13c.55.2,1.22.38,1.63.78-.57-.08-1.08-.31-1.57-.56l.13-.08s-.16,1.56-.22,1.51h0Z" style="fill: #8fa358; stroke-width: 0px;"/>
  <path d="M112.16,115.2c-1.5-.27-3.4-.65-4.16-2.17-.19-.54-.08-1.07-.15-1.61-.15-2.11-.42-4.22-.64-6.33.39,2.09.71,4.19.88,6.31.07.5-.02,1.07.13,1.54.71,1.41,2.51,1.83,3.94,2.26h0Z" style="fill: #8fa358; stroke-width: 0px;"/>
  <path d="M97,108.66c1.41-.16,2.87-.33,4.28-.07,2.33-.1,4.18-2.11,5.93-3.5-1.67,1.56-3.52,3.67-5.97,3.74-1.4-.27-2.82-.14-4.24-.18h0Z" style="fill: #8fa358; stroke-width: 0px;"/>
  <path d="M95.5,114.47c.64-.46,1.49-.77,2.31-.57,2.31-.04,4.23-2.12,5.97-3.49-1.65,1.54-3.57,3.72-6.01,3.74-.75-.21-1.52.05-2.27.33h0Z" style="fill: #8fa358; stroke-width: 0px;"/>
  <path d="M93.52,88.93c-1.14,3.75-2.78,7.43-5.19,10.56-4.36,4.92-10.16,8.32-15.65,11.82,4.77-3.81,11.03-7.76,15.11-12.25,2.41-3.05,4.17-6.56,5.72-10.14h0Z" style="fill: #8fa358; stroke-width: 0px;"/>
  <path d="M72.61,109.37c1.08-.11,2.17-.18,3.26-.28l-.08.34c-.18.62-.42,1.43-.89,1.83.02-.69.17-1.35.44-1.98l.23.31c-.95-.1-2.09,0-2.95-.22h0Z" style="fill: #8fa358; stroke-width: 0px;"/>
  <path d="M74.55,107.98c1.08-.11,2.17-.18,3.26-.28l-.08.34c-.18.62-.42,1.43-.89,1.83.02-.69.17-1.35.44-1.98l.23.31c-.95-.1-2.09,0-2.95-.22h0Z" style="fill: #8fa358; stroke-width: 0px;"/>
  <path d="M75.7,106.74c1.33-.11,2.67-.17,4-.26l-.09.34c-.24.75-.51,1.7-1.03,2.24.07-.83.26-1.63.58-2.39,0,0,.23.31.23.31-1.2-.11-2.58-.02-3.68-.24h0Z" style="fill: #8fa358; stroke-width: 0px;"/>
  <path d="M75.95,106.04l5.18-.34.32-.02c-.2.7-.4,1.4-.68,2.07-.25.53-.45,1.28-.82,1.67.19-1.22.52-2.41.98-3.56,0,0,.23.31.23.31-.01-.03-5.29,0-5.19-.13h0Z" style="fill: #8fa358; stroke-width: 0px;"/>
  <path d="M78.08,104.07l5.18-.34.32-.02c-.2.7-.4,1.4-.68,2.07-.25.53-.45,1.28-.82,1.67.19-1.22.52-2.41.98-3.56,0,0,.23.31.23.31-.01-.03-5.29,0-5.19-.13h0Z" style="fill: #8fa358; stroke-width: 0px;"/>
  <path d="M80.76,102.65c1.7-.51,3.42-.98,5.13-1.46l-.1.39c-.4,1.3-.83,2.81-1.57,3.9.23-1.4.63-2.74,1.15-4.04l.26.28c-1.6.28-3.34.79-4.87.93h0Z" style="fill: #8fa358; stroke-width: 0px;"/>
  <path d="M82.9,100.68c1.74-.45,3.48-.87,5.22-1.3-.48,1.47-1.08,2.89-1.89,4.23,0,0-.05-.02-.05-.02.32-1.39.8-2.71,1.4-3.98l.25.3c-1.62.23-3.39.68-4.93.77h0Z" style="fill: #8fa358; stroke-width: 0px;"/>
  <path d="M83.29,99.48l5.58-1.72.28-.09c.07,1.49,0,2.99-.24,4.47h-.05c-.19-1.38-.24-2.77-.16-4.16l.29.23s-5.76,1.41-5.7,1.27h0Z" style="fill: #8fa358; stroke-width: 0px;"/>
  <path d="M85.39,97.71l5.4-2.11.27-.1c.1.79.2,1.58.21,2.38-.02.66.11,1.51-.08,2.1-.33-1.36-.51-2.74-.56-4.13,0,0,.31.2.31.2-.02-.03-5.6,1.82-5.55,1.67h0Z" style="fill: #8fa358; stroke-width: 0px;"/>
  <path d="M70.67,110.78l2.95-.15h.16c-.21.69-.45,1.38-.79,2.04.03-.63.31-1.33.52-1.95,0,0,.11.16.11.16,0-.02-3-.03-2.95-.09h0Z" style="fill: #8fa358; stroke-width: 0px;"/>
  <path d="M83.99,110.48l.7-2.48.03-.12c.68.37,1.47.75,2,1.28-.71-.27-1.36-.63-1.98-1.03l.15-.06s-.86,2.48-.9,2.41h0Z" style="fill: #8fa358; stroke-width: 0px;"/>
  <path d="M83.89,105.67c.74-.95,1.51-1.88,2.26-2.82l.19.2c.55.62,1.23,1.39,1.42,2.16-.7-.53-1.28-1.16-1.77-1.88,0,0,.34.01.34.01-.81.73-1.61,1.74-2.44,2.33h0Z" style="fill: #8fa358; stroke-width: 0px;"/>
  <path d="M85.93,113.32l.4-2.52.02-.13c.75.29,1.47.62,2.14,1.07v.02c-.75-.2-1.43-.51-2.1-.85l.15-.08s-.56,2.54-.61,2.48h0Z" style="fill: #8fa358; stroke-width: 0px;"/>
  <path d="M88.04,111.77c-1.34-.67-2.9-1.62-3.24-3.2-.05-1.49.79-3.03,1-4.54,0,0,.68-3.01.68-3.01-.26,2.05-.64,4.08-1.21,6.07-.16.5-.34.96-.25,1.45.33,1.51,1.77,2.47,3.02,3.24h0Z" style="fill: #8fa358; stroke-width: 0px;"/>
  <path d="M79.43,113.08l.7-2.48.03-.12c.68.37,1.47.75,2,1.28-.71-.27-1.36-.63-1.98-1.03l.15-.06s-.86,2.48-.9,2.41h0Z" style="fill: #8fa358; stroke-width: 0px;"/>
  <path d="M79.33,108.27c.74-.95,1.51-1.88,2.26-2.82l.19.2c.55.62,1.23,1.39,1.42,2.16-.7-.53-1.28-1.16-1.77-1.88,0,0,.34.01.34.01-.81.73-1.61,1.74-2.44,2.33h0Z" style="fill: #8fa358; stroke-width: 0px;"/>
  <path d="M81.37,115.92l.4-2.52.02-.13c.75.29,1.47.62,2.14,1.07v.02c-.75-.2-1.43-.51-2.1-.85l.15-.08s-.56,2.54-.61,2.48h0Z" style="fill: #8fa358; stroke-width: 0px;"/>
  <path d="M83.48,114.37c-1.34-.67-2.9-1.62-3.24-3.2-.05-1.49.79-3.03,1-4.54,0,0,.68-3.01.68-3.01-.26,2.05-.64,4.08-1.21,6.07-.16.5-.34.96-.25,1.45.33,1.51,1.77,2.47,3.02,3.24h0Z" style="fill: #8fa358; stroke-width: 0px;"/>
  <path d="M90.06,108.78l-.03-2.59v-.11c1.02.22,2.16.39,3.08.84-1.03-.09-2.02-.36-3.01-.64l.12-.09s-.1,2.64-.16,2.59h0Z" style="fill: #8fa358; stroke-width: 0px;"/>
  <path d="M88.01,104.02c.63-1.07,1.27-2.13,1.92-3.18,1.08.52,2.13,1.09,3.01,1.92-.5,0-1.1-.41-1.6-.6-.5-.25-.97-.57-1.44-.87l.27-.06c-.72.89-1.4,2.05-2.16,2.8h0Z" style="fill: #8fa358; stroke-width: 0px;"/>
  <path d="M88.57,106.69c.63-1.07,1.27-2.13,1.92-3.18.56.29,1.14.54,1.66.89.42.33,1.08.63,1.33,1.07-1.1-.33-2.07-.88-3.01-1.51,0,0,.27-.06.27-.06-.72.89-1.4,2.05-2.16,2.8h0Z" style="fill: #8fa358; stroke-width: 0px;"/>
  <path d="M91.86,109.79l.14-1.84v-.11c.75.28,1.62.51,2.22,1-.77-.15-1.47-.46-2.16-.79l.13-.07s-.27,1.88-.32,1.82h0Z" style="fill: #8fa358; stroke-width: 0px;"/>
  <path d="M95.91,109.25c-1.95-.41-5.5-1.1-5.82-3.47.03-1.67-.11-3.37-.27-5.04,0,0-.41-4.02-.41-4.02.47,2.99.91,6.02.92,9.06.02,1.02.98,1.66,1.8,2.12,1.18.62,2.48,1.03,3.78,1.36h0Z" style="fill: #8fa358; stroke-width: 0px;"/>
  <path d="M74.89,100.5c1.96-.09,3.93-.19,5.88.14,3.18.22,6.09-2.28,8.64-3.93-2.03,1.63-4.21,3.16-6.71,4-.63.18-1.31.33-1.99.18-1.9-.39-3.88-.29-5.82-.38h0Z" style="fill: #8fa358; stroke-width: 0px;"/>
  <path d="M72.52,107.48c.95-.5,2.09-.82,3.19-.56,1.02.2,2.1-.2,3.07-.6,1.97-.88,3.8-2.07,5.55-3.33-1.68,1.36-3.47,2.63-5.46,3.54-.99.41-2.07.85-3.21.64-1.03-.27-2.11,0-3.14.32,0,0,1.03-.32,0,0Z" style="fill: #8fa358; stroke-width: 0px;"/>
  <path d="M131.39,113.27c-3.66-4.61-7.07-9.79-8.03-15.72-.85-5.87-1.09-11.78-1.06-17.7.49,5.19.97,12.52,1.8,17.58.86,5.82,4.17,10.95,7.29,15.84h0Z" style="fill: #8fa358; stroke-width: 0px;"/>
  <path d="M124.24,81.15c-.56.97-1.15,1.91-1.72,2.87-.34-.37-.69-.75-.95-1.18-.14-.27-.58-.85-.53-1.11.66.49,1.19,1.09,1.62,1.78h-.36c.65-.74,1.25-1.76,1.94-2.36h0Z" style="fill: #8fa358; stroke-width: 0px;"/>
  <path d="M124.4,83.78c-.56.97-1.15,1.91-1.72,2.87-.34-.37-.69-.75-.95-1.18-.14-.27-.58-.85-.53-1.11.66.49,1.19,1.09,1.62,1.78,0,0-.36,0-.36,0,.65-.75,1.25-1.77,1.94-2.37h0Z" style="fill: #8fa358; stroke-width: 0px;"/>
  <path d="M124.91,85.62c-.71,1.17-1.46,2.32-2.19,3.48l-.21-.24c-.6-.73-1.35-1.59-1.58-2.46.76.63,1.4,1.37,1.94,2.19h-.36c.8-.94,1.56-2.16,2.4-2.97h0Z" style="fill: #8fa358; stroke-width: 0px;"/>
  <path d="M125.44,86.33l-2.84,4.57-.15.25-.2-.23c-.9-1.1-1.95-2.35-2.48-3.61,1.07,1.02,2,2.14,2.82,3.34h-.36s3.16-4.46,3.21-4.31h0Z" style="fill: #8fa358; stroke-width: 0px;"/>
  <path d="M126.06,89.53l-2.84,4.57-.15.25-.2-.23c-.9-1.1-1.95-2.35-2.48-3.61,1.07,1.02,2,2.14,2.82,3.34h-.36s3.16-4.46,3.21-4.31h0Z" style="fill: #8fa358; stroke-width: 0px;"/>
  <path d="M125.82,92.79c-.55,1.78-1.13,3.54-1.7,5.31l-.26-.31c-1.02-1.26-2.2-2.67-2.85-4.1,1.19,1.18,2.25,2.46,3.2,3.83l-.38.06c.68-1.56,1.24-3.37,2-4.8h0Z" style="fill: #8fa358; stroke-width: 0px;"/>
  <path d="M126.43,95.99c-.62,1.76-1.28,3.52-1.92,5.27l-.25-.33c-.95-1.32-2.05-2.78-2.63-4.24,1.13,1.24,2.11,2.58,2.99,3.99l-.38.04c.74-1.54,1.38-3.33,2.19-4.74h0Z" style="fill: #8fa358; stroke-width: 0px;"/>
  <path d="M127.36,97.17l-1.75,5.88-.08.28c-1.47-.98-2.86-2.07-4.13-3.31,0,0,.03-.04.03-.04,1.46.82,2.83,1.77,4.11,2.83l-.34.11s2.08-5.87,2.16-5.74h0Z" style="fill: #8fa358; stroke-width: 0px;"/>
  <path d="M127.8,100.19l-1.26,6-.06.29c-1.55-.85-3.02-1.82-4.39-2.96,0,0,.03-.04.03-.04,1.53.69,2.96,1.53,4.33,2.48l-.33.13s1.59-6.02,1.68-5.9h0Z" style="fill: #8fa358; stroke-width: 0px;"/>
  <path d="M124.05,78.53l-1.65,2.57-.08.12c-.55-.65-1.06-1.33-1.48-2.08,0,0,.02-.02.02-.02.58.56,1.08,1.19,1.54,1.84h-.18s1.82-2.51,1.84-2.44h0Z" style="fill: #8fa358; stroke-width: 0px;"/>
  <path d="M116.3,89.95l1.97,2.34.1.11c-.78.33-1.58.63-2.42.81v-.02c.7-.39,1.44-.68,2.2-.93l-.05.17s-1.87-2.48-1.8-2.47h0Z" style="fill: #8fa358; stroke-width: 0px;"/>
  <path d="M121.01,93.29c.46,1.29.89,2.59,1.34,3.89h-.31c-.94.03-2.08.06-2.91-.3.97-.2,1.94-.23,2.92-.14l-.22.29c-.23-1.22-.71-2.58-.81-3.74h0Z" style="fill: #8fa358; stroke-width: 0px;"/>
  <path d="M112.38,89.58l2.2,2.12.11.1c-.75.41-1.51.78-2.33,1.05v-.02c.65-.46,1.36-.83,2.09-1.15l-.03.18s-2.12-2.27-2.04-2.28h0Z" style="fill: #8fa358; stroke-width: 0px;"/>
  <path d="M112.61,92.46c1.59-.72,3.63-1.29,5.26-.33,1.39,1.17,2.33,2.74,3.64,4.01,0,0,2.45,2.64,2.45,2.64-2.27-1.93-4.16-4.36-6.21-6.46-1.56-.92-3.52-.44-5.14.14h0Z" style="fill: #8fa358; stroke-width: 0px;"/>
  <path d="M116.53,84.27l1.97,2.34.1.11c-.78.33-1.58.63-2.42.81v-.02c.7-.39,1.44-.68,2.2-.93l-.05.17s-1.87-2.48-1.8-2.47h0Z" style="fill: #8fa358; stroke-width: 0px;"/>
  <path d="M121.24,87.6c.46,1.29.89,2.59,1.34,3.89h-.31c-.94.03-2.08.06-2.91-.3.97-.2,1.94-.23,2.92-.14,0,0-.22.29-.22.29-.23-1.22-.71-2.58-.81-3.74h0Z" style="fill: #8fa358; stroke-width: 0px;"/>
  <path d="M112.61,83.89l2.2,2.12.11.1c-.75.41-1.51.78-2.33,1.05v-.02c.65-.46,1.36-.83,2.09-1.15l-.03.18s-2.12-2.27-2.04-2.28h0Z" style="fill: #8fa358; stroke-width: 0px;"/>
  <path d="M112.84,86.77c1.59-.72,3.63-1.29,5.26-.33,1.39,1.17,2.33,2.74,3.64,4.01,0,0,2.45,2.64,2.45,2.64-2.27-1.93-4.16-4.36-6.21-6.46-1.56-.92-3.52-.44-5.14.14h0Z" style="fill: #8fa358; stroke-width: 0px;"/>
  <path d="M114.28,96.27l2.52,1.81.1.07c-.83.71-1.72,1.52-2.67,2.01.75-.78,1.58-1.45,2.45-2.08v.16s-2.48-1.95-2.4-1.97h0Z" style="fill: #8fa358; stroke-width: 0px;"/>
  <path d="M120.12,97.93c.65,1.28,1.28,2.56,1.9,3.85l-.21.1c-1.08.46-2.33,1.02-3.46,1.06,1.04-.65,2.16-1.11,3.31-1.46l-.12.28c-.44-1.26-1.13-2.62-1.42-3.83h0Z" style="fill: #8fa358; stroke-width: 0px;"/>
  <path d="M117.19,96.5c.65,1.28,1.28,2.56,1.9,3.85l-.21.1c-1.08.46-2.33,1.02-3.46,1.06,1.04-.65,2.16-1.11,3.31-1.46l-.12.28c-.44-1.26-1.13-2.62-1.42-3.83h0Z" style="fill: #8fa358; stroke-width: 0px;"/>
  <path d="M112.22,97.08l1.7,1.42.1.08c-.72.43-1.5.97-2.29,1.17.64-.52,1.35-.9,2.08-1.26l-.02.16s-1.64-1.55-1.57-1.57h0Z" style="fill: #8fa358; stroke-width: 0px;"/>
  <path d="M110.3,100.87c1.68-1.45,3.83-3.23,6.21-2.76,2.02,1.12,3.82,2.65,5.87,3.77,0,0,3.97,2.4,3.97,2.4-3.42-1.76-6.68-3.89-9.9-5.96-2.29-.48-4.39,1.26-6.14,2.54h0Z" style="fill: #8fa358; stroke-width: 0px;"/>
  <path d="M131.44,89.37c-1.12,1.73-2.27,3.54-3.81,4.93-.47.46-.74,1.11-.93,1.76-.68,2.67-.52,5.5-.36,8.23-.33-2.75-.5-5.57.15-8.29.19-.67.44-1.36.97-1.88,1.59-1.34,2.7-3.13,3.98-4.75h0Z" style="fill: #8fa358; stroke-width: 0px;"/>
  <path d="M126.12,82.43c-.09,1.14-.5,2.37-1.46,3.12-.8.77-1.05,1.99-1.23,3.1-.32,2.28-.26,4.62-.09,6.93-.29-2.3-.43-4.64-.13-6.96.18-1.13.4-2.37,1.28-3.25.92-.69,1.32-1.83,1.62-2.94h0Z" style="fill: #8fa358; stroke-width: 0px;"/>
  <path d="M161.51,170.27c0-8.99.69-18.46,5.07-26.53,3.3-5.96,7.09-11.6,11.02-17.16l4.03-5.47c-4.92,7.58-10.05,15.06-14.38,22.98-4.38,7.92-5.12,17.28-5.73,26.17h0Z" style="fill: #8fa358; stroke-width: 0px;"/>
  <path d="M182.74,124.49c-1.55.59-3.11,1.16-4.67,1.73l-.02-.31c-.04-1.19-.11-2.59.24-3.68.23,1.22.28,2.44.21,3.67l-.29-.21c1.49-.36,3.1-.98,4.53-1.2h0Z" style="fill: #8fa358; stroke-width: 0px;"/>
  <path d="M180.5,127.84c-1.55.59-3.11,1.16-4.67,1.73l-.02-.31c-.04-1.19-.11-2.59.24-3.68.23,1.22.28,2.44.21,3.67,0,0-.29-.21-.29-.21,1.49-.36,3.1-.98,4.53-1.2h0Z" style="fill: #8fa358; stroke-width: 0px;"/>
  <path d="M179.39,130.56l-5.52,1.94-.28.1c-.09-1.6-.06-3.19.17-4.78,0,0,.05,0,.05,0,.22,1.48.28,2.97.21,4.47,0,0-.29-.21-.29-.21.02.03,5.71-1.66,5.66-1.51h0Z" style="fill: #8fa358; stroke-width: 0px;"/>
  <path d="M179.39,131.92l-7.75,2.81-.28.1v-.31c-.05-2.2-.14-4.6.21-6.7.23,2.23.29,4.47.21,6.7l-.29-.21s7.94-2.55,7.89-2.4h0Z" style="fill: #8fa358; stroke-width: 0px;"/>
  <path d="M177.15,136.39l-7.75,2.81-.28.1v-.31c-.05-2.2-.14-4.6.21-6.7.23,2.23.29,4.47.21,6.7l-.29-.21s7.94-2.55,7.89-2.4h0Z" style="fill: #8fa358; stroke-width: 0px;"/>
  <path d="M173.81,140.13l-6.6,4.45-.32.22c-.11-2.68-.07-5.36.16-8.05h.05c.23,2.55.29,5.09.22,7.64l-.34-.18s6.85-4.24,6.83-4.08h0Z" style="fill: #8fa358; stroke-width: 0px;"/>
  <path d="M171.58,144.6l-6.8,4.22-.34.21c.04-2.69.21-5.36.59-8.03h.05c.1,2.56.02,5.1-.19,7.65l-.33-.2s7.04-4,7.02-3.84h0Z" style="fill: #8fa358; stroke-width: 0px;"/>
  <path d="M171.61,146.89l-7.67,5.44-.24.17c-.81-2.52-1.49-5.09-1.98-7.7,1.01,2.23,1.66,4.86,2.31,7.29,0,0-.33-.12-.33-.12.03.03,7.92-5.24,7.91-5.08h0Z" style="fill: #8fa358; stroke-width: 0px;"/>
  <path d="M169.33,150.99l-7.19,6.05-.23.19-.12-.28c-.91-2.34-1.94-4.86-2.44-7.25,1.1,2.31,2.04,4.68,2.86,7.09l-.34-.09s7.46-5.87,7.47-5.71h0Z" style="fill: #8fa358; stroke-width: 0px;"/>
  <path d="M184.96,121.13l-4.43,1.53-.14.05c-.04-1.28-.03-2.55.08-3.83h.02c.12,1.22.14,2.45.11,3.67l-.15-.11s4.52-1.4,4.5-1.32h0Z" style="fill: #8fa358; stroke-width: 0px;"/>
  <path d="M164.87,127.82l.17,4.68v.15c-1.2-.36-2.52-.7-3.62-1.23,1.21.25,2.38.59,3.54.97l-.14.11s-.01-4.73.05-4.69h0Z" style="fill: #8fa358; stroke-width: 0px;"/>
  <path d="M167.49,136.26l-1.96,5.52-.1.28c-1.3-.93-2.52-1.96-3.61-3.14l.03-.04c1.3.76,2.49,1.65,3.61,2.64,0,0-.35.09-.35.09.03,0,2.3-5.49,2.38-5.35h0Z" style="fill: #8fa358; stroke-width: 0px;"/>
  <path d="M160.45,123.7l.64,4.64.02.15c-1.26-.21-2.51-.47-3.74-.83v-.02c1.23.12,2.43.34,3.63.61l-.13.12s-.49-4.71-.42-4.67h0Z" style="fill: #8fa358; stroke-width: 0px;"/>
  <path d="M158.05,127.42c2.6.63,5.56,1.88,6.65,4.52.37.9.25,1.86.31,2.76.05,1.83.21,3.67.38,5.5l.58,5.49c-.59-3.64-1.02-7.3-1.21-10.98.51-4.25-3.15-6.26-6.71-7.29h0Z" style="fill: #8fa358; stroke-width: 0px;"/>
  <path d="M170.46,121.11l.17,4.68v.15c-1.2-.36-2.52-.7-3.62-1.23,1.21.25,2.38.59,3.54.97l-.14.11s-.01-4.73.05-4.69h0Z" style="fill: #8fa358; stroke-width: 0px;"/>
  <path d="M173.08,129.56l-1.96,5.52-.1.28c-1.3-.93-2.52-1.96-3.61-3.14l.03-.04c1.3.76,2.49,1.65,3.61,2.64l-.35.09s2.3-5.49,2.38-5.35h0Z" style="fill: #8fa358; stroke-width: 0px;"/>
  <path d="M166.04,117l.64,4.64.02.15c-1.26-.21-2.51-.47-3.74-.83,0,0,0-.02,0-.02,1.22.12,2.43.34,3.63.61l-.13.12s-.49-4.71-.42-4.67h0Z" style="fill: #8fa358; stroke-width: 0px;"/>
  <path d="M163.64,120.72c2.6.63,5.56,1.88,6.65,4.52.37.9.25,1.86.31,2.76.05,1.83.21,3.67.38,5.5l.58,5.49c-.59-3.64-1.02-7.3-1.21-10.98.51-4.25-3.15-6.26-6.71-7.29h0Z" style="fill: #8fa358; stroke-width: 0px;"/>
  <path d="M156.53,133.63l1.34,4.57c.04.15.07.11-.09.12-1.62.06-3.34.17-4.92,0,1.64-.17,3.28-.21,4.92-.21l-.09.12s-1.22-4.65-1.15-4.62h0Z" style="fill: #8fa358; stroke-width: 0px;"/>
  <path d="M162.09,141.08l-1.31,6.12-.04.21c-1.82-.49-3.86-.99-5.46-1.88,1.84.3,3.62.8,5.36,1.42l-.27.15s1.62-6.14,1.72-6.02h0Z" style="fill: #8fa358; stroke-width: 0px;"/>
  <path d="M159.85,136.61l-1.31,6.12-.04.21c-1.82-.49-3.86-.99-5.46-1.88,1.84.3,3.62.8,5.36,1.42l-.27.15s1.62-6.14,1.72-6.02h0Z" style="fill: #8fa358; stroke-width: 0px;"/>
  <path d="M153.27,132.68l.7,3.32.03.13c-1.26-.16-2.63-.27-3.81-.65,1.25.04,2.48.23,3.7.45l-.11.11s-.57-3.39-.51-3.36h0Z" style="fill: #8fa358; stroke-width: 0px;"/>
  <path d="M147.4,135.51c3.38-.15,7.64-.31,10.08,2.47.69,1.02.76,2.25,1.2,3.37.74,2.25,1.58,4.47,2.43,6.68l2.63,6.61c-2.13-4.89-4.23-9.81-5.81-14.91-.9-4.34-7.01-4.19-10.53-4.21h0Z" style="fill: #8fa358; stroke-width: 0px;"/>
  <path d="M183.85,141.22c-3,1.01-6.06,2.14-9.24,2.38-1.02.12-1.96.68-2.8,1.29-3.32,2.63-5.76,6.22-8.07,9.73,2.19-3.62,4.62-7.21,7.94-9.91.85-.63,1.8-1.23,2.9-1.37,3.18-.17,6.21-1.31,9.26-2.13h0Z" style="fill: #8fa358; stroke-width: 0px;"/>
  <path d="M183.85,127.82c-1.22,1.27-2.87,2.35-4.69,2.37-1.75.19-3.18,1.48-4.43,2.64-2.53,2.49-4.6,5.42-6.52,8.39,1.81-3.06,3.87-6,6.38-8.53,1.28-1.21,2.71-2.53,4.55-2.74,1.79.04,3.35-1.02,4.71-2.13h0Z" style="fill: #8fa358; stroke-width: 0px;"/>
  <path d="M146.85,171.27c-.6-8.89-1.35-18.25-5.72-26.17-4.33-7.93-9.47-15.4-14.38-22.98,0,0,4.03,5.47,4.03,5.47,3.92,5.56,7.71,11.19,11.02,17.16,4.37,8.07,5.07,17.53,5.07,26.53h0Z" style="fill: #8fa358; stroke-width: 0px;"/>
  <path d="M125.63,125.44c1.51.4,3.01.83,4.52,1.25l-.29.21c-.07-1.23-.02-2.46.21-3.67.35,1.09.27,2.48.24,3.68,0,0-.02.31-.02.31-1.51-.61-3.27-1.09-4.66-1.78h0Z" style="fill: #8fa358; stroke-width: 0px;"/>
  <path d="M127.88,128.79c1.51.4,3.01.83,4.52,1.25l-.29.21c-.07-1.23-.02-2.46.21-3.67.35,1.09.27,2.48.24,3.68,0,0-.02.31-.02.31-1.51-.61-3.27-1.09-4.66-1.78h0Z" style="fill: #8fa358; stroke-width: 0px;"/>
  <path d="M128.98,131.51l5.64,1.56-.29.21c-.02-1.46-.09-3.12.26-4.47.23,1.59.27,3.18.17,4.78l-.28-.1s-5.64-1.9-5.51-1.99h0Z" style="fill: #8fa358; stroke-width: 0px;"/>
  <path d="M128.99,132.87l7.88,2.44-.29.21c-.03-2.2-.1-4.6.26-6.7.23,2.34.27,4.67.16,7.01l-.28-.1s-7.87-2.76-7.74-2.86h0Z" style="fill: #8fa358; stroke-width: 0px;"/>
  <path d="M131.22,137.34l7.88,2.44-.29.21c-.03-2.2-.1-4.6.26-6.7.23,2.34.27,4.67.16,7.01l-.28-.1s-7.87-2.76-7.74-2.86h0Z" style="fill: #8fa358; stroke-width: 0px;"/>
  <path d="M134.58,141.09l6.81,4.13-.34.18c-.08-2.55-.01-5.09.22-7.64h.05c.23,2.68.26,5.36.16,8.05l-.32-.22s-6.72-4.44-6.57-4.5h0Z" style="fill: #8fa358; stroke-width: 0px;"/>
  <path d="M136.81,145.55l7,3.88-.33.2c-.16-2.51-.38-5.21-.14-7.65.37,2.67.55,5.35.59,8.03l-.34-.21s-6.93-4.19-6.78-4.26h0Z" style="fill: #8fa358; stroke-width: 0px;"/>
  <path d="M136.78,147.85l7.88,5.12-.33.12c.61-2.47,1.36-4.91,2.26-7.3-.31,2.42-1.12,5.01-1.84,7.42,0,0-.09.29-.09.29l-.24-.17s-7.79-5.43-7.64-5.48h0Z" style="fill: #8fa358; stroke-width: 0px;"/>
  <path d="M139.07,151.95l7.44,5.75-.34.09c.81-2.42,1.76-4.78,2.86-7.09l.05.02c-.71,2.56-1.59,5.06-2.61,7.51l-.23-.19s-7.32-6.05-7.16-6.09h0Z" style="fill: #8fa358; stroke-width: 0px;"/>
  <path d="M123.41,122.1l4.49,1.35-.15.11c0-1.21-.05-2.52.13-3.67.12,1.28.12,2.55.08,3.83l-.14-.05s-4.49-1.51-4.42-1.56h0Z" style="fill: #8fa358; stroke-width: 0px;"/>
  <path d="M143.51,128.82l.03,4.69-.14-.11c1.16-.38,2.34-.73,3.54-.97v.02c-1.18.49-2.4.87-3.63,1.2v-.15s.13-4.73.2-4.68h0Z" style="fill: #8fa358; stroke-width: 0px;"/>
  <path d="M140.91,137.24l2.33,5.37-.35-.09c1.12-.93,2.37-2.03,3.64-2.6-1.09,1.18-2.31,2.21-3.61,3.14l-.1-.28s-2.07-5.58-1.91-5.54h0Z" style="fill: #8fa358; stroke-width: 0px;"/>
  <path d="M147.94,124.7l-.45,4.66-.13-.12c1.2-.26,2.4-.49,3.63-.61-1.15.42-2.5.62-3.74.85,0,0,.02-.15.02-.15.02,0,.61-4.69.67-4.64h0Z" style="fill: #8fa358; stroke-width: 0px;"/>
  <path d="M150.31,128.42c-3.56,1.03-7.22,3.04-6.71,7.29-.19,3.68-.62,7.34-1.21,10.98,0,0,.58-5.49.58-5.49.17-1.83.32-3.66.38-5.5.07-.9-.05-1.87.31-2.76,1.09-2.65,4.05-3.89,6.65-4.52h0Z" style="fill: #8fa358; stroke-width: 0px;"/>
  <path d="M137.93,122.12l.03,4.69-.14-.11c1.16-.38,2.34-.73,3.54-.97v.02c-1.18.49-2.4.87-3.63,1.2v-.15s.13-4.73.2-4.68h0Z" style="fill: #8fa358; stroke-width: 0px;"/>
  <path d="M135.33,130.54l2.33,5.37-.35-.09c1.12-.93,2.37-2.03,3.64-2.6-1.09,1.18-2.31,2.21-3.61,3.14l-.1-.28s-2.07-5.58-1.91-5.54h0Z" style="fill: #8fa358; stroke-width: 0px;"/>
  <path d="M142.35,118l-.45,4.66-.13-.12c1.2-.26,2.4-.49,3.63-.61-1.15.42-2.5.62-3.74.85,0,0,.02-.15.02-.15.02,0,.61-4.69.67-4.64h0Z" style="fill: #8fa358; stroke-width: 0px;"/>
  <path d="M144.72,121.72c-3.56,1.03-7.22,3.04-6.71,7.29-.19,3.68-.62,7.34-1.21,10.98,0,0,.58-5.49.58-5.49.17-1.83.32-3.66.38-5.5.07-.9-.05-1.87.31-2.76,1.09-2.65,4.05-3.89,6.65-4.52h0Z" style="fill: #8fa358; stroke-width: 0px;"/>
  <path d="M151.86,134.64l-1.17,4.62-.09-.12c1.62.02,3.35-.01,4.92.23-1.69.1-3.37.05-5.05-.04l.03-.12s1.31-4.63,1.36-4.56h0Z" style="fill: #8fa358; stroke-width: 0px;"/>
  <path d="M146.32,142.07l1.67,6.03-.27-.15c1.72-.56,3.63-1.23,5.38-1.37-1.77.79-3.61,1.37-5.48,1.83l-.04-.21s-1.41-6.2-1.26-6.14h0Z" style="fill: #8fa358; stroke-width: 0px;"/>
  <path d="M148.56,137.6l1.67,6.03-.27-.15c1.72-.56,3.63-1.23,5.38-1.37-1.77.79-3.61,1.37-5.48,1.83l-.04-.21s-1.41-6.2-1.26-6.14h0Z" style="fill: #8fa358; stroke-width: 0px;"/>
  <path d="M155.12,133.69l-.53,3.35-.11-.11c1.22-.22,2.45-.41,3.7-.45v.02c-1.25.33-2.53.49-3.81.63l.03-.13s.66-3.38.72-3.32h0Z" style="fill: #8fa358; stroke-width: 0px;"/>
  <path d="M160.96,136.51c-3.51,0-9.64-.14-10.53,4.21-1.58,5.1-3.68,10.02-5.81,14.91,0,0,2.62-6.61,2.62-6.61.86-2.21,1.7-4.43,2.43-6.68.44-1.12.51-2.35,1.2-3.37,2.45-2.78,6.7-2.61,10.08-2.47h0Z" style="fill: #8fa358; stroke-width: 0px;"/>
  <path d="M124.51,142.22c3.06.82,6.08,1.96,9.26,2.13,1.11.13,2.05.73,2.9,1.37,3.32,2.69,5.75,6.28,7.94,9.91-2.31-3.51-4.75-7.1-8.07-9.73-.84-.62-1.78-1.17-2.8-1.29-3.18-.24-6.24-1.37-9.24-2.38h0Z" style="fill: #8fa358; stroke-width: 0px;"/>
  <path d="M124.51,128.82c1.36,1.1,2.91,2.17,4.71,2.13,1.84.21,3.27,1.53,4.55,2.74,2.52,2.53,4.57,5.48,6.38,8.53-1.92-2.98-3.99-5.9-6.52-8.39-1.25-1.16-2.69-2.44-4.43-2.64-1.81-.02-3.47-1.11-4.69-2.37h0Z" style="fill: #8fa358; stroke-width: 0px;"/>
  <path d="M171.17,112.78c-.11-5.78.4-11.9,3.38-17.01,3-5,6.48-9.67,10.19-14.16-2.85,4.27-7.02,10.15-9.54,14.53-2.99,4.96-3.53,10.96-4.03,16.64h0Z" style="fill: #8fa358; stroke-width: 0px;"/>
  <path d="M185.51,83.76c-1.07.42-2.14.8-3.22,1.21-.05-.49-.09-.99-.03-1.48.05-.29.06-1.01.25-1.17.21.77.28,1.54.21,2.33,0,0-.29-.22-.29-.22,1-.19,2.14-.62,3.08-.67h0Z" style="fill: #8fa358; stroke-width: 0px;"/>
  <path d="M183.99,85.88c-1.07.42-2.14.8-3.22,1.21-.1-.89-.08-1.78.17-2.65,0,0,.05,0,.05,0,.21.77.28,1.54.21,2.33,0,0-.29-.22-.29-.22,1-.19,2.14-.62,3.08-.67h0Z" style="fill: #8fa358; stroke-width: 0px;"/>
  <path d="M183.24,87.61c-1.32.49-2.66.93-3.98,1.4-.04-.58-.08-1.16-.02-1.73.06-.41.03-1.11.25-1.42.21.94.28,1.88.22,2.83l-.3-.22c1.26-.25,2.64-.75,3.84-.87h0Z" style="fill: #8fa358; stroke-width: 0px;"/>
  <path d="M183.24,88.47l-5.21,1.86-.28.1c-.09-1.52-.06-3.05.17-4.56.36,1.28.29,2.86.26,4.25,0,0-.29-.21-.29-.21.02.03,5.41-1.57,5.35-1.43h0Z" style="fill: #8fa358; stroke-width: 0px;"/>
  <path d="M181.73,91.3l-5.21,1.86-.28.1c-.09-1.52-.06-3.05.17-4.56.36,1.28.29,2.86.26,4.25,0,0-.29-.21-.29-.21.02.03,5.4-1.57,5.35-1.43h0Z" style="fill: #8fa358; stroke-width: 0px;"/>
  <path d="M179.48,93.67l-4.42,2.89-.31.2c-.07-1.71-.16-3.62.21-5.24.23,1.61.29,3.23.21,4.84l-.33-.19s4.67-2.66,4.65-2.51h0Z" style="fill: #8fa358; stroke-width: 0px;"/>
  <path d="M177.97,96.51l-4.56,2.74-.33.2c.03-1.71.04-3.63.5-5.23.14,1.63.1,3.24-.06,4.85l-.33-.2s4.8-2.51,4.77-2.35h0Z" style="fill: #8fa358; stroke-width: 0px;"/>
  <path d="M177.99,97.96l-5.14,3.52-.24.16c-.53-1.61-1.16-3.39-1.26-5.02.68,1.49,1.19,3.03,1.59,4.61,0,0-.33-.12-.33-.12.03.02,5.4-3.29,5.38-3.14h0Z" style="fill: #8fa358; stroke-width: 0px;"/>
  <path d="M176.45,100.56l-4.82,3.9-.22.18c-.68-1.55-1.45-3.28-1.7-4.9.8,1.43,1.46,2.92,1.99,4.47l-.34-.1s5.09-3.7,5.09-3.54h0Z" style="fill: #8fa358; stroke-width: 0px;"/>
  <path d="M187,81.62l-2.98,1.01-.14.05c-.01-.81-.07-1.72.11-2.49.11.78.13,1.55.11,2.33l-.15-.11s3.07-.86,3.05-.79h0Z" style="fill: #8fa358; stroke-width: 0px;"/>
  <path d="M173.45,85.86l.14,2.97v.14c-.82-.22-1.76-.42-2.48-.83.82.11,1.62.33,2.4.58l-.14.11s.01-3.02.07-2.97h0Z" style="fill: #8fa358; stroke-width: 0px;"/>
  <path d="M175.22,91.22c-.43,1.27-.9,2.52-1.36,3.78-.49-.32-.99-.64-1.43-1.04-.31-.32-.9-.71-1.02-1.09.91.41,1.73.96,2.47,1.61,0,0-.34.09-.34.09.57-1.08,1.04-2.41,1.67-3.36h0Z" style="fill: #8fa358; stroke-width: 0px;"/>
  <path d="M170.46,83.25l.46,2.94.02.14c-.85-.14-1.8-.25-2.56-.59.83.03,1.65.17,2.45.35l-.13.12s-.31-3.01-.25-2.97h0Z" style="fill: #8fa358; stroke-width: 0px;"/>
  <path d="M168.84,85.61c1.69.37,3.65,1.06,4.47,2.72.5,1.73.22,3.55.52,5.33,0,0,.36,3.54.36,3.54-.44-2.33-.75-4.69-.86-7.07-.02-.6.02-1.18-.22-1.7-.79-1.59-2.64-2.31-4.27-2.81h0Z" style="fill: #8fa358; stroke-width: 0px;"/>
  <path d="M177.22,81.61l.14,2.97v.14c-.82-.22-1.76-.42-2.48-.83.82.11,1.62.33,2.4.58l-.14.11s.01-3.02.07-2.97h0Z" style="fill: #8fa358; stroke-width: 0px;"/>
  <path d="M178.99,86.97c-.43,1.27-.9,2.52-1.36,3.78-.49-.32-.99-.64-1.43-1.04-.31-.32-.9-.71-1.02-1.09.91.41,1.73.96,2.47,1.61,0,0-.34.09-.34.09.57-1.08,1.04-2.41,1.67-3.36h0Z" style="fill: #8fa358; stroke-width: 0px;"/>
  <path d="M174.23,79l.46,2.94.02.14c-.85-.14-1.8-.25-2.56-.59.83.03,1.65.17,2.45.35l-.13.12s-.31-3.01-.25-2.97h0Z" style="fill: #8fa358; stroke-width: 0px;"/>
  <path d="M172.61,81.36c1.69.37,3.65,1.06,4.47,2.72.5,1.73.22,3.55.52,5.33,0,0,.36,3.54.36,3.54-.44-2.33-.75-4.69-.86-7.07-.02-.6.02-1.18-.22-1.7-.79-1.59-2.64-2.31-4.27-2.81h0Z" style="fill: #8fa358; stroke-width: 0px;"/>
  <path d="M167.82,89.54l.93,2.89c.05.15.06.11-.09.12-1.09.05-2.28.15-3.32-.03,1.1-.17,2.21-.18,3.32-.16l-.09.12s-.81-2.97-.74-2.94h0Z" style="fill: #8fa358; stroke-width: 0px;"/>
  <path d="M171.57,94.27c-.27,1.37-.57,2.73-.87,4.1-.67-.16-1.36-.29-2.01-.52-.54-.24-1.32-.38-1.72-.77.63.04,1.24.17,1.85.29.61.13,1.19.35,1.78.54l-.26.15c.42-1.23.72-2.69,1.23-3.8h0Z" style="fill: #8fa358; stroke-width: 0px;"/>
  <path d="M170.06,91.44c-.27,1.37-.57,2.73-.87,4.1-.67-.16-1.36-.29-2.01-.52-.54-.24-1.32-.38-1.72-.77.63.04,1.24.17,1.85.29.61.13,1.19.35,1.78.54l-.26.15c.42-1.23.72-2.69,1.23-3.8h0Z" style="fill: #8fa358; stroke-width: 0px;"/>
  <path d="M165.62,88.94l.49,2.1.03.12c-.86-.09-1.83-.13-2.61-.45.85-.03,1.68.1,2.5.26l-.11.11s-.38-2.17-.31-2.14h0Z" style="fill: #8fa358; stroke-width: 0px;"/>
  <path d="M161.65,90.74c2.24-.12,4.91-.23,6.69,1.37.56.59.62,1.43.9,2.16.5,1.46,1.07,2.89,1.65,4.32l1.78,4.27c-1.49-3.14-2.94-6.31-4.01-9.62-.81-2.63-4.76-2.42-7.02-2.5h0Z" style="fill: #8fa358; stroke-width: 0px;"/>
  <path d="M186.25,94.36c-1.99.67-4.02,1.36-6.13,1.55-.66.04-1.3.37-1.87.75-2.27,1.62-3.96,3.95-5.57,6.21,1.49-2.37,3.17-4.7,5.45-6.39.58-.39,1.23-.77,1.98-.81,2.09-.11,4.11-.82,6.14-1.3h0Z" style="fill: #8fa358; stroke-width: 0px;"/>
  <path d="M186.25,85.86c-.8.83-1.89,1.53-3.12,1.55-1.12.09-2.1.86-2.95,1.61-1.71,1.57-3.16,3.43-4.49,5.34,1.24-1.99,2.62-3.9,4.34-5.51.88-.77,1.86-1.59,3.09-1.69,1.15,0,2.19-.63,3.13-1.3h0Z" style="fill: #8fa358; stroke-width: 0px;"/>
  <path d="M199.2,86.96c1.27-3.84,3.02-7.76,6.15-10.48,2.23-1.94,4.91-3.77,7.39-5.39.87-.53,1.72-1.07,2.6-1.58-3.15,2.53-6.44,4.9-9.5,7.53-3.05,2.61-4.86,6.36-6.64,9.92h0Z" style="fill: #8fa358; stroke-width: 0px;"/>
  <path d="M215.28,71.11c-.79.06-1.59.08-2.38.11l.07-.31c.1-.42.42-1.29.8-1.46.02.58-.12,1.11-.39,1.61l-.2-.3c.66.14,1.52.1,2.08.34h0Z" style="fill: #8fa358; stroke-width: 0px;"/>
  <path d="M213.81,72.17c-.79.06-1.59.08-2.38.11l.07-.31c.1-.42.42-1.29.8-1.46.02.58-.12,1.11-.39,1.61,0,0-.2-.3-.2-.3.66.14,1.52.1,2.08.34h0Z" style="fill: #8fa358; stroke-width: 0px;"/>
  <path d="M212.92,73.13c-.97.04-1.94.04-2.91.06,0,0,.08-.31.08-.31.17-.59.45-1.44.93-1.79-.02.69-.2,1.34-.51,1.94,0,0-.2-.3-.2-.3.83.16,1.87.13,2.6.39h0Z" style="fill: #8fa358; stroke-width: 0px;"/>
  <path d="M212.7,73.7c-1.33.04-2.65.05-3.98.07l.08-.3c.3-.92.64-2.04,1.27-2.73-.14,1.02-.44,1.97-.86,2.88l-.2-.3c1.19.15,2.59.11,3.68.37h0Z" style="fill: #8fa358; stroke-width: 0px;"/>
  <path d="M211.07,75.22c-1.33.04-2.65.05-3.98.07l.08-.3c.3-.92.64-2.04,1.27-2.73-.14,1.02-.44,1.97-.86,2.88l-.2-.3c1.19.15,2.59.11,3.68.37h0Z" style="fill: #8fa358; stroke-width: 0px;"/>
  <path d="M209.08,76.27c-1.26.36-2.54.69-3.81,1.04l.11-.39c.35-1.05.74-2.3,1.42-3.12-.19,1.15-.53,2.23-1.01,3.27l-.25-.29c1.15-.14,2.45-.5,3.53-.51h0Z" style="fill: #8fa358; stroke-width: 0px;"/>
  <path d="M207.44,77.79c-1.29.32-2.58.6-3.87.89.4-1.22.93-2.38,1.67-3.45-.08,1.06-.66,2.24-1.13,3.24,0,0-.24-.3-.24-.3,1.16-.09,2.48-.41,3.57-.37h0Z" style="fill: #8fa358; stroke-width: 0px;"/>
  <path d="M207.1,78.76c-1.43.44-2.88.85-4.32,1.26v-.31c.05-1.1.1-2.41.53-3.39.13,1.15.09,2.3-.09,3.42l-.27-.23c1.36-.22,2.86-.67,4.15-.76h0Z" style="fill: #8fa358; stroke-width: 0px;"/>
  <path d="M205.5,80.12c-1.39.56-2.8,1.08-4.2,1.61l-.02-.31c-.04-1.1-.1-2.41.25-3.42.22,1.14.28,2.28.19,3.42l-.29-.21c1.33-.33,2.79-.9,4.07-1.09h0Z" style="fill: #8fa358; stroke-width: 0px;"/>
  <path d="M216.73,70.05h-2.1s-.15,0-.15,0c.19-.55.37-1.21.73-1.65-.08.55-.26,1.07-.48,1.58l-.1-.15s2.14.16,2.09.22h0Z" style="fill: #8fa358; stroke-width: 0px;"/>
  <path d="M207.27,69.69l-.61,2.01-.04.14c-.47-.34-1.05-.71-1.36-1.19.5.24.95.56,1.37.92l-.17.05s.78-2,.82-1.93h0Z" style="fill: #8fa358; stroke-width: 0px;"/>
  <path d="M207.05,73.65c-.58.78-1.18,1.53-1.77,2.3l-.19-.26c-.35-.5-.83-1.26-.81-1.85.52.45.91,1,1.2,1.62,0,0-.36-.04-.36-.04.64-.55,1.28-1.37,1.94-1.78h0Z" style="fill: #8fa358; stroke-width: 0px;"/>
  <path d="M206.06,67.27l-.41,2.06-.03.14c-.51-.29-1.12-.6-1.47-1.04.53.19,1,.46,1.45.78l-.17.07s.58-2.07.62-2.01h0Z" style="fill: #8fa358; stroke-width: 0px;"/>
  <path d="M204.47,68.46c1.02.65,2.11,1.63,2.14,2.94-.17,1.25-.74,2.35-1.01,3.59,0,0-.67,2.38-.67,2.38.26-2.02.98-4.02,1.46-5.96-.03-1.23-1.01-2.19-1.92-2.94h0Z" style="fill: #8fa358; stroke-width: 0px;"/>
  <path d="M210.66,67.76l-.61,2.01-.04.14c-.47-.34-1.05-.71-1.36-1.19.5.24.95.56,1.37.92l-.17.05s.78-2,.82-1.93h0Z" style="fill: #8fa358; stroke-width: 0px;"/>
  <path d="M210.44,71.72c-.58.78-1.18,1.53-1.77,2.3l-.19-.26c-.35-.5-.83-1.26-.81-1.85.52.45.91,1,1.2,1.62,0,0-.36-.04-.36-.04.64-.55,1.28-1.37,1.94-1.78h0Z" style="fill: #8fa358; stroke-width: 0px;"/>
  <path d="M209.45,65.34l-.41,2.06-.03.14c-.51-.29-1.12-.6-1.47-1.04.53.19,1,.46,1.45.78l-.17.07s.58-2.07.62-2.01h0Z" style="fill: #8fa358; stroke-width: 0px;"/>
  <path d="M207.86,66.52c1.02.65,2.11,1.63,2.14,2.94-.17,1.25-.74,2.35-1.01,3.59,0,0-.67,2.38-.67,2.38.26-2.02.98-4.02,1.46-5.96-.03-1.23-1.01-2.19-1.92-2.94h0Z" style="fill: #8fa358; stroke-width: 0px;"/>
  <path d="M202.86,70.82l-.11,2.13v.12c-.76-.2-1.5-.45-2.18-.84.7.03,1.45.36,2.12.62,0,0-.13.08-.13.08.02,0,.25-2.17.31-2.11h0Z" style="fill: #8fa358; stroke-width: 0px;"/>
  <path d="M204.03,74.82c-.49.87-1.01,1.73-1.53,2.59l-.2-.12c-.66-.44-1.5-.98-1.83-1.69.8.31,1.48.78,2.09,1.35l-.3.05c.59-.69,1.14-1.64,1.77-2.18h0Z" style="fill: #8fa358; stroke-width: 0px;"/>
  <path d="M203.79,72.6c-.49.87-1.01,1.73-1.53,2.59l-.2-.12c-.66-.44-1.5-.98-1.83-1.69.8.31,1.48.78,2.09,1.35l-.3.05c.59-.69,1.14-1.64,1.77-2.18h0Z" style="fill: #8fa358; stroke-width: 0px;"/>
  <path d="M201.64,69.91l-.18,1.51-.02.12c-.53-.25-1.17-.51-1.54-.95.56.14,1.04.42,1.5.73l-.14.07s.32-1.53.37-1.48h0Z" style="fill: #8fa358; stroke-width: 0px;"/>
  <path d="M198.73,70.18c1.47.43,3.31,1.01,3.91,2.6.13.56-.03,1.07-.02,1.62-.07,2.11-.03,4.24-.03,6.36-.17-2.12-.27-4.24-.21-6.37-.02-.51.14-1.07.03-1.55-.56-1.48-2.31-2.09-3.68-2.66h0Z" style="fill: #8fa358; stroke-width: 0px;"/>
  <path d="M213.12,78.29c-1.42,0-2.89.02-4.26-.38-2.33-.15-4.38,1.66-6.27,2.85,1.83-1.38,3.89-3.27,6.33-3.09,1.36.42,2.79.44,4.2.63h0Z" style="fill: #8fa358; stroke-width: 0px;"/>
  <path d="M215.22,72.67c-.68.39-1.56.61-2.36.33-2.3-.2-4.43,1.66-6.3,2.84,1.8-1.36,3.95-3.32,6.37-3.08.73.29,1.52.11,2.29-.09h0Z" style="fill: #8fa358; stroke-width: 0px;"/>
  <path d="M187,99.28c3.68-1.69,7.73-3.09,11.86-2.65,2.94.3,6.1,1.02,8.98,1.72.98.28,1.96.53,2.93.83-4-.58-7.98-1.37-11.99-1.81-3.99-.45-7.97.79-11.78,1.91h0Z" style="fill: #8fa358; stroke-width: 0px;"/>
  <path d="M209.56,100.23c-.58-.54-1.14-1.11-1.71-1.66l.28-.16c.37-.22,1.23-.57,1.61-.41-.41.41-.89.67-1.44.82,0,0,.08-.35.08-.35.35.58.96,1.18,1.17,1.76h0Z" style="fill: #8fa358; stroke-width: 0px;"/>
  <path d="M207.79,99.87c-.58-.54-1.14-1.11-1.71-1.66l.28-.16c.37-.22,1.23-.57,1.61-.41-.41.41-.89.67-1.44.82,0,0,.08-.35.08-.35.35.58.96,1.18,1.17,1.76h0Z" style="fill: #8fa358; stroke-width: 0px;"/>
  <path d="M206.48,99.88c-.69-.68-1.35-1.39-2.03-2.08l.28-.15c.55-.27,1.36-.65,1.94-.54-.52.45-1.11.76-1.77.96,0,0,.09-.35.09-.35.45.71,1.18,1.46,1.49,2.17h0Z" style="fill: #8fa358; stroke-width: 0px;"/>
  <path d="M205.91,100.11c-.94-.94-1.85-1.9-2.77-2.86l.28-.14c.87-.41,1.93-.92,2.86-.93-.84.59-1.74,1.03-2.69,1.34l.08-.35c.71.97,1.68,1.97,2.24,2.94h0Z" style="fill: #8fa358; stroke-width: 0px;"/>
  <path d="M203.68,99.95c-.94-.94-1.85-1.9-2.77-2.86l.28-.14c.87-.41,1.93-.92,2.86-.93-.84.59-1.74,1.03-2.69,1.34l.08-.35c.71.97,1.68,1.97,2.24,2.94h0Z" style="fill: #8fa358; stroke-width: 0px;"/>
  <path d="M201.57,99.22c-1.13-.68-2.24-1.38-3.35-2.08,1.13-.6,2.32-1.06,3.59-1.32l.02.05c-.97.65-2,1.13-3.08,1.5l.04-.38c.89.75,2.04,1.45,2.78,2.24h0Z" style="fill: #8fa358; stroke-width: 0px;"/>
  <path d="M199.34,99.06c-1.11-.72-2.2-1.48-3.29-2.22l.38-.17c1.03-.41,2.24-.91,3.3-.92-1,.59-2.05,1.03-3.16,1.33l.06-.38c.86.78,1.99,1.54,2.71,2.35h0Z" style="fill: #8fa358; stroke-width: 0px;"/>
  <path d="M198.39,99.46c-1.3-.75-2.58-1.53-3.87-2.29l.23-.21c.84-.72,1.83-1.58,2.84-1.93-.76.88-1.62,1.63-2.56,2.27l-.02-.36c1.08.84,2.44,1.63,3.38,2.51h0Z" style="fill: #8fa358; stroke-width: 0px;"/>
  <path d="M211.34,100.57l-1.43-1.53-.1-.11c.53-.24,1.14-.56,1.71-.59-.46.32-.96.54-1.48.73l.04-.18s1.34,1.68,1.26,1.68h0Z" style="fill: #8fa358; stroke-width: 0px;"/>
  <path d="M205.14,93.41l-1.89.92-.13.06c-.07-.58-.2-1.25-.06-1.8.17.53.24,1.08.26,1.63l-.16-.09s2-.79,1.97-.72h0Z" style="fill: #8fa358; stroke-width: 0px;"/>
  <path d="M202.09,95.94c-.96.11-1.93.18-2.89.27l.06-.31c.13-.6.35-1.47.8-1.85.02.69-.11,1.35-.37,1.98,0,0-.22-.29-.22-.29.84.1,1.88,0,2.62.2h0Z" style="fill: #8fa358; stroke-width: 0px;"/>
  <path d="M206.08,90.87l-1.78,1.11-.12.08c-.13-.57-.32-1.23-.24-1.79.22.51.34,1.05.42,1.59l-.16-.08s1.9-.99,1.89-.91h0Z" style="fill: #8fa358; stroke-width: 0px;"/>
  <path d="M204.13,90.51c.22,1.18.24,2.66-.69,3.57-1.03.73-2.22,1.06-3.31,1.7,0,0-2.2,1.13-2.2,1.13,1.66-1.19,3.61-2.02,5.36-3,.88-.86.92-2.23.84-3.41h0Z" style="fill: #8fa358; stroke-width: 0px;"/>
  <path d="M208.87,94.57l-1.89.92-.13.06c-.07-.58-.2-1.25-.06-1.8.17.53.24,1.08.26,1.63l-.16-.09s2-.79,1.97-.72h0Z" style="fill: #8fa358; stroke-width: 0px;"/>
  <path d="M205.82,97.11c-.96.11-1.93.18-2.89.27l.06-.31c.13-.6.35-1.47.8-1.85.02.69-.11,1.35-.37,1.98l-.22-.29c.84.1,1.87,0,2.62.2h0Z" style="fill: #8fa358; stroke-width: 0px;"/>
  <path d="M209.81,92.03l-1.78,1.11-.12.08c-.13-.57-.32-1.23-.24-1.79.22.51.34,1.05.42,1.59l-.16-.08s1.9-.99,1.89-.91h0Z" style="fill: #8fa358; stroke-width: 0px;"/>
  <path d="M207.86,91.67c.22,1.18.24,2.66-.69,3.57-1.03.73-2.22,1.06-3.31,1.7,0,0-2.2,1.13-2.2,1.13,1.66-1.19,3.61-2.02,5.36-3,.88-.86.92-2.23.84-3.41h0Z" style="fill: #8fa358; stroke-width: 0px;"/>
  <path d="M201.31,90.95l-1.63,1.37-.09.08c-.36-.69-.69-1.39-.87-2.16h.02c.42.61.72,1.28.97,1.97l-.15-.04s1.75-1.29,1.75-1.22h0Z" style="fill: #8fa358; stroke-width: 0px;"/>
  <path d="M199.18,94.53c-.98.23-1.95.44-2.93.65l-.05-.23c-.13-.78-.3-1.77-.01-2.49.32.8.44,1.62.44,2.45l-.24-.19c.91-.04,1.98-.28,2.8-.19h0Z" style="fill: #8fa358; stroke-width: 0px;"/>
  <path d="M200.64,92.84c-.98.23-1.95.44-2.93.65l-.05-.23c-.13-.78-.3-1.77-.01-2.49.32.8.44,1.62.44,2.45l-.24-.19c.91-.04,1.98-.28,2.8-.19h0Z" style="fill: #8fa358; stroke-width: 0px;"/>
  <path d="M201.14,89.44l-1.23.9-.1.07c-.17-.56-.43-1.2-.35-1.77.27.5.4,1.05.49,1.6l-.15-.06s1.34-.81,1.33-.73h0Z" style="fill: #8fa358; stroke-width: 0px;"/>
  <path d="M198.96,87.49c.68,1.37,1.52,3.11.76,4.63-.31.48-.8.71-1.2,1.09-1.6,1.39-3.12,2.87-4.67,4.32,1.43-1.57,2.92-3.09,4.51-4.5.36-.36.87-.63,1.16-1.03.7-1.42-.04-3.11-.56-4.5h0Z" style="fill: #8fa358; stroke-width: 0px;"/>
  <path d="M208.39,101.25c-.75-.23-1.51-.73-1.85-1.5-1.42-1.82-4.24-2.11-6.38-2.67,2.24.4,5.1.61,6.6,2.56.29.73.96,1.19,1.62,1.61h0Z" style="fill: #8fa358; stroke-width: 0px;"/>
  <path d="M193,110.28c3.68-1.69,7.73-3.09,11.86-2.65,2.94.3,6.1,1.02,8.98,1.72.98.28,1.96.53,2.93.83-4-.58-7.98-1.37-11.99-1.81-3.99-.45-7.97.79-11.78,1.91h0Z" style="fill: #8fa358; stroke-width: 0px;"/>
  <path d="M215.56,111.23c-.58-.54-1.14-1.11-1.71-1.66l.28-.16c.37-.22,1.23-.57,1.61-.41-.41.41-.89.67-1.44.82,0,0,.08-.35.08-.35.35.58.96,1.18,1.17,1.76h0Z" style="fill: #8fa358; stroke-width: 0px;"/>
  <path d="M213.79,110.87c-.58-.54-1.14-1.11-1.71-1.66l.28-.16c.37-.22,1.23-.57,1.61-.41-.41.41-.89.67-1.44.82,0,0,.08-.35.08-.35.35.58.96,1.18,1.17,1.76h0Z" style="fill: #8fa358; stroke-width: 0px;"/>
  <path d="M212.48,110.88c-.69-.68-1.35-1.39-2.03-2.08l.28-.15c.55-.27,1.36-.65,1.94-.54-.52.45-1.11.76-1.77.96,0,0,.09-.35.09-.35.45.71,1.18,1.46,1.49,2.17h0Z" style="fill: #8fa358; stroke-width: 0px;"/>
  <path d="M211.91,111.11c-.94-.94-1.85-1.9-2.77-2.86l.28-.14c.87-.41,1.93-.92,2.86-.93-.84.59-1.74,1.03-2.69,1.34l.08-.35c.71.97,1.68,1.97,2.24,2.94h0Z" style="fill: #8fa358; stroke-width: 0px;"/>
  <path d="M209.68,110.95c-.94-.94-1.85-1.9-2.77-2.86l.28-.14c.87-.41,1.93-.92,2.86-.93-.84.59-1.74,1.03-2.69,1.34l.08-.35c.71.97,1.68,1.97,2.24,2.94h0Z" style="fill: #8fa358; stroke-width: 0px;"/>
  <path d="M207.57,110.22c-1.13-.68-2.24-1.38-3.35-2.08,1.13-.6,2.32-1.06,3.59-1.32l.02.05c-.97.65-2,1.13-3.08,1.5l.04-.38c.89.75,2.04,1.45,2.78,2.24h0Z" style="fill: #8fa358; stroke-width: 0px;"/>
  <path d="M205.34,110.06c-1.11-.72-2.2-1.48-3.29-2.22l.38-.17c1.03-.41,2.24-.91,3.3-.92-1,.59-2.05,1.03-3.16,1.33l.06-.38c.86.78,1.99,1.54,2.71,2.35h0Z" style="fill: #8fa358; stroke-width: 0px;"/>
  <path d="M204.39,110.46c-1.3-.75-2.58-1.53-3.87-2.29l.23-.21c.84-.72,1.83-1.58,2.84-1.93-.76.88-1.62,1.63-2.56,2.27l-.02-.36c1.08.84,2.44,1.63,3.38,2.51h0Z" style="fill: #8fa358; stroke-width: 0px;"/>
  <path d="M217.34,111.57l-1.43-1.53-.1-.11c.53-.24,1.14-.56,1.71-.59-.46.32-.96.54-1.48.73l.04-.18s1.34,1.68,1.26,1.68h0Z" style="fill: #8fa358; stroke-width: 0px;"/>
  <path d="M211.14,104.41l-1.89.92-.13.06c-.07-.58-.2-1.25-.06-1.8.17.53.24,1.08.26,1.63l-.16-.09s2-.79,1.97-.72h0Z" style="fill: #8fa358; stroke-width: 0px;"/>
  <path d="M208.09,106.94c-.96.11-1.93.18-2.89.27l.06-.31c.13-.6.35-1.47.8-1.85.02.69-.11,1.35-.37,1.98,0,0-.22-.29-.22-.29.84.1,1.88,0,2.62.2h0Z" style="fill: #8fa358; stroke-width: 0px;"/>
  <path d="M212.08,101.87l-1.78,1.11-.12.08c-.13-.57-.32-1.23-.24-1.79.22.51.34,1.05.42,1.59l-.16-.08s1.9-.99,1.89-.91h0Z" style="fill: #8fa358; stroke-width: 0px;"/>
  <path d="M210.13,101.51c.22,1.18.24,2.66-.69,3.57-1.03.73-2.22,1.06-3.31,1.7,0,0-2.2,1.13-2.2,1.13,1.66-1.19,3.61-2.02,5.36-3,.88-.86.92-2.23.84-3.41h0Z" style="fill: #8fa358; stroke-width: 0px;"/>
  <path d="M214.87,105.57l-1.89.92-.13.06c-.07-.58-.2-1.25-.06-1.8.17.53.24,1.08.26,1.63l-.16-.09s2-.79,1.97-.72h0Z" style="fill: #8fa358; stroke-width: 0px;"/>
  <path d="M211.82,108.11c-.96.11-1.93.18-2.89.27l.06-.31c.13-.6.35-1.47.8-1.85.02.69-.11,1.35-.37,1.98l-.22-.29c.84.1,1.87,0,2.62.2h0Z" style="fill: #8fa358; stroke-width: 0px;"/>
  <path d="M215.81,103.03l-1.78,1.11-.12.08c-.13-.57-.32-1.23-.24-1.79.22.51.34,1.05.42,1.59l-.16-.08s1.9-.99,1.89-.91h0Z" style="fill: #8fa358; stroke-width: 0px;"/>
  <path d="M213.86,102.67c.22,1.18.24,2.66-.69,3.57-1.03.73-2.22,1.06-3.31,1.7,0,0-2.2,1.13-2.2,1.13,1.66-1.19,3.61-2.02,5.36-3,.88-.86.92-2.23.84-3.41h0Z" style="fill: #8fa358; stroke-width: 0px;"/>
  <path d="M207.31,101.95l-1.63,1.37-.09.08c-.36-.69-.69-1.39-.87-2.16h.02c.42.61.72,1.28.97,1.97l-.15-.04s1.75-1.29,1.75-1.22h0Z" style="fill: #8fa358; stroke-width: 0px;"/>
  <path d="M205.18,105.53c-.98.23-1.95.44-2.93.65l-.05-.23c-.13-.78-.3-1.77-.01-2.49.32.8.44,1.62.44,2.45l-.24-.19c.91-.04,1.98-.28,2.8-.19h0Z" style="fill: #8fa358; stroke-width: 0px;"/>
  <path d="M206.64,103.84c-.98.23-1.95.44-2.93.65l-.05-.23c-.13-.78-.3-1.77-.01-2.49.32.8.44,1.62.44,2.45l-.24-.19c.91-.04,1.98-.28,2.8-.19h0Z" style="fill: #8fa358; stroke-width: 0px;"/>
  <path d="M207.14,100.44l-1.23.9-.1.07c-.17-.56-.43-1.2-.35-1.77.27.5.4,1.05.49,1.6l-.15-.06s1.34-.81,1.33-.73h0Z" style="fill: #8fa358; stroke-width: 0px;"/>
  <path d="M204.96,98.49c.68,1.37,1.52,3.11.76,4.63-.31.48-.8.71-1.2,1.09-1.6,1.39-3.12,2.87-4.67,4.32,1.43-1.57,2.92-3.09,4.51-4.5.36-.36.87-.63,1.16-1.03.7-1.42-.04-3.11-.56-4.5h0Z" style="fill: #8fa358; stroke-width: 0px;"/>
  <path d="M214.39,112.25c-.75-.23-1.51-.73-1.85-1.5-1.42-1.82-4.24-2.11-6.38-2.67,2.24.4,5.1.61,6.6,2.56.29.73.96,1.19,1.62,1.61h0Z" style="fill: #8fa358; stroke-width: 0px;"/>
</svg>