<?xml version="1.0" encoding="UTF-8"?>
<svg id="Layer_1" data-name="Layer 1" xmlns="http://www.w3.org/2000/svg" xmlns:xlink="http://www.w3.org/1999/xlink" viewBox="0 0 300 300">
  <defs>
    <pattern id="Plantpattern_2" data-name="Plantpattern 2" x="0" y="0" width="14" height="12.04" patternTransform="translate(-320)" patternUnits="userSpaceOnUse" viewBox="0 0 14 12.04">
      <g>
        <rect y="0" width="14" height="12.04" style="fill: none; stroke-width: 0px;"/>
        <rect x="13.88" y="11.93" width="14.25" height="12.25" style="fill: #586a26; stroke-width: 0px;"/>
        <g>
          <rect x="-.12" y="11.93" width="14.25" height="12.25" style="fill: #586a26; stroke-width: 0px;"/>
          <path d="M7.17,12.5l-.87-.87s-1.28-.77-.92-.2.56,1.38.56,1.38l1.44.51-.21-.82Z" style="fill: #bc2f45; stroke-width: 0px;"/>
          <path d="M2.24,11.58s0,.02,0,.03c.04.28.25.63.56.72.46.13.99-.35.93-.56-.06-.22-.81-.19-.93-.19" style="fill: #8fa265; stroke-width: 0px;"/>
          <path d="M7.92,11.94c-.35.16-.31.47,0,.6.54.23,1.93-.07,1.96-.3.02-.15-.55-.28-.65-.3-.13-.03-.87-.19-1.31,0Z" style="fill: #8fa265; stroke-width: 0px;"/>
        </g>
        <rect x="-14.12" y="11.93" width="14.25" height="12.25" style="fill: #586a26; stroke-width: 0px;"/>
        <rect x="13.88" y="-.11" width="14.25" height="12.25" style="fill: #586a26; stroke-width: 0px;"/>
        <g>
          <rect x="-.12" y="-.11" width="14.25" height="12.25" style="fill: #586a26; stroke-width: 0px;"/>
          <polygon points="2.88 5.14 2.54 5.14 2.13 4.64 1.63 4.64 .88 4.89 1.38 5.39 1.38 5.64 1.65 6.02 2.63 6.39 3.01 6.02 3.38 5.64 2.88 5.14" style="fill: #bc2f45; stroke-width: 0px;"/>
          <path d="M4.75,4.52l-1-.25s-1.25,0-.75.25,1,.75,1,.75l1.25-.25-.5-.5Z" style="fill: #bc2f45; stroke-width: 0px;"/>
          <path d="M2.38,11.52l1,.25s1.25,0,.75-.25-1-.75-1-.75l-1.25.25.5.5Z" style="fill: #c3767c; opacity: .39; stroke-width: 0px;"/>
          <path d="M5.07,7.39l-.5-.12s-.62,0-.38.12.5.38.5.38l.62-.12-.25-.25Z" style="fill: #8fa265; stroke-width: 0px;"/>
          <path d="M1.32,3.64l-.5-.12s-.62,0-.38.12.5.38.5.38l.62-.12-.25-.25Z" style="fill: #8fa265; stroke-width: 0px;"/>
          <path d="M4,6.02s0,.01,0,.02c.03.23.21.53.46.6.38.11.83-.29.78-.47-.05-.18-.67-.16-.78-.16" style="fill: #bc2f45; stroke-width: 0px;"/>
          <path d="M6.44,7.28s0,0,.01-.02c.1-.15.15-.42.04-.59-.17-.26-.64-.26-.7-.13-.07.13.31.44.38.5" style="fill: #8fa265; stroke-width: 0px;"/>
          <path d="M.79,2s0,0-.01.02c-.1.15-.15.42-.04.59.17.26.64.26.7.13.07-.13-.31-.44-.38-.5" style="fill: #8fa265; stroke-width: 0px;"/>
          <path d="M2.15,7.06h0s.01.02.02.03c.21.25.63.45.99.34.52-.16.73-.96.55-1.13-.2-.18-.9.32-1.02.41" style="fill: #8fa265; stroke-width: 0px;"/>
          <path d="M5.61,5.27c-.3.13-.26.39,0,.5.45.19,1.61-.06,1.64-.25.02-.13-.46-.23-.55-.25-.11-.02-.73-.16-1.09,0Z" style="fill: #bc2f45; stroke-width: 0px;"/>
          <path d="M2.11,3.02c-.3.13-.26.39,0,.5.45.19,1.61-.06,1.64-.25.02-.13-.46-.23-.55-.25-.11-.02-.73-.16-1.09,0Z" style="fill: #c3767c; opacity: .39; stroke-width: 0px;"/>
          <polygon points="5.64 1.5 5.25 1.5 4.75 .91 4.15 .91 3.25 1.2 3.85 1.8 3.85 2.1 4.18 2.55 5.34 3 5.8 2.55 6.24 2.1 5.64 1.5" style="fill: #94832d; stroke-width: 0px;"/>
          <path d="M7.17.47l-.87-.87s-1.28-.77-.92-.2.56,1.38.56,1.38l1.44.51-.21-.82Z" style="fill: #bc2f45; stroke-width: 0px;"/>
          <path d="M8.26,4.19l-.6-.15s-.75,0-.45.15.6.45.6.45l.75-.15-.3-.3Z" style="fill: #8fa265; stroke-width: 0px;"/>
          <path d="M13.51,4.69l-.6-.15s-.75,0-.45.15.6.45.6.45l.75-.15-.3-.3Z" style="fill: #8fa265; stroke-width: 0px;"/>
          <path d="M6.99,2.55s0,.02,0,.03c.04.28.25.63.56.72.46.13.99-.35.93-.56-.06-.22-.81-.19-.93-.19" style="fill: #8fa265; stroke-width: 0px;"/>
          <path d="M.24.55s0,.02,0,.03c.04.28.25.63.56.72.46.13.99-.35.93-.56-.06-.22-.81-.19-.93-.19" style="fill: #94832d; stroke-width: 0px;"/>
          <path d="M1.24,1.55s0,.02,0,.03c.04.28.25.63.56.72.46.13.99-.35.93-.56-.06-.22-.81-.19-.93-.19" style="fill: #8fa265; stroke-width: 0px;"/>
          <path d="M2.24-.45s0,.02,0,.03c.04.28.25.63.56.72.46.13.99-.35.93-.56-.06-.22-.81-.19-.93-.19" style="fill: #8fa265; stroke-width: 0px;"/>
          <path d="M9.91,4.06s0-.01.01-.02c.12-.18.18-.5.05-.71-.2-.31-.76-.31-.84-.16-.08.16.37.53.45.59" style="fill: #8fa265; stroke-width: 0px;"/>
          <path d="M1.41,9.06s0-.01.01-.02c.12-.18.18-.5.05-.71-.2-.31-.76-.31-.84-.16-.08.16.37.53.45.59" style="fill: #bc2f45; stroke-width: 0px;"/>
          <path d="M4.77,3.8h0s.01.02.03.03c.25.29.76.54,1.18.41.62-.2.88-1.15.66-1.35-.24-.21-1.08.39-1.22.49" style="fill: #c3767c; stroke-width: 0px;"/>
          <path d="M8.92,1.65c-.35.16-.31.47,0,.6.54.23,1.93-.07,1.96-.3.02-.15-.55-.28-.65-.3-.13-.03-.87-.19-1.31,0Z" style="fill: #8fa265; stroke-width: 0px;"/>
          <path d="M7.92-.1c-.35.16-.31.47,0,.6.54.23,1.93-.07,1.96-.3.02-.15-.55-.28-.65-.3-.13-.03-.87-.19-1.31,0Z" style="fill: #8fa265; stroke-width: 0px;"/>
          <path d="M11.42.65c-.35.16-.31.47,0,.6.54.23,1.93-.07,1.96-.3.02-.15-.55-.28-.65-.3-.13-.03-.87-.19-1.31,0Z" style="fill: #94832d; opacity: .39; stroke-width: 0px;"/>
          <polygon points="9.38 8.89 9.04 8.89 8.63 8.39 8.13 8.39 7.38 8.64 7.88 9.14 7.88 9.39 8.15 9.77 9.13 10.14 9.51 9.77 9.88 9.39 9.38 8.89" style="fill: #c3767c; stroke-width: 0px;"/>
          <path d="M11.25,8.27l-1-.25s-1.25,0-.75.25,1,.75,1,.75l1.25-.25-.5-.5Z" style="fill: #bc2f45; stroke-width: 0px;"/>
          <path d="M11.57,11.14l-.5-.12s-.62,0-.38.12.5.38.5.38l.62-.12-.25-.25Z" style="fill: #8fa265; stroke-width: 0px;"/>
          <path d="M7.35,10.93l-.12.5s0,.62.12.38.38-.5.38-.5l-.12-.62-.25.25Z" style="fill: #8fa265; stroke-width: 0px;"/>
          <path d="M.38,11.64l.5.12s.62,0,.37-.13-.5-.37-.5-.37l-.62.13.25.25Z" style="fill: #8fa265; stroke-width: 0px;"/>
          <path d="M7.82,7.39l-.5-.12s-.62,0-.38.12.5.38.5.38l.62-.12-.25-.25Z" style="fill: #bc2f45; stroke-width: 0px;"/>
          <path d="M10.5,9.77s0,.01,0,.02c.03.23.21.53.46.6.38.11.83-.29.78-.47-.05-.18-.67-.16-.78-.16" style="fill: #8fa265; stroke-width: 0px;"/>
          <path d="M4.94,10.53s0,0,.01-.02c.1-.15.15-.42.04-.59-.17-.26-.64-.26-.7-.13-.07.13.31.44.38.5" style="fill: #8fa265; stroke-width: 0px;"/>
          <path d="M.94,7.28s0,0,.01-.02c.1-.15.15-.42.04-.59-.17-.26-.64-.26-.7-.13-.07.13.31.44.38.5" style="fill: #8fa265; opacity: .39; stroke-width: 0px;"/>
          <path d="M7.29,5.75s0,0-.01.02c-.1.15-.15.42-.04.59.17.26.64.26.7.13.07-.13-.31-.44-.38-.5" style="fill: #8fa265; stroke-width: 0px;"/>
          <path d="M.5,9.28s-.01.02-.02.03c-.18.26-.26.71-.06,1.01.29.44,1.09.44,1.2.22.11-.23-.53-.76-.64-.85" style="fill: #8fa265; stroke-width: 0px;"/>
          <path d="M8.65,10.81h0s.01.02.02.03c.21.25.63.45.99.34.52-.16.73-.96.55-1.13-.2-.18-.9.32-1.02.41" style="fill: #8fa265; stroke-width: 0px;"/>
          <path d="M5.4,10.81h0s.01.02.02.03c.21.25.63.45.99.34.52-.16.73-.96.55-1.13-.2-.18-.9.32-1.02.41" style="fill: #8fa265; stroke-width: 0px;"/>
          <path d="M4.15,12.56h0s.01.02.02.03c.21.25.63.45.99.34.52-.16.73-.96.55-1.13-.2-.18-.9.32-1.02.41" style="fill: #8fa265; stroke-width: 0px;"/>
          <path d="M12.11,9.02c-.3.13-.26.39,0,.5.45.19,1.61-.06,1.64-.25.02-.13-.46-.23-.55-.25-.11-.02-.73-.16-1.09,0Z" style="fill: #8fa265; opacity: .39; stroke-width: 0px;"/>
          <path d="M8.61,6.77c-.3.13-.26.39,0,.5.45.19,1.61-.06,1.64-.25.02-.13-.46-.23-.55-.25-.11-.02-.73-.16-1.09,0Z" style="fill: #8fa265; stroke-width: 0px;"/>
          <polygon points="12.14 5.25 11.75 5.25 11.25 4.66 10.65 4.66 9.75 4.95 10.35 5.55 10.35 5.85 10.68 6.3 11.84 6.75 12.3 6.3 12.74 5.85 12.14 5.25" style="fill: #c3767c; stroke-width: 0px;"/>
          <path d="M12.88,3.01l-1.2-.3s-1.5,0-.9.3,1.2.9,1.2.9l1.5-.3-.6-.6Z" style="fill: #94832d; stroke-width: 0px;"/>
          <path d="M14.63,5.09l-.73.4s-.74.69-.31.56,1.01-.11,1.01-.11l.61-.84-.57-.02Z" style="fill: #94832d; stroke-width: 0px;"/>
          <path d="M3.26,9.69l-.6-.15s-.75,0-.45.15.6.45.6.45l.75-.15-.3-.3Z" style="fill: #8fa265; stroke-width: 0px;"/>
          <path d="M1.74,7.8s0,.02,0,.03c.04.28.25.63.56.72.46.13.99-.35.93-.56-.06-.22-.81-.19-.93-.19" style="fill: #bc2f45; stroke-width: 0px;"/>
          <path d="M7.74,5.3s0,.02,0,.03c.04.28.25.63.56.72.46.13.99-.35.93-.56-.06-.22-.81-.19-.93-.19" style="fill: #8fa265; opacity: .39; stroke-width: 0px;"/>
          <path d="M6.91,9.31s0-.01.01-.02c.12-.18.18-.5.05-.71-.2-.31-.76-.31-.84-.16-.08.16.37.53.45.59" style="fill: #8fa265; stroke-width: 0px;"/>
          <path d="M13.16,11.81s0-.01.01-.02c.12-.18.18-.5.05-.71-.2-.31-.76-.31-.84-.16-.08.16.37.53.45.59" style="fill: #bc2f45; stroke-width: 0px;"/>
          <path d="M12.41,12.56s0-.01.01-.02c.12-.18.18-.5.05-.71-.2-.31-.76-.31-.84-.16-.08.16.37.53.45.59" style="fill: #bc2f45; stroke-width: 0px;"/>
          <path d="M11.27,7.55h0s.01.02.03.03c.25.29.76.54,1.18.41.62-.2.88-1.15.66-1.35-.24-.21-1.08.39-1.22.49" style="fill: #8fa265; stroke-width: 0px;"/>
          <path d="M3.92,8.4c-.35.16-.31.47,0,.6.54.23,1.93-.07,1.96-.3.02-.15-.55-.28-.65-.3-.13-.03-.87-.19-1.31,0Z" style="fill: #bc2f45; opacity: .39; stroke-width: 0px;"/>
        </g>
        <g>
          <rect x="-14.12" y="-.11" width="14.25" height="12.25" style="fill: #586a26; stroke-width: 0px;"/>
          <path d="M.63,5.09l-.73.4s-.74.69-.31.56,1.01-.11,1.01-.11l.61-.84-.57-.02Z" style="fill: #94832d; stroke-width: 0px;"/>
        </g>
        <rect x="13.88" y="-12.14" width="14.25" height="12.25" style="fill: #586a26; stroke-width: 0px;"/>
        <g>
          <rect x="-.12" y="-12.14" width="14.25" height="12.25" style="fill: #586a26; stroke-width: 0px;"/>
          <path d="M4.15.53h0s.01.02.02.03c.21.25.63.45.99.34.52-.16.73-.96.55-1.13-.2-.18-.9.32-1.02.41" style="fill: #8fa265; stroke-width: 0px;"/>
          <path d="M12.41.52s0-.01.01-.02c.12-.18.18-.5.05-.71-.2-.31-.76-.31-.84-.16-.08.16.37.53.45.59" style="fill: #bc2f45; stroke-width: 0px;"/>
        </g>
        <rect x="-14.12" y="-12.14" width="14.25" height="12.25" style="fill: #586a26; stroke-width: 0px;"/>
      </g>
    </pattern>
  </defs>
  <path d="M169.91,174.2h-49.83c-2.44,0-2.06,2.44-2.06,2.44v6.95c0,2.06,2.06,2.06,2.06,2.06h49.83s2.06,0,2.06-2.06v-6.95s.38-2.44-2.06-2.44Z" style="fill: #ad6f54; stroke: #000; stroke-miterlimit: 10;"/>
  <path d="M145.13,185.19h-25.04l2.44,32.98s1.22,7.33,7.33,7.33h30.28c6.11,0,7.33-7.33,7.33-7.33l2.44-32.98h-24.79Z" style="fill: #ad6f54; stroke: #000; stroke-miterlimit: 10;"/>
  <rect x="140.6" y="116" width="4.4" height="58.2" style="fill: #6e7d2c; stroke: #000; stroke-miterlimit: 10;"/>
  <path d="M142.8,124.2s-12.3-14.7-10.3-20.7,14-15,21-18,32-10,32-10c0,0-4,5-3,11s-7,11-7,11c0,0-19,13-22,18s-10.7,8.7-10.7,8.7Z" style="fill: url(#Plantpattern_2); stroke: #000; stroke-miterlimit: 10;"/>
  <path d="M152.5,140.5s-3-19,1-21,5-6,11-6,10,3,14,1,18.75-5.72,18.75-5.72c0,0,9.25-1.28,12.25-.28s7.34,4,7.34,4c0,0-7.34-5-16.34,1s-32,14-37,20-11,7-11,7Z" style="fill: url(#Plantpattern_2); stroke: #000; stroke-miterlimit: 10;"/>
  <path d="M163.92,150s-4.42-12.5,12.58-14.5,36-2,36-2l21.51,7s-24.1,3.86-35.3,3.93-34.79,5.57-34.79,5.57Z" style="fill: url(#Plantpattern_2); stroke: #000; stroke-miterlimit: 10;"/>
  <path d="M122.5,121.5s5,8-3,14-32,16-32,16c0,0,2,5,3,5s4-1,4-1c0,0-2,3-5,3s-9-10-9-11,3-3,5-9,5-11,8-12,11-8,16-8,13,3,13,3Z" style="fill: url(#Plantpattern_2); stroke: #000; stroke-miterlimit: 10;"/>
  <path d="M138.35,123.69s-35.49-13.19-38.67-13.69-5.18.5-5.18.5c0,0,3.1,2.35,5.05,4.68s25.95,18.32,27.95,19.32,9.7-4.18,10.85-5.59,0-5.22,0-5.22Z" style="fill: url(#Plantpattern_2); stroke: #000; stroke-miterlimit: 10;"/>
  <path d="M139.5,146.5s-6.44-12.41-7.22-12.21-9.34-2.66-9.34-2.66l-5.56,5.32s6,7.55,11.06,9.55,11.06,0,11.06,0Z" style="fill: url(#Plantpattern_2); stroke: #000; stroke-miterlimit: 10;"/>
  <polygon points="153.5 137.5 143.5 153.5 143.5 156.34 155.27 138.5 153.5 137.5" style="fill: #6e7d2c; stroke: #000; stroke-miterlimit: 10;"/>
  <polygon points="164.5 148.5 144.5 166.5 143.5 169.5 165.78 150 164.5 148.5" style="fill: #6e7d2c; stroke: #000; stroke-miterlimit: 10;"/>
  <polygon points="136.44 147.17 141.45 157 141.45 154.39 137.5 146.5 136.44 147.17" style="fill: #6e7d2c; stroke: #000; stroke-miterlimit: 10;"/>
</svg>