<?xml version="1.0" encoding="utf-8"?>
<!-- Generator: Adobe Illustrator 28.2.0, SVG Export Plug-In . SVG Version: 6.00 Build 0)  -->
<svg version="1.0" id="Layer_1" xmlns="http://www.w3.org/2000/svg" xmlns:xlink="http://www.w3.org/1999/xlink" x="0px" y="0px"
	 viewBox="0 0 300 300" enable-background="new 0 0 300 300" xml:space="preserve">
<pattern  width="15" height="12.9" patternUnits="userSpaceOnUse" id="blaadjes_pattern1" viewBox="5 -25.6 15 12.9" overflow="visible">
	<g>
		<rect x="5" y="-25.6" fill="none" width="15" height="12.9"/>
		<g>
			<rect x="15" y="-17.2" fill="#4E6622" width="19.8" height="17.2"/>
		</g>
		<g>
			<rect y="-17.2" fill="#4E6622" width="19.8" height="17.2"/>
			<polygon fill="#8FA265" points="18.2,-12.2 17.9,-12.2 17.5,-12.8 17,-12.8 16.2,-12.5 16.8,-12 16.8,-11.8 17,-11.4 18,-11 
				18.4,-11.4 18.8,-11.8 			"/>
			<path fill="#8FA265" d="M14.9-12.8l-1.2-0.3c0,0-1.5,0-0.9,0.3c0.6,0.3,1.2,0.9,1.2,0.9l1.5-0.3L14.9-12.8z"/>
			<path fill="#8FA265" d="M7.5-13C7.5-13,7.5-13,7.5-13c0,0.3,0.2,0.7,0.6,0.7c0.5,0.1,1-0.4,0.9-0.6C8.9-13,8.2-13,8-13"/>
		</g>
		<g>
			<rect x="15" y="-30.2" fill="#4E6622" width="19.8" height="17.2"/>
		</g>
		<g>
			<rect y="-30.2" fill="#4E6622" width="19.8" height="17.2"/>
			<polygon fill="#8FA265" points="8.4,-20 8,-20 7.6,-20.5 7.1,-20.5 6.4,-20.3 6.9,-19.8 6.9,-19.5 7.2,-19.2 8.1,-18.8 
				8.5,-19.2 8.9,-19.5 			"/>
			<polygon fill="#8FA265" points="18.2,-25.2 17.9,-25.2 17.5,-25.7 17,-25.7 16.2,-25.4 16.8,-24.9 16.8,-24.7 17,-24.3 18,-23.9 
				18.4,-24.3 18.8,-24.7 			"/>
			<path fill="#8FA265" d="M10.2-20.7l-1-0.2c0,0-1.2,0-0.8,0.2s1,0.8,1,0.8l1.2-0.2L10.2-20.7z"/>
			<path opacity="0.39" fill="#8FA265" d="M8.1-13.2l1,0.2c0,0,1.2,0,0.8-0.2s-1-0.8-1-0.8l-1.2,0.2L8.1-13.2z"/>
			<path fill="#8FA265" d="M10.6-17.8l-0.5-0.1c0,0-0.6,0-0.4,0.1s0.5,0.4,0.5,0.4l0.6-0.1L10.6-17.8z"/>
			<path fill="#8FA265" d="M6.8-21.5l-0.5-0.1c0,0-0.6,0-0.4,0.1s0.5,0.4,0.5,0.4l0.6-0.1L6.8-21.5z"/>
			<path fill="#8FA265" d="M9.5-19.2C9.5-19.2,9.5-19.2,9.5-19.2c0,0.3,0.2,0.6,0.5,0.6c0.4,0.1,0.8-0.3,0.8-0.5
				c-0.1-0.2-0.7-0.2-0.8-0.2"/>
			<path fill="#8FA265" d="M11.9-17.9C11.9-17.9,11.9-17.9,11.9-17.9c0.1-0.2,0.2-0.4,0-0.6c-0.2-0.3-0.6-0.3-0.7-0.1
				c-0.1,0.1,0.3,0.4,0.4,0.5"/>
			<path fill="#8FA265" d="M6.3-23.2C6.3-23.2,6.3-23.2,6.3-23.2c-0.1,0.2-0.2,0.4,0,0.6c0.2,0.3,0.6,0.3,0.7,0.1
				c0.1-0.1-0.3-0.4-0.4-0.5"/>
			<path fill="#8FA265" d="M7.6-18.1L7.6-18.1C7.7-18.1,7.7-18.1,7.6-18.1c0.2,0.3,0.7,0.5,1,0.4c0.5-0.2,0.7-1,0.5-1.1
				c-0.2-0.2-0.9,0.3-1,0.4"/>
			<path fill="#8FA265" d="M11.1-19.9c-0.3,0.1-0.3,0.4,0,0.5c0.4,0.2,1.6-0.1,1.6-0.2c0-0.1-0.5-0.2-0.5-0.2
				C12.1-19.9,11.5-20.1,11.1-19.9z"/>
			<path opacity="0.39" fill="#8FA265" d="M7.6-22.2c-0.3,0.1-0.3,0.4,0,0.5c0.4,0.2,1.6-0.1,1.6-0.2c0-0.1-0.5-0.2-0.5-0.2
				C8.6-22.2,8-22.3,7.6-22.2z"/>
			<polygon fill="#8FA265" points="12.1,-24.7 11.7,-24.7 11.2,-25.3 10.6,-25.3 9.8,-25 10.3,-24.4 10.3,-24.1 10.7,-23.6 
				11.8,-23.2 12.3,-23.6 12.7,-24.1 			"/>
			<path fill="#8FA265" d="M14.9-25.7L13.7-26c0,0-1.5,0-0.9,0.3c0.6,0.3,1.2,0.9,1.2,0.9l1.5-0.3L14.9-25.7z"/>
			<path fill="#8FA265" d="M13.8-21l-0.6-0.1c0,0-0.7,0-0.4,0.1s0.6,0.4,0.6,0.4l0.7-0.1L13.8-21z"/>
			<path fill="#8FA265" d="M19-20.5l-0.6-0.1c0,0-0.7,0-0.4,0.1c0.3,0.1,0.6,0.4,0.6,0.4l0.7-0.1L19-20.5z"/>
			<path fill="#8FA265" d="M12.5-22.6C12.5-22.6,12.5-22.6,12.5-22.6c0,0.3,0.2,0.7,0.6,0.7c0.5,0.1,1-0.4,0.9-0.6
				c-0.1-0.2-0.8-0.2-0.9-0.2"/>
			<path fill="#8FA265" d="M9.8-23.1C9.8-23.2,9.8-23.2,9.8-23.1c0.1-0.3,0-0.7-0.3-0.9c-0.4-0.3-1,0-1.1,0.2c0,0.2,0.7,0.5,0.8,0.5
				"/>
			<path fill="#8FA265" d="M7.5-25.9C7.5-25.9,7.5-25.9,7.5-25.9c0,0.3,0.2,0.7,0.6,0.7C8.5-25,9-25.5,9-25.7
				c-0.1-0.2-0.8-0.2-0.9-0.2"/>
			<path fill="#8FA265" d="M6.7-23.6C6.7-23.6,6.7-23.6,6.7-23.6c0,0.3,0.2,0.7,0.6,0.7c0.5,0.1,1-0.4,0.9-0.6
				c-0.1-0.2-0.8-0.2-0.9-0.2"/>
			<path fill="#8FA265" d="M15.4-21.1C15.4-21.1,15.4-21.1,15.4-21.1c0.1-0.2,0.2-0.5,0.1-0.7c-0.2-0.3-0.8-0.3-0.8-0.2
				c-0.1,0.2,0.4,0.5,0.5,0.6"/>
			<path fill="#8FA265" d="M17.5-20.8C17.5-20.9,17.5-20.9,17.5-20.8c0.3-0.4,0.4-0.9,0.2-1.3c-0.3-0.5-1.3-0.5-1.5-0.2
				c-0.1,0.3,0.6,0.9,0.8,1"/>
			<path fill="#8FA265" d="M6.9-16.1C6.9-16.1,6.9-16.1,6.9-16.1C7-16.3,7.1-16.7,7-16.9c-0.2-0.3-0.8-0.3-0.8-0.2
				c-0.1,0.2,0.4,0.5,0.5,0.6"/>
			<path fill="#8FA265" d="M10.3-21.4L10.3-21.4C10.3-21.4,10.3-21.4,10.3-21.4c0.3,0.3,0.8,0.6,1.2,0.4c0.6-0.2,0.9-1.2,0.7-1.3
				c-0.2-0.2-1.1,0.4-1.2,0.5"/>
			<path fill="#8FA265" d="M14.4-23.5c-0.4,0.2-0.3,0.5,0,0.6c0.5,0.2,1.9-0.1,2-0.3c0-0.2-0.5-0.3-0.7-0.3
				C15.6-23.6,14.8-23.7,14.4-23.5z"/>
			<path opacity="0.39" fill="#8FA265" d="M18.9-24.5c-0.4,0.2-0.3,0.5,0,0.6c0.5,0.2,1.9-0.1,2-0.3c0-0.2-0.5-0.3-0.7-0.3
				C20.1-24.6,19.3-24.7,18.9-24.5z"/>
			<polygon fill="#8FA265" points="14.9,-16.3 14.5,-16.3 14.1,-16.8 13.6,-16.8 12.9,-16.5 13.4,-16 13.4,-15.8 13.7,-15.4 
				14.6,-15 15,-15.4 15.4,-15.8 			"/>
			<path fill="#8FA265" d="M16.8-16.9l-1-0.2c0,0-1.2,0-0.8,0.2s1,0.8,1,0.8l1.2-0.2L16.8-16.9z"/>
			<path fill="#8FA265" d="M12.8-13.3l-0.1,0.5c0,0,0,0.6,0.1,0.4s0.4-0.5,0.4-0.5l-0.1-0.6L12.8-13.3z"/>
			<path fill="#8FA265" d="M5.9-13.5l0.5,0.1c0,0,0.6,0,0.4-0.1s-0.5-0.4-0.5-0.4l-0.6,0.1L5.9-13.5z"/>
			<path fill="#8FA265" d="M13.3-17.8l-0.5-0.1c0,0-0.6,0-0.4,0.1s0.5,0.4,0.5,0.4l0.6-0.1L13.3-17.8z"/>
			<path fill="#8FA265" d="M16-15.4C16-15.4,16-15.4,16-15.4c0,0.3,0.2,0.6,0.5,0.6c0.4,0.1,0.8-0.3,0.8-0.5
				c-0.1-0.2-0.7-0.2-0.8-0.2"/>
			<path fill="#8FA265" d="M10.4-14.7C10.4-14.7,10.4-14.7,10.4-14.7c0.1-0.2,0.2-0.4,0-0.6c-0.2-0.3-0.6-0.3-0.7-0.1
				c-0.1,0.1,0.3,0.4,0.4,0.5"/>
			<path opacity="0.39" fill="#8FA265" d="M5.9-19.2C5.9-19.2,5.9-19.2,5.9-19.2c0.1-0.2,0.2-0.4,0-0.6C5.8-20,5.4-20,5.3-19.9
				c-0.1,0.1,0.3,0.4,0.4,0.5"/>
			<path fill="#8FA265" d="M12.8-19.4C12.8-19.4,12.8-19.4,12.8-19.4c-0.1,0.2-0.2,0.4,0,0.6c0.2,0.3,0.6,0.3,0.7,0.1
				c0.1-0.1-0.3-0.4-0.4-0.5"/>
			<path fill="#8FA265" d="M6-15.9C6-15.9,6-15.9,6-15.9c-0.2,0.3-0.3,0.7-0.1,1c0.3,0.4,1.1,0.4,1.2,0.2c0.1-0.2-0.5-0.8-0.6-0.8"
				/>
			<path fill="#8FA265" d="M14.4-14.1L14.4-14.1C14.4-14.1,14.4-14.1,14.4-14.1c0.2,0.3,0.7,0.5,1,0.4c0.5-0.2,0.7-1,0.5-1.1
				c-0.2-0.2-0.9,0.3-1,0.4"/>
			<path fill="#8FA265" d="M10.9-14.4L10.9-14.4C10.9-14.4,10.9-14.4,10.9-14.4c0.2,0.3,0.7,0.5,1,0.4c0.5-0.2,0.7-1,0.5-1.1
				c-0.2-0.2-0.9,0.3-1,0.4"/>
			<path opacity="0.39" fill="#8FA265" d="M17.6-16.2c-0.3,0.1-0.3,0.4,0,0.5c0.4,0.2,1.6-0.1,1.6-0.2c0-0.1-0.5-0.2-0.5-0.2
				C18.6-16.2,18-16.3,17.6-16.2z"/>
			<path fill="#8FA265" d="M14.1-18.4c-0.3,0.1-0.3,0.4,0,0.5c0.4,0.2,1.6-0.1,1.6-0.2c0-0.1-0.5-0.2-0.5-0.2
				C15.1-18.4,14.5-18.6,14.1-18.4z"/>
			<polygon fill="#8FA265" points="18,-19.8 17.6,-19.8 17,-20.5 16.3,-20.5 15.2,-20.2 15.9,-19.5 15.9,-19.1 16.3,-18.6 
				17.7,-18.1 18.2,-18.6 18.8,-19.1 			"/>
			<path fill="#8FA265" d="M20.1-22.7L18.9-23c0,0-1.5,0-0.9,0.3c0.6,0.3,1.2,0.9,1.2,0.9l1.5-0.3L20.1-22.7z"/>
			<path fill="#8FA265" d="M8.8-15.5l-0.6-0.1c0,0-0.7,0-0.4,0.1C8-15.3,8.3-15,8.3-15l0.7-0.1L8.8-15.5z"/>
			<path fill="#8FA265" d="M7.2-17.4C7.2-17.4,7.2-17.4,7.2-17.4c0,0.3,0.2,0.7,0.6,0.7c0.5,0.1,1-0.4,0.9-0.6
				c-0.1-0.2-0.8-0.2-0.9-0.2"/>
			<path opacity="0.39" fill="#8FA265" d="M13.2-19.9C13.2-19.9,13.2-19.9,13.2-19.9c0,0.3,0.2,0.7,0.6,0.7c0.5,0.1,1-0.4,0.9-0.6
				c-0.1-0.2-0.8-0.2-0.9-0.2"/>
			<path fill="#8FA265" d="M12.4-15.9C12.4-15.9,12.4-15.9,12.4-15.9c0.1-0.2,0.2-0.5,0.1-0.7c-0.2-0.3-0.8-0.3-0.8-0.2
				c-0.1,0.2,0.4,0.5,0.5,0.6"/>
			<path fill="#8FA265" d="M18.7-13.4C18.7-13.4,18.7-13.4,18.7-13.4c0.1-0.2,0.2-0.5,0.1-0.7c-0.2-0.3-0.8-0.3-0.8-0.2
				c-0.1,0.2,0.4,0.5,0.5,0.6"/>
			<path fill="#8FA265" d="M18.5-17.6L18.5-17.6C18.5-17.6,18.5-17.6,18.5-17.6c0.3,0.3,0.8,0.6,1.2,0.4c0.6-0.2,0.9-1.2,0.7-1.3
				c-0.2-0.2-1.1,0.4-1.2,0.5"/>
			<path opacity="0.39" fill="#8FA265" d="M9.4-16.8c-0.4,0.2-0.3,0.5,0,0.6c0.5,0.2,1.9-0.1,2-0.3c0-0.2-0.5-0.3-0.7-0.3
				C10.6-16.8,9.8-17,9.4-16.8z"/>
		</g>
		<g>
			<path opacity="0.39" fill="#8FA265" d="M3.9-24.5c-0.4,0.2-0.3,0.5,0,0.6c0.5,0.2,1.9-0.1,2-0.3c0-0.2-0.5-0.3-0.7-0.3
				C5.1-24.6,4.3-24.7,3.9-24.5z"/>
			<path fill="#8FA265" d="M5.1-22.7L3.9-23c0,0-1.5,0-0.9,0.3c0.6,0.3,1.2,0.9,1.2,0.9l1.5-0.3L5.1-22.7z"/>
			<path fill="#8FA265" d="M3.5-17.6L3.5-17.6C3.5-17.6,3.5-17.6,3.5-17.6c0.3,0.3,0.8,0.6,1.2,0.4c0.6-0.2,0.9-1.2,0.7-1.3
				c-0.2-0.2-1.1,0.4-1.2,0.5"/>
		</g>
		<g>
			<path fill="#8FA265" d="M12.8-26.2l-0.1,0.5c0,0,0,0.6,0.1,0.4s0.4-0.5,0.4-0.5l-0.1-0.6L12.8-26.2z"/>
		</g>
	</g>
</pattern>
<path fill="#AD6F54" stroke="#000000" stroke-miterlimit="10" d="M173.9,169.2h-24.8h-0.3h-24.8c-2.4,0-2.1,2.4-2.1,2.4s0,4.9,0,7
	c0,2.1,2.1,2.1,2.1,2.1h24.8h0.3h24.8c0,0,2.1,0,2.1-2.1c0-2.1,0-7,0-7S176.4,169.2,173.9,169.2z"/>
<path fill="#AD6F54" stroke="#000000" stroke-miterlimit="10" d="M149.1,180.2h-0.3h-24.8l2.4,33c0,0,1.2,7.3,7.3,7.3
	c5.5,0,13.6,0,15,0c0,0,0.1,0,0.3,0c1.5,0,9.5,0,15,0c6.1,0,7.3-7.3,7.3-7.3l2.4-33H149.1z"/>
<path fill="url(#blaadjes_pattern1)" stroke="#000000" stroke-width="0.75" stroke-miterlimit="10" d="M209.5,191.5
	c0,0-10.6,4.7-13.8,9.8c-3.2,5.2-7.2,16.2-7.2,16.2s17,3,22-3s5-16,5-16L209.5,191.5z"/>
<path fill="url(#blaadjes_pattern1)" stroke="#000000" stroke-width="0.75" stroke-miterlimit="10" d="M165.5,136.5
	c0,0-10.6,4.7-13.8,9.8c-3.2,5.2-7.2,16.2-7.2,16.2s17,3,22-3s5-16,5-16L165.5,136.5z"/>
<path fill="url(#blaadjes_pattern1)" stroke="#000000" stroke-width="0.75" stroke-miterlimit="10" d="M160.5,145.5
	c0,0-10.6,4.7-13.8,9.8c-3.2,5.2-7.2,16.2-7.2,16.2s17,3,22-3s5-16,5-16L160.5,145.5z"/>
<path fill="url(#blaadjes_pattern1)" stroke="#000000" stroke-width="0.75" stroke-miterlimit="10" d="M192.5,186.5c0,0,6,7,14,9
	s15,1,15,1s5-4,5-9s2-11-2-14s-22.5-3.1-22.5-3.1l-15.5,7.1L192.5,186.5z"/>
<path fill="url(#blaadjes_pattern1)" stroke="#000000" stroke-width="0.75" stroke-miterlimit="10" d="M171.5,160.5c0,0-4,16-2,18
	s14,7,14,7s13.7-0.9,14.3-1.9c0.7-1.1-4.3-9.3-9.3-13.2C183.5,166.5,171.5,160.5,171.5,160.5z"/>
<path fill="url(#blaadjes_pattern1)" stroke="#000000" stroke-width="0.75" stroke-miterlimit="10" d="M167.5,124.5c0,0-4,16-2,18
	s14,7,14,7s13.7-0.9,14.3-1.9c0.7-1.1-4.3-9.3-9.3-13.2C179.5,130.5,167.5,124.5,167.5,124.5z"/>
<path fill="url(#blaadjes_pattern1)" stroke="#000000" stroke-width="0.75" stroke-miterlimit="10" d="M124.5,123.5c0,0-4,16-2,18
	s14,7,14,7s13.7-0.9,14.3-1.9c0.7-1.1-4.3-9.3-9.3-13.2C136.5,129.5,124.5,123.5,124.5,123.5z"/>
<path fill="url(#blaadjes_pattern1)" stroke="#000000" stroke-width="0.75" stroke-miterlimit="10" d="M217.5,151.5
	c0,0-17.2,8-19.6,10.5s-9.4,8.4-9.4,8.4l5.2,5.5c0,0,12.8-8.3,15.8-10.3S217.5,151.5,217.5,151.5z"/>
<path fill="url(#blaadjes_pattern1)" stroke="#000000" stroke-width="0.75" stroke-miterlimit="10" d="M90.1,132.2
	c0,0,14.1,12.7,17.4,13.9c3.3,1.2,11.4,5.3,11.4,5.3l3-7c0,0-12.7-8.4-15.7-10.4C103.1,132,90.1,132.2,90.1,132.2z"/>
<path fill="url(#blaadjes_pattern1)" stroke="#000000" stroke-width="0.75" stroke-miterlimit="10" d="M208.5,131.5c0,0,3,13-5,21
	s-8,11-19,10s-15.6-5-15.6-5s-5.4-9,4.6-16s13-6.5,13-6.5L208.5,131.5z"/>
<path fill="url(#blaadjes_pattern1)" stroke="#000000" stroke-width="0.75" stroke-miterlimit="10" d="M110.5,128.5l26-13
	c0,0-3-5-11-4s-15,9.1-15,11C110.5,124.5,110.5,128.5,110.5,128.5z"/>
<path fill="url(#blaadjes_pattern1)" stroke="#000000" stroke-width="0.75" stroke-miterlimit="10" d="M114.5,157.5l26-13
	c0,0-3-5-11-4s-15,9.1-15,11C114.5,153.5,114.5,157.5,114.5,157.5z"/>
<path fill="url(#blaadjes_pattern1)" stroke="#000000" stroke-width="0.75" stroke-miterlimit="10" d="M177.5,96.5c0,0-24,6-26,21
	s3.5,28.3,3.5,28.3s22.5-10.3,24.5-20.3S177.5,96.5,177.5,96.5z"/>
<path fill="url(#blaadjes_pattern1)" stroke="#000000" stroke-width="0.75" stroke-miterlimit="10" d="M200.5,118.5c0,0-16,4-19,9
	s-7.6,15.5-7.6,15.5s19.6-5.5,22.6-8.5S200.5,118.5,200.5,118.5z"/>
<path fill="url(#blaadjes_pattern1)" stroke="#000000" stroke-width="0.75" stroke-miterlimit="10" d="M143.5,152.5c0,0-16,4-19,9
	s-7.6,15.5-7.6,15.5s19.6-5.5,22.6-8.5S143.5,152.5,143.5,152.5z"/>
<path fill="url(#blaadjes_pattern1)" stroke="#000000" stroke-width="0.75" stroke-miterlimit="10" d="M107.5,143.5c0,0-16,4-19,9
	S80.9,168,80.9,168s19.6-5.5,22.6-8.5S107.5,143.5,107.5,143.5z"/>
<path fill="url(#blaadjes_pattern1)" stroke="#000000" stroke-width="0.75" stroke-miterlimit="10" d="M204.5,152.5c0,0-16,4-19,9
	s-7.6,15.5-7.6,15.5s19.6-5.5,22.6-8.5S204.5,152.5,204.5,152.5z"/>
<path fill="url(#blaadjes_pattern1)" stroke="#000000" stroke-width="0.75" stroke-miterlimit="10" d="M150.5,141.5
	c0,0-19.9,5-23.6,11.2c-3.7,6.2-9.4,19.3-9.4,19.3s24.4-6.9,28.1-10.6C149.3,157.7,150.5,141.5,150.5,141.5z"/>
<path fill="url(#blaadjes_pattern1)" stroke="#000000" stroke-width="0.75" stroke-miterlimit="10" d="M129.5,122.5c0,0-16,4-19,9
	s-7.6,15.5-7.6,15.5s19.6-5.5,22.6-8.5S129.5,122.5,129.5,122.5z"/>
<path fill="url(#blaadjes_pattern1)" stroke="#000000" stroke-width="0.75" stroke-miterlimit="10" d="M132.1,131.5
	c0,0-17.6-2-18.6-3s12-10,12-10s17-6,20-3s5.6,6.2,5.6,6.2s1.6,8.8-4.5,9.8C140.5,132.5,132.1,131.5,132.1,131.5z"/>
<path fill="url(#blaadjes_pattern1)" stroke="#000000" stroke-width="0.75" stroke-miterlimit="10" d="M155,130.8
	c0,0-8.5,3.7-14.5,7.7c-3.7,2.4-5,10-5,10s8,6,14-1s5.5-16,5.5-16"/>
<path fill="url(#blaadjes_pattern1)" stroke="#000000" stroke-width="0.75" stroke-miterlimit="10" d="M96.8,155.5
	c0,0-7.4-5.6-13.8-8.9c-3.9-2-11.2,0.5-11.2,0.5s-1.4,9.9,7.7,11.8s16.7-3,16.7-3"/>
<path fill="url(#blaadjes_pattern1)" stroke="#000000" stroke-width="0.75" stroke-miterlimit="10" d="M132.2,168.6
	c0,0-6.4-9.7-12.6-16.2c-3.8-4-13.4-4-13.4-4s-5.7,11.1,4.2,17.1s20.9,3.4,20.9,3.4"/>
</svg>
