<?xml version="1.0" encoding="utf-8"?>
<!-- Generator: Adobe Illustrator 28.2.0, SVG Export Plug-In . SVG Version: 6.00 Build 0)  -->
<svg version="1.0" id="Layer_1" xmlns="http://www.w3.org/2000/svg" xmlns:xlink="http://www.w3.org/1999/xlink" x="0px" y="0px"
	 viewBox="0 0 300 300" enable-background="new 0 0 300 300" xml:space="preserve">
<pattern  x="-320" width="14" height="12" patternUnits="userSpaceOnUse" id="Plantpattern_2" viewBox="14.1 -24.2 14 12" overflow="visible">
	<g>
		<rect x="14.1" y="-24.2" fill="none" width="14" height="12"/>
		<g>
			<rect x="28" y="-12.2" fill="#586A26" width="14.2" height="12.2"/>
		</g>
		<g>
			<rect x="14" y="-12.2" fill="#586A26" width="14.2" height="12.2"/>
			<path fill="#BC2F45" d="M21.3-11.7l-0.9-0.9c0,0-1.3-0.8-0.9-0.2c0.4,0.6,0.6,1.4,0.6,1.4l1.4,0.5L21.3-11.7z"/>
			<path fill="#8FA265" d="M16.4-12.6C16.4-12.6,16.4-12.6,16.4-12.6c0,0.3,0.2,0.7,0.6,0.7c0.5,0.1,1-0.4,0.9-0.6
				c-0.1-0.2-0.8-0.2-0.9-0.2"/>
			<path fill="#8FA265" d="M22-12.2c-0.4,0.2-0.3,0.5,0,0.6c0.5,0.2,1.9-0.1,2-0.3c0-0.2-0.5-0.3-0.7-0.3
				C23.2-12.3,22.5-12.4,22-12.2z"/>
		</g>
		<g>
			<rect y="-12.2" fill="#586A26" width="14.2" height="12.2"/>
		</g>
		<g>
			<rect x="28" y="-24.3" fill="#586A26" width="14.2" height="12.2"/>
		</g>
		<g>
			<rect x="14" y="-24.3" fill="#586A26" width="14.2" height="12.2"/>
			<polygon fill="#BC2F45" points="17,-19 16.7,-19 16.2,-19.5 15.8,-19.5 15,-19.3 15.5,-18.8 15.5,-18.5 15.8,-18.2 16.8,-17.8 
				17.1,-18.2 17.5,-18.5 			"/>
			<path fill="#BC2F45" d="M18.9-19.7l-1-0.2c0,0-1.2,0-0.8,0.2s1,0.8,1,0.8l1.2-0.2L18.9-19.7z"/>
			<path opacity="0.39" fill="#C3767C" d="M16.5-12.7l1,0.2c0,0,1.2,0,0.8-0.2s-1-0.8-1-0.8L16-13.2L16.5-12.7z"/>
			<path fill="#8FA265" d="M19.2-16.8l-0.5-0.1c0,0-0.6,0-0.4,0.1s0.5,0.4,0.5,0.4l0.6-0.1L19.2-16.8z"/>
			<path fill="#8FA265" d="M15.4-20.5l-0.5-0.1c0,0-0.6,0-0.4,0.1s0.5,0.4,0.5,0.4l0.6-0.1L15.4-20.5z"/>
			<path fill="#BC2F45" d="M18.1-18.2C18.1-18.2,18.1-18.1,18.1-18.2c0,0.3,0.2,0.6,0.5,0.6c0.4,0.1,0.8-0.3,0.8-0.5
				c-0.1-0.2-0.7-0.2-0.8-0.2"/>
			<path fill="#8FA265" d="M20.6-16.9C20.6-16.9,20.6-16.9,20.6-16.9c0.1-0.2,0.2-0.4,0-0.6c-0.2-0.3-0.6-0.3-0.7-0.1
				c-0.1,0.1,0.3,0.4,0.4,0.5"/>
			<path fill="#8FA265" d="M14.9-22.2C14.9-22.2,14.9-22.2,14.9-22.2c-0.1,0.2-0.2,0.4,0,0.6c0.2,0.3,0.6,0.3,0.7,0.1
				c0.1-0.1-0.3-0.4-0.4-0.5"/>
			<path fill="#8FA265" d="M16.3-17.1L16.3-17.1C16.3-17.1,16.3-17.1,16.3-17.1c0.2,0.3,0.7,0.5,1,0.4c0.5-0.2,0.7-1,0.5-1.1
				c-0.2-0.2-0.9,0.3-1,0.4"/>
			<path fill="#BC2F45" d="M19.7-18.9c-0.3,0.1-0.3,0.4,0,0.5c0.4,0.2,1.6-0.1,1.6-0.2c0-0.1-0.5-0.2-0.5-0.2
				C20.7-18.9,20.1-19.1,19.7-18.9z"/>
			<path opacity="0.39" fill="#C3767C" d="M16.2-21.2c-0.3,0.1-0.3,0.4,0,0.5c0.4,0.2,1.6-0.1,1.6-0.2c0-0.1-0.5-0.2-0.5-0.2
				C17.2-21.2,16.6-21.3,16.2-21.2z"/>
			<polygon fill="#94832D" points="19.8,-22.7 19.4,-22.7 18.9,-23.3 18.3,-23.3 17.4,-23 18,-22.4 18,-22.1 18.3,-21.6 19.5,-21.2 
				19.9,-21.6 20.4,-22.1 			"/>
			<path fill="#BC2F45" d="M21.3-23.7l-0.9-0.9c0,0-1.3-0.8-0.9-0.2c0.4,0.6,0.6,1.4,0.6,1.4l1.4,0.5L21.3-23.7z"/>
			<path fill="#8FA265" d="M22.4-20l-0.6-0.1c0,0-0.7,0-0.4,0.1c0.3,0.1,0.6,0.4,0.6,0.4l0.7-0.1L22.4-20z"/>
			<path fill="#8FA265" d="M27.6-19.5L27-19.6c0,0-0.7,0-0.4,0.1c0.3,0.1,0.6,0.4,0.6,0.4l0.7-0.1L27.6-19.5z"/>
			<path fill="#8FA265" d="M21.1-21.6C21.1-21.6,21.1-21.6,21.1-21.6c0,0.3,0.2,0.7,0.6,0.7c0.5,0.1,1-0.4,0.9-0.6
				c-0.1-0.2-0.8-0.2-0.9-0.2"/>
			<path fill="#94832D" d="M14.4-23.6C14.4-23.6,14.4-23.6,14.4-23.6c0,0.3,0.2,0.7,0.6,0.7c0.5,0.1,1-0.4,0.9-0.6
				c-0.1-0.2-0.8-0.2-0.9-0.2"/>
			<path fill="#8FA265" d="M15.4-22.6C15.4-22.6,15.4-22.6,15.4-22.6c0,0.3,0.2,0.7,0.6,0.7c0.5,0.1,1-0.4,0.9-0.6
				c-0.1-0.2-0.8-0.2-0.9-0.2"/>
			<path fill="#8FA265" d="M16.4-24.6C16.4-24.6,16.4-24.6,16.4-24.6c0,0.3,0.2,0.7,0.6,0.7c0.5,0.1,1-0.4,0.9-0.6
				c-0.1-0.2-0.8-0.2-0.9-0.2"/>
			<path fill="#8FA265" d="M24-20.1C24-20.1,24-20.1,24-20.1c0.1-0.2,0.2-0.5,0.1-0.7c-0.2-0.3-0.8-0.3-0.8-0.2
				c-0.1,0.2,0.4,0.5,0.5,0.6"/>
			<path fill="#BC2F45" d="M15.5-15.1C15.5-15.1,15.5-15.1,15.5-15.1c0.1-0.2,0.2-0.5,0.1-0.7c-0.2-0.3-0.8-0.3-0.8-0.2
				c-0.1,0.2,0.4,0.5,0.5,0.6"/>
			<path fill="#C3767C" d="M18.9-20.4L18.9-20.4C18.9-20.4,18.9-20.4,18.9-20.4c0.3,0.3,0.8,0.6,1.2,0.4c0.6-0.2,0.9-1.2,0.7-1.3
				c-0.2-0.2-1.1,0.4-1.2,0.5"/>
			<path fill="#8FA265" d="M23-22.5c-0.4,0.2-0.3,0.5,0,0.6c0.5,0.2,1.9-0.1,2-0.3c0-0.2-0.5-0.3-0.7-0.3
				C24.2-22.6,23.5-22.7,23-22.5z"/>
			<path fill="#8FA265" d="M22-24.3c-0.4,0.2-0.3,0.5,0,0.6c0.5,0.2,1.9-0.1,2-0.3c0-0.2-0.5-0.3-0.7-0.3
				C23.2-24.3,22.5-24.5,22-24.3z"/>
			<path opacity="0.39" fill="#94832D" d="M25.5-23.5c-0.4,0.2-0.3,0.5,0,0.6c0.5,0.2,1.9-0.1,2-0.3c0-0.2-0.5-0.3-0.7-0.3
				C26.7-23.6,26-23.7,25.5-23.5z"/>
			<polygon fill="#C3767C" points="23.5,-15.3 23.2,-15.3 22.8,-15.8 22.2,-15.8 21.5,-15.5 22,-15 22,-14.8 22.3,-14.4 23.2,-14 
				23.6,-14.4 24,-14.8 			"/>
			<path fill="#BC2F45" d="M25.4-15.9l-1-0.2c0,0-1.2,0-0.8,0.2s1,0.8,1,0.8l1.2-0.2L25.4-15.9z"/>
			<path fill="#8FA265" d="M25.7-13l-0.5-0.1c0,0-0.6,0-0.4,0.1s0.5,0.4,0.5,0.4l0.6-0.1L25.7-13z"/>
			<path fill="#8FA265" d="M21.5-13.3l-0.1,0.5c0,0,0,0.6,0.1,0.4s0.4-0.5,0.4-0.5l-0.1-0.6L21.5-13.3z"/>
			<path fill="#8FA265" d="M14.5-12.5l0.5,0.1c0,0,0.6,0,0.4-0.1s-0.5-0.4-0.5-0.4l-0.6,0.1L14.5-12.5z"/>
			<path fill="#BC2F45" d="M21.9-16.8l-0.5-0.1c0,0-0.6,0-0.4,0.1s0.5,0.4,0.5,0.4l0.6-0.1L21.9-16.8z"/>
			<path fill="#8FA265" d="M24.6-14.4C24.6-14.4,24.6-14.4,24.6-14.4c0,0.3,0.2,0.6,0.5,0.6c0.4,0.1,0.8-0.3,0.8-0.5
				c-0.1-0.2-0.7-0.2-0.8-0.2"/>
			<path fill="#8FA265" d="M19.1-13.7C19.1-13.7,19.1-13.7,19.1-13.7c0.1-0.2,0.2-0.4,0-0.6c-0.2-0.3-0.6-0.3-0.7-0.1
				c-0.1,0.1,0.3,0.4,0.4,0.5"/>
			<path opacity="0.39" fill="#8FA265" d="M15.1-16.9C15.1-16.9,15.1-16.9,15.1-16.9c0.1-0.2,0.2-0.4,0-0.6
				c-0.2-0.3-0.6-0.3-0.7-0.1c-0.1,0.1,0.3,0.4,0.4,0.5"/>
			<path fill="#8FA265" d="M21.4-18.4C21.4-18.4,21.4-18.4,21.4-18.4c-0.1,0.2-0.2,0.4,0,0.6c0.2,0.3,0.6,0.3,0.7,0.1
				c0.1-0.1-0.3-0.4-0.4-0.5"/>
			<path fill="#8FA265" d="M14.6-14.9C14.6-14.9,14.6-14.9,14.6-14.9c-0.2,0.3-0.3,0.7-0.1,1c0.3,0.4,1.1,0.4,1.2,0.2
				c0.1-0.2-0.5-0.8-0.6-0.8"/>
			<path fill="#8FA265" d="M22.8-13.4L22.8-13.4C22.8-13.4,22.8-13.3,22.8-13.4c0.2,0.3,0.7,0.5,1,0.4c0.5-0.2,0.7-1,0.5-1.1
				c-0.2-0.2-0.9,0.3-1,0.4"/>
			<path fill="#8FA265" d="M19.5-13.4L19.5-13.4C19.5-13.4,19.5-13.3,19.5-13.4c0.2,0.3,0.7,0.5,1,0.4c0.5-0.2,0.7-1,0.5-1.1
				c-0.2-0.2-0.9,0.3-1,0.4"/>
			<path fill="#8FA265" d="M18.3-11.6L18.3-11.6C18.3-11.6,18.3-11.6,18.3-11.6c0.2,0.3,0.7,0.5,1,0.4c0.5-0.2,0.7-1,0.5-1.1
				c-0.2-0.2-0.9,0.3-1,0.4"/>
			<path opacity="0.39" fill="#8FA265" d="M26.2-15.2c-0.3,0.1-0.3,0.4,0,0.5c0.4,0.2,1.6-0.1,1.6-0.2c0-0.1-0.5-0.2-0.5-0.2
				C27.2-15.2,26.6-15.3,26.2-15.2z"/>
			<path fill="#8FA265" d="M22.7-17.4c-0.3,0.1-0.3,0.4,0,0.5c0.4,0.2,1.6-0.1,1.6-0.2c0-0.1-0.5-0.2-0.5-0.2
				C23.7-17.4,23.1-17.6,22.7-17.4z"/>
			<polygon fill="#C3767C" points="26.3,-18.9 25.9,-18.9 25.4,-19.5 24.8,-19.5 23.9,-19.2 24.5,-18.6 24.5,-18.3 24.8,-17.9 
				26,-17.4 26.4,-17.9 26.9,-18.3 			"/>
			<path fill="#94832D" d="M27-21.2l-1.2-0.3c0,0-1.5,0-0.9,0.3c0.6,0.3,1.2,0.9,1.2,0.9l1.5-0.3L27-21.2z"/>
			<path fill="#94832D" d="M28.8-19.1L28-18.7c0,0-0.7,0.7-0.3,0.6c0.4-0.1,1-0.1,1-0.1l0.6-0.8L28.8-19.1z"/>
			<path fill="#8FA265" d="M17.4-14.5l-0.6-0.1c0,0-0.7,0-0.4,0.1c0.3,0.1,0.6,0.4,0.6,0.4l0.7-0.1L17.4-14.5z"/>
			<path fill="#BC2F45" d="M15.9-16.4C15.9-16.4,15.9-16.4,15.9-16.4c0,0.3,0.2,0.7,0.6,0.7c0.5,0.1,1-0.4,0.9-0.6
				c-0.1-0.2-0.8-0.2-0.9-0.2"/>
			<path opacity="0.39" fill="#8FA265" d="M21.9-18.9C21.9-18.9,21.9-18.9,21.9-18.9c0,0.3,0.2,0.7,0.6,0.7c0.5,0.1,1-0.4,0.9-0.6
				c-0.1-0.2-0.8-0.2-0.9-0.2"/>
			<path fill="#8FA265" d="M21-14.9C21-14.9,21-14.9,21-14.9c0.1-0.2,0.2-0.5,0.1-0.7c-0.2-0.3-0.8-0.3-0.8-0.2
				c-0.1,0.2,0.4,0.5,0.5,0.6"/>
			<path fill="#BC2F45" d="M27.3-12.4C27.3-12.4,27.3-12.4,27.3-12.4c0.1-0.2,0.2-0.5,0.1-0.7c-0.2-0.3-0.8-0.3-0.8-0.2
				c-0.1,0.2,0.4,0.5,0.5,0.6"/>
			<path fill="#BC2F45" d="M26.5-11.6C26.5-11.6,26.5-11.6,26.5-11.6c0.1-0.2,0.2-0.5,0.1-0.7c-0.2-0.3-0.8-0.3-0.8-0.2
				c-0.1,0.2,0.4,0.5,0.5,0.6"/>
			<path fill="#8FA265" d="M25.4-16.6L25.4-16.6C25.4-16.6,25.4-16.6,25.4-16.6c0.3,0.3,0.8,0.6,1.2,0.4c0.6-0.2,0.9-1.2,0.7-1.3
				C27-17.7,26.2-17.1,26-17"/>
			<path opacity="0.39" fill="#BC2F45" d="M18-15.8c-0.4,0.2-0.3,0.5,0,0.6c0.5,0.2,1.9-0.1,2-0.3c0-0.2-0.5-0.3-0.7-0.3
				C19.2-15.8,18.5-16,18-15.8z"/>
		</g>
		<g>
			<rect y="-24.3" fill="#586A26" width="14.2" height="12.2"/>
			<path fill="#94832D" d="M14.8-19.1L14-18.7c0,0-0.7,0.7-0.3,0.6c0.4-0.1,1-0.1,1-0.1l0.6-0.8L14.8-19.1z"/>
		</g>
		<g>
			<rect x="28" y="-36.3" fill="#586A26" width="14.2" height="12.2"/>
		</g>
		<g>
			<rect x="14" y="-36.3" fill="#586A26" width="14.2" height="12.2"/>
			<path fill="#8FA265" d="M18.3-23.6L18.3-23.6C18.3-23.6,18.3-23.6,18.3-23.6c0.2,0.3,0.7,0.5,1,0.4c0.5-0.2,0.7-1,0.5-1.1
				c-0.2-0.2-0.9,0.3-1,0.4"/>
			<path fill="#BC2F45" d="M26.5-23.7C26.5-23.7,26.5-23.7,26.5-23.7c0.1-0.2,0.2-0.5,0.1-0.7c-0.2-0.3-0.8-0.3-0.8-0.2
				c-0.1,0.2,0.4,0.5,0.5,0.6"/>
		</g>
		<g>
			<rect y="-36.3" fill="#586A26" width="14.2" height="12.2"/>
		</g>
	</g>
</pattern>
<path fill="#AD6F54" stroke="#000000" stroke-miterlimit="10" d="M169.9,174.2h-24.8h-0.3h-24.8c-2.4,0-2.1,2.4-2.1,2.4s0,4.9,0,7
	c0,2.1,2.1,2.1,2.1,2.1h24.8h0.3h24.8c0,0,2.1,0,2.1-2.1c0-2.1,0-7,0-7S172.4,174.2,169.9,174.2z"/>
<path fill="#AD6F54" stroke="#000000" stroke-miterlimit="10" d="M145.1,185.2h-0.3h-24.8l2.4,33c0,0,1.2,7.3,7.3,7.3
	c5.5,0,13.6,0,15,0c0,0,0.1,0,0.3,0c1.5,0,9.5,0,15,0c6.1,0,7.3-7.3,7.3-7.3l2.4-33H145.1z"/>
<rect x="140.6" y="116" fill="#6E7D2C" stroke="#000000" stroke-miterlimit="10" width="4.4" height="58.2"/>
<path fill="url(#Plantpattern_2)" stroke="#000000" stroke-miterlimit="10" d="M142.8,124.2c0,0-12.3-14.7-10.3-20.7s14-15,21-18
	s32-10,32-10s-4,5-3,11s-7,11-7,11s-19,13-22,18S142.8,124.2,142.8,124.2z"/>
<path fill="url(#Plantpattern_2)" stroke="#000000" stroke-miterlimit="10" d="M152.5,140.5c0,0-3-19,1-21s5-6,11-6s10,3,14,1
	s18.7-5.7,18.7-5.7s9.3-1.3,12.3-0.3s7.3,4,7.3,4s-7.3-5-16.3,1s-32,14-37,20S152.5,140.5,152.5,140.5z"/>
<path fill="url(#Plantpattern_2)" stroke="#000000" stroke-miterlimit="10" d="M163.9,150c0,0-4.4-12.5,12.6-14.5s36-2,36-2l21.5,7
	c0,0-24.1,3.9-35.3,3.9C187.5,144.5,163.9,150,163.9,150z"/>
<path fill="url(#Plantpattern_2)" stroke="#000000" stroke-miterlimit="10" d="M122.5,121.5c0,0,5,8-3,14s-32,16-32,16s2,5,3,5
	s4-1,4-1s-2,3-5,3s-9-10-9-11s3-3,5-9s5-11,8-12s11-8,16-8S122.5,121.5,122.5,121.5z"/>
<path fill="url(#Plantpattern_2)" stroke="#000000" stroke-miterlimit="10" d="M138.3,123.7c0,0-35.5-13.2-38.7-13.7
	s-5.2,0.5-5.2,0.5s3.1,2.4,5.1,4.7c1.9,2.3,25.9,18.3,27.9,19.3s9.7-4.2,10.8-5.6S138.3,123.7,138.3,123.7z"/>
<path fill="url(#Plantpattern_2)" stroke="#000000" stroke-miterlimit="10" d="M139.5,146.5c0,0-6.4-12.4-7.2-12.2
	c-0.8,0.2-9.3-2.7-9.3-2.7l-5.6,5.3c0,0,6,7.5,11.1,9.5C133.5,148.5,139.5,146.5,139.5,146.5z"/>
<polygon fill="#6E7D2C" stroke="#000000" stroke-miterlimit="10" points="153.5,137.5 143.5,153.5 143.5,156.3 155.3,138.5 "/>
<polygon fill="#6E7D2C" stroke="#000000" stroke-miterlimit="10" points="164.5,148.5 144.5,166.5 143.5,169.5 165.8,150 "/>
<polygon fill="#6E7D2C" stroke="#000000" stroke-miterlimit="10" points="136.4,147.2 141.4,157 141.4,154.4 137.5,146.5 "/>
</svg>
