<?xml version="1.0" encoding="UTF-8"?>
<svg id="Layer_1" data-name="Layer 1" xmlns="http://www.w3.org/2000/svg" viewBox="0 0 300 300">
  <path d="M174.91,170.2h-49.83c-2.44,0-2.06,2.44-2.06,2.44v6.95c0,2.06,2.06,2.06,2.06,2.06h49.83s2.06,0,2.06-2.06v-6.95s.38-2.44-2.06-2.44Z" style="fill: #ad6f54; stroke: #000; stroke-miterlimit: 10;"/>
  <path d="M150.13,181.19h-25.04l2.44,32.98s1.22,7.33,7.33,7.33h30.28c6.11,0,7.33-7.33,7.33-7.33l2.44-32.98h-24.79Z" style="fill: #ad6f54; stroke: #000; stroke-miterlimit: 10;"/>
  <path d="M112.52,145.35s7.67,5.16,12.96,5.1,10.43-3.42,10.43-3.42c0,0-4.6-6.78-7.83-6.35s-15.56,4.67-15.56,4.67Z" style="fill: #586138; stroke: #000; stroke-miterlimit: 10; stroke-width: .5px;"/>
  <path d="M133,146s-2-4-4-4-10,3-10,3c0,0,5,4,7,4s7-3,7-3Z" style="fill: #a094a6; stroke-width: 0px;"/>
  <path d="M90.39,102.98s5.55,8.84,10.98,12.7c5.43,3.86,12.19,5.57,12.19,5.57,0,0-1.69-7.57-5.18-9.69s-17.99-8.58-17.99-8.58Z" style="fill: #586138; stroke: #000; stroke-miterlimit: 10; stroke-width: .5px;"/>
  <path d="M111.05,118.48s-.27-3.94-2.31-5.42-11.56-5.52-11.56-5.52c0,0,3.33,6.16,5.38,7.63s8.5,3.31,8.5,3.31Z" style="fill: #a094a6; stroke-width: 0px;"/>
  <path d="M80.24,96.3s9.63,4.04,16.29,4.08c6.66.04,13.18-2.45,13.18-2.45,0,0-5.73-5.23-9.81-4.95-4.07.28-19.66,3.32-19.66,3.32Z" style="fill: #586138; stroke: #000; stroke-miterlimit: 10; stroke-width: .5px;"/>
  <path d="M106.06,97.1s-2.49-3.07-5.01-3.1-12.63,2.13-12.63,2.13c0,0,6.27,3.12,8.79,3.15s8.85-2.18,8.85-2.18Z" style="fill: #a094a6; stroke-width: 0px;"/>
  <path d="M100.63,147s4.73-5.24,5.27-9.24-1.43-8.27-1.43-8.27c0,0-5.61,2.73-5.65,5.22-.03,2.49,1.8,12.29,1.8,12.29Z" style="fill: #586138; stroke: #000; stroke-miterlimit: 10; stroke-width: .5px;"/>
  <path d="M103.38,131.57s-3.24,1.07-3.46,2.58,1.16,7.9,1.16,7.9c0,0,3.57-3.34,3.79-4.86s-1.49-5.63-1.49-5.63Z" style="fill: #a094a6; stroke-width: 0px;"/>
  <path d="M115.63,134s4.73-5.24,5.27-9.24-1.43-8.27-1.43-8.27c0,0-5.61,2.73-5.65,5.22-.03,2.49,1.8,12.29,1.8,12.29Z" style="fill: #586138; stroke: #000; stroke-miterlimit: 10; stroke-width: .5px;"/>
  <path d="M118.38,118.57s-3.24,1.07-3.46,2.58,1.16,7.9,1.16,7.9c0,0,3.57-3.34,3.79-4.86s-1.49-5.63-1.49-5.63Z" style="fill: #a094a6; stroke-width: 0px;"/>
  <path d="M107.63,145s4.73-5.24,5.27-9.24-1.43-8.27-1.43-8.27c0,0-5.61,2.73-5.65,5.22-.03,2.49,1.8,12.29,1.8,12.29Z" style="fill: #586138; stroke: #000; stroke-miterlimit: 10; stroke-width: .5px;"/>
  <path d="M110.38,129.57s-3.24,1.07-3.46,2.58,1.16,7.9,1.16,7.9c0,0,3.57-3.34,3.79-4.86s-1.49-5.63-1.49-5.63Z" style="fill: #a094a6; stroke-width: 0px;"/>
  <path d="M138.8,170.74c-.83-5.49-1.87-11.03-3.18-16.45-1.31-4.63-2.23-9.78-5.28-13.57-2.59-2.43-3.92-5.72-5.39-8.83-3.4-7.78-6.08-15.85-8.58-23.94,1.96,5.29,4.06,10.53,6.32,15.68,2.29,4.94,4.55,10.39,7.98,14.55.33.37.71.68,1.07.99,1.85,1.68,2.87,4.04,3.87,6.23,3.29,7.96,5.28,16.27,7.13,24.66,0,0-3.94.69-3.94.69h0Z" style="fill: #42210b; stroke-width: 0px;"/>
  <path d="M143.54,170.79c-1.8-7.08-3.57-14.16-5.31-21.25-2-8.89-4.69-17.75-5.73-26.84-.92-9.88-2.24-28.14-3.01-38.2,1.08,10.12,2.95,28.16,4.18,38.07,1.34,8.99,4.35,17.62,6.67,26.41,2,7.01,4.03,14.02,6.09,21.01l-2.89.8h0Z" style="fill: #42210b; stroke-width: 0px;"/>
  <path d="M115.43,110.64s-.44-7.04-2.92-10.23c-2.49-3.19-6.91-4.76-6.91-4.76,0,0-1.97,5.92-.21,7.69s10.05,7.3,10.05,7.3Z" style="fill: #586138; stroke: #000; stroke-miterlimit: 10; stroke-width: .5px;"/>
  <path d="M106.32,97.89s-1.5,3.06-.57,4.28c.93,1.22,6.46,4.69,6.46,4.69,0,0,.1-4.89-.83-6.1-.93-1.22-5.07-2.87-5.07-2.87Z" style="fill: #a094a6; stroke-width: 0px;"/>
  <path d="M124.28,96.15s-5.97-3.77-10.01-3.61c-4.04.15-7.91,2.82-7.91,2.82,0,0,3.65,5.06,6.11,4.67s11.8-3.88,11.8-3.88Z" style="fill: #586138; stroke: #000; stroke-miterlimit: 10; stroke-width: .5px;"/>
  <path d="M136.45,68.92s-6.07,3.61-7.77,7.27-1.08,8.33-1.08,8.33c0,0,6.17-.95,6.94-3.32.77-2.37,1.91-12.28,1.91-12.28Z" style="fill: #a094a6; stroke: #000; stroke-miterlimit: 10; stroke-width: .5px;"/>
  <path d="M103.24,85.3s9.63,4.04,16.29,4.08c6.66.04,13.18-2.45,13.18-2.45,0,0-5.73-5.23-9.81-4.95-4.07.28-19.66,3.32-19.66,3.32Z" style="fill: #586138; stroke: #000; stroke-miterlimit: 10; stroke-width: .5px;"/>
  <path d="M129.06,86.1s-2.49-3.07-5.01-3.1-12.63,2.13-12.63,2.13c0,0,6.27,3.12,8.79,3.15s8.85-2.18,8.85-2.18Z" style="fill: #a094a6; stroke-width: 0px;"/>
  <path d="M138.43,99.64s-.44-7.04-2.92-10.23c-2.49-3.19-6.91-4.76-6.91-4.76,0,0-1.97,5.92-.21,7.69s10.05,7.3,10.05,7.3Z" style="fill: #586138; stroke: #000; stroke-miterlimit: 10; stroke-width: .5px;"/>
  <path d="M129.32,86.89s-1.5,3.06-.57,4.28c.93,1.22,6.46,4.69,6.46,4.69,0,0,.1-4.89-.83-6.1-.93-1.22-5.07-2.87-5.07-2.87Z" style="fill: #a094a6; stroke-width: 0px;"/>
  <path d="M147.28,85.15s-5.97-3.77-10.01-3.61c-4.04.15-7.91,2.82-7.91,2.82,0,0,3.65,5.06,6.11,4.67s11.8-3.88,11.8-3.88Z" style="fill: #586138; stroke: #000; stroke-miterlimit: 10; stroke-width: .5px;"/>
  <path d="M102.24,109.3s9.63,4.04,16.29,4.08c6.66.04,13.18-2.45,13.18-2.45,0,0-5.73-5.23-9.81-4.95-4.07.28-19.66,3.32-19.66,3.32Z" style="fill: #586138; stroke: #000; stroke-miterlimit: 10; stroke-width: .5px;"/>
  <path d="M128.06,110.1s-2.49-3.07-5.01-3.1-12.63,2.13-12.63,2.13c0,0,6.27,3.12,8.79,3.15s8.85-2.18,8.85-2.18Z" style="fill: #a094a6; stroke-width: 0px;"/>
  <path d="M137.43,123.64s-.44-7.04-2.92-10.23c-2.49-3.19-6.91-4.76-6.91-4.76,0,0-1.97,5.92-.21,7.69s10.05,7.3,10.05,7.3Z" style="fill: #586138; stroke: #000; stroke-miterlimit: 10; stroke-width: .5px;"/>
  <path d="M128.32,110.89s-1.5,3.06-.57,4.28c.93,1.22,6.46,4.69,6.46,4.69,0,0,.1-4.89-.83-6.1-.93-1.22-5.07-2.87-5.07-2.87Z" style="fill: #a094a6; stroke-width: 0px;"/>
  <path d="M146.28,109.15s-5.97-3.77-10.01-3.61c-4.04.15-7.91,2.82-7.91,2.82,0,0,3.65,5.06,6.11,4.67s11.8-3.88,11.8-3.88Z" style="fill: #586138; stroke: #000; stroke-miterlimit: 10; stroke-width: .5px;"/>
  <path d="M151.28,144.15s-5.97-3.77-10.01-3.61c-4.04.15-7.91,2.82-7.91,2.82,0,0,3.65,5.06,6.11,4.67,2.46-.39,11.8-3.88,11.8-3.88Z" style="fill: #586138; stroke: #000; stroke-miterlimit: 10; stroke-width: .5px;"/>
  <path d="M128.28,116.15s-5.97-3.77-10.01-3.61c-4.04.15-7.91,2.82-7.91,2.82,0,0,3.65,5.06,6.11,4.67,2.46-.39,11.8-3.88,11.8-3.88Z" style="fill: #586138; stroke: #000; stroke-miterlimit: 10; stroke-width: .5px;"/>
  <path d="M153.28,92.15s-5.97-3.77-10.01-3.61c-4.04.15-7.91,2.82-7.91,2.82,0,0,3.65,5.06,6.11,4.67,2.46-.39,11.8-3.88,11.8-3.88Z" style="fill: #586138; stroke: #000; stroke-miterlimit: 10; stroke-width: .5px;"/>
  <path d="M111.5,122.5s-16,6-14,8,5,2,5,2c0,0,11-5,12-8s-3-2-3-2Z" style="fill: #586138; stroke: #000; stroke-miterlimit: 10; stroke-width: .5px;"/>
  <path d="M101.5,133.5l-9.39,15.5s-4.61-4.5-1.61-9.5,7-9,7-9l4,2v1Z" style="fill: #a094a6; stroke: #000; stroke-miterlimit: 10; stroke-width: .5px;"/>
  <path d="M139.62,130.24s-.12-2.74-1.12-5.74-2.07-5.63-2.07-5.63l-.63-5.23s6.33,3.64,7.51,6.24c1.18,2.61,2.41,10.35,2.41,10.35,0,0-.49,2.26-1.36,5.26-.87,3-4.75-5.26-4.75-5.26Z" style="fill: #586138; stroke: #000; stroke-miterlimit: 10; stroke-width: .5px;"/>
  <path d="M142.06,120.06l-4.74-4.68s.68,4.63,1.68,6.63,3,8,3,8c0,0,1-1,1-3s-.94-6.94-.94-6.94Z" style="fill: #a094a6; stroke-width: 0px;"/>
  <path d="M150.62,125.24s-.12-2.74-1.12-5.74-2.07-5.63-2.07-5.63l-.63-5.23s6.33,3.64,7.51,6.24c1.18,2.61,2.41,10.35,2.41,10.35,0,0-.49,2.26-1.36,5.26-.87,3-4.75-5.26-4.75-5.26Z" style="fill: #586138; stroke: #000; stroke-miterlimit: 10; stroke-width: .5px;"/>
  <path d="M153.06,115.06l-4.74-4.68s.68,4.63,1.68,6.63,3,8,3,8c0,0,1-1,1-3s-.94-6.94-.94-6.94Z" style="fill: #a094a6; stroke-width: 0px;"/>
  <path d="M180.27,149.84s-6.59,4.64-11.13,4.59-8.96-3.08-8.96-3.08c0,0,3.95-6.1,6.73-5.72s13.37,4.2,13.37,4.2Z" style="fill: #586138; stroke: #000; stroke-miterlimit: 10; stroke-width: .5px;"/>
  <path d="M162.66,150.42s1.72-3.6,3.44-3.6,8.59,2.7,8.59,2.7c0,0-4.3,3.6-6.02,3.6s-6.02-2.7-6.02-2.7Z" style="fill: #a094a6; stroke-width: 0px;"/>
  <path d="M199.28,111.68s-4.77,7.96-9.44,11.44-10.48,5.02-10.48,5.02c0,0,1.45-6.82,4.45-8.73,3-1.9,15.46-7.73,15.46-7.73Z" style="fill: #586138; stroke: #000; stroke-miterlimit: 10; stroke-width: .5px;"/>
  <path d="M181.52,125.64s.23-3.55,1.99-4.88,9.94-4.97,9.94-4.97c0,0-2.87,5.54-4.62,6.87-1.76,1.33-7.3,2.98-7.3,2.98Z" style="fill: #a094a6; stroke-width: 0px;"/>
  <path d="M208,105.67s-8.27,3.64-14,3.67c-5.72.03-11.33-2.2-11.33-2.2,0,0,4.93-4.71,8.43-4.46,3.5.25,16.89,2.99,16.89,2.99Z" style="fill: #586138; stroke: #000; stroke-miterlimit: 10; stroke-width: .5px;"/>
  <path d="M185.81,106.39s2.14-2.77,4.3-2.8,10.86,1.92,10.86,1.92c0,0-5.39,2.81-7.55,2.84s-7.61-1.96-7.61-1.96Z" style="fill: #a094a6; stroke-width: 0px;"/>
  <path d="M190.48,151.32s-4.07-4.72-4.53-8.32c-.46-3.61,1.23-7.45,1.23-7.45,0,0,4.82,2.46,4.85,4.7.03,2.24-1.55,11.07-1.55,11.07Z" style="fill: #586138; stroke: #000; stroke-miterlimit: 10; stroke-width: .5px;"/>
  <path d="M188.12,137.43s2.78.96,2.97,2.33-.99,7.12-.99,7.12c0,0-3.06-3.01-3.25-4.37-.19-1.36,1.28-5.07,1.28-5.07Z" style="fill: #a094a6; stroke-width: 0px;"/>
  <path d="M177.59,139.62s-4.07-4.72-4.53-8.32,1.23-7.45,1.23-7.45c0,0,4.82,2.46,4.85,4.7s-1.55,11.07-1.55,11.07Z" style="fill: #586138; stroke: #000; stroke-miterlimit: 10; stroke-width: .5px;"/>
  <path d="M175.22,125.72s2.78.96,2.97,2.33c.19,1.36-.99,7.12-.99,7.12,0,0-3.06-3.01-3.25-4.37-.19-1.36,1.28-5.07,1.28-5.07Z" style="fill: #a094a6; stroke-width: 0px;"/>
  <path d="M184.46,149.52s-4.07-4.72-4.53-8.32,1.23-7.45,1.23-7.45c0,0,4.82,2.46,4.85,4.7s-1.55,11.07-1.55,11.07Z" style="fill: #586138; stroke: #000; stroke-miterlimit: 10; stroke-width: .5px;"/>
  <path d="M182.1,135.62s2.78.96,2.97,2.33c.19,1.36-.99,7.12-.99,7.12,0,0-3.06-3.01-3.25-4.37-.19-1.36,1.28-5.07,1.28-5.07Z" style="fill: #a094a6; stroke-width: 0px;"/>
  <path d="M157,169.91c.44-4.89,1.08-9.67,2.09-14.47.86-3.64,1.6-7.44,3.92-10.58,2.67-2.36,4.24-5.54,5.81-8.76,3.09-6.48,5.69-13.19,8.14-19.95-1.32,4.62-2.75,9.2-4.32,13.75-1.64,4.59-3.2,9.12-5.67,13.4-.56,1.06-1.49,1.95-2.26,2.87-.56.82-.98,1.88-1.32,2.96-.67,2.18-1.08,4.5-1.4,6.83-.62,4.66-.91,9.44-.99,14.14l-4-.18h0Z" style="fill: #42210b; stroke-width: 0px;"/>
  <path d="M147.1,169.95c4.89-11.98,10.03-24.01,14.05-36.29.47-1.35.72-3.27.89-4.68,1.05-8.78,2.7-25.01,3.63-33.94-.64,9.05-1.71,25.19-2.47,34.06-.12,1.47-.33,3.55-.74,4.92-1.7,6.35-3.87,12.48-5.98,18.64-2.14,6.15-4.34,12.28-6.59,18.39l-2.79-1.1h0Z" style="fill: #42210b; stroke-width: 0px;"/>
  <path d="M177.76,118.58s.38-6.34,2.51-9.21,5.94-4.29,5.94-4.29c0,0,1.69,5.33.18,6.92-1.51,1.59-8.64,6.58-8.64,6.58Z" style="fill: #586138; stroke: #000; stroke-miterlimit: 10; stroke-width: .5px;"/>
  <path d="M185.59,107.09s1.28,2.76.49,3.85-5.55,4.23-5.55,4.23c0,0-.09-4.4.71-5.5.8-1.1,4.36-2.59,4.36-2.59Z" style="fill: #a094a6; stroke-width: 0px;"/>
  <path d="M170.16,105.53s5.13-3.39,8.6-3.25c3.47.14,6.8,2.54,6.8,2.54,0,0-3.14,4.56-5.25,4.2s-10.14-3.49-10.14-3.49Z" style="fill: #586138; stroke: #000; stroke-miterlimit: 10; stroke-width: .5px;"/>
  <path d="M159.7,81s5.21,3.25,6.67,6.55c1.46,3.3.93,7.5.93,7.5,0,0-5.3-.86-5.96-2.99s-1.64-11.06-1.64-11.06Z" style="fill: #a094a6; stroke: #000; stroke-miterlimit: 10; stroke-width: .5px;"/>
  <path d="M188.23,95.76s-8.27,3.64-14,3.67c-5.72.03-11.33-2.2-11.33-2.2,0,0,4.93-4.71,8.43-4.46,3.5.25,16.89,2.99,16.89,2.99Z" style="fill: #586138; stroke: #000; stroke-miterlimit: 10; stroke-width: .5px;"/>
  <path d="M166.05,96.48s2.14-2.77,4.3-2.8,10.86,1.92,10.86,1.92c0,0-5.39,2.81-7.55,2.84s-7.61-1.96-7.61-1.96Z" style="fill: #a094a6; stroke-width: 0px;"/>
  <path d="M157.99,108.67s.38-6.34,2.51-9.21c2.14-2.87,5.94-4.29,5.94-4.29,0,0,1.69,5.33.18,6.92-1.51,1.59-8.64,6.58-8.64,6.58Z" style="fill: #586138; stroke: #000; stroke-miterlimit: 10; stroke-width: .5px;"/>
  <path d="M165.83,97.19s1.28,2.76.49,3.85-5.55,4.23-5.55,4.23c0,0-.09-4.4.71-5.5s4.36-2.59,4.36-2.59Z" style="fill: #a094a6; stroke-width: 0px;"/>
  <path d="M150.39,95.63s5.13-3.39,8.6-3.25,6.8,2.54,6.8,2.54c0,0-3.14,4.56-5.25,4.2s-10.14-3.49-10.14-3.49Z" style="fill: #586138; stroke: #000; stroke-miterlimit: 10; stroke-width: .5px;"/>
  <path d="M189.09,117.37s-8.27,3.64-14,3.67c-5.72.03-11.33-2.2-11.33-2.2,0,0,4.93-4.71,8.43-4.46,3.5.25,16.89,2.99,16.89,2.99Z" style="fill: #586138; stroke: #000; stroke-miterlimit: 10; stroke-width: .5px;"/>
  <path d="M166.91,118.09s2.14-2.77,4.3-2.8,10.86,1.92,10.86,1.92c0,0-5.39,2.81-7.55,2.84s-7.61-1.96-7.61-1.96Z" style="fill: #a094a6; stroke-width: 0px;"/>
  <path d="M158.85,130.28s.38-6.34,2.51-9.21c2.14-2.87,5.94-4.29,5.94-4.29,0,0,1.69,5.33.18,6.92s-8.64,6.58-8.64,6.58Z" style="fill: #586138; stroke: #000; stroke-miterlimit: 10; stroke-width: .5px;"/>
  <path d="M166.69,118.8s1.28,2.76.49,3.85c-.8,1.1-5.55,4.23-5.55,4.23,0,0-.09-4.4.71-5.5s4.36-2.59,4.36-2.59Z" style="fill: #a094a6; stroke-width: 0px;"/>
  <path d="M151.25,117.24s5.13-3.39,8.6-3.25c3.47.14,6.8,2.54,6.8,2.54,0,0-3.14,4.56-5.25,4.2s-10.14-3.49-10.14-3.49Z" style="fill: #586138; stroke: #000; stroke-miterlimit: 10; stroke-width: .5px;"/>
  <path d="M146.96,148.76s5.13-3.39,8.6-3.25c3.47.14,6.8,2.54,6.8,2.54,0,0-3.14,4.56-5.25,4.2-2.11-.36-10.14-3.49-10.14-3.49Z" style="fill: #586138; stroke: #000; stroke-miterlimit: 10; stroke-width: .5px;"/>
  <path d="M166.72,123.54s5.13-3.39,8.6-3.25c3.47.14,6.8,2.54,6.8,2.54,0,0-3.14,4.56-5.25,4.2-2.11-.36-10.14-3.49-10.14-3.49Z" style="fill: #586138; stroke: #000; stroke-miterlimit: 10; stroke-width: .5px;"/>
  <path d="M145.24,101.93s5.13-3.39,8.6-3.25c3.47.14,6.8,2.54,6.8,2.54,0,0-3.14,4.56-5.25,4.2-2.11-.36-10.14-3.49-10.14-3.49Z" style="fill: #586138; stroke: #000; stroke-miterlimit: 10; stroke-width: .5px;"/>
  <path d="M181.14,129.26s13.75,5.4,12.03,7.2c-1.72,1.8-4.3,1.8-4.3,1.8,0,0-9.45-4.5-10.31-7.2s2.58-1.8,2.58-1.8Z" style="fill: #586138; stroke: #000; stroke-miterlimit: 10; stroke-width: .5px;"/>
  <path d="M189.73,139.17l8.07,13.96s3.96-4.05,1.39-8.56-6.02-8.11-6.02-8.11l-3.44,1.8v.9Z" style="fill: #a094a6; stroke: #000; stroke-miterlimit: 10; stroke-width: .5px;"/>
  <path d="M156.97,136.23s.1-2.47.96-5.17,1.78-5.07,1.78-5.07l.54-4.71s-5.44,3.27-6.46,5.62-2.07,9.32-2.07,9.32c0,0,.42,2.03,1.17,4.74s4.08-4.74,4.08-4.74Z" style="fill: #586138; stroke: #000; stroke-miterlimit: 10; stroke-width: .5px;"/>
  <path d="M154.87,127.06l4.08-4.22s-.59,4.17-1.44,5.97-2.58,7.2-2.58,7.2c0,0-.86-.9-.86-2.7s.8-6.25.8-6.25Z" style="fill: #a094a6; stroke-width: 0px;"/>
  <path d="M147.52,131.73s.1-2.47.96-5.17,1.78-5.07,1.78-5.07l.54-4.71s-5.44,3.27-6.46,5.62-2.07,9.32-2.07,9.32c0,0,.42,2.03,1.17,4.74.75,2.7,4.08-4.74,4.08-4.74Z" style="fill: #586138; stroke: #000; stroke-miterlimit: 10; stroke-width: .5px;"/>
  <path d="M145.42,122.56l4.08-4.22s-.59,4.17-1.44,5.97c-.86,1.8-2.58,7.2-2.58,7.2,0,0-.86-.9-.86-2.7,0-1.8.8-6.25.8-6.25Z" style="fill: #a094a6; stroke-width: 0px;"/>
</svg>