<?xml version="1.0" encoding="UTF-8"?>
<svg id="Layer_1" data-name="Layer 1" xmlns="http://www.w3.org/2000/svg" viewBox="0 0 300 300">
  <path d="M183.91,174.2h-49.83c-2.44,0-2.06,2.44-2.06,2.44v6.95c0,2.06,2.06,2.06,2.06,2.06h49.83s2.06,0,2.06-2.06v-6.95s.38-2.44-2.06-2.44Z" style="fill: #ad6f54; stroke: #000; stroke-miterlimit: 10;"/>
  <path d="M159.13,185.19h-25.04l2.44,32.98s1.22,7.33,7.33,7.33h30.28c6.11,0,7.33-7.33,7.33-7.33l2.44-32.98h-24.79Z" style="fill: #ad6f54; stroke: #000; stroke-miterlimit: 10;"/>
  <path d="M146.23,170.46s-2.08-6.23-5.54-7.62c-3.46-1.38-11.77-11.77-12.46-13.85-.69-2.08-2.08,2.77-.69,6.92s9.05,12.23,9.05,12.23l9.64,2.31Z" style="fill: #654262; stroke: #c1d692; stroke-miterlimit: 10; stroke-width: 2px;"/>
  <path d="M105.65,178.32s5.26-3.93,5.49-7.65,7.48-14.87,9.23-16.18c1.75-1.31-3.28-1.1-6.79,1.52s-8.77,12.43-8.77,12.43l.83,9.88Z" style="fill: #654262; stroke: #c1d692; stroke-miterlimit: 10; stroke-width: 2px;"/>
  <path d="M172.13,181.09s5.26-3.93,5.49-7.65,7.48-14.87,9.23-16.18c1.75-1.31-3.28-1.1-6.79,1.52s-8.77,12.43-8.77,12.43l.83,9.88Z" style="fill: #c1d692; stroke: #654262; stroke-miterlimit: 10; stroke-width: 2px;"/>
  <path d="M188.13,179.81s-4.21-7.04-9.53-7.91-19.41-11.49-20.81-13.84c-1.4-2.35-2.5,3.82.31,8.51s15.52,12.67,15.52,12.67l14.51.58Z" style="fill: #c1d692; stroke: #654262; stroke-miterlimit: 10; stroke-width: 2px;"/>
  <path d="M220.33,178.77s-2.08-6.23-5.54-7.62-11.77-11.77-12.46-13.85c-.69-2.08-2.08,2.77-.69,6.92s9.05,12.23,9.05,12.23l9.64,2.31Z" style="fill: #654262; stroke: #c1d692; stroke-miterlimit: 10; stroke-width: 2px;"/>
  <path d="M180.79,159.04s2.17,6.2,5.65,7.53c3.48,1.33,11.95,11.59,12.67,13.66.72,2.07,2.04-2.8.59-6.93s-9.24-12.09-9.24-12.09l-9.68-2.17Z" style="fill: #654262; stroke: #c1d692; stroke-miterlimit: 10; stroke-width: 2px;"/>
  <path d="M155.58,184.66s.09-5.68-2.57-8c-2.66-2.32-6.85-13.5-6.82-15.39.03-1.89-2.73,1.46-2.79,5.25-.06,3.79,4.27,12.9,4.27,12.9l7.91,5.24Z" style="fill: #654262; stroke: #c1d692; stroke-miterlimit: 10; stroke-width: 2px;"/>
  <path d="M149.68,145.51s-7.25-3.98-11.41-4.23-10.89,7.79-10.89,7.79c0,0,3.96,3.04,7.43,3.04s14.87-6.6,14.87-6.6Z" style="fill: #c1d692; stroke: #654262; stroke-miterlimit: 10; stroke-width: 2px;"/>
  <path d="M191.99,137.85s-8.22-.88-12.16.49c-3.93,1.37-7.05,11.38-7.05,11.38,0,0,4.83,1.28,8.02-.05s11.18-11.82,11.18-11.82Z" style="fill: #c1d692; stroke: #654262; stroke-miterlimit: 10; stroke-width: 2px;"/>
  <path d="M117.32,152.35s-2.56-3.12-4.4-3.99-6.35,1.55-6.35,1.55c0,0,1.24,2.1,2.81,2.73s7.94-.28,7.94-.28Z" style="fill: #654262; stroke: #c1d692; stroke-miterlimit: 10;"/>
  <path d="M133.12,158.21s-5.25-6.4-9.01-8.19c-3.76-1.78-13.02,3.17-13.02,3.17,0,0,2.55,4.3,5.76,5.59s16.27-.57,16.27-.57Z" style="fill: #654262; stroke: #c1d692; stroke-miterlimit: 10;"/>
  <path d="M127.02,168.28s-2.56-3.12-4.4-3.99-6.35,1.55-6.35,1.55c0,0,1.24,2.1,2.81,2.73s7.94-.28,7.94-.28Z" style="fill: #654262; stroke: #c1d692; stroke-miterlimit: 10;"/>
  <path d="M196.26,137.12s-2.56-3.12-4.4-3.99c-1.84-.87-6.35,1.55-6.35,1.55,0,0,1.24,2.1,2.81,2.73s7.94-.28,7.94-.28Z" style="fill: #654262; stroke: #c1d692; stroke-miterlimit: 10;"/>
  <path d="M221,151.75s-7.25-3.98-11.41-4.23-10.89,7.79-10.89,7.79c0,0,3.96,3.04,7.43,3.04s14.87-6.6,14.87-6.6Z" style="fill: #c1d692; stroke: #654262; stroke-miterlimit: 10; stroke-width: 2px;"/>
  <path d="M154.74,129.3s-6.87,7.32-8.42,12.13c-1.55,4.81,5.87,15.16,5.87,15.16,0,0,4.77-3.74,5.82-7.81,1.05-4.07-3.26-19.48-3.26-19.48Z" style="fill: #c1d692; stroke: #654262; stroke-miterlimit: 10; stroke-width: 2px;"/>
  <path d="M131.51,131.17s1.25,6.51,3.32,8.77,11.1-.17,11.1-.17c0,0-.1-4.18-1.97-5.91s-12.45-2.69-12.45-2.69Z" style="fill: #c1d692; stroke: #654262; stroke-miterlimit: 10;"/>
  <path d="M151.59,126.32s1.25,6.51,3.32,8.77,11.1-.17,11.1-.17c0,0-.1-4.18-1.97-5.91-1.87-1.74-12.45-2.69-12.45-2.69Z" style="fill: #c1d692; stroke: #654262; stroke-miterlimit: 10;"/>
  <path d="M193.71,143.44s6.61.36,9.31-1.11,2.52-10.81,2.52-10.81c0,0-4.08-.91-6.22.48-2.13,1.39-5.61,11.43-5.61,11.43Z" style="fill: #c1d692; stroke: #654262; stroke-miterlimit: 10;"/>
  <path d="M175.71,140.67s6.61.36,9.31-1.11,2.52-10.81,2.52-10.81c0,0-4.08-.91-6.22.48s-5.61,11.43-5.61,11.43Z" style="fill: #c1d692; stroke: #654262; stroke-miterlimit: 10;"/>
  <path d="M158.35,130.43s-.29,5.85.84,8.57,8.33,4.52,8.33,4.52c0,0,.71-3.46-.36-5.67s-8.8-7.43-8.8-7.43Z" style="fill: #c1d692; stroke: #654262; stroke-miterlimit: 10; stroke-width: 2px;"/>
  <path d="M183.92,144.03s-.35,6.97,1,10.21c1.34,3.24,9.93,5.39,9.93,5.39,0,0,.84-4.13-.43-6.76s-10.49-8.85-10.49-8.85Z" style="fill: #c1d692; stroke: #654262; stroke-miterlimit: 10; stroke-width: 2px;"/>
  <path d="M159.05,142.42s1.79,11.97,6.78,17.06c4.99,5.1,13.3,7.17,13.3,7.17,0,0,2.77-10.39-.69-13.16-3.46-2.77-19.39-11.08-19.39-11.08Z" style="fill: #c1d692; stroke: #654262; stroke-miterlimit: 10; stroke-width: 2px;"/>
  <path d="M145.65,166.79s-7.86,2.38-10.79,6.24-3.5,9.64-3.5,9.64c0,0,7.25.84,8.77-1.76,1.52-2.6,5.53-14.11,5.53-14.11Z" style="fill: #c1d692; stroke: #654262; stroke-miterlimit: 10;"/>
  <path d="M125.38,156.46s-.91,9.2,1.64,13.83,7.95,7.57,7.95,7.57c0,0,3.79-7.26,1.88-9.9-1.91-2.64-11.48-11.49-11.48-11.49Z" style="fill: #c1d692; stroke: #654262; stroke-miterlimit: 10;"/>
  <path d="M177.05,169.43s-2.77,4.85-.69,9c2.08,4.15,2.77,11.08,2.77,11.08,0,0,3.46-11.77,2.77-13.85s-1.72-6.71-1.72-6.71l-3.13.48Z" style="fill: #c1d692; stroke: #654262; stroke-miterlimit: 10; stroke-width: 2px;"/>
  <path d="M185.37,169.43s2.77,4.85.69,9-6.94,11.08-6.94,11.08c0,0,2.08-9,2.77-11.08s-1.38-9.69-1.38-9.69l4.86.69Z" style="fill: #c1d692; stroke: #654262; stroke-miterlimit: 10; stroke-width: 2px;"/>
  <path d="M152.55,148.17s-3.43,6.3-.86,11.7c2.57,5.4,3.43,14.4,3.43,14.4,0,0,4.29-15.3,3.43-18s-2.13-8.73-2.13-8.73l-3.87.63Z" style="fill: #c1d692; stroke: #654262; stroke-miterlimit: 10; stroke-width: 2px;"/>
  <path d="M162.86,148.17s3.43,6.3.86,11.7c-2.57,5.4-8.59,14.4-8.59,14.4,0,0,2.57-11.7,3.43-14.4.86-2.7-1.72-12.6-1.72-12.6l6.02.9Z" style="fill: #c1d692; stroke: #654262; stroke-miterlimit: 10; stroke-width: 2px;"/>
  <path d="M161,170s-2.39,4.04-.6,7.5,2.39,9.23,2.39,9.23c0,0,2.98-9.81,2.39-11.54-.6-1.73-1.48-5.59-1.48-5.59l-2.69.4Z" style="fill: #c1d692; stroke: #654262; stroke-miterlimit: 10; stroke-width: 2px;"/>
  <path d="M168.17,170s2.39,4.04.6,7.5c-1.79,3.46-5.98,9.23-5.98,9.23,0,0,1.79-7.5,2.39-9.23.6-1.73-1.19-8.08-1.19-8.08l4.19.58Z" style="fill: #c1d692; stroke: #654262; stroke-miterlimit: 10; stroke-width: 2px;"/>
  <path d="M170.65,145.78s4.39-1.66,5.15-5.49c.77-3.82,3.9-8.7,3.9-8.7,0,0-8.46,5.8-9.07,7.52s-2.34,5.3-2.34,5.3l2.35,1.37Z" style="fill: #c1d692; stroke: #654262; stroke-miterlimit: 10;"/>
  <path d="M165.05,141.3s.66-4.64,4.22-6.23,10.43-3.48,10.43-3.48c0,0-6.08,4.74-7.63,5.72s-4.11,7.05-4.11,7.05l-2.91-3.07Z" style="fill: #c1d692; stroke: #654262; stroke-miterlimit: 10;"/>
  <path d="M192.38,164.44s5.93,2.84,11.09.83c5.16-2.01,13.72-2.6,13.72-2.6,0,0-14.45-3.64-17.03-2.98s-8.31,1.62-8.31,1.62l.54,3.13Z" style="fill: #c1d692; stroke: #654262; stroke-miterlimit: 10; stroke-width: 2px;"/>
  <path d="M192.53,156.12s6.03-2.7,11.11-.56,12.87,6.25,12.87,6.25c0,0-10.4-1.36-12.95-2.08s-11.98,1.24-11.98,1.24l.95-4.85Z" style="fill: #654262; stroke: #c1d692; stroke-miterlimit: 10; stroke-width: 2px;"/>
  <path d="M167.1,138.62s-1.38-6.46,1.77-10.99,8.79-11.28,8.79-11.28c0,0-3.49,9.89-4.73,12.23-1.24,2.34-1.29,11.98-1.29,11.98l-4.54-1.93Z" style="fill: #654262; stroke: #c1d692; stroke-miterlimit: 10;"/>
  <path d="M137.58,151.42s13.85,0,15.7,3.62c1.85,3.62,0,10.13,0,10.13,0,0-1.85-6.6-7.39-8.69-5.54-2.08-8.31-5.07-8.31-5.07Z" style="fill: #c1d692; stroke: #654262; stroke-miterlimit: 10; stroke-width: 2px;"/>
  <path d="M137.58,151.42s1.85,7.96,4.62,9.41c4.14,2.16,12,6.52,12,6.52,0,0-2.96-7.78-6.46-10.13-6.46-4.34-10.16-5.79-10.16-5.79Z" style="fill: #c1d692; stroke: #654262; stroke-miterlimit: 10; stroke-width: 2px;"/>
  <path d="M191.59,144.5s8.43,0,9.55,2.2c1.12,2.2,0,6.17,0,6.17,0,0-1.12-4.02-4.5-5.29s-5.06-3.08-5.06-3.08Z" style="fill: #c1d692; stroke: #654262; stroke-miterlimit: 10;"/>
  <path d="M191.59,144.5s1.12,4.85,2.81,5.73c2.52,1.32,7.31,3.97,7.31,3.97,0,0-1.8-4.74-3.93-6.17-3.93-2.64-6.18-3.53-6.18-3.53Z" style="fill: #c1d692; stroke: #654262; stroke-miterlimit: 10;"/>
  <path d="M123.31,156.78s-8.27,11.11-12.27,10.43-8.13-6.05-8.13-6.05c0,0,6.4,2.46,11.38-.74s9.03-3.64,9.03-3.64Z" style="fill: #c1d692; stroke: #654262; stroke-miterlimit: 10; stroke-width: 2px;"/>
  <path d="M123.31,156.78s-7.49-3.27-10.31-1.91c-4.2,2.03-12.39,5.74-12.39,5.74,0,0,8.01,2.27,11.99.86,7.34-2.59,10.71-4.69,10.71-4.69Z" style="fill: #c1d692; stroke: #654262; stroke-miterlimit: 10; stroke-width: 2px;"/>
  <path d="M136.46,142.24s-8.27,11.11-12.27,10.43-8.13-6.05-8.13-6.05c0,0,6.4,2.46,11.38-.74,4.98-3.2,9.03-3.64,9.03-3.64Z" style="fill: #c1d692; stroke: #654262; stroke-miterlimit: 10; stroke-width: 2px;"/>
  <path d="M136.46,142.24s-7.49-3.27-10.31-1.91c-4.2,2.03-12.39,5.74-12.39,5.74,0,0,8.01,2.27,11.99.86,7.34-2.59,10.71-4.69,10.71-4.69Z" style="fill: #c1d692; stroke: #654262; stroke-miterlimit: 10; stroke-width: 2px;"/>
  <path d="M206.4,142.93s-8.27,11.11-12.27,10.43c-4.01-.68-8.13-6.05-8.13-6.05,0,0,6.4,2.46,11.38-.74s9.03-3.64,9.03-3.64Z" style="fill: #c1d692; stroke: #654262; stroke-miterlimit: 10; stroke-width: 2px;"/>
  <path d="M206.4,142.93s-7.49-3.27-10.31-1.91c-4.2,2.03-12.39,5.74-12.39,5.74,0,0,8.01,2.27,11.99.86,7.34-2.59,10.71-4.69,10.71-4.69Z" style="fill: #c1d692; stroke: #654262; stroke-miterlimit: 10; stroke-width: 2px;"/>
</svg>