<?xml version="1.0" encoding="utf-8"?>
<!-- Generator: Adobe Illustrator 28.2.0, SVG Export Plug-In . SVG Version: 6.00 Build 0)  -->
<svg version="1.0" id="Layer_1" xmlns="http://www.w3.org/2000/svg" xmlns:xlink="http://www.w3.org/1999/xlink" x="0px" y="0px"
	 viewBox="0 0 300 300" enable-background="new 0 0 300 300" xml:space="preserve">
<path fill="#AD6F54" stroke="#000000" stroke-miterlimit="10" d="M183.9,174.2h-24.8h-0.3h-24.8c-2.4,0-2.1,2.4-2.1,2.4s0,4.9,0,7
	c0,2.1,2.1,2.1,2.1,2.1h24.8h0.3h24.8c0,0,2.1,0,2.1-2.1c0-2.1,0-7,0-7S186.4,174.2,183.9,174.2z"/>
<path fill="#AD6F54" stroke="#000000" stroke-miterlimit="10" d="M159.1,185.2h-0.3h-24.8l2.4,33c0,0,1.2,7.3,7.3,7.3
	c5.5,0,13.6,0,15,0c0,0,0.1,0,0.3,0c1.5,0,9.5,0,15,0c6.1,0,7.3-7.3,7.3-7.3l2.4-33H159.1z"/>
<path fill="#654262" stroke="#C1D692" stroke-width="2" stroke-miterlimit="10" d="M146.2,170.5c0,0-2.1-6.2-5.5-7.6
	c-3.5-1.4-11.8-11.8-12.5-13.8s-2.1,2.8-0.7,6.9c1.4,4.2,9.1,12.2,9.1,12.2L146.2,170.5z"/>
<path fill="#654262" stroke="#C1D692" stroke-width="2" stroke-miterlimit="10" d="M105.7,178.3c0,0,5.3-3.9,5.5-7.7
	c0.2-3.7,7.5-14.9,9.2-16.2c1.8-1.3-3.3-1.1-6.8,1.5s-8.8,12.4-8.8,12.4L105.7,178.3z"/>
<path fill="#C1D692" stroke="#654262" stroke-width="2" stroke-miterlimit="10" d="M172.1,181.1c0,0,5.3-3.9,5.5-7.7
	c0.2-3.7,7.5-14.9,9.2-16.2c1.8-1.3-3.3-1.1-6.8,1.5c-3.5,2.6-8.8,12.4-8.8,12.4L172.1,181.1z"/>
<path fill="#C1D692" stroke="#654262" stroke-width="2" stroke-miterlimit="10" d="M188.1,179.8c0,0-4.2-7-9.5-7.9
	s-19.4-11.5-20.8-13.8c-1.4-2.3-2.5,3.8,0.3,8.5s15.5,12.7,15.5,12.7L188.1,179.8z"/>
<path fill="#654262" stroke="#C1D692" stroke-width="2" stroke-miterlimit="10" d="M220.3,178.8c0,0-2.1-6.2-5.5-7.6
	c-3.5-1.4-11.8-11.8-12.5-13.8s-2.1,2.8-0.7,6.9c1.4,4.2,9.1,12.2,9.1,12.2L220.3,178.8z"/>
<path fill="#654262" stroke="#C1D692" stroke-width="2" stroke-miterlimit="10" d="M180.8,159c0,0,2.2,6.2,5.7,7.5
	s11.9,11.6,12.7,13.7c0.7,2.1,2-2.8,0.6-6.9c-1.4-4.1-9.2-12.1-9.2-12.1L180.8,159z"/>
<path fill="#654262" stroke="#C1D692" stroke-width="2" stroke-miterlimit="10" d="M155.6,184.7c0,0,0.1-5.7-2.6-8
	s-6.8-13.5-6.8-15.4c0-1.9-2.7,1.5-2.8,5.3c-0.1,3.8,4.3,12.9,4.3,12.9L155.6,184.7z"/>
<path fill="#C1D692" stroke="#654262" stroke-width="2" stroke-miterlimit="10" d="M149.7,145.5c0,0-7.3-4-11.4-4.2
	c-4.2-0.2-10.9,7.8-10.9,7.8s4,3,7.4,3C138.3,152.1,149.7,145.5,149.7,145.5z"/>
<path fill="#C1D692" stroke="#654262" stroke-width="2" stroke-miterlimit="10" d="M192,137.9c0,0-8.2-0.9-12.2,0.5
	s-7.1,11.4-7.1,11.4s4.8,1.3,8-0.1C184,148.3,192,137.9,192,137.9z"/>
<path fill="#654262" stroke="#C1D692" stroke-miterlimit="10" d="M117.3,152.4c0,0-2.6-3.1-4.4-4c-1.8-0.9-6.4,1.5-6.4,1.5
	s1.2,2.1,2.8,2.7C110.9,153.3,117.3,152.4,117.3,152.4z"/>
<path fill="#654262" stroke="#C1D692" stroke-miterlimit="10" d="M133.1,158.2c0,0-5.2-6.4-9-8.2c-3.8-1.8-13,3.2-13,3.2
	s2.5,4.3,5.8,5.6C120.1,160.1,133.1,158.2,133.1,158.2z"/>
<path fill="#654262" stroke="#C1D692" stroke-miterlimit="10" d="M127,168.3c0,0-2.6-3.1-4.4-4s-6.4,1.5-6.4,1.5s1.2,2.1,2.8,2.7
	C120.6,169.2,127,168.3,127,168.3z"/>
<path fill="#654262" stroke="#C1D692" stroke-miterlimit="10" d="M196.3,137.1c0,0-2.6-3.1-4.4-4s-6.4,1.5-6.4,1.5s1.2,2.1,2.8,2.7
	C189.9,138,196.3,137.1,196.3,137.1z"/>
<path fill="#C1D692" stroke="#654262" stroke-width="2" stroke-miterlimit="10" d="M221,151.7c0,0-7.3-4-11.4-4.2
	s-10.9,7.8-10.9,7.8s4,3,7.4,3C209.6,158.3,221,151.7,221,151.7z"/>
<path fill="#C1D692" stroke="#654262" stroke-width="2" stroke-miterlimit="10" d="M154.7,129.3c0,0-6.9,7.3-8.4,12.1
	s5.9,15.2,5.9,15.2s4.8-3.7,5.8-7.8C159.1,144.7,154.7,129.3,154.7,129.3z"/>
<path fill="#C1D692" stroke="#654262" stroke-miterlimit="10" d="M131.5,131.2c0,0,1.2,6.5,3.3,8.8c2.1,2.3,11.1-0.2,11.1-0.2
	s-0.1-4.2-2-5.9C142.1,132.1,131.5,131.2,131.5,131.2z"/>
<path fill="#C1D692" stroke="#654262" stroke-miterlimit="10" d="M151.6,126.3c0,0,1.2,6.5,3.3,8.8c2.1,2.3,11.1-0.2,11.1-0.2
	s-0.1-4.2-2-5.9C162.2,127.3,151.6,126.3,151.6,126.3z"/>
<path fill="#C1D692" stroke="#654262" stroke-miterlimit="10" d="M193.7,143.4c0,0,6.6,0.4,9.3-1.1c2.7-1.5,2.5-10.8,2.5-10.8
	s-4.1-0.9-6.2,0.5C197.2,133.4,193.7,143.4,193.7,143.4z"/>
<path fill="#C1D692" stroke="#654262" stroke-miterlimit="10" d="M175.7,140.7c0,0,6.6,0.4,9.3-1.1c2.7-1.5,2.5-10.8,2.5-10.8
	s-4.1-0.9-6.2,0.5C179.2,130.6,175.7,140.7,175.7,140.7z"/>
<path fill="#C1D692" stroke="#654262" stroke-width="2" stroke-miterlimit="10" d="M158.3,130.4c0,0-0.3,5.8,0.8,8.6
	c1.1,2.7,8.3,4.5,8.3,4.5s0.7-3.5-0.4-5.7C166.1,135.7,158.3,130.4,158.3,130.4z"/>
<path fill="#C1D692" stroke="#654262" stroke-width="2" stroke-miterlimit="10" d="M183.9,144c0,0-0.3,7,1,10.2
	c1.3,3.2,9.9,5.4,9.9,5.4s0.8-4.1-0.4-6.8C193.1,150.2,183.9,144,183.9,144z"/>
<path fill="#C1D692" stroke="#654262" stroke-width="2" stroke-miterlimit="10" d="M159,142.4c0,0,1.8,12,6.8,17.1
	c5,5.1,13.3,7.2,13.3,7.2s2.8-10.4-0.7-13.2C175,150.7,159,142.4,159,142.4z"/>
<path fill="#C1D692" stroke="#654262" stroke-miterlimit="10" d="M145.6,166.8c0,0-7.9,2.4-10.8,6.2c-2.9,3.9-3.5,9.6-3.5,9.6
	s7.2,0.8,8.8-1.8C141.6,178.3,145.6,166.8,145.6,166.8z"/>
<path fill="#C1D692" stroke="#654262" stroke-miterlimit="10" d="M125.4,156.5c0,0-0.9,9.2,1.6,13.8c2.6,4.6,8,7.6,8,7.6
	s3.8-7.3,1.9-9.9C134.9,165.3,125.4,156.5,125.4,156.5z"/>
<path fill="#C1D692" stroke="#654262" stroke-width="2" stroke-miterlimit="10" d="M177,169.4c0,0-2.8,4.8-0.7,9
	c2.1,4.2,2.8,11.1,2.8,11.1s3.5-11.8,2.8-13.8c-0.7-2.1-1.7-6.7-1.7-6.7L177,169.4z"/>
<path fill="#C1D692" stroke="#654262" stroke-width="2" stroke-miterlimit="10" d="M185.4,169.4c0,0,2.8,4.8,0.7,9
	c-2.1,4.2-6.9,11.1-6.9,11.1s2.1-9,2.8-11.1c0.7-2.1-1.4-9.7-1.4-9.7L185.4,169.4z"/>
<path fill="#C1D692" stroke="#654262" stroke-width="2" stroke-miterlimit="10" d="M152.6,148.2c0,0-3.4,6.3-0.9,11.7
	s3.4,14.4,3.4,14.4s4.3-15.3,3.4-18c-0.9-2.7-2.1-8.7-2.1-8.7L152.6,148.2z"/>
<path fill="#C1D692" stroke="#654262" stroke-width="2" stroke-miterlimit="10" d="M162.9,148.2c0,0,3.4,6.3,0.9,11.7
	s-8.6,14.4-8.6,14.4s2.6-11.7,3.4-14.4c0.9-2.7-1.7-12.6-1.7-12.6L162.9,148.2z"/>
<path fill="#C1D692" stroke="#654262" stroke-width="2" stroke-miterlimit="10" d="M161,170c0,0-2.4,4-0.6,7.5
	c1.8,3.5,2.4,9.2,2.4,9.2s3-9.8,2.4-11.5c-0.6-1.7-1.5-5.6-1.5-5.6L161,170z"/>
<path fill="#C1D692" stroke="#654262" stroke-width="2" stroke-miterlimit="10" d="M168.2,170c0,0,2.4,4,0.6,7.5
	c-1.8,3.5-6,9.2-6,9.2s1.8-7.5,2.4-9.2s-1.2-8.1-1.2-8.1L168.2,170z"/>
<path fill="#C1D692" stroke="#654262" stroke-miterlimit="10" d="M170.6,145.8c0,0,4.4-1.7,5.2-5.5c0.8-3.8,3.9-8.7,3.9-8.7
	s-8.5,5.8-9.1,7.5c-0.6,1.7-2.3,5.3-2.3,5.3L170.6,145.8z"/>
<path fill="#C1D692" stroke="#654262" stroke-miterlimit="10" d="M165,141.3c0,0,0.7-4.6,4.2-6.2c3.6-1.6,10.4-3.5,10.4-3.5
	s-6.1,4.7-7.6,5.7s-4.1,7.1-4.1,7.1L165,141.3z"/>
<path fill="#C1D692" stroke="#654262" stroke-width="2" stroke-miterlimit="10" d="M192.4,164.4c0,0,5.9,2.8,11.1,0.8
	s13.7-2.6,13.7-2.6s-14.5-3.6-17-3c-2.6,0.7-8.3,1.6-8.3,1.6L192.4,164.4z"/>
<path fill="#654262" stroke="#C1D692" stroke-width="2" stroke-miterlimit="10" d="M192.5,156.1c0,0,6-2.7,11.1-0.6
	c5.1,2.1,12.9,6.2,12.9,6.2s-10.4-1.4-12.9-2.1s-12,1.2-12,1.2L192.5,156.1z"/>
<path fill="#654262" stroke="#C1D692" stroke-miterlimit="10" d="M167.1,138.6c0,0-1.4-6.5,1.8-11c3.2-4.5,8.8-11.3,8.8-11.3
	s-3.5,9.9-4.7,12.2s-1.3,12-1.3,12L167.1,138.6z"/>
<path fill="#C1D692" stroke="#654262" stroke-width="2" stroke-miterlimit="10" d="M137.6,151.4c0,0,13.8,0,15.7,3.6
	c1.8,3.6,0,10.1,0,10.1s-1.8-6.6-7.4-8.7C140.3,154.4,137.6,151.4,137.6,151.4z"/>
<path fill="#C1D692" stroke="#654262" stroke-width="2" stroke-miterlimit="10" d="M137.6,151.4c0,0,1.8,8,4.6,9.4
	c4.1,2.2,12,6.5,12,6.5s-3-7.8-6.5-10.1C141.3,152.9,137.6,151.4,137.6,151.4z"/>
<path fill="#C1D692" stroke="#654262" stroke-miterlimit="10" d="M191.6,144.5c0,0,8.4,0,9.6,2.2s0,6.2,0,6.2s-1.1-4-4.5-5.3
	C193.3,146.3,191.6,144.5,191.6,144.5z"/>
<path fill="#C1D692" stroke="#654262" stroke-miterlimit="10" d="M191.6,144.5c0,0,1.1,4.8,2.8,5.7c2.5,1.3,7.3,4,7.3,4
	s-1.8-4.7-3.9-6.2C193.8,145.4,191.6,144.5,191.6,144.5z"/>
<path fill="#C1D692" stroke="#654262" stroke-width="2" stroke-miterlimit="10" d="M123.3,156.8c0,0-8.3,11.1-12.3,10.4
	c-4-0.7-8.1-6-8.1-6s6.4,2.5,11.4-0.7S123.3,156.8,123.3,156.8z"/>
<path fill="#C1D692" stroke="#654262" stroke-width="2" stroke-miterlimit="10" d="M123.3,156.8c0,0-7.5-3.3-10.3-1.9
	c-4.2,2-12.4,5.7-12.4,5.7s8,2.3,12,0.9C119.9,158.9,123.3,156.8,123.3,156.8z"/>
<path fill="#C1D692" stroke="#654262" stroke-width="2" stroke-miterlimit="10" d="M136.5,142.2c0,0-8.3,11.1-12.3,10.4
	c-4-0.7-8.1-6-8.1-6s6.4,2.5,11.4-0.7C132.4,142.7,136.5,142.2,136.5,142.2z"/>
<path fill="#C1D692" stroke="#654262" stroke-width="2" stroke-miterlimit="10" d="M136.5,142.2c0,0-7.5-3.3-10.3-1.9
	c-4.2,2-12.4,5.7-12.4,5.7s8,2.3,12,0.9C133.1,144.3,136.5,142.2,136.5,142.2z"/>
<path fill="#C1D692" stroke="#654262" stroke-width="2" stroke-miterlimit="10" d="M206.4,142.9c0,0-8.3,11.1-12.3,10.4
	c-4-0.7-8.1-6-8.1-6s6.4,2.5,11.4-0.7C202.4,143.4,206.4,142.9,206.4,142.9z"/>
<path fill="#C1D692" stroke="#654262" stroke-width="2" stroke-miterlimit="10" d="M206.4,142.9c0,0-7.5-3.3-10.3-1.9
	c-4.2,2-12.4,5.7-12.4,5.7s8,2.3,12,0.9C203,145,206.4,142.9,206.4,142.9z"/>
</svg>
