<?xml version="1.0" encoding="utf-8"?>
<!-- Generator: Adobe Illustrator 28.2.0, SVG Export Plug-In . SVG Version: 6.00 Build 0)  -->
<svg version="1.0" id="Layer_1" xmlns="http://www.w3.org/2000/svg" xmlns:xlink="http://www.w3.org/1999/xlink" x="0px" y="0px"
	 viewBox="0 0 300 300" enable-background="new 0 0 300 300" xml:space="preserve">
<path fill="#AD6F54" stroke="#000000" stroke-miterlimit="10" d="M159.9,170.2h-24.8h-0.3h-24.8c-2.4,0-2.1,2.4-2.1,2.4s0,4.9,0,7
	c0,2.1,2.1,2.1,2.1,2.1h24.8h0.3h24.8c0,0,2.1,0,2.1-2.1c0-2.1,0-7,0-7S162.4,170.2,159.9,170.2z"/>
<path fill="#AD6F54" stroke="#000000" stroke-miterlimit="10" d="M135.1,181.2h-0.3h-24.8l2.4,33c0,0,1.2,7.3,7.3,7.3
	c5.5,0,13.6,0,15,0c0,0,0.1,0,0.3,0c1.5,0,9.5,0,15,0c6.1,0,7.3-7.3,7.3-7.3l2.4-33H135.1z"/>
<path fill="none" stroke="#006837" stroke-width="2" stroke-miterlimit="10" d="M146.8,108.2l-7.9,39.3c0.4-3-20.4-16-24.6-18.5
	c-4.2-2.5-10.7-0.7-10.7-0.7s-10.1-5.7-15.1-6.4c-5-0.6-9.8,11.3-9.8,11.3"/>
<line fill="none" stroke="#006837" stroke-width="2" stroke-miterlimit="10" x1="139.2" y1="170.2" x2="139.2" y2="146.2"/>
<path fill="none" stroke="#006837" stroke-width="2" stroke-miterlimit="10" d="M199.8,195.7c0,0,8.7-11.2,2.4-20.5
	C196,166,180,149.7,180,149.4c0-0.4-32.4-23.6-35.7-18.5c-3.3,5.1-5.1,21.7-5.1,21.7"/>
<g>
	<g>
		<path fill="#628A4E" d="M183.5,140.5h-18c0,0-3-2-1-7s8-8,8-8s3-5,13-1s29,23,29,23s-17-7-21-7S183.5,140.5,183.5,140.5z"/>
		<path fill="none" stroke="#000000" stroke-width="0.5" stroke-miterlimit="10" d="M183.5,140.5h-18c0,0-3-2-1-7s8-8,8-8s3-5,13-1
			s29,23,29,23s-17-7-21-7S183.5,140.5,183.5,140.5z"/>
	</g>
	<defs>
		<filter id="Adobe_OpacityMaskFilter" filterUnits="userSpaceOnUse" x="163.6" y="122.7" width="52" height="25.5">
			<feFlood  style="flood-color:white;flood-opacity:1" result="back"/>
			<feBlend  in="SourceGraphic" in2="back" mode="normal"/>
		</filter>
	</defs>
	<mask maskUnits="userSpaceOnUse" x="163.6" y="122.7" width="52" height="25.5" id="SVGID_1_">
		<g filter="url(#Adobe_OpacityMaskFilter)">
			<image overflow="visible" width="57" height="31" xlink:href="A942E9DF.jpg"  transform="matrix(1 0 0 1 161 120)">
			</image>
		</g>
	</mask>
	<g opacity="0.87" mask="url(#SVGID_1_)">
		<path fill="#61AF0E" d="M183.5,140.5h-18c0,0-3-2-1-7s8-8,8-8s3-5,13-1s29,23,29,23s-17-7-21-7S183.5,140.5,183.5,140.5z"/>
		<path fill="none" stroke="#61AF0E" stroke-width="0.5" stroke-miterlimit="10" d="M183.5,140.5h-18c0,0-3-2-1-7s8-8,8-8s3-5,13-1
			s29,23,29,23s-17-7-21-7S183.5,140.5,183.5,140.5z"/>
	</g>
</g>
<g>
	<g>
		<path fill="#628A4E" d="M185.5,140.4l-20,0.1c0,0-1,1.7,1,6.1s8,7.1,8,7.1s3,4.4,13,0.9s28-7.1,28-7.1s-16-7.1-20-7.1
			S185.5,140.4,185.5,140.4z"/>
		<path fill="none" stroke="#000000" stroke-width="0.5" stroke-miterlimit="10" d="M185.5,140.4l-20,0.1c0,0-1,1.7,1,6.1
			s8,7.1,8,7.1s3,4.4,13,0.9s28-7.1,28-7.1s-16-7.1-20-7.1S185.5,140.4,185.5,140.4z"/>
	</g>
	<defs>
		
			<filter id="Adobe_OpacityMaskFilter_00000160190869592592033740000012140240126512386691_" filterUnits="userSpaceOnUse" x="165" y="140.2" width="51.3" height="16.1">
			<feFlood  style="flood-color:white;flood-opacity:1" result="back"/>
			<feBlend  in="SourceGraphic" in2="back" mode="normal"/>
		</filter>
	</defs>
	
		<mask maskUnits="userSpaceOnUse" x="165" y="140.2" width="51.3" height="16.1" id="SVGID_00000095318568866622217480000005115034243260894143_">
		<g filter="url(#Adobe_OpacityMaskFilter_00000160190869592592033740000012140240126512386691_)">
			<image overflow="visible" width="56" height="21" xlink:href="A942E9DD.jpg"  transform="matrix(1 0 0 1 163 138)">
			</image>
		</g>
	</mask>
	<g opacity="0.87" mask="url(#SVGID_00000095318568866622217480000005115034243260894143_)">
		<path fill="#61AF0E" d="M185.5,140.4l-20,0.1c0,0-1,1.7,1,6.1s8,7.1,8,7.1s3,4.4,13,0.9s28-7.1,28-7.1s-16-7.1-20-7.1
			S185.5,140.4,185.5,140.4z"/>
		<path fill="none" stroke="#61AF0E" stroke-width="0.5" stroke-miterlimit="10" d="M185.5,140.4l-20,0.1c0,0-1,1.7,1,6.1
			s8,7.1,8,7.1s3,4.4,13,0.9s28-7.1,28-7.1s-16-7.1-20-7.1S185.5,140.4,185.5,140.4z"/>
	</g>
</g>
<g>
	<g>
		<path fill="#628A4E" d="M213.7,177.9l-16.8-8.6c0,0-1.9-3.2,2.2-6.5c4.1-3.3,11-3.1,11-3.1s5-2.9,12.6,5.4
			c7.6,8.2,16.9,33.7,16.9,33.7s-12.8-14.2-16.5-16.1C219.3,180.8,213.7,177.9,213.7,177.9z"/>
		<path fill="none" stroke="#000000" stroke-width="0.5" stroke-miterlimit="10" d="M213.7,177.9l-16.8-8.6c0,0-1.9-3.2,2.2-6.5
			c4.1-3.3,11-3.1,11-3.1s5-2.9,12.6,5.4c7.6,8.2,16.9,33.7,16.9,33.7s-12.8-14.2-16.5-16.1C219.3,180.8,213.7,177.9,213.7,177.9z"
			/>
	</g>
	<defs>
		
			<filter id="Adobe_OpacityMaskFilter_00000148621664292838592540000015506861705442879146_" filterUnits="userSpaceOnUse" x="196.2" y="159" width="44" height="40.9">
			<feFlood  style="flood-color:white;flood-opacity:1" result="back"/>
			<feBlend  in="SourceGraphic" in2="back" mode="normal"/>
		</filter>
	</defs>
	
		<mask maskUnits="userSpaceOnUse" x="196.2" y="159" width="44" height="40.9" id="SVGID_00000098192575010896403500000011110796957945407405_">
		<g filter="url(#Adobe_OpacityMaskFilter_00000148621664292838592540000015506861705442879146_)">
			<image overflow="visible" width="49" height="45" xlink:href="A942E9E3.jpg"  transform="matrix(1 0 0 1 194 157)">
			</image>
		</g>
	</mask>
	<g opacity="0.87" mask="url(#SVGID_00000098192575010896403500000011110796957945407405_)">
		<path fill="#61AF0E" d="M213.7,177.9l-16.8-8.6c0,0-1.9-3.2,2.2-6.5c4.1-3.3,11-3.1,11-3.1s5-2.9,12.6,5.4
			c7.6,8.2,16.9,33.7,16.9,33.7s-12.8-14.2-16.5-16.1C219.3,180.8,213.7,177.9,213.7,177.9z"/>
		<path fill="none" stroke="#61AF0E" stroke-width="0.5" stroke-miterlimit="10" d="M213.7,177.9l-16.8-8.6c0,0-1.9-3.2,2.2-6.5
			c4.1-3.3,11-3.1,11-3.1s5-2.9,12.6,5.4c7.6,8.2,16.9,33.7,16.9,33.7s-12.8-14.2-16.5-16.1C219.3,180.8,213.7,177.9,213.7,177.9z"
			/>
	</g>
</g>
<g>
	<g>
		<path fill="#628A4E" d="M215.6,178.8l-18.7-9.5c0,0-1.7,1-1.8,5.8c-0.1,4.8,4.3,9.9,4.3,9.9s0.8,5.3,11.7,7
			c10.9,1.7,29.3,7.3,29.3,7.3s-11.8-13.8-15.5-15.7C221.2,181.7,215.6,178.8,215.6,178.8z"/>
		<path fill="none" stroke="#000000" stroke-width="0.5" stroke-miterlimit="10" d="M215.6,178.8l-18.7-9.5c0,0-1.7,1-1.8,5.8
			c-0.1,4.8,4.3,9.9,4.3,9.9s0.8,5.3,11.7,7c10.9,1.7,29.3,7.3,29.3,7.3s-11.8-13.8-15.5-15.7C221.2,181.7,215.6,178.8,215.6,178.8z
			"/>
	</g>
	<defs>
		
			<filter id="Adobe_OpacityMaskFilter_00000057106813342847535010000013103955698123906482_" filterUnits="userSpaceOnUse" x="194.9" y="169" width="46.3" height="30.8">
			<feFlood  style="flood-color:white;flood-opacity:1" result="back"/>
			<feBlend  in="SourceGraphic" in2="back" mode="normal"/>
		</filter>
	</defs>
	
		<mask maskUnits="userSpaceOnUse" x="194.9" y="169" width="46.3" height="30.8" id="SVGID_00000072961640214349274760000005643021919714982561_">
		<g filter="url(#Adobe_OpacityMaskFilter_00000057106813342847535010000013103955698123906482_)">
			<image overflow="visible" width="52" height="35" xlink:href="A942E9E5.jpg"  transform="matrix(1 0 0 1 192 167)">
			</image>
		</g>
	</mask>
	<g opacity="0.87" mask="url(#SVGID_00000072961640214349274760000005643021919714982561_)">
		<path fill="#61AF0E" d="M215.6,178.8l-18.7-9.5c0,0-1.7,1-1.8,5.8c-0.1,4.8,4.3,9.9,4.3,9.9s0.8,5.3,11.7,7
			c10.9,1.7,29.3,7.3,29.3,7.3s-11.8-13.8-15.5-15.7C221.2,181.7,215.6,178.8,215.6,178.8z"/>
		<path fill="none" stroke="#61AF0E" stroke-width="0.5" stroke-miterlimit="10" d="M215.6,178.8l-18.7-9.5c0,0-1.7,1-1.8,5.8
			c-0.1,4.8,4.3,9.9,4.3,9.9s0.8,5.3,11.7,7c10.9,1.7,29.3,7.3,29.3,7.3s-11.8-13.8-15.5-15.7C221.2,181.7,215.6,178.8,215.6,178.8z
			"/>
	</g>
</g>
<g>
	<g>
		<path fill="#628A4E" d="M154.4,142.9l-7.6-13c0,0,0.1-3,4.4-3.6c4.3-0.6,8.9,2.5,8.9,2.5s4.7,0.1,6.2,8.9
			c1.5,8.8-3.6,30.2-3.6,30.2s-2.4-15.1-4.1-18S154.4,142.9,154.4,142.9z"/>
		<path fill="none" stroke="#000000" stroke-width="0.5" stroke-miterlimit="10" d="M154.4,142.9l-7.6-13c0,0,0.1-3,4.4-3.6
			c4.3-0.6,8.9,2.5,8.9,2.5s4.7,0.1,6.2,8.9c1.5,8.8-3.6,30.2-3.6,30.2s-2.4-15.1-4.1-18S154.4,142.9,154.4,142.9z"/>
	</g>
	<defs>
		
			<filter id="Adobe_OpacityMaskFilter_00000066476533895933803430000004818711995088698293_" filterUnits="userSpaceOnUse" x="146.5" y="126.1" width="20.3" height="43.3">
			<feFlood  style="flood-color:white;flood-opacity:1" result="back"/>
			<feBlend  in="SourceGraphic" in2="back" mode="normal"/>
		</filter>
	</defs>
	
		<mask maskUnits="userSpaceOnUse" x="146.5" y="126.1" width="20.3" height="43.3" id="SVGID_00000152225078592507495600000017436183174434678965_">
		<g filter="url(#Adobe_OpacityMaskFilter_00000066476533895933803430000004818711995088698293_)">
			<image overflow="visible" width="25" height="48" xlink:href="A942E9E7.jpg"  transform="matrix(1 0 0 1 144 124)">
			</image>
		</g>
	</mask>
	<g opacity="0.87" mask="url(#SVGID_00000152225078592507495600000017436183174434678965_)">
		<path fill="#61AF0E" d="M154.4,142.9l-7.6-13c0,0,0.1-3,4.4-3.6c4.3-0.6,8.9,2.5,8.9,2.5s4.7,0.1,6.2,8.9
			c1.5,8.8-3.6,30.2-3.6,30.2s-2.4-15.1-4.1-18S154.4,142.9,154.4,142.9z"/>
		<path fill="none" stroke="#61AF0E" stroke-width="0.5" stroke-miterlimit="10" d="M154.4,142.9l-7.6-13c0,0,0.1-3,4.4-3.6
			c4.3-0.6,8.9,2.5,8.9,2.5s4.7,0.1,6.2,8.9c1.5,8.8-3.6,30.2-3.6,30.2s-2.4-15.1-4.1-18S154.4,142.9,154.4,142.9z"/>
	</g>
</g>
<g>
	<g>
		<path fill="#628A4E" d="M155.3,144.3l-8.5-14.4c0,0-1.6,0-3.8,3.2c-2.2,3.2-1.5,8.6-1.5,8.6s-1.8,4,4.9,9.7
			c6.7,5.8,16.8,17.2,16.8,17.2s-1.9-14.4-3.6-17.3C157.9,148.6,155.3,144.3,155.3,144.3z"/>
		<path fill="none" stroke="#000000" stroke-width="0.5" stroke-miterlimit="10" d="M155.3,144.3l-8.5-14.4c0,0-1.6,0-3.8,3.2
			c-2.2,3.2-1.5,8.6-1.5,8.6s-1.8,4,4.9,9.7c6.7,5.8,16.8,17.2,16.8,17.2s-1.9-14.4-3.6-17.3C157.9,148.6,155.3,144.3,155.3,144.3z"
			/>
	</g>
	<defs>
		
			<filter id="Adobe_OpacityMaskFilter_00000093171571718540900600000012939961823404940176_" filterUnits="userSpaceOnUse" x="141" y="129.7" width="22.5" height="39.9">
			<feFlood  style="flood-color:white;flood-opacity:1" result="back"/>
			<feBlend  in="SourceGraphic" in2="back" mode="normal"/>
		</filter>
	</defs>
	
		<mask maskUnits="userSpaceOnUse" x="141" y="129.7" width="22.5" height="39.9" id="SVGID_00000040541139432014626950000008977897655499163315_">
		<g filter="url(#Adobe_OpacityMaskFilter_00000093171571718540900600000012939961823404940176_)">
			<image overflow="visible" width="27" height="45" xlink:href="A942E9E4.jpg"  transform="matrix(1 0 0 1 139 127)">
			</image>
		</g>
	</mask>
	<g opacity="0.87" mask="url(#SVGID_00000040541139432014626950000008977897655499163315_)">
		<path fill="#61AF0E" d="M155.3,144.3l-8.5-14.4c0,0-1.6,0-3.8,3.2c-2.2,3.2-1.5,8.6-1.5,8.6s-1.8,4,4.9,9.7
			c6.7,5.8,16.8,17.2,16.8,17.2s-1.9-14.4-3.6-17.3C157.9,148.6,155.3,144.3,155.3,144.3z"/>
		<path fill="none" stroke="#61AF0E" stroke-width="0.5" stroke-miterlimit="10" d="M155.3,144.3l-8.5-14.4c0,0-1.6,0-3.8,3.2
			c-2.2,3.2-1.5,8.6-1.5,8.6s-1.8,4,4.9,9.7c6.7,5.8,16.8,17.2,16.8,17.2s-1.9-14.4-3.6-17.3C157.9,148.6,155.3,144.3,155.3,144.3z"
			/>
	</g>
</g>
<g>
	<g>
		<path fill="#628A4E" d="M192.7,198.8l7.1-4.2c0,0,1.7,0.2,2.3,3c0.6,2.8-1,5.6-1,5.6s0.2,3-4.8,3.5c-5,0.5-17.7-3.9-17.7-3.9
			s8.6-0.7,10.2-1.7S192.7,198.8,192.7,198.8z"/>
		<path fill="none" stroke="#000000" stroke-width="0.5" stroke-miterlimit="10" d="M192.7,198.8l7.1-4.2c0,0,1.7,0.2,2.3,3
			c0.6,2.8-1,5.6-1,5.6s0.2,3-4.8,3.5c-5,0.5-17.7-3.9-17.7-3.9s8.6-0.7,10.2-1.7S192.7,198.8,192.7,198.8z"/>
	</g>
	<defs>
		
			<filter id="Adobe_OpacityMaskFilter_00000146488101870947760570000004350617816883788947_" filterUnits="userSpaceOnUse" x="177.4" y="194.3" width="25.1" height="12.6">
			<feFlood  style="flood-color:white;flood-opacity:1" result="back"/>
			<feBlend  in="SourceGraphic" in2="back" mode="normal"/>
		</filter>
	</defs>
	
		<mask maskUnits="userSpaceOnUse" x="177.4" y="194.3" width="25.1" height="12.6" id="SVGID_00000021819885641198995750000005589899131789077670_">
		<g filter="url(#Adobe_OpacityMaskFilter_00000146488101870947760570000004350617816883788947_)">
			<image overflow="visible" width="30" height="17" xlink:href="A942E9EC.jpg"  transform="matrix(1 0 0 1 175 192)">
			</image>
		</g>
	</mask>
	<g opacity="0.87" mask="url(#SVGID_00000021819885641198995750000005589899131789077670_)">
		<path fill="#61AF0E" d="M192.7,198.8l7.1-4.2c0,0,1.7,0.2,2.3,3c0.6,2.8-1,5.6-1,5.6s0.2,3-4.8,3.5c-5,0.5-17.7-3.9-17.7-3.9
			s8.6-0.7,10.2-1.7S192.7,198.8,192.7,198.8z"/>
		<path fill="none" stroke="#61AF0E" stroke-width="0.5" stroke-miterlimit="10" d="M192.7,198.8l7.1-4.2c0,0,1.7,0.2,2.3,3
			c0.6,2.8-1,5.6-1,5.6s0.2,3-4.8,3.5c-5,0.5-17.7-3.9-17.7-3.9s8.6-0.7,10.2-1.7S192.7,198.8,192.7,198.8z"/>
	</g>
</g>
<g>
	<g>
		<path fill="#628A4E" d="M191.9,199.3l7.8-4.7c0,0-0.1-1-2.1-2.6s-5.1-1.4-5.1-1.4s-2.4-1.4-5.4,2.6c-3,4-9.1,9.8-9.1,9.8
			s8.2-0.5,9.8-1.4C189.6,200.7,191.9,199.3,191.9,199.3z"/>
		<path fill="none" stroke="#000000" stroke-width="0.5" stroke-miterlimit="10" d="M191.9,199.3l7.8-4.7c0,0-0.1-1-2.1-2.6
			s-5.1-1.4-5.1-1.4s-2.4-1.4-5.4,2.6c-3,4-9.1,9.8-9.1,9.8s8.2-0.5,9.8-1.4C189.6,200.7,191.9,199.3,191.9,199.3z"/>
	</g>
	<defs>
		
			<filter id="Adobe_OpacityMaskFilter_00000018225967590689752240000014102770603864976513_" filterUnits="userSpaceOnUse" x="177.5" y="190.1" width="22.5" height="13.2">
			<feFlood  style="flood-color:white;flood-opacity:1" result="back"/>
			<feBlend  in="SourceGraphic" in2="back" mode="normal"/>
		</filter>
	</defs>
	
		<mask maskUnits="userSpaceOnUse" x="177.5" y="190.1" width="22.5" height="13.2" id="SVGID_00000068658506805487095680000014023871354176502457_">
		<g filter="url(#Adobe_OpacityMaskFilter_00000018225967590689752240000014102770603864976513_)">
			<image overflow="visible" width="28" height="18" xlink:href="A942E9ED.jpg"  transform="matrix(1 0 0 1 175 188)">
			</image>
		</g>
	</mask>
	<g opacity="0.87" mask="url(#SVGID_00000068658506805487095680000014023871354176502457_)">
		<path fill="#61AF0E" d="M191.9,199.3l7.8-4.7c0,0-0.1-1-2.1-2.6s-5.1-1.4-5.1-1.4s-2.4-1.4-5.4,2.6c-3,4-9.1,9.8-9.1,9.8
			s8.2-0.5,9.8-1.4C189.6,200.7,191.9,199.3,191.9,199.3z"/>
		<path fill="none" stroke="#61AF0E" stroke-width="0.5" stroke-miterlimit="10" d="M191.9,199.3l7.8-4.7c0,0-0.1-1-2.1-2.6
			s-5.1-1.4-5.1-1.4s-2.4-1.4-5.4,2.6c-3,4-9.1,9.8-9.1,9.8s8.2-0.5,9.8-1.4C189.6,200.7,191.9,199.3,191.9,199.3z"/>
	</g>
</g>
<g>
	<g>
		<path fill="#628A4E" d="M114,114.2l9.8,8.5c0,0,0.6,2.5-2.9,4.4c-3.5,1.9-8.3,0.7-8.3,0.7s-4.1,1.4-7.5-5.6
			c-3.5-7-4.4-26.7-4.4-26.7s5.8,12,7.9,13.9C110.7,111.4,114,114.2,114,114.2z"/>
		<path fill="none" stroke="#000000" stroke-width="0.5" stroke-miterlimit="10" d="M114,114.2l9.8,8.5c0,0,0.6,2.5-2.9,4.4
			c-3.5,1.9-8.3,0.7-8.3,0.7s-4.1,1.4-7.5-5.6c-3.5-7-4.4-26.7-4.4-26.7s5.8,12,7.9,13.9C110.7,111.4,114,114.2,114,114.2z"/>
	</g>
	<defs>
		
			<filter id="Adobe_OpacityMaskFilter_00000031177421360845478580000006332744044397231033_" filterUnits="userSpaceOnUse" x="100.3" y="94.4" width="23.7" height="34.1">
			<feFlood  style="flood-color:white;flood-opacity:1" result="back"/>
			<feBlend  in="SourceGraphic" in2="back" mode="normal"/>
		</filter>
	</defs>
	
		<mask maskUnits="userSpaceOnUse" x="100.3" y="94.4" width="23.7" height="34.1" id="SVGID_00000091704299360856332680000013096028236250434990_">
		<g filter="url(#Adobe_OpacityMaskFilter_00000031177421360845478580000006332744044397231033_)">
			<image overflow="visible" width="29" height="39" xlink:href="A942E9EF.jpg"  transform="matrix(1 0 0 1 98 92)">
			</image>
		</g>
	</mask>
	<g opacity="0.87" mask="url(#SVGID_00000091704299360856332680000013096028236250434990_)">
		<path fill="#61AF0E" d="M114,114.2l9.8,8.5c0,0,0.6,2.5-2.9,4.4c-3.5,1.9-8.3,0.7-8.3,0.7s-4.1,1.4-7.5-5.6
			c-3.5-7-4.4-26.7-4.4-26.7s5.8,12,7.9,13.9C110.7,111.4,114,114.2,114,114.2z"/>
		<path fill="none" stroke="#61AF0E" stroke-width="0.5" stroke-miterlimit="10" d="M114,114.2l9.8,8.5c0,0,0.6,2.5-2.9,4.4
			c-3.5,1.9-8.3,0.7-8.3,0.7s-4.1,1.4-7.5-5.6c-3.5-7-4.4-26.7-4.4-26.7s5.8,12,7.9,13.9C110.7,111.4,114,114.2,114,114.2z"/>
	</g>
</g>
<g>
	<g>
		<path fill="#628A4E" d="M112.9,113.3l10.9,9.4c0,0,1.4-0.5,2.5-3.9c1.1-3.5-0.8-7.8-0.8-7.8s0.6-3.9-6.6-6.6s-18.7-9.2-18.7-9.2
			s5.2,11.6,7.4,13.4S112.9,113.3,112.9,113.3z"/>
		<path fill="none" stroke="#000000" stroke-width="0.5" stroke-miterlimit="10" d="M112.9,113.3l10.9,9.4c0,0,1.4-0.5,2.5-3.9
			c1.1-3.5-0.8-7.8-0.8-7.8s0.6-3.9-6.6-6.6s-18.7-9.2-18.7-9.2s5.2,11.6,7.4,13.4S112.9,113.3,112.9,113.3z"/>
	</g>
	<defs>
		
			<filter id="Adobe_OpacityMaskFilter_00000067923312542900241480000013422908265071628220_" filterUnits="userSpaceOnUse" x="99.6" y="94.5" width="27.3" height="28.5">
			<feFlood  style="flood-color:white;flood-opacity:1" result="back"/>
			<feBlend  in="SourceGraphic" in2="back" mode="normal"/>
		</filter>
	</defs>
	
		<mask maskUnits="userSpaceOnUse" x="99.6" y="94.5" width="27.3" height="28.5" id="SVGID_00000129921959527783467300000014530754873227111053_">
		<g filter="url(#Adobe_OpacityMaskFilter_00000067923312542900241480000013422908265071628220_)">
			<image overflow="visible" width="32" height="33" xlink:href="76ABCD4C.jpg"  transform="matrix(1 0 0 1 97 92)">
			</image>
		</g>
	</mask>
	<g opacity="0.87" mask="url(#SVGID_00000129921959527783467300000014530754873227111053_)">
		<path fill="#61AF0E" d="M112.9,113.3l10.9,9.4c0,0,1.4-0.5,2.5-3.9c1.1-3.5-0.8-7.8-0.8-7.8s0.6-3.9-6.6-6.6s-18.7-9.2-18.7-9.2
			s5.2,11.6,7.4,13.4S112.9,113.3,112.9,113.3z"/>
		<path fill="none" stroke="#61AF0E" stroke-width="0.5" stroke-miterlimit="10" d="M112.9,113.3l10.9,9.4c0,0,1.4-0.5,2.5-3.9
			c1.1-3.5-0.8-7.8-0.8-7.8s0.6-3.9-6.6-6.6s-18.7-9.2-18.7-9.2s5.2,11.6,7.4,13.4S112.9,113.3,112.9,113.3z"/>
	</g>
</g>
<g>
	<g>
		<path fill="#628A4E" d="M155.3,100l-7.3,10.7c0,0-2.5,0.9-4.7-2.4s-1.7-8.1-1.7-8.1s-1.9-3.9,4.6-8.1s26-7.5,26-7.5
			S161,91.6,159.3,94S155.3,100,155.3,100z"/>
		<path fill="none" stroke="#000000" stroke-width="0.5" stroke-miterlimit="10" d="M155.3,100l-7.3,10.7c0,0-2.5,0.9-4.7-2.4
			s-1.7-8.1-1.7-8.1s-1.9-3.9,4.6-8.1s26-7.5,26-7.5S161,91.6,159.3,94S155.3,100,155.3,100z"/>
	</g>
	<defs>
		
			<filter id="Adobe_OpacityMaskFilter_00000031200536806326524950000017220281939672124598_" filterUnits="userSpaceOnUse" x="141" y="84" width="32.3" height="27">
			<feFlood  style="flood-color:white;flood-opacity:1" result="back"/>
			<feBlend  in="SourceGraphic" in2="back" mode="normal"/>
		</filter>
	</defs>
	
		<mask maskUnits="userSpaceOnUse" x="141" y="84" width="32.3" height="27" id="SVGID_00000117671565808718393670000005334081885244229294_">
		<g filter="url(#Adobe_OpacityMaskFilter_00000031200536806326524950000017220281939672124598_)">
			<image overflow="visible" width="37" height="32" xlink:href="76ABCD4B.jpg"  transform="matrix(1 0 0 1 139 82)">
			</image>
		</g>
	</mask>
	<g opacity="0.87" mask="url(#SVGID_00000117671565808718393670000005334081885244229294_)">
		<path fill="#61AF0E" d="M155.3,100l-7.3,10.7c0,0-2.5,0.9-4.7-2.4s-1.7-8.1-1.7-8.1s-1.9-3.9,4.6-8.1s26-7.5,26-7.5
			S161,91.6,159.3,94S155.3,100,155.3,100z"/>
		<path fill="none" stroke="#61AF0E" stroke-width="0.5" stroke-miterlimit="10" d="M155.3,100l-7.3,10.7c0,0-2.5,0.9-4.7-2.4
			s-1.7-8.1-1.7-8.1s-1.9-3.9,4.6-8.1s26-7.5,26-7.5S161,91.6,159.3,94S155.3,100,155.3,100z"/>
	</g>
</g>
<g>
	<g>
		<path fill="#628A4E" d="M156.1,98.7l-8.1,11.9c0,0,0.7,1.3,4.2,2s7.6-1.8,7.6-1.8s4,0.1,5.8-7.4c1.9-7.4,6.9-19.6,6.9-19.6
			s-10.9,6.5-12.5,8.9C158.5,95.2,156.1,98.7,156.1,98.7z"/>
		<path fill="none" stroke="#000000" stroke-width="0.5" stroke-miterlimit="10" d="M156.1,98.7l-8.1,11.9c0,0,0.7,1.3,4.2,2
			s7.6-1.8,7.6-1.8s4,0.1,5.8-7.4c1.9-7.4,6.9-19.6,6.9-19.6s-10.9,6.5-12.5,8.9C158.5,95.2,156.1,98.7,156.1,98.7z"/>
	</g>
	<defs>
		
			<filter id="Adobe_OpacityMaskFilter_00000108279803342772433750000012260705664506227106_" filterUnits="userSpaceOnUse" x="147.7" y="83.3" width="25.4" height="29.7">
			<feFlood  style="flood-color:white;flood-opacity:1" result="back"/>
			<feBlend  in="SourceGraphic" in2="back" mode="normal"/>
		</filter>
	</defs>
	
		<mask maskUnits="userSpaceOnUse" x="147.7" y="83.3" width="25.4" height="29.7" id="SVGID_00000133491038185292309960000008926308908662422435_">
		<g filter="url(#Adobe_OpacityMaskFilter_00000108279803342772433750000012260705664506227106_)">
			<image overflow="visible" width="31" height="35" xlink:href="76ABCD44.jpg"  transform="matrix(1 0 0 1 145 81)">
			</image>
		</g>
	</mask>
	<g opacity="0.87" mask="url(#SVGID_00000133491038185292309960000008926308908662422435_)">
		<path fill="#61AF0E" d="M156.1,98.7l-8.1,11.9c0,0,0.7,1.3,4.2,2s7.6-1.8,7.6-1.8s4,0.1,5.8-7.4c1.9-7.4,6.9-19.6,6.9-19.6
			s-10.9,6.5-12.5,8.9C158.5,95.2,156.1,98.7,156.1,98.7z"/>
		<path fill="none" stroke="#61AF0E" stroke-width="0.5" stroke-miterlimit="10" d="M156.1,98.7l-8.1,11.9c0,0,0.7,1.3,4.2,2
			s7.6-1.8,7.6-1.8s4,0.1,5.8-7.4c1.9-7.4,6.9-19.6,6.9-19.6s-10.9,6.5-12.5,8.9C158.5,95.2,156.1,98.7,156.1,98.7z"/>
	</g>
</g>
<g>
	<g>
		<path fill="#628A4E" d="M131.4,159.1l3.9-10.5c0,0,1.6-1.4,3.6,0.7c2,2.1,2.1,6.1,2.1,6.1s1.7,2.6-2.4,7.8
			c-4.1,5.1-17.3,12.8-17.3,12.8s7-8.7,7.9-11C130.1,162.6,131.4,159.1,131.4,159.1z"/>
		<path fill="none" stroke="#000000" stroke-width="0.5" stroke-miterlimit="10" d="M131.4,159.1l3.9-10.5c0,0,1.6-1.4,3.6,0.7
			c2,2.1,2.1,6.1,2.1,6.1s1.7,2.6-2.4,7.8c-4.1,5.1-17.3,12.8-17.3,12.8s7-8.7,7.9-11C130.1,162.6,131.4,159.1,131.4,159.1z"/>
	</g>
	<defs>
		
			<filter id="Adobe_OpacityMaskFilter_00000123399371789439022690000002357495567877040272_" filterUnits="userSpaceOnUse" x="120.2" y="147.9" width="21.3" height="29">
			<feFlood  style="flood-color:white;flood-opacity:1" result="back"/>
			<feBlend  in="SourceGraphic" in2="back" mode="normal"/>
		</filter>
	</defs>
	
		<mask maskUnits="userSpaceOnUse" x="120.2" y="147.9" width="21.3" height="29" id="SVGID_00000175290393106943553390000000563694227623210387_">
		<g filter="url(#Adobe_OpacityMaskFilter_00000123399371789439022690000002357495567877040272_)">
			<image overflow="visible" width="26" height="34" xlink:href="76ABCD47.jpg"  transform="matrix(1 0 0 1 118 145)">
			</image>
		</g>
	</mask>
	<g opacity="0.87" mask="url(#SVGID_00000175290393106943553390000000563694227623210387_)">
		<path fill="#61AF0E" d="M131.4,159.1l3.9-10.5c0,0,1.6-1.4,3.6,0.7c2,2.1,2.1,6.1,2.1,6.1s1.7,2.6-2.4,7.8
			c-4.1,5.1-17.3,12.8-17.3,12.8s7-8.7,7.9-11C130.1,162.6,131.4,159.1,131.4,159.1z"/>
		<path fill="none" stroke="#61AF0E" stroke-width="0.5" stroke-miterlimit="10" d="M131.4,159.1l3.9-10.5c0,0,1.6-1.4,3.6,0.7
			c2,2.1,2.1,6.1,2.1,6.1s1.7,2.6-2.4,7.8c-4.1,5.1-17.3,12.8-17.3,12.8s7-8.7,7.9-11C130.1,162.6,131.4,159.1,131.4,159.1z"/>
	</g>
</g>
<g>
	<g>
		<path fill="#628A4E" d="M131,160.3l4.3-11.7c0,0-0.6-0.9-3.1-0.5s-5.1,3.4-5.1,3.4s-2.8,1-3.3,7.4c-0.5,6.5-2.7,17.6-2.7,17.6
			s6.9-8.1,7.7-10.4C129.7,163.8,131,160.3,131,160.3z"/>
		<path fill="none" stroke="#000000" stroke-width="0.5" stroke-miterlimit="10" d="M131,160.3l4.3-11.7c0,0-0.6-0.9-3.1-0.5
			s-5.1,3.4-5.1,3.4s-2.8,1-3.3,7.4c-0.5,6.5-2.7,17.6-2.7,17.6s6.9-8.1,7.7-10.4C129.7,163.8,131,160.3,131,160.3z"/>
	</g>
	<defs>
		
			<filter id="Adobe_OpacityMaskFilter_00000080174302558463913880000000922525184996881846_" filterUnits="userSpaceOnUse" x="120.6" y="147.7" width="14.9" height="29.7">
			<feFlood  style="flood-color:white;flood-opacity:1" result="back"/>
			<feBlend  in="SourceGraphic" in2="back" mode="normal"/>
		</filter>
	</defs>
	
		<mask maskUnits="userSpaceOnUse" x="120.6" y="147.7" width="14.9" height="29.7" id="SVGID_00000171690616848089355640000014345639642486127506_">
		<g filter="url(#Adobe_OpacityMaskFilter_00000080174302558463913880000000922525184996881846_)">
			<image overflow="visible" width="20" height="35" xlink:href="76ABCD45.jpg"  transform="matrix(1 0 0 1 118 145)">
			</image>
		</g>
	</mask>
	<g opacity="0.87" mask="url(#SVGID_00000171690616848089355640000014345639642486127506_)">
		<path fill="#61AF0E" d="M131,160.3l4.3-11.7c0,0-0.6-0.9-3.1-0.5s-5.1,3.4-5.1,3.4s-2.8,1-3.3,7.4c-0.5,6.5-2.7,17.6-2.7,17.6
			s6.9-8.1,7.7-10.4C129.7,163.8,131,160.3,131,160.3z"/>
		<path fill="none" stroke="#61AF0E" stroke-width="0.5" stroke-miterlimit="10" d="M131,160.3l4.3-11.7c0,0-0.6-0.9-3.1-0.5
			s-5.1,3.4-5.1,3.4s-2.8,1-3.3,7.4c-0.5,6.5-2.7,17.6-2.7,17.6s6.9-8.1,7.7-10.4C129.7,163.8,131,160.3,131,160.3z"/>
	</g>
</g>
<g>
	<g>
		<path fill="#628A4E" d="M110.4,148.1l3.9-10.5c0,0,1.6-1.4,3.6,0.7c2,2.1,2.1,6.1,2.1,6.1s1.7,2.6-2.4,7.8
			c-4.1,5.1-17.3,12.8-17.3,12.8s7-8.7,7.9-11C109.1,151.6,110.4,148.1,110.4,148.1z"/>
		<path fill="none" stroke="#000000" stroke-width="0.5" stroke-miterlimit="10" d="M110.4,148.1l3.9-10.5c0,0,1.6-1.4,3.6,0.7
			c2,2.1,2.1,6.1,2.1,6.1s1.7,2.6-2.4,7.8c-4.1,5.1-17.3,12.8-17.3,12.8s7-8.7,7.9-11C109.1,151.6,110.4,148.1,110.4,148.1z"/>
	</g>
	<defs>
		
			<filter id="Adobe_OpacityMaskFilter_00000055691374142505668940000004993811555694293419_" filterUnits="userSpaceOnUse" x="99.2" y="136.9" width="21.3" height="29">
			<feFlood  style="flood-color:white;flood-opacity:1" result="back"/>
			<feBlend  in="SourceGraphic" in2="back" mode="normal"/>
		</filter>
	</defs>
	
		<mask maskUnits="userSpaceOnUse" x="99.2" y="136.9" width="21.3" height="29" id="SVGID_00000100363634574989392290000010089990842379431342_">
		<g filter="url(#Adobe_OpacityMaskFilter_00000055691374142505668940000004993811555694293419_)">
			<image overflow="visible" width="26" height="34" xlink:href="76ABCD5B.jpg"  transform="matrix(1 0 0 1 97 134)">
			</image>
		</g>
	</mask>
	<g opacity="0.87" mask="url(#SVGID_00000100363634574989392290000010089990842379431342_)">
		<path fill="#61AF0E" d="M110.4,148.1l3.9-10.5c0,0,1.6-1.4,3.6,0.7c2,2.1,2.1,6.1,2.1,6.1s1.7,2.6-2.4,7.8
			c-4.1,5.1-17.3,12.8-17.3,12.8s7-8.7,7.9-11C109.1,151.6,110.4,148.1,110.4,148.1z"/>
		<path fill="none" stroke="#61AF0E" stroke-width="0.5" stroke-miterlimit="10" d="M110.4,148.1l3.9-10.5c0,0,1.6-1.4,3.6,0.7
			c2,2.1,2.1,6.1,2.1,6.1s1.7,2.6-2.4,7.8c-4.1,5.1-17.3,12.8-17.3,12.8s7-8.7,7.9-11C109.1,151.6,110.4,148.1,110.4,148.1z"/>
	</g>
</g>
<g>
	<g>
		<path fill="#628A4E" d="M143,134.5l-3.6,10.6c0,0-1.6,1.4-3.6-0.6c-2-2-2.2-6-2.2-6s-1.8-2.6,2.1-7.8c3.9-5.2,16.9-13.3,16.9-13.3
			s-6.8,8.9-7.6,11.2C144.3,131,143,134.5,143,134.5z"/>
		<path fill="none" stroke="#000000" stroke-width="0.5" stroke-miterlimit="10" d="M143,134.5l-3.6,10.6c0,0-1.6,1.4-3.6-0.6
			c-2-2-2.2-6-2.2-6s-1.8-2.6,2.1-7.8c3.9-5.2,16.9-13.3,16.9-13.3s-6.8,8.9-7.6,11.2C144.3,131,143,134.5,143,134.5z"/>
	</g>
	<defs>
		
			<filter id="Adobe_OpacityMaskFilter_00000159451857987628060720000008117631725194599868_" filterUnits="userSpaceOnUse" x="132.9" y="116.5" width="20.8" height="29.4">
			<feFlood  style="flood-color:white;flood-opacity:1" result="back"/>
			<feBlend  in="SourceGraphic" in2="back" mode="normal"/>
		</filter>
	</defs>
	
		<mask maskUnits="userSpaceOnUse" x="132.9" y="116.5" width="20.8" height="29.4" id="SVGID_00000128459934027099623070000015976801003806099116_">
		<g filter="url(#Adobe_OpacityMaskFilter_00000159451857987628060720000008117631725194599868_)">
			<image overflow="visible" width="26" height="34" xlink:href="76ABCD5C.jpg"  transform="matrix(1 0 0 1 130 114)">
			</image>
		</g>
	</mask>
	<g opacity="0.87" mask="url(#SVGID_00000128459934027099623070000015976801003806099116_)">
		<path fill="#61AF0E" d="M143,134.5l-3.6,10.6c0,0-1.6,1.4-3.6-0.6c-2-2-2.2-6-2.2-6s-1.8-2.6,2.1-7.8c3.9-5.2,16.9-13.3,16.9-13.3
			s-6.8,8.9-7.6,11.2C144.3,131,143,134.5,143,134.5z"/>
		<path fill="none" stroke="#61AF0E" stroke-width="0.5" stroke-miterlimit="10" d="M143,134.5l-3.6,10.6c0,0-1.6,1.4-3.6-0.6
			c-2-2-2.2-6-2.2-6s-1.8-2.6,2.1-7.8c3.9-5.2,16.9-13.3,16.9-13.3s-6.8,8.9-7.6,11.2C144.3,131,143,134.5,143,134.5z"/>
	</g>
</g>
<g>
	<g>
		<path fill="#628A4E" d="M124.6,129.3l-10.1,4.8c0,0-2.1-0.1-2.1-2.9c0-2.8,2.7-5.8,2.7-5.8s0.6-3.1,7.1-3.9
			c6.5-0.8,21.3,2.8,21.3,2.8s-11.1,1.3-13.3,2.4C128,127.7,124.6,129.3,124.6,129.3z"/>
		<path fill="none" stroke="#000000" stroke-width="0.5" stroke-miterlimit="10" d="M124.6,129.3l-10.1,4.8c0,0-2.1-0.1-2.1-2.9
			c0-2.8,2.7-5.8,2.7-5.8s0.6-3.1,7.1-3.9c6.5-0.8,21.3,2.8,21.3,2.8s-11.1,1.3-13.3,2.4C128,127.7,124.6,129.3,124.6,129.3z"/>
	</g>
	<defs>
		
			<filter id="Adobe_OpacityMaskFilter_00000182506620077847590470000009294540499050367127_" filterUnits="userSpaceOnUse" x="112.2" y="121" width="32.8" height="13.4">
			<feFlood  style="flood-color:white;flood-opacity:1" result="back"/>
			<feBlend  in="SourceGraphic" in2="back" mode="normal"/>
		</filter>
	</defs>
	
		<mask maskUnits="userSpaceOnUse" x="112.2" y="121" width="32.8" height="13.4" id="SVGID_00000074437086203734266760000013843601526859367837_">
		<g filter="url(#Adobe_OpacityMaskFilter_00000182506620077847590470000009294540499050367127_)">
			<image overflow="visible" width="37" height="18" xlink:href="76ABCD5F.jpg"  transform="matrix(1 0 0 1 110 119)">
			</image>
		</g>
	</mask>
	<g opacity="0.87" mask="url(#SVGID_00000074437086203734266760000013843601526859367837_)">
		<path fill="#61AF0E" d="M124.6,129.3l-10.1,4.8c0,0-2.1-0.1-2.1-2.9c0-2.8,2.7-5.8,2.7-5.8s0.6-3.1,7.1-3.9
			c6.5-0.8,21.3,2.8,21.3,2.8s-11.1,1.3-13.3,2.4C128,127.7,124.6,129.3,124.6,129.3z"/>
		<path fill="none" stroke="#61AF0E" stroke-width="0.5" stroke-miterlimit="10" d="M124.6,129.3l-10.1,4.8c0,0-2.1-0.1-2.1-2.9
			c0-2.8,2.7-5.8,2.7-5.8s0.6-3.1,7.1-3.9c6.5-0.8,21.3,2.8,21.3,2.8s-11.1,1.3-13.3,2.4C128,127.7,124.6,129.3,124.6,129.3z"/>
	</g>
</g>
<g>
	<g>
		<path fill="#628A4E" d="M110,149.3l4.3-11.7c0,0-0.6-0.9-3.1-0.5s-5.1,3.4-5.1,3.4s-2.8,1-3.3,7.4c-0.5,6.5-2.7,17.6-2.7,17.6
			s6.9-8.1,7.7-10.4C108.7,152.8,110,149.3,110,149.3z"/>
		<path fill="none" stroke="#000000" stroke-width="0.5" stroke-miterlimit="10" d="M110,149.3l4.3-11.7c0,0-0.6-0.9-3.1-0.5
			s-5.1,3.4-5.1,3.4s-2.8,1-3.3,7.4c-0.5,6.5-2.7,17.6-2.7,17.6s6.9-8.1,7.7-10.4C108.7,152.8,110,149.3,110,149.3z"/>
	</g>
	<defs>
		
			<filter id="Adobe_OpacityMaskFilter_00000089559767251798003010000018209701822484011140_" filterUnits="userSpaceOnUse" x="99.6" y="136.7" width="14.9" height="29.7">
			<feFlood  style="flood-color:white;flood-opacity:1" result="back"/>
			<feBlend  in="SourceGraphic" in2="back" mode="normal"/>
		</filter>
	</defs>
	
		<mask maskUnits="userSpaceOnUse" x="99.6" y="136.7" width="14.9" height="29.7" id="SVGID_00000098931048315977289570000003372364040171192968_">
		<g filter="url(#Adobe_OpacityMaskFilter_00000089559767251798003010000018209701822484011140_)">
			<image overflow="visible" width="20" height="35" xlink:href="76ABCD5D.jpg"  transform="matrix(1 0 0 1 97 134)">
			</image>
		</g>
	</mask>
	<g opacity="0.87" mask="url(#SVGID_00000098931048315977289570000003372364040171192968_)">
		<path fill="#61AF0E" d="M110,149.3l4.3-11.7c0,0-0.6-0.9-3.1-0.5s-5.1,3.4-5.1,3.4s-2.8,1-3.3,7.4c-0.5,6.5-2.7,17.6-2.7,17.6
			s6.9-8.1,7.7-10.4C108.7,152.8,110,149.3,110,149.3z"/>
		<path fill="none" stroke="#61AF0E" stroke-width="0.5" stroke-miterlimit="10" d="M110,149.3l4.3-11.7c0,0-0.6-0.9-3.1-0.5
			s-5.1,3.4-5.1,3.4s-2.8,1-3.3,7.4c-0.5,6.5-2.7,17.6-2.7,17.6s6.9-8.1,7.7-10.4C108.7,152.8,110,149.3,110,149.3z"/>
	</g>
</g>
<g>
	<g>
		<path fill="#628A4E" d="M100.8,141.2l5.4-14.5c0,0,2.1-2,4.6,0.8c2.5,2.8,2.5,8.3,2.5,8.3s2.2,3.6-3.3,10.7
			c-5.5,7.1-22.8,18.1-22.8,18.1s9.4-12.1,10.6-15.3C99,146.1,100.8,141.2,100.8,141.2z"/>
		<path fill="none" stroke="#000000" stroke-width="0.5" stroke-miterlimit="10" d="M100.8,141.2l5.4-14.5c0,0,2.1-2,4.6,0.8
			c2.5,2.8,2.5,8.3,2.5,8.3s2.2,3.6-3.3,10.7c-5.5,7.1-22.8,18.1-22.8,18.1s9.4-12.1,10.6-15.3C99,146.1,100.8,141.2,100.8,141.2z"
			/>
	</g>
	<defs>
		
			<filter id="Adobe_OpacityMaskFilter_00000097488987694902263570000001615917233064160896_" filterUnits="userSpaceOnUse" x="86.2" y="125.8" width="27.8" height="39.7">
			<feFlood  style="flood-color:white;flood-opacity:1" result="back"/>
			<feBlend  in="SourceGraphic" in2="back" mode="normal"/>
		</filter>
	</defs>
	
		<mask maskUnits="userSpaceOnUse" x="86.2" y="125.8" width="27.8" height="39.7" id="SVGID_00000150068967759814877200000017856733646515970489_">
		<g filter="url(#Adobe_OpacityMaskFilter_00000097488987694902263570000001615917233064160896_)">
			<image overflow="visible" width="33" height="45" xlink:href="76ABCD5A.jpg"  transform="matrix(1 0 0 1 84 123)">
			</image>
		</g>
	</mask>
	<g opacity="0.87" mask="url(#SVGID_00000150068967759814877200000017856733646515970489_)">
		<path fill="#61AF0E" d="M100.8,141.2l5.4-14.5c0,0,2.1-2,4.6,0.8c2.5,2.8,2.5,8.3,2.5,8.3s2.2,3.6-3.3,10.7
			c-5.5,7.1-22.8,18.1-22.8,18.1s9.4-12.1,10.6-15.3C99,146.1,100.8,141.2,100.8,141.2z"/>
		<path fill="none" stroke="#61AF0E" stroke-width="0.5" stroke-miterlimit="10" d="M100.8,141.2l5.4-14.5c0,0,2.1-2,4.6,0.8
			c2.5,2.8,2.5,8.3,2.5,8.3s2.2,3.6-3.3,10.7c-5.5,7.1-22.8,18.1-22.8,18.1s9.4-12.1,10.6-15.3C99,146.1,100.8,141.2,100.8,141.2z"
			/>
	</g>
</g>
<g>
	<g>
		<path fill="#628A4E" d="M100.3,142.9l6-16.1c0,0-0.7-1.2-4.1-0.6c-3.3,0.6-6.8,4.8-6.8,4.8s-3.6,1.4-4.4,10.3
			c-0.8,8.9-4,24.2-4,24.2s9.1-11.3,10.3-14.5C98.5,147.7,100.3,142.9,100.3,142.9z"/>
		<path fill="none" stroke="#000000" stroke-width="0.5" stroke-miterlimit="10" d="M100.3,142.9l6-16.1c0,0-0.7-1.2-4.1-0.6
			c-3.3,0.6-6.8,4.8-6.8,4.8s-3.6,1.4-4.4,10.3c-0.8,8.9-4,24.2-4,24.2s9.1-11.3,10.3-14.5C98.5,147.7,100.3,142.9,100.3,142.9z"/>
	</g>
	<defs>
		
			<filter id="Adobe_OpacityMaskFilter_00000047782326384944711010000017850362605594797724_" filterUnits="userSpaceOnUse" x="86.5" y="125.7" width="20" height="40.6">
			<feFlood  style="flood-color:white;flood-opacity:1" result="back"/>
			<feBlend  in="SourceGraphic" in2="back" mode="normal"/>
		</filter>
	</defs>
	
		<mask maskUnits="userSpaceOnUse" x="86.5" y="125.7" width="20" height="40.6" id="SVGID_00000002354589734539031410000010591271699916177795_">
		<g filter="url(#Adobe_OpacityMaskFilter_00000047782326384944711010000017850362605594797724_)">
			<image overflow="visible" width="25" height="46" xlink:href="76ABCD7F.jpg"  transform="matrix(1 0 0 1 84 123)">
			</image>
		</g>
	</mask>
	<g opacity="0.87" mask="url(#SVGID_00000002354589734539031410000010591271699916177795_)">
		<path fill="#61AF0E" d="M100.3,142.9l6-16.1c0,0-0.7-1.2-4.1-0.6c-3.3,0.6-6.8,4.8-6.8,4.8s-3.6,1.4-4.4,10.3
			c-0.8,8.9-4,24.2-4,24.2s9.1-11.3,10.3-14.5C98.5,147.7,100.3,142.9,100.3,142.9z"/>
		<path fill="none" stroke="#61AF0E" stroke-width="0.5" stroke-miterlimit="10" d="M100.3,142.9l6-16.1c0,0-0.7-1.2-4.1-0.6
			c-3.3,0.6-6.8,4.8-6.8,4.8s-3.6,1.4-4.4,10.3c-0.8,8.9-4,24.2-4,24.2s9.1-11.3,10.3-14.5C98.5,147.7,100.3,142.9,100.3,142.9z"/>
	</g>
</g>
<g>
	<g>
		<path fill="#628A4E" d="M78.6,133.2l11.2-13c0,0-0.3-1.4-3.6-2c-3.3-0.6-8,2.1-8,2.1s-3.9,0-7.8,8c-3.9,8-12.3,21.2-12.3,21.2
			s12.5-7.3,14.8-9.9C75.3,137.1,78.6,133.2,78.6,133.2z"/>
		<path fill="none" stroke="#000000" stroke-width="0.5" stroke-miterlimit="10" d="M78.6,133.2l11.2-13c0,0-0.3-1.4-3.6-2
			c-3.3-0.6-8,2.1-8,2.1s-3.9,0-7.8,8c-3.9,8-12.3,21.2-12.3,21.2s12.5-7.3,14.8-9.9C75.3,137.1,78.6,133.2,78.6,133.2z"/>
	</g>
	<defs>
		
			<filter id="Adobe_OpacityMaskFilter_00000006692146044171639520000011432556262113316269_" filterUnits="userSpaceOnUse" x="57.5" y="117.9" width="32.7" height="32.4">
			<feFlood  style="flood-color:white;flood-opacity:1" result="back"/>
			<feBlend  in="SourceGraphic" in2="back" mode="normal"/>
		</filter>
	</defs>
	
		<mask maskUnits="userSpaceOnUse" x="57.5" y="117.9" width="32.7" height="32.4" id="SVGID_00000093144349882930293700000001206154192668941731_">
		<g filter="url(#Adobe_OpacityMaskFilter_00000006692146044171639520000011432556262113316269_)">
			<image overflow="visible" width="38" height="38" xlink:href="76ABCD79.jpg"  transform="matrix(1 0 0 1 55 115)">
			</image>
		</g>
	</mask>
	<g opacity="0.87" mask="url(#SVGID_00000093144349882930293700000001206154192668941731_)">
		<path fill="#61AF0E" d="M78.6,133.2l11.2-13c0,0-0.3-1.4-3.6-2c-3.3-0.6-8,2.1-8,2.1s-3.9,0-7.8,8c-3.9,8-12.3,21.2-12.3,21.2
			s12.5-7.3,14.8-9.9C75.3,137.1,78.6,133.2,78.6,133.2z"/>
		<path fill="none" stroke="#61AF0E" stroke-width="0.5" stroke-miterlimit="10" d="M78.6,133.2l11.2-13c0,0-0.3-1.4-3.6-2
			c-3.3-0.6-8,2.1-8,2.1s-3.9,0-7.8,8c-3.9,8-12.3,21.2-12.3,21.2s12.5-7.3,14.8-9.9C75.3,137.1,78.6,133.2,78.6,133.2z"/>
	</g>
</g>
</svg>
