<?xml version="1.0" encoding="utf-8"?>
<!-- Generator: Adobe Illustrator 28.2.0, SVG Export Plug-In . SVG Version: 6.00 Build 0)  -->
<svg version="1.0" id="Layer_1" xmlns="http://www.w3.org/2000/svg" xmlns:xlink="http://www.w3.org/1999/xlink" x="0px" y="0px"
	 viewBox="0 0 300 300" enable-background="new 0 0 300 300" xml:space="preserve">
<path fill="#AD6F54" stroke="#000000" stroke-miterlimit="10" d="M174.9,170.2h-24.8h-0.3h-24.8c-2.4,0-2.1,2.4-2.1,2.4s0,4.9,0,7
	c0,2.1,2.1,2.1,2.1,2.1h24.8h0.3h24.8c0,0,2.1,0,2.1-2.1c0-2.1,0-7,0-7S177.4,170.2,174.9,170.2z"/>
<path fill="#AD6F54" stroke="#000000" stroke-miterlimit="10" d="M150.1,181.2h-0.3h-24.8l2.4,33c0,0,1.2,7.3,7.3,7.3
	c5.5,0,13.6,0,15,0c0,0,0.1,0,0.3,0c1.5,0,9.5,0,15,0c6.1,0,7.3-7.3,7.3-7.3l2.4-33H150.1z"/>
<path fill="#586138" stroke="#000000" stroke-width="0.5" stroke-miterlimit="10" d="M112.5,145.4c0,0,7.7,5.2,13,5.1
	s10.4-3.4,10.4-3.4s-4.6-6.8-7.8-6.3C124.8,141.1,112.5,145.4,112.5,145.4z"/>
<path fill="#A094A6" d="M133,146c0,0-2-4-4-4s-10,3-10,3s5,4,7,4S133,146,133,146z"/>
<path fill="#586138" stroke="#000000" stroke-width="0.5" stroke-miterlimit="10" d="M90.4,103c0,0,5.6,8.8,11,12.7
	c5.4,3.9,12.2,5.6,12.2,5.6s-1.7-7.6-5.2-9.7S90.4,103,90.4,103z"/>
<path fill="#A094A6" d="M111.1,118.5c0,0-0.3-3.9-2.3-5.4c-2-1.5-11.6-5.5-11.6-5.5s3.3,6.2,5.4,7.6
	C104.6,116.6,111.1,118.5,111.1,118.5z"/>
<path fill="#586138" stroke="#000000" stroke-width="0.5" stroke-miterlimit="10" d="M80.2,96.3c0,0,9.6,4,16.3,4.1
	c6.7,0,13.2-2.4,13.2-2.4s-5.7-5.2-9.8-4.9C95.8,93.3,80.2,96.3,80.2,96.3z"/>
<path fill="#A094A6" d="M106.1,97.1c0,0-2.5-3.1-5-3.1c-2.5,0-12.6,2.1-12.6,2.1s6.3,3.1,8.8,3.1C99.7,99.3,106.1,97.1,106.1,97.1z"
	/>
<path fill="#586138" stroke="#000000" stroke-width="0.5" stroke-miterlimit="10" d="M100.6,147c0,0,4.7-5.2,5.3-9.2
	c0.5-4-1.4-8.3-1.4-8.3s-5.6,2.7-5.6,5.2C98.8,137.2,100.6,147,100.6,147z"/>
<path fill="#A094A6" d="M103.4,131.6c0,0-3.2,1.1-3.5,2.6c-0.2,1.5,1.2,7.9,1.2,7.9s3.6-3.3,3.8-4.9
	C105.1,135.7,103.4,131.6,103.4,131.6z"/>
<path fill="#586138" stroke="#000000" stroke-width="0.5" stroke-miterlimit="10" d="M115.6,134c0,0,4.7-5.2,5.3-9.2
	c0.5-4-1.4-8.3-1.4-8.3s-5.6,2.7-5.6,5.2S115.6,134,115.6,134z"/>
<path fill="#A094A6" d="M118.4,118.6c0,0-3.2,1.1-3.5,2.6c-0.2,1.5,1.2,7.9,1.2,7.9s3.6-3.3,3.8-4.9
	C120.1,122.7,118.4,118.6,118.4,118.6z"/>
<path fill="#586138" stroke="#000000" stroke-width="0.5" stroke-miterlimit="10" d="M107.6,145c0,0,4.7-5.2,5.3-9.2
	c0.5-4-1.4-8.3-1.4-8.3s-5.6,2.7-5.6,5.2C105.8,135.2,107.6,145,107.6,145z"/>
<path fill="#A094A6" d="M110.4,129.6c0,0-3.2,1.1-3.5,2.6c-0.2,1.5,1.2,7.9,1.2,7.9s3.6-3.3,3.8-4.9
	C112.1,133.7,110.4,129.6,110.4,129.6z"/>
<g>
	<path fill="#42210B" d="M138.8,170.7c-0.8-5.5-1.9-11-3.2-16.4c-1.3-4.6-2.2-9.8-5.3-13.6c-2.6-2.4-3.9-5.7-5.4-8.8
		c-3.4-7.8-6.1-15.8-8.6-23.9c2,5.3,4.1,10.5,6.3,15.7c2.3,4.9,4.5,10.4,8,14.6c0.3,0.4,0.7,0.7,1.1,1c1.8,1.7,2.9,4,3.9,6.2
		c3.3,8,5.3,16.3,7.1,24.7C142.7,170.1,138.8,170.7,138.8,170.7L138.8,170.7z"/>
</g>
<g>
	<path fill="#42210B" d="M143.5,170.8c-1.8-7.1-3.6-14.2-5.3-21.3c-2-8.9-4.7-17.7-5.7-26.8c-0.9-9.9-2.2-28.1-3-38.2
		c1.1,10.1,3,28.2,4.2,38.1c1.3,9,4.4,17.6,6.7,26.4c2,7,4,14,6.1,21C146.4,170,143.5,170.8,143.5,170.8L143.5,170.8z"/>
</g>
<path fill="#586138" stroke="#000000" stroke-width="0.5" stroke-miterlimit="10" d="M115.4,110.6c0,0-0.4-7-2.9-10.2
	c-2.5-3.2-6.9-4.8-6.9-4.8s-2,5.9-0.2,7.7C107.1,105.1,115.4,110.6,115.4,110.6z"/>
<path fill="#A094A6" d="M106.3,97.9c0,0-1.5,3.1-0.6,4.3c0.9,1.2,6.5,4.7,6.5,4.7s0.1-4.9-0.8-6.1C110.5,99.5,106.3,97.9,106.3,97.9
	z"/>
<path fill="#586138" stroke="#000000" stroke-width="0.5" stroke-miterlimit="10" d="M124.3,96.2c0,0-6-3.8-10-3.6s-7.9,2.8-7.9,2.8
	s3.7,5.1,6.1,4.7S124.3,96.2,124.3,96.2z"/>
<path fill="#A094A6" stroke="#000000" stroke-width="0.5" stroke-miterlimit="10" d="M136.5,68.9c0,0-6.1,3.6-7.8,7.3
	c-1.7,3.7-1.1,8.3-1.1,8.3s6.2-0.9,6.9-3.3C135.3,78.8,136.5,68.9,136.5,68.9z"/>
<path fill="#586138" stroke="#000000" stroke-width="0.5" stroke-miterlimit="10" d="M103.2,85.3c0,0,9.6,4,16.3,4.1
	c6.7,0,13.2-2.4,13.2-2.4s-5.7-5.2-9.8-4.9C118.8,82.3,103.2,85.3,103.2,85.3z"/>
<path fill="#A094A6" d="M129.1,86.1c0,0-2.5-3.1-5-3.1c-2.5,0-12.6,2.1-12.6,2.1s6.3,3.1,8.8,3.1C122.7,88.3,129.1,86.1,129.1,86.1z
	"/>
<path fill="#586138" stroke="#000000" stroke-width="0.5" stroke-miterlimit="10" d="M138.4,99.6c0,0-0.4-7-2.9-10.2
	c-2.5-3.2-6.9-4.8-6.9-4.8s-2,5.9-0.2,7.7S138.4,99.6,138.4,99.6z"/>
<path fill="#A094A6" d="M129.3,86.9c0,0-1.5,3.1-0.6,4.3c0.9,1.2,6.5,4.7,6.5,4.7s0.1-4.9-0.8-6.1C133.5,88.5,129.3,86.9,129.3,86.9
	z"/>
<path fill="#586138" stroke="#000000" stroke-width="0.5" stroke-miterlimit="10" d="M147.3,85.2c0,0-6-3.8-10-3.6
	c-4,0.2-7.9,2.8-7.9,2.8s3.7,5.1,6.1,4.7S147.3,85.2,147.3,85.2z"/>
<path fill="#586138" stroke="#000000" stroke-width="0.5" stroke-miterlimit="10" d="M102.2,109.3c0,0,9.6,4,16.3,4.1
	c6.7,0,13.2-2.4,13.2-2.4s-5.7-5.2-9.8-4.9C117.8,106.3,102.2,109.3,102.2,109.3z"/>
<path fill="#A094A6" d="M128.1,110.1c0,0-2.5-3.1-5-3.1c-2.5,0-12.6,2.1-12.6,2.1s6.3,3.1,8.8,3.1
	C121.7,112.3,128.1,110.1,128.1,110.1z"/>
<path fill="#586138" stroke="#000000" stroke-width="0.5" stroke-miterlimit="10" d="M137.4,123.6c0,0-0.4-7-2.9-10.2
	c-2.5-3.2-6.9-4.8-6.9-4.8s-2,5.9-0.2,7.7C129.1,118.1,137.4,123.6,137.4,123.6z"/>
<path fill="#A094A6" d="M128.3,110.9c0,0-1.5,3.1-0.6,4.3c0.9,1.2,6.5,4.7,6.5,4.7s0.1-4.9-0.8-6.1
	C132.5,112.5,128.3,110.9,128.3,110.9z"/>
<path fill="#586138" stroke="#000000" stroke-width="0.5" stroke-miterlimit="10" d="M146.3,109.2c0,0-6-3.8-10-3.6
	c-4,0.2-7.9,2.8-7.9,2.8s3.7,5.1,6.1,4.7S146.3,109.2,146.3,109.2z"/>
<path fill="#586138" stroke="#000000" stroke-width="0.5" stroke-miterlimit="10" d="M151.3,144.2c0,0-6-3.8-10-3.6
	c-4,0.2-7.9,2.8-7.9,2.8s3.7,5.1,6.1,4.7C141.9,147.6,151.3,144.2,151.3,144.2z"/>
<path fill="#586138" stroke="#000000" stroke-width="0.5" stroke-miterlimit="10" d="M128.3,116.2c0,0-6-3.8-10-3.6
	c-4,0.2-7.9,2.8-7.9,2.8s3.7,5.1,6.1,4.7C118.9,119.6,128.3,116.2,128.3,116.2z"/>
<path fill="#586138" stroke="#000000" stroke-width="0.5" stroke-miterlimit="10" d="M153.3,92.2c0,0-6-3.8-10-3.6
	c-4,0.2-7.9,2.8-7.9,2.8s3.7,5.1,6.1,4.7C143.9,95.6,153.3,92.2,153.3,92.2z"/>
<path fill="#586138" stroke="#000000" stroke-width="0.5" stroke-miterlimit="10" d="M111.5,122.5c0,0-16,6-14,8s5,2,5,2s11-5,12-8
	S111.5,122.5,111.5,122.5z"/>
<path fill="#A094A6" stroke="#000000" stroke-width="0.5" stroke-miterlimit="10" d="M101.5,133.5L92.1,149c0,0-4.6-4.5-1.6-9.5
	s7-9,7-9l4,2V133.5z"/>
<path fill="#586138" stroke="#000000" stroke-width="0.5" stroke-miterlimit="10" d="M139.6,130.2c0,0-0.1-2.7-1.1-5.7
	s-2.1-5.6-2.1-5.6l-0.6-5.2c0,0,6.3,3.6,7.5,6.2c1.2,2.6,2.4,10.4,2.4,10.4s-0.5,2.3-1.4,5.3C143.5,138.5,139.6,130.2,139.6,130.2z"
	/>
<path fill="#A094A6" d="M142.1,120.1l-4.7-4.7c0,0,0.7,4.6,1.7,6.6s3,8,3,8s1-1,1-3S142.1,120.1,142.1,120.1z"/>
<path fill="#586138" stroke="#000000" stroke-width="0.5" stroke-miterlimit="10" d="M150.6,125.2c0,0-0.1-2.7-1.1-5.7
	s-2.1-5.6-2.1-5.6l-0.6-5.2c0,0,6.3,3.6,7.5,6.2c1.2,2.6,2.4,10.4,2.4,10.4s-0.5,2.3-1.4,5.3C154.5,133.5,150.6,125.2,150.6,125.2z"
	/>
<path fill="#A094A6" d="M153.1,115.1l-4.7-4.7c0,0,0.7,4.6,1.7,6.6s3,8,3,8s1-1,1-3S153.1,115.1,153.1,115.1z"/>
<path fill="#586138" stroke="#000000" stroke-width="0.5" stroke-miterlimit="10" d="M180.3,149.8c0,0-6.6,4.6-11.1,4.6
	c-4.5-0.1-9-3.1-9-3.1s4-6.1,6.7-5.7C169.7,146,180.3,149.8,180.3,149.8z"/>
<path fill="#A094A6" d="M162.7,150.4c0,0,1.7-3.6,3.4-3.6s8.6,2.7,8.6,2.7s-4.3,3.6-6,3.6S162.7,150.4,162.7,150.4z"/>
<path fill="#586138" stroke="#000000" stroke-width="0.5" stroke-miterlimit="10" d="M199.3,111.7c0,0-4.8,8-9.4,11.4
	s-10.5,5-10.5,5s1.4-6.8,4.5-8.7C186.8,117.5,199.3,111.7,199.3,111.7z"/>
<path fill="#A094A6" d="M181.5,125.6c0,0,0.2-3.6,2-4.9c1.8-1.3,9.9-5,9.9-5s-2.9,5.5-4.6,6.9C187.1,124,181.5,125.6,181.5,125.6z"
	/>
<path fill="#586138" stroke="#000000" stroke-width="0.5" stroke-miterlimit="10" d="M208,105.7c0,0-8.3,3.6-14,3.7
	c-5.7,0-11.3-2.2-11.3-2.2s4.9-4.7,8.4-4.5C194.6,102.9,208,105.7,208,105.7z"/>
<path fill="#A094A6" d="M185.8,106.4c0,0,2.1-2.8,4.3-2.8c2.2,0,10.9,1.9,10.9,1.9s-5.4,2.8-7.6,2.8
	C191.3,108.4,185.8,106.4,185.8,106.4z"/>
<path fill="#586138" stroke="#000000" stroke-width="0.5" stroke-miterlimit="10" d="M190.5,151.3c0,0-4.1-4.7-4.5-8.3
	c-0.5-3.6,1.2-7.5,1.2-7.5s4.8,2.5,4.9,4.7C192.1,142.5,190.5,151.3,190.5,151.3z"/>
<path fill="#A094A6" d="M188.1,137.4c0,0,2.8,1,3,2.3c0.2,1.4-1,7.1-1,7.1s-3.1-3-3.3-4.4C186.6,141.1,188.1,137.4,188.1,137.4z"/>
<path fill="#586138" stroke="#000000" stroke-width="0.5" stroke-miterlimit="10" d="M177.6,139.6c0,0-4.1-4.7-4.5-8.3
	s1.2-7.5,1.2-7.5s4.8,2.5,4.9,4.7C179.2,130.8,177.6,139.6,177.6,139.6z"/>
<path fill="#A094A6" d="M175.2,125.7c0,0,2.8,1,3,2.3c0.2,1.4-1,7.1-1,7.1s-3.1-3-3.3-4.4C173.8,129.4,175.2,125.7,175.2,125.7z"/>
<path fill="#586138" stroke="#000000" stroke-width="0.5" stroke-miterlimit="10" d="M184.5,149.5c0,0-4.1-4.7-4.5-8.3
	c-0.5-3.6,1.2-7.5,1.2-7.5s4.8,2.5,4.9,4.7S184.5,149.5,184.5,149.5z"/>
<path fill="#A094A6" d="M182.1,135.6c0,0,2.8,1,3,2.3c0.2,1.4-1,7.1-1,7.1s-3.1-3-3.3-4.4C180.6,139.3,182.1,135.6,182.1,135.6z"/>
<g>
	<path fill="#42210B" d="M157,169.9c0.4-4.9,1.1-9.7,2.1-14.5c0.9-3.6,1.6-7.4,3.9-10.6c2.7-2.4,4.2-5.5,5.8-8.8
		c3.1-6.5,5.7-13.2,8.1-19.9c-1.3,4.6-2.7,9.2-4.3,13.7c-1.6,4.6-3.2,9.1-5.7,13.4c-0.6,1.1-1.5,2-2.3,2.9c-0.6,0.8-1,1.9-1.3,3
		c-0.7,2.2-1.1,4.5-1.4,6.8c-0.6,4.7-0.9,9.4-1,14.1C161,170.1,157,169.9,157,169.9L157,169.9z"/>
</g>
<g>
	<path fill="#42210B" d="M147.1,170c4.9-12,10-24,14-36.3c0.5-1.4,0.7-3.3,0.9-4.7c1.1-8.8,2.7-25,3.6-33.9
		c-0.6,9.1-1.7,25.2-2.5,34.1c-0.1,1.5-0.3,3.5-0.7,4.9c-1.7,6.3-3.9,12.5-6,18.6c-2.1,6.2-4.3,12.3-6.6,18.4L147.1,170L147.1,170z"
		/>
</g>
<path fill="#586138" stroke="#000000" stroke-width="0.5" stroke-miterlimit="10" d="M177.8,118.6c0,0,0.4-6.3,2.5-9.2
	c2.1-2.9,5.9-4.3,5.9-4.3s1.7,5.3,0.2,6.9C184.9,113.6,177.8,118.6,177.8,118.6z"/>
<path fill="#A094A6" d="M185.6,107.1c0,0,1.3,2.8,0.5,3.9c-0.8,1.1-5.6,4.2-5.6,4.2s-0.1-4.4,0.7-5.5
	C182,108.6,185.6,107.1,185.6,107.1z"/>
<path fill="#586138" stroke="#000000" stroke-width="0.5" stroke-miterlimit="10" d="M170.2,105.5c0,0,5.1-3.4,8.6-3.3
	s6.8,2.5,6.8,2.5s-3.1,4.6-5.3,4.2S170.2,105.5,170.2,105.5z"/>
<path fill="#A094A6" stroke="#000000" stroke-width="0.5" stroke-miterlimit="10" d="M159.7,81c0,0,5.2,3.2,6.7,6.5
	c1.5,3.3,0.9,7.5,0.9,7.5s-5.3-0.9-6-3S159.7,81,159.7,81z"/>
<path fill="#586138" stroke="#000000" stroke-width="0.5" stroke-miterlimit="10" d="M188.2,95.8c0,0-8.3,3.6-14,3.7
	c-5.7,0-11.3-2.2-11.3-2.2s4.9-4.7,8.4-4.5C174.8,93,188.2,95.8,188.2,95.8z"/>
<path fill="#A094A6" d="M166,96.5c0,0,2.1-2.8,4.3-2.8s10.9,1.9,10.9,1.9s-5.4,2.8-7.6,2.8S166,96.5,166,96.5z"/>
<path fill="#586138" stroke="#000000" stroke-width="0.5" stroke-miterlimit="10" d="M158,108.7c0,0,0.4-6.3,2.5-9.2
	c2.1-2.9,5.9-4.3,5.9-4.3s1.7,5.3,0.2,6.9C165.1,103.7,158,108.7,158,108.7z"/>
<path fill="#A094A6" d="M165.8,97.2c0,0,1.3,2.8,0.5,3.9c-0.8,1.1-5.6,4.2-5.6,4.2s-0.1-4.4,0.7-5.5
	C162.3,98.7,165.8,97.2,165.8,97.2z"/>
<path fill="#586138" stroke="#000000" stroke-width="0.5" stroke-miterlimit="10" d="M150.4,95.6c0,0,5.1-3.4,8.6-3.3
	s6.8,2.5,6.8,2.5s-3.1,4.6-5.3,4.2S150.4,95.6,150.4,95.6z"/>
<path fill="#586138" stroke="#000000" stroke-width="0.5" stroke-miterlimit="10" d="M189.1,117.4c0,0-8.3,3.6-14,3.7
	c-5.7,0-11.3-2.2-11.3-2.2s4.9-4.7,8.4-4.5S189.1,117.4,189.1,117.4z"/>
<path fill="#A094A6" d="M166.9,118.1c0,0,2.1-2.8,4.3-2.8c2.2,0,10.9,1.9,10.9,1.9s-5.4,2.8-7.6,2.8
	C172.3,120.1,166.9,118.1,166.9,118.1z"/>
<path fill="#586138" stroke="#000000" stroke-width="0.5" stroke-miterlimit="10" d="M158.9,130.3c0,0,0.4-6.3,2.5-9.2
	c2.1-2.9,5.9-4.3,5.9-4.3s1.7,5.3,0.2,6.9C166,125.3,158.9,130.3,158.9,130.3z"/>
<path fill="#A094A6" d="M166.7,118.8c0,0,1.3,2.8,0.5,3.9c-0.8,1.1-5.6,4.2-5.6,4.2s-0.1-4.4,0.7-5.5
	C163.1,120.3,166.7,118.8,166.7,118.8z"/>
<path fill="#586138" stroke="#000000" stroke-width="0.5" stroke-miterlimit="10" d="M151.3,117.2c0,0,5.1-3.4,8.6-3.3
	s6.8,2.5,6.8,2.5s-3.1,4.6-5.3,4.2C159.3,120.4,151.3,117.2,151.3,117.2z"/>
<path fill="#586138" stroke="#000000" stroke-width="0.5" stroke-miterlimit="10" d="M147,148.8c0,0,5.1-3.4,8.6-3.3
	c3.5,0.1,6.8,2.5,6.8,2.5s-3.1,4.6-5.3,4.2C155,151.9,147,148.8,147,148.8z"/>
<path fill="#586138" stroke="#000000" stroke-width="0.5" stroke-miterlimit="10" d="M166.7,123.5c0,0,5.1-3.4,8.6-3.3
	c3.5,0.1,6.8,2.5,6.8,2.5s-3.1,4.6-5.3,4.2C174.8,126.7,166.7,123.5,166.7,123.5z"/>
<path fill="#586138" stroke="#000000" stroke-width="0.5" stroke-miterlimit="10" d="M145.2,101.9c0,0,5.1-3.4,8.6-3.3
	c3.5,0.1,6.8,2.5,6.8,2.5s-3.1,4.6-5.3,4.2C153.3,105.1,145.2,101.9,145.2,101.9z"/>
<path fill="#586138" stroke="#000000" stroke-width="0.5" stroke-miterlimit="10" d="M181.1,129.3c0,0,13.7,5.4,12,7.2
	c-1.7,1.8-4.3,1.8-4.3,1.8s-9.5-4.5-10.3-7.2C177.7,128.4,181.1,129.3,181.1,129.3z"/>
<path fill="#A094A6" stroke="#000000" stroke-width="0.5" stroke-miterlimit="10" d="M189.7,139.2l8.1,14c0,0,4-4.1,1.4-8.6
	s-6-8.1-6-8.1l-3.4,1.8V139.2z"/>
<path fill="#586138" stroke="#000000" stroke-width="0.5" stroke-miterlimit="10" d="M157,136.2c0,0,0.1-2.5,1-5.2
	c0.9-2.7,1.8-5.1,1.8-5.1l0.5-4.7c0,0-5.4,3.3-6.5,5.6s-2.1,9.3-2.1,9.3s0.4,2,1.2,4.7C153.6,143.7,157,136.2,157,136.2z"/>
<path fill="#A094A6" d="M154.9,127.1l4.1-4.2c0,0-0.6,4.2-1.4,6c-0.9,1.8-2.6,7.2-2.6,7.2s-0.9-0.9-0.9-2.7
	C154.1,131.5,154.9,127.1,154.9,127.1z"/>
<path fill="#586138" stroke="#000000" stroke-width="0.5" stroke-miterlimit="10" d="M147.5,131.7c0,0,0.1-2.5,1-5.2
	c0.9-2.7,1.8-5.1,1.8-5.1l0.5-4.7c0,0-5.4,3.3-6.5,5.6s-2.1,9.3-2.1,9.3s0.4,2,1.2,4.7C144.2,139.2,147.5,131.7,147.5,131.7z"/>
<path fill="#A094A6" d="M145.4,122.6l4.1-4.2c0,0-0.6,4.2-1.4,6c-0.9,1.8-2.6,7.2-2.6,7.2s-0.9-0.9-0.9-2.7
	C144.6,127,145.4,122.6,145.4,122.6z"/>
</svg>
