<?xml version="1.0" encoding="utf-8"?>
<!-- Generator: Adobe Illustrator 28.2.0, SVG Export Plug-In . SVG Version: 6.00 Build 0)  -->
<svg version="1.0" id="Layer_1" xmlns="http://www.w3.org/2000/svg" xmlns:xlink="http://www.w3.org/1999/xlink" x="0px" y="0px"
	 viewBox="0 0 300 300" enable-background="new 0 0 300 300" xml:space="preserve">
<path fill="#AD6F54" stroke="#000000" stroke-miterlimit="10" d="M173.9,170.2h-24.8h-0.3h-24.8c-2.4,0-2.1,2.4-2.1,2.4s0,4.9,0,7
	c0,2.1,2.1,2.1,2.1,2.1h24.8h0.3h24.8c0,0,2.1,0,2.1-2.1c0-2.1,0-7,0-7S176.4,170.2,173.9,170.2z"/>
<path fill="#AD6F54" stroke="#000000" stroke-miterlimit="10" d="M149.1,181.2h-0.3h-24.8l2.4,33c0,0,1.2,7.3,7.3,7.3
	c5.5,0,13.6,0,15,0c0,0,0.1,0,0.3,0c1.5,0,9.5,0,15,0c6.1,0,7.3-7.3,7.3-7.3l2.4-33H149.1z"/>
<g>
	<path fill="#8FA358" d="M151.4,170.5c1-7.8,2.7-15.5,4.7-23.1c1.9-7.6,5.1-14.9,7.7-22.3c1.3-3.7,2.6-7.4,4-11.1
		c1-2.1,1.9-4.8,4-6.4c7.6-4.1,15.8-11.1,22.8-16.3c0,0-0.4,0.6-0.4,0.6c2.8-5.8,7.6-12.5,14.7-12.3c1,0.1,1.9,0.3,2.7,0.7l-0.1,0.3
		c-7.5-1.3-12.1,6.5-14.6,12.4c0,0-0.1,0.3-0.1,0.3s-0.3,0.3-0.3,0.3c-7.3,6-14.9,12-23.6,15.9c-1.7,1.1-2.6,3.2-3.7,5
		c-3.6,6.9-5.8,14.5-7.6,22.1c-2.7,11.5-6,22.7-9.9,33.8C151.6,170.5,151.4,170.5,151.4,170.5L151.4,170.5z"/>
</g>
<g>
	<path fill="#8FA358" d="M157.4,145.5c-0.4-5.7-0.9-12.1-1.4-17.8c-0.5-3.8-0.7-8.1-3.5-11.1c-3.9-4.5-8-8.8-11.8-13.5
		c-1.5-2-3.2-3.9-4.4-6.2c-0.2-0.4-0.5-1.1-0.5-1.6c-0.2-0.7-1.1-1.4-1.7-1.9c-3.1-2.3-6.9-3.7-10.7-4.7c-2.8-0.7-5.8-1.1-8.6-0.2
		c-0.9,0.3-1.9,0.7-2.8,1c-3.8,1.3-7.8,1.9-11.8,1.8c4.7-0.4,9.8-1.5,14.3-3.6c6.3-2,16.5,1.4,21.3,5.8c0.4,0.4,0.7,0.8,0.9,1.6
		c0.5,2.6,3,5.1,4.5,7.3c2.4,3.1,5,6.2,7.5,9.2c1.8,2.4,4.1,4.4,5.5,7.1C157.6,127.3,158.1,136.9,157.4,145.5L157.4,145.5z"/>
</g>
<g>
	<path fill="#8FA358" d="M151.5,169.5c1.3-16,3.4-32,3.7-48.1c0-4-0.2-8.1-1-12c-0.4-2-1.6-3.7-2-5.7c-0.5-2-0.5-4.1-0.5-6.1
		c0.5-8.2,3.2-16,6.4-23.4c2.4-2.8,4.9-5.5,7.5-8.2c2.6-2.4,5.1-5.7,8.3-7.2c-2.9,1.9-5.4,5-7.9,7.6c-2.3,2.5-5.2,6-7.1,8.2
		c-3,7.3-5.7,15.1-6.3,23c-0.2,2.9,0,6,1.2,8.7c1.2,2.8,1.3,6,1.5,9C155.8,133.4,154.6,151.9,151.5,169.5L151.5,169.5z"/>
</g>
<g>
	<path fill="#8FA358" d="M160.5,169.5c0.9-9.6,1.7-19.3,2.2-28.9c0.3-8.3,1.2-17.1-1.7-25.1c-0.4-1.1-1.2-2-2-2.9
		c-4.7-5.5-10.6-9.9-15.4-15.4c-2.3-2.8-4.7-6.1-4.7-10c0.2-3.7,1.8-7.2,3.3-10.5c2.2-4.4,4.8-8.5,7.7-12.3
		c-3.9,6.9-9.2,14.6-10,22.9c0.2,6,5.5,10.4,9.4,14.5c3.4,3.4,7,6.7,10,10.5c1.6,1.9,2.5,4.2,2.9,6.6c1.3,7.2,1.3,14.5,1.2,21.7
		C163.1,150.2,162.3,160.2,160.5,169.5L160.5,169.5z"/>
</g>
<g>
	<path fill="#8FA358" d="M153.5,150.5c-2.2-6.9-5.9-18.7-12.9-21.8c-3.5-1.2-9.1-1.7-12.8-2.4c-3.5-0.8-10.4-1.6-11.3-5.8
		c0,0,0.1,0,0.1,0c0.7,2.1,3,2.9,5,3.5c5.3,1.4,10.7,2,16,3.5c3.3,0.7,6.3,2.4,8.4,5c2.9,3.3,4.8,7.5,6.1,11.7
		C152.7,146.2,153.2,148.3,153.5,150.5C153.5,150.5,153.5,150.5,153.5,150.5L153.5,150.5z"/>
</g>
<g>
	<path fill="#8FA358" d="M144.1,106.6c-4.6,1.5-9.5,0.9-14.2,1.7c-3,0.3-13,2.5-13.4-1.7c1.3,2.2,4.1,1.5,6.3,1.5
		c2.3-0.1,4.7-0.3,7.1-0.3C134.6,107.8,139.5,106,144.1,106.6L144.1,106.6z"/>
</g>
<g>
	<path fill="#8FA358" d="M189.2,97.4c2.3-0.5,4.6-0.2,6.9,0.4c2.3,0.3,4.6,0.3,6.8,1c1.5,0.5,2.9,1.1,4.1,2.2L207,101
		c-3.3-0.9-7.7-2.4-10.9-3C193.7,98.1,191.5,98.1,189.2,97.4C189.2,97.5,189.2,97.4,189.2,97.4L189.2,97.4z"/>
</g>
<g>
	<path fill="#8FA358" d="M198.9,85.9c2.6-2.2,6.4-2.1,8.8,0.3c2.4,2,4.6,4.1,6.4,6.8c0,0-0.1,0.1-0.1,0.1c-1.3-0.9-2.5-1.9-3.6-3
		c-1.1-1.1-2.1-2.3-3.1-3.5c-0.5-0.6-1-1.2-1.7-1.4C203.4,84.6,201.2,85.5,198.9,85.9C199,85.9,198.9,85.9,198.9,85.9L198.9,85.9z"
		/>
</g>
<g>
	<path fill="#8FA358" d="M195.5,92.5c-3.7-1-7.7-1-11.5-1.5c-6.5,0-13,1.1-19.5,0.5c0,0,0-0.1,0-0.1c6.4-1.2,13-1,19.5-0.7
		c3.3-0.1,6.6-0.3,9.8,0.9C194.4,91.7,195,92.1,195.5,92.5L195.5,92.5L195.5,92.5z"/>
</g>
<g>
	<path fill="#8FA358" d="M178.5,105c3.2,0.6,6.2,1.4,9.2,2.4c2.6,1.1,6.3,2.5,9,3.3c1.9,0.7,3.9,1.3,5.5,2.7c3,3.2,5.3,7.1,7.3,11
		c0,0-0.1,0.1-0.1,0.1c-2.7-3.4-5.1-7-7.9-10.3c-2.7-2.1-6.2-3.4-9.4-4.6C187.6,108.2,182.6,107.1,178.5,105L178.5,105z"/>
</g>
<g>
	<path fill="#8FA358" d="M161.6,133.1c-6.6-5.6-12-12.5-18.6-18c-5.7-4.6-11.5-10-18-13.5c-1-0.4-2-0.9-3-0.9c0,0,0-0.1,0-0.1
		c8.1-0.1,20.2,13.2,26,18.6C152.7,123.3,158.1,128.2,161.6,133.1L161.6,133.1z"/>
</g>
<g>
	<path fill="#8FA358" d="M149.4,172.5c-3.9-11.1-7.2-22.3-9.9-33.8c-1.7-7.6-3.9-15.2-7.6-22.1c-1.1-1.9-2.1-3.9-3.7-5
		c-8.7-3.9-16.3-9.9-23.6-15.9c0,0-0.3-0.3-0.3-0.3s-0.1-0.3-0.1-0.3c-2.4-5.9-7.1-13.8-14.6-12.4c0,0-0.1-0.3-0.1-0.3
		c0.9-0.3,1.8-0.6,2.7-0.7c7.1-0.3,11.9,6.5,14.7,12.3c0,0-0.4-0.6-0.4-0.6c7,5.2,15.2,12.1,22.8,16.3c2.2,1.5,3,4.2,4,6.4
		c1.5,3.7,2.7,7.4,4,11.1c4.1,11,8.2,22.1,10.4,33.7c0.8,3.8,1.5,7.7,2,11.6C149.6,172.5,149.4,172.5,149.4,172.5L149.4,172.5z"/>
</g>
<g>
	<path fill="#8FA358" d="M143.4,147.5c-0.4-7.9-0.1-16,2.1-23.7c0.4-1.4,0.9-2.9,1.7-4.2c4-5.1,8.3-9.9,12.3-15
		c1.5-2.2,4-4.7,4.5-7.3c0.1-0.7,0.5-1.2,0.9-1.6c4.8-4.4,15-7.8,21.3-5.8c4.5,2.1,9.6,3.2,14.3,3.6c-4,0.1-8-0.6-11.8-1.8
		c-1.9-0.6-3.6-1.5-5.6-1.5c-1.9-0.1-3.9,0.2-5.8,0.7c-3.7,0.9-7.5,2.4-10.7,4.7c-0.6,0.5-1.5,1.2-1.7,1.9c0,0.5-0.3,1.1-0.5,1.6
		c-1.2,2.2-2.8,4.2-4.4,6.2c-2.5,3.1-5.2,6.1-7.8,9c-1.9,2.3-4.2,4.3-5.6,6.9c-1.9,4.3-1.8,10-2.4,14.6
		C144,139.5,144,143.8,143.4,147.5L143.4,147.5z"/>
</g>
<g>
	<path fill="#8FA358" d="M149.5,171.5c-2.9-17.9-4.3-36-3.8-54.1c0.2-3,0.3-6.1,1.5-9c1.2-2.7,1.4-5.7,1.2-8.7
		c-0.6-7.9-3.3-15.7-6.3-23c-1.9-2.2-4.8-5.6-7.1-8.2c-2.4-2.6-4.9-5.7-7.9-7.6c3.2,1.5,5.8,4.7,8.3,7.2c2.6,2.7,5,5.4,7.5,8.2
		c3.2,7.4,5.9,15.2,6.4,23.4c0.1,2,0,4.1-0.5,6.1c-0.4,2-1.6,3.7-2,5.7c-0.8,3.9-1,7.9-1,12C146,139.4,148.5,155.7,149.5,171.5
		L149.5,171.5z"/>
</g>
<g>
	<path fill="#8FA358" d="M140.5,171.5c-2.6-16.7-4.4-33.8-1.8-50.6c0.5-2.4,1.3-4.8,2.9-6.6c3-3.8,6.6-7.1,10-10.5
		c3.9-4.1,9.2-8.5,9.4-14.5c-0.8-8.3-6.1-15.9-10-22.9c2.9,3.9,5.5,8,7.7,12.3c1.6,3.3,3.1,6.8,3.3,10.5c0.1,3.8-2.3,7.2-4.7,10
		c-4.8,5.5-10.7,9.9-15.4,15.4c-0.8,0.9-1.5,1.8-2,2.9c-2.9,8-2,16.7-1.7,25.1C138.7,152.2,139.9,162.1,140.5,171.5L140.5,171.5z"/>
</g>
<g>
	<path fill="#8FA358" d="M147.5,152.5c1.4-7.4,4-15.4,10-20.4c1.7-1.5,3.9-2.2,6-2.7c5.2-1.5,10.7-2.1,16-3.5c2-0.6,4.3-1.3,5-3.5
		c0,0,0.1,0,0.1,0c-0.8,4.2-7.8,5.1-11.3,5.8c-3.8,0.7-9.3,1.1-12.8,2.4c-4.1,1.7-6.3,5.9-8.2,9.6
		C150.2,144.1,148.9,148.6,147.5,152.5L147.5,152.5z"/>
</g>
<g>
	<path fill="#8FA358" d="M156.9,108.5c3.6-0.1,7.1,0.4,10.6,1c3.5,0.3,7.2,0.2,10.7,0.5c2.1,0,5,0.7,6.3-1.5c0,0,0.1,0,0.1,0
		c-1.2,4.3-10.2,2-13.5,1.7C166.4,109.4,161.2,110.2,156.9,108.5L156.9,108.5z"/>
</g>
<g>
	<path fill="#8FA358" d="M111.8,99.5c-2.8,1-6,1.3-8.1,3.5c-0.9,1-2.1,2.4-2.9,3.4c-0.9,1.2-1.8,2.3-2.7,3.6c0,0-0.1,0-0.1,0
		c0.7-4,4-6.7,7.3-8.7C107.1,99.9,109.4,98.9,111.8,99.5C111.8,99.4,111.8,99.5,111.8,99.5L111.8,99.5z"/>
</g>
<g>
	<path fill="#8FA358" d="M102,88.5c-7.9-4.1-7.2,1-10.8,6.3c-1,1.5-2,2.9-3.2,4.2C88,99,88,99,88,99c1.6-4.2,4.3-7.6,6.9-11.2
		c1.1-1.7,3.4-2,5.1-1C100.8,87.2,101.5,87.8,102,88.5C102.1,88.5,102,88.5,102,88.5L102,88.5z"/>
</g>
<g>
	<path fill="#8FA358" d="M105.5,94.5c3.4-2.2,7.7-1.9,11.5-1.8c6.5-0.2,13.1-0.5,19.5,0.7c0,0,0,0.1,0,0.1c-6.5,0.5-13-0.5-19.5-0.5
		C113.2,93.5,109.2,93.5,105.5,94.5C105.5,94.5,105.5,94.5,105.5,94.5L105.5,94.5z"/>
</g>
<g>
	<path fill="#8FA358" d="M122.5,107.1c-7.5,3.4-16.3,4-23,9c-2.8,3.3-5.2,6.9-7.9,10.3c0,0-0.1-0.1-0.1-0.1c2-3.9,4.3-7.8,7.3-11
		c1.6-1.4,3.6-2,5.5-2.7c2.7-0.8,6.4-2.3,9-3.3C116.2,108.5,119.5,107.4,122.5,107.1L122.5,107.1z"/>
</g>
<g>
	<path fill="#8FA358" d="M139.3,135c3.9-4.9,8.9-9.7,13.6-13.8c5.8-5.4,18-18.7,26-18.6c0,0,0,0.1,0,0.1c-1.1,0-2.1,0.5-3,0.9
		c-6.4,3.5-12.3,8.9-18,13.5C151.3,122.6,145.9,129.8,139.3,135L139.3,135z"/>
</g>
<g>
	<path fill="#8FA358" d="M160.6,69.5c0.6,0.8,0.8,1.7,0.8,2.7c0,0-1.1-0.9-1.1-0.9c0.8-0.2,1.6-0.3,2.3-0.1c0.2,0.1,0.8,0.1,0.9,0.4
		c-1,0.3-2.1,0.5-3.1,0.8c0,0,0-0.1,0-0.1l0-2.7C160.4,69.5,160.6,69.5,160.6,69.5L160.6,69.5z"/>
</g>
<g>
	<path fill="#8FA358" d="M158.6,72c0.6,0.8,0.8,1.7,0.8,2.7c0,0-1.1-0.9-1.1-0.9c0.8-0.2,1.6-0.3,2.3-0.1c0.2,0.1,0.8,0.1,0.9,0.4
		c-1,0.3-2.1,0.5-3.1,0.8c0,0,0-0.1,0-0.1l0-2.7C158.4,72,158.6,72,158.6,72L158.6,72z"/>
</g>
<g>
	<path fill="#8FA358" d="M156.2,75.6c0.9,0.6,1.4,1.3,1.8,2.2c0,0-1.3-0.4-1.3-0.4c0.6-0.5,1.3-0.8,2.1-1c0.2,0,0.8-0.2,0.9,0
		c-0.9,0.6-1.7,1.2-2.6,1.9c0,0,0-0.1,0-0.1L156.2,75.6L156.2,75.6L156.2,75.6z"/>
</g>
<g>
	<path fill="#8FA358" d="M154.2,77.6c1.1,0.9,1.7,2.1,2.3,3.4c0,0-1.4-0.4-1.4-0.4c1.1-0.8,2.2-1.4,3.6-1.6c0,0,0.1,0.1,0.1,0.1
		l-3,2.3c-0.1,0.1-0.1,0.1-0.2,0C155.5,81.4,154.1,77.7,154.2,77.6C154.1,77.7,154.2,77.6,154.2,77.6L154.2,77.6z"/>
</g>
<g>
	<path fill="#8FA358" d="M153.2,81.6c1.1,0.9,1.7,2.1,2.3,3.4c0,0-1.4-0.4-1.4-0.4c1.1-0.8,2.2-1.4,3.6-1.6c0,0,0.1,0.1,0.1,0.1
		l-3,2.3c-0.1,0.1-0.1,0.1-0.2,0C154.5,85.4,153.1,81.7,153.2,81.6C153.1,81.7,153.2,81.6,153.2,81.6L153.2,81.6z"/>
</g>
<g>
	<path fill="#8FA358" d="M152.2,84.6c1.1,0.9,1.7,2.1,2.3,3.4c0,0-1.4-0.4-1.4-0.4c1.1-0.8,2.2-1.4,3.6-1.6c0,0,0.1,0.1,0.1,0.1
		l-3,2.3c-0.1,0.1-0.1,0.1-0.2,0C153.5,88.4,152.1,84.7,152.2,84.6C152.1,84.7,152.2,84.6,152.2,84.6L152.2,84.6z"/>
</g>
<g>
	<path fill="#8FA358" d="M151.2,87.6c1.2,1.1,1.9,2.5,2.5,4c0,0-1.4-0.4-1.4-0.4c1.2-0.9,2.5-1.6,4-2c0,0,0.1,0.1,0.1,0.1l-3.5,2.7
		c-0.1,0.1-0.1,0.1-0.2,0C152.7,92,151.1,87.7,151.2,87.6C151.1,87.7,151.2,87.6,151.2,87.6L151.2,87.6z"/>
</g>
<g>
	<path fill="#8FA358" d="M150.2,91.6c1.2,1.1,1.9,2.5,2.5,4c0,0-1.4-0.4-1.4-0.4c1.2-0.9,2.5-1.6,4-2c0,0,0.1,0.1,0.1,0.1l-3.5,2.7
		c-0.1,0.1-0.1,0.1-0.2,0C151.7,96,150.1,91.7,150.2,91.6C150.1,91.7,150.2,91.6,150.2,91.6L150.2,91.6z"/>
</g>
<g>
	<path fill="#8FA358" d="M162.5,67c0.4,0.8,0.6,1.8,0.6,2.7c0,0-0.8-0.7-0.8-0.7c0.8-0.2,1.5-0.3,2.3-0.2c0.2,0.1,0.8,0,0.8,0.2
		c-1,0.2-2,0.5-3,0.7c-0.1,0-0.1,0-0.1-0.1C162.4,69.7,162.5,67,162.5,67L162.5,67L162.5,67z"/>
</g>
<g>
	<path fill="#8FA358" d="M164.5,65c0.3,0.9,0.4,1.8,0.4,2.7c0,0-0.5-0.4-0.5-0.4c0.5-0.1,1-0.2,1.5-0.3c0.5,0,1.1-0.2,1.6,0
		c0,0-3,0.7-3,0.7l-0.1,0l0-0.1L164.5,65L164.5,65L164.5,65z"/>
</g>
<g>
	<path fill="#8FA358" d="M166.5,63c0.3,0.9,0.4,1.8,0.4,2.7c0,0-0.5-0.4-0.5-0.4c0.5-0.1,1-0.2,1.5-0.3c0.5,0,1.1-0.2,1.6,0
		c0,0-3,0.7-3,0.7l-0.1,0l0-0.1L166.5,63L166.5,63L166.5,63z"/>
</g>
<g>
	<path fill="#8FA358" d="M168.5,61c0.2,0.9,0.2,1.8,0.2,2.7c0,0-0.3-0.2-0.3-0.2c1-0.2,2-0.4,3-0.5c0,0,0,0,0,0c0,0-3,0.7-3,0.7
		C168.5,63.7,168.5,61,168.5,61C168.5,61,168.5,61,168.5,61L168.5,61z"/>
</g>
<g>
	<path fill="#8FA358" d="M170,59c0.2,0.9,0.2,1.8,0.2,2.7c0,0-0.3-0.2-0.3-0.2c1-0.2,2-0.4,3-0.5c0,0,0,0,0,0c0,0-3,0.7-3,0.7
		C170,61.7,170,59,170,59C170,59,170,59,170,59L170,59z"/>
</g>
<g>
	<path fill="#8FA358" d="M157.3,80.7c1-0.2,1.9-0.1,2.8,0.2c0,0-1.2,0.7-1.2,0.7c0.1-0.8,0.3-1.5,0.8-2.2c0.1-0.2,0.4-0.7,0.6-0.7
		c-0.1,1.1-0.3,2.1-0.4,3.2c0,0-0.1,0-0.1,0L157.3,80.7C157.3,80.8,157.3,80.7,157.3,80.7L157.3,80.7z"/>
</g>
<g>
	<path fill="#8FA358" d="M155.7,77.9c0.9-0.1,1.9,0.1,2.7,0.4c0,0-0.9,0.5-0.9,0.5c0.1-0.8,0.3-1.5,0.7-2.2c0.1-0.2,0.3-0.7,0.5-0.7
		c-0.1,1-0.3,2-0.4,3c0,0.1,0,0.1-0.1,0.1C158.2,79,155.7,78,155.7,77.9L155.7,77.9L155.7,77.9z"/>
</g>
<g>
	<path fill="#8FA358" d="M154.6,75.3c0.9,0,1.8,0.3,2.6,0.6c0,0-0.6,0.3-0.6,0.3c0.1-0.5,0.2-1,0.3-1.5c0.2-0.5,0.3-1.1,0.6-1.5
		c0,0-0.5,3-0.5,3l0,0.1l-0.1,0L154.6,75.3L154.6,75.3L154.6,75.3z"/>
</g>
<g>
	<path fill="#8FA358" d="M153.5,72.7c0.9,0,1.8,0.3,2.6,0.6c0,0-0.6,0.3-0.6,0.3c0.1-0.5,0.2-1,0.3-1.5c0.2-0.5,0.3-1.1,0.6-1.5
		c0,0-0.5,3-0.5,3l0,0.1l-0.1,0L153.5,72.7L153.5,72.7L153.5,72.7z"/>
</g>
<g>
	<path fill="#8FA358" d="M151.3,70.1c0.9,0.2,1.7,0.5,2.6,0.8c0,0-0.3,0.2-0.3,0.2c0.2-1,0.4-2,0.7-3c0,0,0,0,0,0c0,0-0.5,3-0.5,3.1
		C153.8,71.1,151.4,70.1,151.3,70.1C151.3,70.1,151.3,70.1,151.3,70.1L151.3,70.1z"/>
</g>
<g>
	<g>
		<path fill="#8FA358" d="M144.1,85.8c1.1-0.1,2.2,0.1,3.3,0.4c0,0-1.2,0.6-1.2,0.6c0.2-1.5,0.6-2.9,1.6-4.1c0,0,0.1,0,0.1,0
			l-0.4,2.1c-0.1,0.7-0.3,1.5-0.4,2.2c0,0-0.1,0-0.1,0L144.1,85.8L144.1,85.8L144.1,85.8z"/>
	</g>
	<g>
		<path fill="#8FA358" d="M140.7,80.9c1.1,0,2.2,0.2,3.2,0.6c0,0-1,0.5-1,0.5c0.1-0.7,0.3-1.4,0.5-2.1c0.3-0.7,0.5-1.4,1-2
			c0,0,0.1,0,0.1,0c-0.3,1.4-0.5,2.8-0.8,4.2c0,0.1,0,0.1-0.1,0.1C143.6,82.1,140.7,80.9,140.7,80.9
			C140.7,80.9,140.7,80.9,140.7,80.9L140.7,80.9z"/>
	</g>
	<g>
		<path fill="#8FA358" d="M137.3,75.9c1.1,0.1,2.1,0.3,3.1,0.7c0,0-0.7,0.4-0.7,0.4c0.1-0.7,0.3-1.4,0.5-2.1c0.2-0.7,0.5-1.4,0.8-2
			c-0.1,1.3-0.5,2.9-0.7,4.3c0,0-0.1,0-0.1,0L137.3,75.9L137.3,75.9L137.3,75.9z"/>
	</g>
	<g>
		<path fill="#8FA358" d="M134,71c1.1,0.2,2.1,0.5,3.1,0.9c0,0-0.5,0.3-0.5,0.3c0.3-1.4,0.5-3,1.2-4.2c0,0-0.8,4.2-0.8,4.2s0,0,0,0
			l0,0L134,71C133.9,71.1,134,71,134,71L134,71z"/>
	</g>
	<g>
		<path fill="#8FA358" d="M130.6,66.1c1,0.3,2,0.6,3,1l-0.3,0.2c0.3-1.4,0.5-2.9,1-4.2c0,0-0.8,4.2-0.8,4.3
			C133.5,67.3,130.6,66.1,130.6,66.1C130.6,66.1,130.6,66.1,130.6,66.1L130.6,66.1z"/>
	</g>
</g>
<g>
	<path fill="#8FA358" d="M99,87c-0.2-4,0.1-8.3,2.1-12c1.4-2.6,3.3-5.2,5-7.6c0.6-0.8,1.2-1.6,1.9-2.4c-2.1,3.5-4.3,6.8-6.3,10.4
		C99.8,78.9,99.4,83,99,87L99,87z"/>
</g>
<g>
	<path fill="#8FA358" d="M108.5,66.5c-0.7,0.3-1.5,0.6-2.2,0.9c0,0,0-0.3,0-0.3c-0.1-0.4-0.1-1.4,0.2-1.6c0.2,0.5,0.3,1.1,0.2,1.6
		c0,0-0.3-0.2-0.3-0.2C107.1,66.8,107.9,66.5,108.5,66.5L108.5,66.5z"/>
</g>
<g>
	<path fill="#8FA358" d="M107.5,68c-0.7,0.3-1.5,0.6-2.2,0.9c0,0,0-0.3,0-0.3c-0.1-0.4-0.1-1.4,0.2-1.6c0.2,0.5,0.3,1.1,0.2,1.6
		c0,0-0.3-0.2-0.3-0.2C106.1,68.3,106.9,68,107.5,68L107.5,68z"/>
</g>
<g>
	<path fill="#8FA358" d="M107,69.2c-0.9,0.4-1.8,0.7-2.7,1.1c0,0,0-0.3,0-0.3c0-0.6-0.1-1.5,0.2-2c0.2,0.7,0.3,1.3,0.2,2
		c0,0-0.3-0.2-0.3-0.2C105.3,69.6,106.2,69.3,107,69.2L107,69.2z"/>
</g>
<g>
	<path fill="#8FA358" d="M107,69.8c-1.2,0.5-2.5,1-3.7,1.5c0,0,0-0.3,0-0.3c0-1-0.1-2.1,0.2-3c0.2,1,0.3,2,0.2,3l-0.3-0.2
		C104.6,70.5,105.9,70,107,69.8L107,69.8z"/>
</g>
<g>
	<path fill="#8FA358" d="M106,71.8c-1.2,0.5-2.5,1-3.7,1.5c0,0,0-0.3,0-0.3c0-1-0.1-2.1,0.2-3c0.2,1,0.3,2,0.2,3l-0.3-0.2
		C103.6,72.5,104.9,72,106,71.8L106,71.8z"/>
</g>
<g>
	<path fill="#8FA358" d="M104.5,73.5c-1.1,0.8-2.1,1.5-3.2,2.3c-0.1-1.3-0.1-2.5,0.2-3.8c0,0,0,0,0,0c0.2,1.1,0.3,2.3,0.2,3.4
		l-0.3-0.2C102.4,74.7,103.5,73.9,104.5,73.5L104.5,73.5z"/>
</g>
<g>
	<path fill="#8FA358" d="M103.5,75.5c-1.1,0.7-2.2,1.5-3.3,2.2c0,0,0-0.4,0-0.4c0-1.1,0-2.4,0.4-3.4c0.2,1.1,0.2,2.3,0,3.4l-0.3-0.2
		C101.4,76.6,102.5,75.9,103.5,75.5L103.5,75.5z"/>
</g>
<g>
	<path fill="#8FA358" d="M103.5,76.5c-1.2,0.9-2.4,1.8-3.6,2.7c0,0-0.1-0.3-0.1-0.3c-0.3-1.1-0.8-2.3-0.7-3.4c0.5,1,0.9,2.1,1.1,3.2
		l-0.3-0.1C101.1,78,102.4,77.1,103.5,76.5L103.5,76.5z"/>
</g>
<g>
	<path fill="#8FA358" d="M102.5,78.4c-1.1,1-2.2,2-3.4,3c-0.5-1.1-0.9-2.3-1.1-3.6c0,0,0,0,0,0c0.6,1,1.1,2,1.4,3.1l-0.3-0.1
		C100.2,80.1,101.4,79,102.5,78.4L102.5,78.4z"/>
</g>
<g>
	<path fill="#8FA358" d="M109.5,65l-2,0.7l-0.1,0.1c0-0.6-0.1-1.3,0.1-1.8c0.1,0.5,0.1,1.1,0.1,1.6l-0.1-0.1
		C107.5,65.6,109.5,64.9,109.5,65L109.5,65z"/>
</g>
<g>
	<path fill="#8FA358" d="M100.5,68l0.1,2.1l0,0.1c-0.6-0.2-1.2-0.3-1.7-0.6c0.6,0,1.1,0.2,1.6,0.4l-0.1,0.1
		C100.4,70.1,100.5,68,100.5,68L100.5,68z"/>
</g>
<g>
	<path fill="#8FA358" d="M101.7,71.8c-0.3,0.9-0.6,1.9-0.9,2.8c0,0-0.3-0.2-0.3-0.2c-0.5-0.4-1.2-0.9-1.4-1.4
		c0.6,0.2,1.2,0.6,1.7,1.1c0,0-0.4,0.1-0.4,0.1C100.9,73.4,101.2,72.4,101.7,71.8L101.7,71.8z"/>
</g>
<g>
	<path fill="#8FA358" d="M98.5,66.2l0.3,2.1l0,0.1c-0.6-0.1-1.3-0.2-1.7-0.5c0.6,0,1.1,0.1,1.6,0.2l-0.1,0.1
		C98.7,68.2,98.5,66.1,98.5,66.2L98.5,66.2z"/>
</g>
<g>
	<path fill="#8FA358" d="M97.5,67.8c1.2,0.2,2.5,0.8,3,2c0.3,1.2,0.1,2.5,0.3,3.7c0,0,0.2,2.5,0.2,2.5c-0.5-2-0.5-4.1-0.7-6.1
		C99.8,68.8,98.6,68.2,97.5,67.8L97.5,67.8z"/>
</g>
<g>
	<path fill="#8FA358" d="M103,65l0.1,2.1l0,0.1c-0.6-0.2-1.2-0.3-1.7-0.6c0.6,0,1.1,0.2,1.6,0.4l-0.1,0.1C102.9,67.1,103,65,103,65
		L103,65z"/>
</g>
<g>
	<path fill="#8FA358" d="M104.2,68.8c-0.3,0.9-0.6,1.9-0.9,2.8c0,0-0.3-0.2-0.3-0.2c-0.5-0.4-1.2-0.9-1.4-1.4
		c0.6,0.2,1.2,0.6,1.7,1.1c0,0-0.4,0.1-0.4,0.1C103.4,70.4,103.7,69.4,104.2,68.8L104.2,68.8z"/>
</g>
<g>
	<path fill="#8FA358" d="M101,63.2l0.3,2.1l0,0.1c-0.6-0.1-1.3-0.2-1.7-0.5c0.6,0,1.1,0.1,1.6,0.2l-0.1,0.1
		C101.2,65.2,101,63.1,101,63.2L101,63.2z"/>
</g>
<g>
	<path fill="#8FA358" d="M100,64.8c1.2,0.2,2.5,0.8,3,2c0.3,1.2,0.1,2.5,0.3,3.7c0,0,0.2,2.5,0.2,2.5c-0.5-2-0.5-4.1-0.7-6.1
		C102.3,65.8,101.1,65.2,100,64.8L100,64.8z"/>
</g>
<g>
	<path fill="#8FA358" d="M96.8,70.6l0.6,2l0,0.1c-0.8,0.1-1.6,0.1-2.3,0c0.7-0.2,1.5-0.2,2.2-0.2c0,0-0.1,0.1-0.1,0.1
		C97.2,72.7,96.7,70.6,96.8,70.6L96.8,70.6z"/>
</g>
<g>
	<path fill="#8FA358" d="M99.3,73.9c-0.2,1-0.3,2-0.5,3c0,0-0.2,0-0.2,0c-0.8-0.2-1.7-0.4-2.3-0.9c0.9,0,1.7,0.2,2.4,0.5l-0.3,0.2
		C98.7,75.8,98.9,74.7,99.3,73.9L99.3,73.9z"/>
</g>
<g>
	<path fill="#8FA358" d="M98.3,71.9c-0.2,1-0.3,2-0.5,3c0,0-0.2,0-0.2,0c-0.8-0.2-1.7-0.4-2.3-0.9c0.9,0,1.7,0.2,2.4,0.5l-0.3,0.2
		C97.7,73.8,97.9,72.7,98.3,71.9L98.3,71.9z"/>
</g>
<g>
	<path fill="#8FA358" d="M95.3,70.2l0.4,1.5l0,0.1c-0.6-0.1-1.3-0.1-1.8-0.4c0.6-0.1,1.1,0,1.7,0.2l-0.1,0.1
		C95.5,71.7,95.3,70.1,95.3,70.2L95.3,70.2z"/>
</g>
<g>
	<path fill="#8FA358" d="M92.7,71.4c1.5-0.1,3.5-0.2,4.6,1.1c0.3,0.5,0.3,1,0.5,1.5c0.7,2,1.5,4,2.2,6c-0.9-1.9-1.7-3.9-2.4-5.9
		c-0.2-0.5-0.2-1-0.5-1.5C96,71.5,94.2,71.5,92.7,71.4L92.7,71.4z"/>
</g>
<g>
	<path fill="#8FA358" d="M109,74c-1.3,0.5-2.7,1-4.1,1.1c-2.2,0.7-3.5,3.1-4.9,4.9c1.2-1.9,2.5-4.4,4.8-5.1
		C106.3,74.8,107.6,74.3,109,74L109,74z"/>
</g>
<g>
	<path fill="#8FA358" d="M109,68c-0.5,0.6-1.2,1.1-2.1,1.1c-2.2,0.6-3.6,3.1-4.9,4.9c1.2-1.9,2.5-4.5,4.9-5.1
		C107.7,68.9,108.4,68.5,109,68L109,68z"/>
</g>
<g>
	<path fill="#8FA358" d="M109.9,98.6c-0.9,4-2.2,8-5,11.1c-2,2.2-4.5,4.3-6.8,6.1c-0.8,0.6-1.6,1.2-2.4,1.8c2.9-2.8,5.9-5.6,8.6-8.5
		C107.1,106.2,108.5,102.3,109.9,98.6L109.9,98.6z"/>
</g>
<g>
	<path fill="#8FA358" d="M95.6,116c0.8-0.1,1.6-0.2,2.4-0.4c0,0,0,0.3,0,0.3c-0.1,0.4-0.3,1.3-0.6,1.5c-0.1-0.6,0-1.1,0.2-1.6
		c0,0,0.2,0.3,0.2,0.3C97,116.1,96.2,116.2,95.6,116L95.6,116z"/>
</g>
<g>
	<path fill="#8FA358" d="M97,114.8c0.8-0.1,1.6-0.2,2.4-0.4c0,0,0,0.3,0,0.3c-0.1,0.4-0.3,1.3-0.6,1.5c-0.1-0.6,0-1.1,0.2-1.6
		c0,0,0.2,0.3,0.2,0.3C98.4,114.9,97.5,115,97,114.8L97,114.8z"/>
</g>
<g>
	<path fill="#8FA358" d="M97.7,113.8c1-0.1,1.9-0.2,2.9-0.4c0,0,0,0.3,0,0.3c-0.1,0.6-0.3,1.5-0.7,1.9c0-0.7,0.1-1.4,0.3-2
		c0,0,0.2,0.3,0.2,0.3C99.5,113.8,98.5,113.9,97.7,113.8L97.7,113.8z"/>
</g>
<g>
	<path fill="#8FA358" d="M97.9,113.2c1.3-0.2,2.6-0.3,3.9-0.5c0,0-0.1,0.3-0.1,0.3c-0.2,0.9-0.4,2.1-1,2.8c0-1,0.2-2,0.6-3l0.2,0.3
		C100.4,113.1,99,113.3,97.9,113.2L97.9,113.2z"/>
</g>
<g>
	<path fill="#8FA358" d="M99.4,111.5c1.3-0.2,2.6-0.3,3.9-0.5c0,0-0.1,0.3-0.1,0.3c-0.2,0.9-0.4,2.1-1,2.8c0-1,0.2-2,0.6-3l0.2,0.3
		C101.9,111.4,100.5,111.6,99.4,111.5L99.4,111.5z"/>
</g>
<g>
	<path fill="#8FA358" d="M101.2,110.2c1.2-0.5,2.4-1,3.7-1.4c0,0-0.1,0.4-0.1,0.4c-0.2,1.1-0.5,2.4-1.1,3.3c0.1-1.2,0.3-2.3,0.7-3.4
		l0.3,0.3C103.6,109.6,102.3,110.1,101.2,110.2L101.2,110.2z"/>
</g>
<g>
	<path fill="#8FA358" d="M102.7,108.6c1.2-0.5,2.5-0.9,3.8-1.3c0,0-0.1,0.4-0.1,0.4c-0.3,1.1-0.6,2.3-1.3,3.2
		c0.1-1.2,0.4-2.3,0.8-3.3l0.3,0.3C105.1,108,103.8,108.5,102.7,108.6L102.7,108.6z"/>
</g>
<g>
	<path fill="#8FA358" d="M102.9,107.6c1.4-0.6,2.8-1.1,4.2-1.7c0,0,0,0.3,0,0.3c0.1,1.1,0.2,2.4-0.2,3.4c-0.3-1.1-0.3-2.3-0.3-3.4
		l0.3,0.2C105.6,106.7,104.2,107.3,102.9,107.6L102.9,107.6z"/>
</g>
<g>
	<path fill="#8FA358" d="M104.4,106c1.3-0.7,2.7-1.4,4-2c0,0,0.1,0.3,0.1,0.3c0.2,1.1,0.4,2.4,0.1,3.4c-0.3-1.1-0.5-2.2-0.6-3.4
		l0.3,0.2C107,105,105.6,105.7,104.4,106L104.4,106z"/>
</g>
<g>
	<path fill="#8FA358" d="M94.3,117.2l2.1-0.2l0.1,0c-0.1,0.6-0.2,1.2-0.6,1.7c0-0.6,0.1-1.1,0.3-1.6l0.1,0.1
		C96.4,117.2,94.2,117.3,94.3,117.2L94.3,117.2z"/>
</g>
<g>
	<path fill="#8FA358" d="M103.7,116.6l0.4-2.1l0-0.1c0.5,0.3,1.1,0.6,1.5,1c-0.5-0.2-1-0.5-1.5-0.8l0.2-0.1
		C104.3,114.6,103.8,116.6,103.7,116.6L103.7,116.6z"/>
</g>
<g>
	<path fill="#8FA358" d="M103.5,112.6c0.5-0.8,1-1.7,1.5-2.5c0,0,0.2,0.2,0.2,0.2c0.4,0.5,1,1.2,1,1.8c-0.6-0.4-1-0.9-1.4-1.5
		c0,0,0.4,0,0.4,0C104.7,111.3,104.1,112.2,103.5,112.6L103.5,112.6z"/>
</g>
<g>
	<path fill="#8FA358" d="M105.2,118.9l0.2-2.1l0-0.1c0.5,0.2,1.2,0.5,1.6,0.9c-0.5-0.1-1-0.4-1.5-0.6l0.2-0.1
		C105.6,116.8,105.2,118.9,105.2,118.9L105.2,118.9z"/>
</g>
<g>
	<path fill="#8FA358" d="M106.6,117.5c-1.1-0.5-2.3-1.4-2.4-2.7c0-1.3,0.5-2.4,0.6-3.7c0,0,0.4-2.4,0.4-2.4c0,2-0.6,4.1-0.8,6.1
		C104.6,116,105.7,116.9,106.6,117.5L106.6,117.5z"/>
</g>
<g>
	<path fill="#8FA358" d="M100.6,118.9l0.4-2.1l0-0.1c0.5,0.3,1.1,0.6,1.5,1c-0.5-0.2-1-0.5-1.5-0.8l0.2-0.1
		C101.1,116.9,100.6,118.9,100.6,118.9L100.6,118.9z"/>
</g>
<g>
	<path fill="#8FA358" d="M100.4,114.9c0.5-0.8,1-1.7,1.5-2.5c0,0,0.2,0.2,0.2,0.2c0.4,0.5,1,1.2,1,1.8c-0.6-0.4-1-0.9-1.4-1.5
		c0,0,0.4,0,0.4,0C101.5,113.6,101,114.4,100.4,114.9L100.4,114.9z"/>
</g>
<g>
	<path fill="#8FA358" d="M102,121.1l0.2-2.1l0-0.1c0.5,0.2,1.2,0.5,1.6,0.9c-0.5-0.1-1-0.4-1.5-0.6l0.2-0.1
		C102.4,119.1,102.1,121.2,102,121.1L102,121.1z"/>
</g>
<g>
	<path fill="#8FA358" d="M103.5,119.8c-1.1-0.5-2.3-1.4-2.4-2.7c0-1.3,0.5-2.4,0.6-3.7c0,0,0.4-2.4,0.4-2.4c0,2-0.6,4.1-0.8,6.1
		C101.4,118.3,102.5,119.2,103.5,119.8L103.5,119.8z"/>
</g>
<g>
	<path fill="#8FA358" d="M108,115l-0.1-2.1l0-0.1c0.8,0.1,1.5,0.3,2.3,0.6c0,0,0,0,0,0c-0.7,0-1.5-0.2-2.2-0.4l0.1-0.1
		C108.1,112.9,108,115,108,115L108,115z"/>
</g>
<g>
	<path fill="#8FA358" d="M106.4,111.1c0.4-0.9,0.8-1.8,1.2-2.7c0,0,0.2,0.1,0.2,0.1c0.7,0.4,1.6,0.8,2,1.5c-0.8-0.2-1.6-0.6-2.2-1.1
		l0.3-0.1C107.4,109.5,107,110.5,106.4,111.1L106.4,111.1z"/>
</g>
<g>
	<path fill="#8FA358" d="M106.9,113.3c0.4-0.9,0.8-1.8,1.2-2.7c0,0,0.2,0.1,0.2,0.1c0.7,0.4,1.6,0.8,2,1.5c-0.8-0.2-1.6-0.6-2.2-1.1
		l0.3-0.1C107.9,111.7,107.4,112.7,106.9,113.3L106.9,113.3z"/>
</g>
<g>
	<path fill="#8FA358" d="M109.3,115.8l0-1.5l0-0.1c0.6,0.2,1.2,0.4,1.6,0.8c-0.6-0.1-1.1-0.3-1.6-0.6l0.1-0.1
		C109.5,114.3,109.3,115.8,109.3,115.8L109.3,115.8z"/>
</g>
<g>
	<path fill="#8FA358" d="M112.2,115.2c-1.5-0.3-3.4-0.7-4.2-2.2c-0.2-0.5-0.1-1.1-0.1-1.6c-0.1-2.1-0.4-4.2-0.6-6.3
		c0.4,2.1,0.7,4.2,0.9,6.3c0.1,0.5,0,1.1,0.1,1.5C108.9,114.4,110.7,114.8,112.2,115.2L112.2,115.2z"/>
</g>
<g>
	<path fill="#8FA358" d="M97,108.7c1.4-0.2,2.9-0.3,4.3-0.1c2.3-0.1,4.2-2.1,5.9-3.5c-1.7,1.6-3.5,3.7-6,3.7
		C99.8,108.6,98.4,108.7,97,108.7L97,108.7z"/>
</g>
<g>
	<path fill="#8FA358" d="M95.5,114.5c0.6-0.5,1.5-0.8,2.3-0.6c2.3,0,4.2-2.1,6-3.5c-1.6,1.5-3.6,3.7-6,3.7
		C97,113.9,96.2,114.2,95.5,114.5L95.5,114.5z"/>
</g>
<g>
	<path fill="#8FA358" d="M93.5,88.9c-1.1,3.8-2.8,7.4-5.2,10.6c-4.4,4.9-10.2,8.3-15.6,11.8c4.8-3.8,11-7.8,15.1-12.2
		C90.2,96,92,92.5,93.5,88.9L93.5,88.9z"/>
</g>
<g>
	<path fill="#8FA358" d="M72.6,109.4c1.1-0.1,2.2-0.2,3.3-0.3c0,0-0.1,0.3-0.1,0.3c-0.2,0.6-0.4,1.4-0.9,1.8c0-0.7,0.2-1.4,0.4-2
		c0,0,0.2,0.3,0.2,0.3C74.6,109.5,73.5,109.6,72.6,109.4L72.6,109.4z"/>
</g>
<g>
	<path fill="#8FA358" d="M74.6,108c1.1-0.1,2.2-0.2,3.3-0.3c0,0-0.1,0.3-0.1,0.3c-0.2,0.6-0.4,1.4-0.9,1.8c0-0.7,0.2-1.4,0.4-2
		c0,0,0.2,0.3,0.2,0.3C76.6,108.1,75.4,108.2,74.6,108L74.6,108z"/>
</g>
<g>
	<path fill="#8FA358" d="M75.7,106.7c1.3-0.1,2.7-0.2,4-0.3c0,0-0.1,0.3-0.1,0.3c-0.2,0.8-0.5,1.7-1,2.2c0.1-0.8,0.3-1.6,0.6-2.4
		c0,0,0.2,0.3,0.2,0.3C78.2,106.9,76.8,107,75.7,106.7L75.7,106.7z"/>
</g>
<g>
	<path fill="#8FA358" d="M75.9,106l5.2-0.3l0.3,0c-0.2,0.7-0.4,1.4-0.7,2.1c-0.3,0.5-0.4,1.3-0.8,1.7c0.2-1.2,0.5-2.4,1-3.6
		c0,0,0.2,0.3,0.2,0.3C81.1,106.1,75.9,106.2,75.9,106L75.9,106z"/>
</g>
<g>
	<path fill="#8FA358" d="M78.1,104.1l5.2-0.3l0.3,0c-0.2,0.7-0.4,1.4-0.7,2.1c-0.3,0.5-0.4,1.3-0.8,1.7c0.2-1.2,0.5-2.4,1-3.6
		c0,0,0.2,0.3,0.2,0.3C83.3,104.2,78,104.2,78.1,104.1L78.1,104.1z"/>
</g>
<g>
	<path fill="#8FA358" d="M80.8,102.7c1.7-0.5,3.4-1,5.1-1.5c0,0-0.1,0.4-0.1,0.4c-0.4,1.3-0.8,2.8-1.6,3.9c0.2-1.4,0.6-2.7,1.2-4
		l0.3,0.3C84,102,82.3,102.5,80.8,102.7L80.8,102.7z"/>
</g>
<g>
	<path fill="#8FA358" d="M82.9,100.7c1.7-0.5,3.5-0.9,5.2-1.3c-0.5,1.5-1.1,2.9-1.9,4.2c0,0,0,0,0,0c0.3-1.4,0.8-2.7,1.4-4l0.2,0.3
		C86.2,100.1,84.4,100.6,82.9,100.7L82.9,100.7z"/>
</g>
<g>
	<path fill="#8FA358" d="M83.3,99.5l5.6-1.7l0.3-0.1c0.1,1.5,0,3-0.2,4.5c0,0,0,0,0,0c-0.2-1.4-0.2-2.8-0.2-4.2c0,0,0.3,0.2,0.3,0.2
		C89,98.2,83.2,99.6,83.3,99.5L83.3,99.5z"/>
</g>
<g>
	<path fill="#8FA358" d="M85.4,97.7l5.4-2.1l0.3-0.1c0.1,0.8,0.2,1.6,0.2,2.4c0,0.7,0.1,1.5-0.1,2.1c-0.3-1.4-0.5-2.7-0.6-4.1
		c0,0,0.3,0.2,0.3,0.2C90.9,96,85.3,97.9,85.4,97.7L85.4,97.7z"/>
</g>
<g>
	<path fill="#8FA358" d="M70.7,110.8l2.9-0.1l0.2,0c-0.2,0.7-0.5,1.4-0.8,2c0-0.6,0.3-1.3,0.5-2c0,0,0.1,0.2,0.1,0.2
		C73.6,110.8,70.6,110.8,70.7,110.8L70.7,110.8z"/>
</g>
<g>
	<path fill="#8FA358" d="M84,110.5l0.7-2.5l0-0.1c0.7,0.4,1.5,0.7,2,1.3c-0.7-0.3-1.4-0.6-2-1l0.2-0.1C84.9,108.1,84,110.5,84,110.5
		L84,110.5z"/>
</g>
<g>
	<path fill="#8FA358" d="M83.9,105.7c0.7-1,1.5-1.9,2.3-2.8c0,0,0.2,0.2,0.2,0.2c0.5,0.6,1.2,1.4,1.4,2.2c-0.7-0.5-1.3-1.2-1.8-1.9
		c0,0,0.3,0,0.3,0C85.5,104.1,84.7,105.1,83.9,105.7L83.9,105.7z"/>
</g>
<g>
	<path fill="#8FA358" d="M85.9,113.3l0.4-2.5l0-0.1c0.7,0.3,1.5,0.6,2.1,1.1c0,0,0,0,0,0c-0.7-0.2-1.4-0.5-2.1-0.9l0.1-0.1
		C86.5,110.8,86,113.4,85.9,113.3L85.9,113.3z"/>
</g>
<g>
	<path fill="#8FA358" d="M88,111.8c-1.3-0.7-2.9-1.6-3.2-3.2c-0.1-1.5,0.8-3,1-4.5c0,0,0.7-3,0.7-3c-0.3,2-0.6,4.1-1.2,6.1
		c-0.2,0.5-0.3,1-0.2,1.5C85.4,110,86.8,111,88,111.8L88,111.8z"/>
</g>
<g>
	<path fill="#8FA358" d="M79.4,113.1l0.7-2.5l0-0.1c0.7,0.4,1.5,0.7,2,1.3c-0.7-0.3-1.4-0.6-2-1l0.2-0.1
		C80.3,110.7,79.5,113.1,79.4,113.1L79.4,113.1z"/>
</g>
<g>
	<path fill="#8FA358" d="M79.3,108.3c0.7-1,1.5-1.9,2.3-2.8c0,0,0.2,0.2,0.2,0.2c0.5,0.6,1.2,1.4,1.4,2.2c-0.7-0.5-1.3-1.2-1.8-1.9
		c0,0,0.3,0,0.3,0C81,106.7,80.2,107.7,79.3,108.3L79.3,108.3z"/>
</g>
<g>
	<path fill="#8FA358" d="M81.4,115.9l0.4-2.5l0-0.1c0.7,0.3,1.5,0.6,2.1,1.1c0,0,0,0,0,0c-0.7-0.2-1.4-0.5-2.1-0.9
		c0,0,0.1-0.1,0.1-0.1C82,113.4,81.4,116,81.4,115.9L81.4,115.9z"/>
</g>
<g>
	<path fill="#8FA358" d="M83.5,114.4c-1.3-0.7-2.9-1.6-3.2-3.2c-0.1-1.5,0.8-3,1-4.5c0,0,0.7-3,0.7-3c-0.3,2-0.6,4.1-1.2,6.1
		c-0.2,0.5-0.3,1-0.2,1.5C80.8,112.6,82.2,113.6,83.5,114.4L83.5,114.4z"/>
</g>
<g>
	<path fill="#8FA358" d="M90.1,108.8l0-2.6l0-0.1c1,0.2,2.2,0.4,3.1,0.8c-1-0.1-2-0.4-3-0.6l0.1-0.1
		C90.2,106.2,90.1,108.8,90.1,108.8L90.1,108.8z"/>
</g>
<g>
	<path fill="#8FA358" d="M88,104c0.6-1.1,1.3-2.1,1.9-3.2c1.1,0.5,2.1,1.1,3,1.9c-0.5,0-1.1-0.4-1.6-0.6c-0.5-0.2-1-0.6-1.4-0.9
		l0.3-0.1C89.5,102.1,88.8,103.3,88,104L88,104z"/>
</g>
<g>
	<path fill="#8FA358" d="M88.6,106.7c0.6-1.1,1.3-2.1,1.9-3.2c0.6,0.3,1.1,0.5,1.7,0.9c0.4,0.3,1.1,0.6,1.3,1.1
		c-1.1-0.3-2.1-0.9-3-1.5c0,0,0.3-0.1,0.3-0.1C90,104.8,89.3,105.9,88.6,106.7L88.6,106.7z"/>
</g>
<g>
	<path fill="#8FA358" d="M91.9,109.8l0.1-1.8l0-0.1c0.7,0.3,1.6,0.5,2.2,1c-0.8-0.1-1.5-0.5-2.2-0.8l0.1-0.1
		C92.2,108,91.9,109.8,91.9,109.8L91.9,109.8z"/>
</g>
<g>
	<path fill="#8FA358" d="M95.9,109.2c-1.9-0.4-5.5-1.1-5.8-3.5c0-1.7-0.1-3.4-0.3-5c0,0-0.4-4-0.4-4c0.5,3,0.9,6,0.9,9.1
		c0,1,1,1.7,1.8,2.1C93.3,108.5,94.6,108.9,95.9,109.2L95.9,109.2z"/>
</g>
<g>
	<path fill="#8FA358" d="M74.9,100.5c2-0.1,3.9-0.2,5.9,0.1c3.2,0.2,6.1-2.3,8.6-3.9c-2,1.6-4.2,3.2-6.7,4c-0.6,0.2-1.3,0.3-2,0.2
		C78.8,100.5,76.8,100.6,74.9,100.5L74.9,100.5z"/>
</g>
<g>
	<path fill="#8FA358" d="M72.5,107.5c0.9-0.5,2.1-0.8,3.2-0.6c1,0.2,2.1-0.2,3.1-0.6c2-0.9,3.8-2.1,5.6-3.3
		c-1.7,1.4-3.5,2.6-5.5,3.5c-1,0.4-2.1,0.9-3.2,0.6C74.6,106.9,73.5,107.2,72.5,107.5C72.5,107.5,73.5,107.2,72.5,107.5z"/>
</g>
<g>
	<path fill="#8FA358" d="M131.4,113.3c-3.7-4.6-7.1-9.8-8-15.7c-0.8-5.9-1.1-11.8-1.1-17.7c0.5,5.2,1,12.5,1.8,17.6
		C125,103.2,128.3,108.4,131.4,113.3L131.4,113.3z"/>
</g>
<g>
	<path fill="#8FA358" d="M124.2,81.2c-0.6,1-1.1,1.9-1.7,2.9c-0.3-0.4-0.7-0.7-1-1.2c-0.1-0.3-0.6-0.9-0.5-1.1
		c0.7,0.5,1.2,1.1,1.6,1.8c0,0-0.4,0-0.4,0C122.9,82.8,123.5,81.8,124.2,81.2L124.2,81.2z"/>
</g>
<g>
	<path fill="#8FA358" d="M124.4,83.8c-0.6,1-1.1,1.9-1.7,2.9c-0.3-0.4-0.7-0.7-1-1.2c-0.1-0.3-0.6-0.9-0.5-1.1
		c0.7,0.5,1.2,1.1,1.6,1.8c0,0-0.4,0-0.4,0C123.1,85.4,123.7,84.4,124.4,83.8L124.4,83.8z"/>
</g>
<g>
	<path fill="#8FA358" d="M124.9,85.6c-0.7,1.2-1.5,2.3-2.2,3.5c0,0-0.2-0.2-0.2-0.2c-0.6-0.7-1.3-1.6-1.6-2.5
		c0.8,0.6,1.4,1.4,1.9,2.2c0,0-0.4,0-0.4,0C123.3,87.7,124.1,86.4,124.9,85.6L124.9,85.6z"/>
</g>
<g>
	<path fill="#8FA358" d="M125.4,86.3l-2.8,4.6l-0.2,0.2l-0.2-0.2c-0.9-1.1-1.9-2.3-2.5-3.6c1.1,1,2,2.1,2.8,3.3l-0.4,0
		C122.3,90.7,125.4,86.2,125.4,86.3L125.4,86.3z"/>
</g>
<g>
	<path fill="#8FA358" d="M126.1,89.5l-2.8,4.6l-0.2,0.2l-0.2-0.2c-0.9-1.1-1.9-2.3-2.5-3.6c1.1,1,2,2.1,2.8,3.3l-0.4,0
		C122.9,93.9,126,89.4,126.1,89.5L126.1,89.5z"/>
</g>
<g>
	<path fill="#8FA358" d="M125.8,92.8c-0.6,1.8-1.1,3.5-1.7,5.3c0,0-0.3-0.3-0.3-0.3c-1-1.3-2.2-2.7-2.8-4.1c1.2,1.2,2.2,2.5,3.2,3.8
		l-0.4,0.1C124.5,96,125.1,94.2,125.8,92.8L125.8,92.8z"/>
</g>
<g>
	<path fill="#8FA358" d="M126.4,96c-0.6,1.8-1.3,3.5-1.9,5.3c0,0-0.2-0.3-0.2-0.3c-1-1.3-2.1-2.8-2.6-4.2c1.1,1.2,2.1,2.6,3,4
		l-0.4,0C125,99.2,125.6,97.4,126.4,96L126.4,96z"/>
</g>
<g>
	<path fill="#8FA358" d="M127.4,97.2l-1.7,5.9l-0.1,0.3c-1.5-1-2.9-2.1-4.1-3.3c0,0,0,0,0,0c1.5,0.8,2.8,1.8,4.1,2.8l-0.3,0.1
		C125.2,102.9,127.3,97,127.4,97.2L127.4,97.2z"/>
</g>
<g>
	<path fill="#8FA358" d="M127.8,100.2l-1.3,6l-0.1,0.3c-1.5-0.9-3-1.8-4.4-3c0,0,0,0,0,0c1.5,0.7,3,1.5,4.3,2.5l-0.3,0.1
		C126.2,106.1,127.7,100.1,127.8,100.2L127.8,100.2z"/>
</g>
<g>
	<path fill="#8FA358" d="M124,78.5l-1.7,2.6l-0.1,0.1c-0.5-0.7-1.1-1.3-1.5-2.1c0,0,0,0,0,0c0.6,0.6,1.1,1.2,1.5,1.8l-0.2,0
		C122.2,81,124,78.5,124,78.5L124,78.5z"/>
</g>
<g>
	<path fill="#8FA358" d="M116.3,90l2,2.3l0.1,0.1c-0.8,0.3-1.6,0.6-2.4,0.8c0,0,0,0,0,0c0.7-0.4,1.5-0.7,2.2-0.9c0,0,0,0.2,0,0.2
		C118.1,92.4,116.2,90,116.3,90L116.3,90z"/>
</g>
<g>
	<path fill="#8FA358" d="M121,93.3c0.5,1.3,0.9,2.6,1.3,3.9c0,0-0.3,0-0.3,0c-0.9,0-2.1,0-2.9-0.3c1-0.2,1.9-0.2,2.9-0.1
		c0,0-0.2,0.3-0.2,0.3C121.6,95.8,121.1,94.4,121,93.3L121,93.3z"/>
</g>
<g>
	<path fill="#8FA358" d="M112.4,89.6l2.2,2.1l0.1,0.1c-0.7,0.4-1.5,0.8-2.3,1.1c0,0,0,0,0,0c0.7-0.5,1.4-0.8,2.1-1.2
		c0,0,0,0.2,0,0.2C114.4,91.8,112.3,89.6,112.4,89.6L112.4,89.6z"/>
</g>
<g>
	<path fill="#8FA358" d="M112.6,92.5c1.6-0.7,3.6-1.3,5.3-0.3c1.4,1.2,2.3,2.7,3.6,4c0,0,2.4,2.6,2.4,2.6c-2.3-1.9-4.2-4.4-6.2-6.5
		C116.2,91.4,114.2,91.9,112.6,92.5L112.6,92.5z"/>
</g>
<g>
	<path fill="#8FA358" d="M116.5,84.3l2,2.3l0.1,0.1c-0.8,0.3-1.6,0.6-2.4,0.8c0,0,0,0,0,0c0.7-0.4,1.5-0.7,2.2-0.9l0,0.2
		C118.3,86.7,116.5,84.3,116.5,84.3L116.5,84.3z"/>
</g>
<g>
	<path fill="#8FA358" d="M121.2,87.6c0.5,1.3,0.9,2.6,1.3,3.9c0,0-0.3,0-0.3,0c-0.9,0-2.1,0-2.9-0.3c1-0.2,1.9-0.2,2.9-0.1
		c0,0-0.2,0.3-0.2,0.3C121.8,90.1,121.3,88.8,121.2,87.6L121.2,87.6z"/>
</g>
<g>
	<path fill="#8FA358" d="M112.6,83.9l2.2,2.1l0.1,0.1c-0.7,0.4-1.5,0.8-2.3,1.1c0,0,0,0,0,0c0.7-0.5,1.4-0.8,2.1-1.2
		c0,0,0,0.2,0,0.2C114.7,86.2,112.5,83.9,112.6,83.9L112.6,83.9z"/>
</g>
<g>
	<path fill="#8FA358" d="M112.8,86.8c1.6-0.7,3.6-1.3,5.3-0.3c1.4,1.2,2.3,2.7,3.6,4c0,0,2.4,2.6,2.4,2.6c-2.3-1.9-4.2-4.4-6.2-6.5
		C116.4,85.7,114.5,86.2,112.8,86.8L112.8,86.8z"/>
</g>
<g>
	<path fill="#8FA358" d="M114.3,96.3l2.5,1.8l0.1,0.1c-0.8,0.7-1.7,1.5-2.7,2c0.7-0.8,1.6-1.4,2.4-2.1l0,0.2
		C116.7,98.2,114.2,96.3,114.3,96.3L114.3,96.3z"/>
</g>
<g>
	<path fill="#8FA358" d="M120.1,97.9c0.6,1.3,1.3,2.6,1.9,3.8c0,0-0.2,0.1-0.2,0.1c-1.1,0.5-2.3,1-3.5,1.1c1-0.7,2.2-1.1,3.3-1.5
		l-0.1,0.3C121.1,100.5,120.4,99.1,120.1,97.9L120.1,97.9z"/>
</g>
<g>
	<path fill="#8FA358" d="M117.2,96.5c0.6,1.3,1.3,2.6,1.9,3.8c0,0-0.2,0.1-0.2,0.1c-1.1,0.5-2.3,1-3.5,1.1c1-0.7,2.2-1.1,3.3-1.5
		l-0.1,0.3C118.2,99.1,117.5,97.7,117.2,96.5L117.2,96.5z"/>
</g>
<g>
	<path fill="#8FA358" d="M112.2,97.1l1.7,1.4l0.1,0.1c-0.7,0.4-1.5,1-2.3,1.2c0.6-0.5,1.4-0.9,2.1-1.3l0,0.2
		C113.8,98.6,112.1,97.1,112.2,97.1L112.2,97.1z"/>
</g>
<g>
	<path fill="#8FA358" d="M110.3,100.9c1.7-1.4,3.8-3.2,6.2-2.8c2,1.1,3.8,2.6,5.9,3.8c0,0,4,2.4,4,2.4c-3.4-1.8-6.7-3.9-9.9-6
		C114.2,97.8,112.1,99.6,110.3,100.9L110.3,100.9z"/>
</g>
<g>
	<path fill="#8FA358" d="M131.4,89.4c-1.1,1.7-2.3,3.5-3.8,4.9c-0.5,0.5-0.7,1.1-0.9,1.8c-0.7,2.7-0.5,5.5-0.4,8.2
		c-0.3-2.7-0.5-5.6,0.1-8.3c0.2-0.7,0.4-1.4,1-1.9C129,92.8,130.2,91,131.4,89.4L131.4,89.4z"/>
</g>
<g>
	<path fill="#8FA358" d="M126.1,82.4c-0.1,1.1-0.5,2.4-1.5,3.1c-0.8,0.8-1,2-1.2,3.1c-0.3,2.3-0.3,4.6-0.1,6.9
		c-0.3-2.3-0.4-4.6-0.1-7c0.2-1.1,0.4-2.4,1.3-3.3C125.4,84.7,125.8,83.5,126.1,82.4L126.1,82.4z"/>
</g>
<g>
	<path fill="#8FA358" d="M161.5,170.3c0-9,0.7-18.5,5.1-26.5c3.3-6,7.1-11.6,11-17.2c0,0,4-5.5,4-5.5c-4.9,7.6-10.1,15.1-14.4,23
		C162.9,152,162.1,161.4,161.5,170.3L161.5,170.3z"/>
</g>
<g>
	<path fill="#8FA358" d="M182.7,124.5c-1.6,0.6-3.1,1.2-4.7,1.7c0,0,0-0.3,0-0.3c0-1.2-0.1-2.6,0.2-3.7c0.2,1.2,0.3,2.4,0.2,3.7
		c0,0-0.3-0.2-0.3-0.2C179.7,125.3,181.3,124.7,182.7,124.5L182.7,124.5z"/>
</g>
<g>
	<path fill="#8FA358" d="M180.5,127.8c-1.6,0.6-3.1,1.2-4.7,1.7c0,0,0-0.3,0-0.3c0-1.2-0.1-2.6,0.2-3.7c0.2,1.2,0.3,2.4,0.2,3.7
		c0,0-0.3-0.2-0.3-0.2C177.5,128.7,179.1,128.1,180.5,127.8L180.5,127.8z"/>
</g>
<g>
	<path fill="#8FA358" d="M179.4,130.6l-5.5,1.9l-0.3,0.1c-0.1-1.6-0.1-3.2,0.2-4.8c0,0,0.1,0,0.1,0c0.2,1.5,0.3,3,0.2,4.5
		c0,0-0.3-0.2-0.3-0.2C173.8,132.1,179.4,130.4,179.4,130.6L179.4,130.6z"/>
</g>
<g>
	<path fill="#8FA358" d="M179.4,131.9l-7.8,2.8l-0.3,0.1l0-0.3c0-2.2-0.1-4.6,0.2-6.7c0.2,2.2,0.3,4.5,0.2,6.7l-0.3-0.2
		C171.5,134.3,179.4,131.8,179.4,131.9L179.4,131.9z"/>
</g>
<g>
	<path fill="#8FA358" d="M177.2,136.4l-7.8,2.8l-0.3,0.1l0-0.3c0-2.2-0.1-4.6,0.2-6.7c0.2,2.2,0.3,4.5,0.2,6.7l-0.3-0.2
		C169.3,138.8,177.2,136.2,177.2,136.4L177.2,136.4z"/>
</g>
<g>
	<path fill="#8FA358" d="M173.8,140.1l-6.6,4.5l-0.3,0.2c-0.1-2.7-0.1-5.4,0.2-8c0,0,0.1,0,0.1,0c0.2,2.5,0.3,5.1,0.2,7.6l-0.3-0.2
		C167,144.2,173.8,140,173.8,140.1L173.8,140.1z"/>
</g>
<g>
	<path fill="#8FA358" d="M171.6,144.6l-6.8,4.2l-0.3,0.2c0-2.7,0.2-5.4,0.6-8c0,0,0,0,0,0c0.1,2.6,0,5.1-0.2,7.6l-0.3-0.2
		C164.6,148.5,171.6,144.4,171.6,144.6L171.6,144.6z"/>
</g>
<g>
	<path fill="#8FA358" d="M171.6,146.9l-7.7,5.4l-0.2,0.2c-0.8-2.5-1.5-5.1-2-7.7c1,2.2,1.7,4.9,2.3,7.3c0,0-0.3-0.1-0.3-0.1
		C163.7,152,171.6,146.7,171.6,146.9L171.6,146.9z"/>
</g>
<g>
	<path fill="#8FA358" d="M169.3,151l-7.2,6.1l-0.2,0.2l-0.1-0.3c-0.9-2.3-1.9-4.9-2.4-7.2c1.1,2.3,2,4.7,2.9,7.1l-0.3-0.1
		C161.9,156.7,169.3,150.8,169.3,151L169.3,151z"/>
</g>
<g>
	<path fill="#8FA358" d="M185,121.1l-4.4,1.5l-0.1,0c0-1.3,0-2.6,0.1-3.8c0,0,0,0,0,0c0.1,1.2,0.1,2.4,0.1,3.7l-0.1-0.1
		C180.5,122.5,185,121.1,185,121.1L185,121.1z"/>
</g>
<g>
	<path fill="#8FA358" d="M164.9,127.8l0.2,4.7l0,0.1c-1.2-0.4-2.5-0.7-3.6-1.2c1.2,0.2,2.4,0.6,3.5,1l-0.1,0.1
		C164.8,132.5,164.8,127.8,164.9,127.8L164.9,127.8z"/>
</g>
<g>
	<path fill="#8FA358" d="M167.5,136.3l-2,5.5l-0.1,0.3c-1.3-0.9-2.5-2-3.6-3.1c0,0,0,0,0,0c1.3,0.8,2.5,1.6,3.6,2.6
		c0,0-0.4,0.1-0.4,0.1C165.2,141.6,167.4,136.1,167.5,136.3L167.5,136.3z"/>
</g>
<g>
	<path fill="#8FA358" d="M160.4,123.7l0.6,4.6l0,0.1c-1.3-0.2-2.5-0.5-3.7-0.8c0,0,0,0,0,0c1.2,0.1,2.4,0.3,3.6,0.6l-0.1,0.1
		C160.9,128.4,160.4,123.7,160.4,123.7L160.4,123.7z"/>
</g>
<g>
	<path fill="#8FA358" d="M158.1,127.4c2.6,0.6,5.6,1.9,6.6,4.5c0.4,0.9,0.2,1.9,0.3,2.8c0.1,1.8,0.2,3.7,0.4,5.5l0.6,5.5
		c-0.6-3.6-1-7.3-1.2-11C165.3,130.5,161.6,128.5,158.1,127.4L158.1,127.4z"/>
</g>
<g>
	<path fill="#8FA358" d="M170.5,121.1l0.2,4.7l0,0.1c-1.2-0.4-2.5-0.7-3.6-1.2c1.2,0.2,2.4,0.6,3.5,1l-0.1,0.1
		C170.4,125.8,170.4,121.1,170.5,121.1L170.5,121.1z"/>
</g>
<g>
	<path fill="#8FA358" d="M173.1,129.6l-2,5.5l-0.1,0.3c-1.3-0.9-2.5-2-3.6-3.1c0,0,0,0,0,0c1.3,0.8,2.5,1.6,3.6,2.6
		c0,0-0.4,0.1-0.4,0.1C170.7,134.9,173,129.4,173.1,129.6L173.1,129.6z"/>
</g>
<g>
	<path fill="#8FA358" d="M166,117l0.6,4.6l0,0.1c-1.3-0.2-2.5-0.5-3.7-0.8c0,0,0,0,0,0c1.2,0.1,2.4,0.3,3.6,0.6l-0.1,0.1
		C166.5,121.7,166,117,166,117L166,117z"/>
</g>
<g>
	<path fill="#8FA358" d="M163.6,120.7c2.6,0.6,5.6,1.9,6.6,4.5c0.4,0.9,0.2,1.9,0.3,2.8c0.1,1.8,0.2,3.7,0.4,5.5l0.6,5.5
		c-0.6-3.6-1-7.3-1.2-11C170.9,123.8,167.2,121.8,163.6,120.7L163.6,120.7z"/>
</g>
<g>
	<path fill="#8FA358" d="M156.5,133.6l1.3,4.6c0,0.1,0.1,0.1-0.1,0.1c-1.6,0.1-3.3,0.2-4.9,0c1.6-0.2,3.3-0.2,4.9-0.2l-0.1,0.1
		C157.7,138.2,156.5,133.6,156.5,133.6L156.5,133.6z"/>
</g>
<g>
	<path fill="#8FA358" d="M162.1,141.1l-1.3,6.1l0,0.2c-1.8-0.5-3.9-1-5.5-1.9c1.8,0.3,3.6,0.8,5.4,1.4l-0.3,0.2
		C160.4,147.1,162,141,162.1,141.1L162.1,141.1z"/>
</g>
<g>
	<path fill="#8FA358" d="M159.9,136.6l-1.3,6.1l0,0.2c-1.8-0.5-3.9-1-5.5-1.9c1.8,0.3,3.6,0.8,5.4,1.4l-0.3,0.2
		C158.2,142.6,159.8,136.5,159.9,136.6L159.9,136.6z"/>
</g>
<g>
	<path fill="#8FA358" d="M153.3,132.7l0.7,3.3l0,0.1c-1.3-0.2-2.6-0.3-3.8-0.7c1.2,0,2.5,0.2,3.7,0.4l-0.1,0.1
		C153.8,136,153.2,132.6,153.3,132.7L153.3,132.7z"/>
</g>
<g>
	<path fill="#8FA358" d="M147.4,135.5c3.4-0.1,7.6-0.3,10.1,2.5c0.7,1,0.8,2.2,1.2,3.4c0.7,2.2,1.6,4.5,2.4,6.7l2.6,6.6
		c-2.1-4.9-4.2-9.8-5.8-14.9C157,135.4,150.9,135.5,147.4,135.5L147.4,135.5z"/>
</g>
<g>
	<path fill="#8FA358" d="M183.9,141.2c-3,1-6.1,2.1-9.2,2.4c-1,0.1-2,0.7-2.8,1.3c-3.3,2.6-5.8,6.2-8.1,9.7c2.2-3.6,4.6-7.2,7.9-9.9
		c0.9-0.6,1.8-1.2,2.9-1.4C177.8,143.2,180.8,142,183.9,141.2L183.9,141.2z"/>
</g>
<g>
	<path fill="#8FA358" d="M183.9,127.8c-1.2,1.3-2.9,2.3-4.7,2.4c-1.7,0.2-3.2,1.5-4.4,2.6c-2.5,2.5-4.6,5.4-6.5,8.4
		c1.8-3.1,3.9-6,6.4-8.5c1.3-1.2,2.7-2.5,4.6-2.7C180.9,130,182.5,128.9,183.9,127.8L183.9,127.8z"/>
</g>
<g>
	<path fill="#8FA358" d="M146.9,171.3c-0.6-8.9-1.3-18.3-5.7-26.2c-4.3-7.9-9.5-15.4-14.4-23c0,0,4,5.5,4,5.5
		c3.9,5.6,7.7,11.2,11,17.2C146.2,152.8,146.9,162.3,146.9,171.3L146.9,171.3z"/>
</g>
<g>
	<path fill="#8FA358" d="M125.6,125.4c1.5,0.4,3,0.8,4.5,1.3l-0.3,0.2c-0.1-1.2,0-2.5,0.2-3.7c0.3,1.1,0.3,2.5,0.2,3.7
		c0,0,0,0.3,0,0.3C128.8,126.6,127,126.1,125.6,125.4L125.6,125.4z"/>
</g>
<g>
	<path fill="#8FA358" d="M127.9,128.8c1.5,0.4,3,0.8,4.5,1.3l-0.3,0.2c-0.1-1.2,0-2.5,0.2-3.7c0.3,1.1,0.3,2.5,0.2,3.7
		c0,0,0,0.3,0,0.3C131,130,129.3,129.5,127.9,128.8L127.9,128.8z"/>
</g>
<g>
	<path fill="#8FA358" d="M129,131.5l5.6,1.6l-0.3,0.2c0-1.5-0.1-3.1,0.3-4.5c0.2,1.6,0.3,3.2,0.2,4.8c0,0-0.3-0.1-0.3-0.1
		C134.5,133.5,128.9,131.6,129,131.5L129,131.5z"/>
</g>
<g>
	<path fill="#8FA358" d="M129,132.9l7.9,2.4l-0.3,0.2c0-2.2-0.1-4.6,0.3-6.7c0.2,2.3,0.3,4.7,0.2,7c0,0-0.3-0.1-0.3-0.1
		C136.7,135.7,128.9,133,129,132.9L129,132.9z"/>
</g>
<g>
	<path fill="#8FA358" d="M131.2,137.3l7.9,2.4l-0.3,0.2c0-2.2-0.1-4.6,0.3-6.7c0.2,2.3,0.3,4.7,0.2,7c0,0-0.3-0.1-0.3-0.1
		C139,140.2,131.1,137.4,131.2,137.3L131.2,137.3z"/>
</g>
<g>
	<path fill="#8FA358" d="M134.6,141.1l6.8,4.1c0,0-0.3,0.2-0.3,0.2c-0.1-2.5,0-5.1,0.2-7.6l0.1,0c0.2,2.7,0.3,5.4,0.2,8
		c0,0-0.3-0.2-0.3-0.2C141.2,145.5,134.4,141.1,134.6,141.1L134.6,141.1z"/>
</g>
<g>
	<path fill="#8FA358" d="M136.8,145.6l7,3.9l-0.3,0.2c-0.2-2.5-0.4-5.2-0.1-7.6c0.4,2.7,0.5,5.3,0.6,8c0,0-0.3-0.2-0.3-0.2
		C143.6,149.8,136.7,145.6,136.8,145.6L136.8,145.6z"/>
</g>
<g>
	<path fill="#8FA358" d="M136.8,147.9l7.9,5.1c0,0-0.3,0.1-0.3,0.1c0.6-2.5,1.4-4.9,2.3-7.3c-0.3,2.4-1.1,5-1.8,7.4
		c0,0-0.1,0.3-0.1,0.3l-0.2-0.2C144.4,153.3,136.6,147.9,136.8,147.9L136.8,147.9z"/>
</g>
<g>
	<path fill="#8FA358" d="M139.1,152l7.4,5.7c0,0-0.3,0.1-0.3,0.1c0.8-2.4,1.8-4.8,2.9-7.1c0,0,0,0,0,0c-0.7,2.6-1.6,5.1-2.6,7.5
		c0,0-0.2-0.2-0.2-0.2C146.3,158,138.9,152,139.1,152L139.1,152z"/>
</g>
<g>
	<path fill="#8FA358" d="M123.4,122.1l4.5,1.3l-0.1,0.1c0-1.2-0.1-2.5,0.1-3.7c0.1,1.3,0.1,2.6,0.1,3.8c0,0-0.1,0-0.1,0
		C127.8,123.6,123.3,122.2,123.4,122.1L123.4,122.1z"/>
</g>
<g>
	<path fill="#8FA358" d="M143.5,128.8l0,4.7l-0.1-0.1c1.2-0.4,2.3-0.7,3.5-1l0,0c-1.2,0.5-2.4,0.9-3.6,1.2c0,0,0-0.1,0-0.1
		C143.3,133.5,143.4,128.8,143.5,128.8L143.5,128.8z"/>
</g>
<g>
	<path fill="#8FA358" d="M140.9,137.2l2.3,5.4l-0.4-0.1c1.1-0.9,2.4-2,3.6-2.6c-1.1,1.2-2.3,2.2-3.6,3.1c0,0-0.1-0.3-0.1-0.3
		C142.9,142.8,140.8,137.2,140.9,137.2L140.9,137.2z"/>
</g>
<g>
	<path fill="#8FA358" d="M147.9,124.7l-0.4,4.7l-0.1-0.1c1.2-0.3,2.4-0.5,3.6-0.6c-1.2,0.4-2.5,0.6-3.7,0.9c0,0,0-0.1,0-0.1
		C147.3,129.3,147.9,124.6,147.9,124.7L147.9,124.7z"/>
</g>
<g>
	<path fill="#8FA358" d="M150.3,128.4c-3.6,1-7.2,3-6.7,7.3c-0.2,3.7-0.6,7.3-1.2,11c0,0,0.6-5.5,0.6-5.5c0.2-1.8,0.3-3.7,0.4-5.5
		c0.1-0.9-0.1-1.9,0.3-2.8C144.8,130.3,147.7,129.1,150.3,128.4L150.3,128.4z"/>
</g>
<g>
	<path fill="#8FA358" d="M137.9,122.1l0,4.7l-0.1-0.1c1.2-0.4,2.3-0.7,3.5-1l0,0c-1.2,0.5-2.4,0.9-3.6,1.2c0,0,0-0.1,0-0.1
		C137.8,126.8,137.9,122.1,137.9,122.1L137.9,122.1z"/>
</g>
<g>
	<path fill="#8FA358" d="M135.3,130.5l2.3,5.4c0,0-0.4-0.1-0.4-0.1c1.1-0.9,2.4-2,3.6-2.6c-1.1,1.2-2.3,2.2-3.6,3.1
		c0,0-0.1-0.3-0.1-0.3C137.3,136.1,135.2,130.5,135.3,130.5L135.3,130.5z"/>
</g>
<g>
	<path fill="#8FA358" d="M142.3,118l-0.4,4.7l-0.1-0.1c1.2-0.3,2.4-0.5,3.6-0.6c-1.2,0.4-2.5,0.6-3.7,0.9c0,0,0-0.1,0-0.1
		C141.7,122.6,142.3,117.9,142.3,118L142.3,118z"/>
</g>
<g>
	<path fill="#8FA358" d="M144.7,121.7c-3.6,1-7.2,3-6.7,7.3c-0.2,3.7-0.6,7.3-1.2,11c0,0,0.6-5.5,0.6-5.5c0.2-1.8,0.3-3.7,0.4-5.5
		c0.1-0.9-0.1-1.9,0.3-2.8C139.2,123.6,142.1,122.4,144.7,121.7L144.7,121.7z"/>
</g>
<g>
	<path fill="#8FA358" d="M151.9,134.6l-1.2,4.6l-0.1-0.1c1.6,0,3.3,0,4.9,0.2c-1.7,0.1-3.4,0.1-5,0c0,0,0-0.1,0-0.1
		C150.5,139.2,151.8,134.6,151.9,134.6L151.9,134.6z"/>
</g>
<g>
	<path fill="#8FA358" d="M146.3,142.1l1.7,6l-0.3-0.2c1.7-0.6,3.6-1.2,5.4-1.4c-1.8,0.8-3.6,1.4-5.5,1.8c0,0,0-0.2,0-0.2
		C147.6,148.2,146.2,142,146.3,142.1L146.3,142.1z"/>
</g>
<g>
	<path fill="#8FA358" d="M148.6,137.6l1.7,6l-0.3-0.2c1.7-0.6,3.6-1.2,5.4-1.4c-1.8,0.8-3.6,1.4-5.5,1.8c0,0,0-0.2,0-0.2
		C149.9,143.7,148.4,137.5,148.6,137.6L148.6,137.6z"/>
</g>
<g>
	<path fill="#8FA358" d="M155.1,133.7l-0.5,3.4l-0.1-0.1c1.2-0.2,2.5-0.4,3.7-0.4l0,0c-1.3,0.3-2.5,0.5-3.8,0.6c0,0,0-0.1,0-0.1
		C154.4,137,155.1,133.6,155.1,133.7L155.1,133.7z"/>
</g>
<g>
	<path fill="#8FA358" d="M161,136.5c-3.5,0-9.6-0.1-10.5,4.2c-1.6,5.1-3.7,10-5.8,14.9c0,0,2.6-6.6,2.6-6.6c0.9-2.2,1.7-4.4,2.4-6.7
		c0.4-1.1,0.5-2.3,1.2-3.4C153.3,136.2,157.6,136.4,161,136.5L161,136.5z"/>
</g>
<g>
	<path fill="#8FA358" d="M124.5,142.2c3.1,0.8,6.1,2,9.3,2.1c1.1,0.1,2.1,0.7,2.9,1.4c3.3,2.7,5.8,6.3,7.9,9.9
		c-2.3-3.5-4.8-7.1-8.1-9.7c-0.8-0.6-1.8-1.2-2.8-1.3C130.6,144.4,127.5,143.2,124.5,142.2L124.5,142.2z"/>
</g>
<g>
	<path fill="#8FA358" d="M124.5,128.8c1.4,1.1,2.9,2.2,4.7,2.1c1.8,0.2,3.3,1.5,4.6,2.7c2.5,2.5,4.6,5.5,6.4,8.5
		c-1.9-3-4-5.9-6.5-8.4c-1.2-1.2-2.7-2.4-4.4-2.6C127.4,131.2,125.7,130.1,124.5,128.8L124.5,128.8z"/>
</g>
<g>
	<path fill="#8FA358" d="M171.2,112.8c-0.1-5.8,0.4-11.9,3.4-17c3-5,6.5-9.7,10.2-14.2c-2.8,4.3-7,10.2-9.5,14.5
		C172.2,101.1,171.7,107.1,171.2,112.8L171.2,112.8z"/>
</g>
<g>
	<path fill="#8FA358" d="M185.5,83.8c-1.1,0.4-2.1,0.8-3.2,1.2c0-0.5-0.1-1,0-1.5c0.1-0.3,0.1-1,0.3-1.2c0.2,0.8,0.3,1.5,0.2,2.3
		c0,0-0.3-0.2-0.3-0.2C183.4,84.2,184.6,83.8,185.5,83.8L185.5,83.8z"/>
</g>
<g>
	<path fill="#8FA358" d="M184,85.9c-1.1,0.4-2.1,0.8-3.2,1.2c-0.1-0.9-0.1-1.8,0.2-2.6c0,0,0.1,0,0.1,0c0.2,0.8,0.3,1.5,0.2,2.3
		c0,0-0.3-0.2-0.3-0.2C181.9,86.4,183,85.9,184,85.9L184,85.9z"/>
</g>
<g>
	<path fill="#8FA358" d="M183.2,87.6c-1.3,0.5-2.7,0.9-4,1.4c0-0.6-0.1-1.2,0-1.7c0.1-0.4,0-1.1,0.2-1.4c0.2,0.9,0.3,1.9,0.2,2.8
		c0,0-0.3-0.2-0.3-0.2C180.7,88.2,182,87.7,183.2,87.6L183.2,87.6z"/>
</g>
<g>
	<path fill="#8FA358" d="M183.2,88.5l-5.2,1.9l-0.3,0.1c-0.1-1.5-0.1-3,0.2-4.6c0.4,1.3,0.3,2.9,0.3,4.2c0,0-0.3-0.2-0.3-0.2
		C177.9,89.9,183.3,88.3,183.2,88.5L183.2,88.5z"/>
</g>
<g>
	<path fill="#8FA358" d="M181.7,91.3l-5.2,1.9l-0.3,0.1c-0.1-1.5-0.1-3,0.2-4.6c0.4,1.3,0.3,2.9,0.3,4.2c0,0-0.3-0.2-0.3-0.2
		C176.4,92.8,181.8,91.2,181.7,91.3L181.7,91.3z"/>
</g>
<g>
	<path fill="#8FA358" d="M179.5,93.7l-4.4,2.9l-0.3,0.2c-0.1-1.7-0.2-3.6,0.2-5.2c0.2,1.6,0.3,3.2,0.2,4.8l-0.3-0.2
		C174.9,96.2,179.5,93.5,179.5,93.7L179.5,93.7z"/>
</g>
<g>
	<path fill="#8FA358" d="M178,96.5l-4.6,2.7l-0.3,0.2c0-1.7,0-3.6,0.5-5.2c0.1,1.6,0.1,3.2-0.1,4.8l-0.3-0.2
		C173.2,98.9,178,96.4,178,96.5L178,96.5z"/>
</g>
<g>
	<path fill="#8FA358" d="M178,98l-5.1,3.5l-0.2,0.2c-0.5-1.6-1.2-3.4-1.3-5c0.7,1.5,1.2,3,1.6,4.6c0,0-0.3-0.1-0.3-0.1
		C172.6,101.1,178,97.8,178,98L178,98z"/>
</g>
<g>
	<path fill="#8FA358" d="M176.5,100.6l-4.8,3.9l-0.2,0.2c-0.7-1.6-1.4-3.3-1.7-4.9c0.8,1.4,1.5,2.9,2,4.5l-0.3-0.1
		C171.4,104.1,176.5,100.4,176.5,100.6L176.5,100.6z"/>
</g>
<g>
	<path fill="#8FA358" d="M187,81.6l-3,1l-0.1,0c0-0.8-0.1-1.7,0.1-2.5c0.1,0.8,0.1,1.6,0.1,2.3l-0.1-0.1C184,82.4,187,81.5,187,81.6
		L187,81.6z"/>
</g>
<g>
	<path fill="#8FA358" d="M173.4,85.9l0.1,3l0,0.1c-0.8-0.2-1.8-0.4-2.5-0.8c0.8,0.1,1.6,0.3,2.4,0.6l-0.1,0.1
		C173.4,88.8,173.4,85.8,173.4,85.9L173.4,85.9z"/>
</g>
<g>
	<path fill="#8FA358" d="M175.2,91.2c-0.4,1.3-0.9,2.5-1.4,3.8c-0.5-0.3-1-0.6-1.4-1c-0.3-0.3-0.9-0.7-1-1.1c0.9,0.4,1.7,1,2.5,1.6
		c0,0-0.3,0.1-0.3,0.1C174.1,93.5,174.6,92.2,175.2,91.2L175.2,91.2z"/>
</g>
<g>
	<path fill="#8FA358" d="M170.5,83.2l0.5,2.9l0,0.1c-0.8-0.1-1.8-0.3-2.6-0.6c0.8,0,1.6,0.2,2.5,0.4l-0.1,0.1
		C170.7,86.2,170.4,83.2,170.5,83.2L170.5,83.2z"/>
</g>
<g>
	<path fill="#8FA358" d="M168.8,85.6c1.7,0.4,3.6,1.1,4.5,2.7c0.5,1.7,0.2,3.5,0.5,5.3c0,0,0.4,3.5,0.4,3.5
		c-0.4-2.3-0.7-4.7-0.9-7.1c0-0.6,0-1.2-0.2-1.7C172.3,86.8,170.5,86.1,168.8,85.6L168.8,85.6z"/>
</g>
<g>
	<path fill="#8FA358" d="M177.2,81.6l0.1,3l0,0.1c-0.8-0.2-1.8-0.4-2.5-0.8c0.8,0.1,1.6,0.3,2.4,0.6l-0.1,0.1
		C177.2,84.6,177.2,81.6,177.2,81.6L177.2,81.6z"/>
</g>
<g>
	<path fill="#8FA358" d="M179,87c-0.4,1.3-0.9,2.5-1.4,3.8c-0.5-0.3-1-0.6-1.4-1c-0.3-0.3-0.9-0.7-1-1.1c0.9,0.4,1.7,1,2.5,1.6
		c0,0-0.3,0.1-0.3,0.1C177.9,89.2,178.4,87.9,179,87L179,87z"/>
</g>
<g>
	<path fill="#8FA358" d="M174.2,79l0.5,2.9l0,0.1c-0.8-0.1-1.8-0.3-2.6-0.6c0.8,0,1.6,0.2,2.5,0.4l-0.1,0.1
		C174.5,82,174.2,79,174.2,79L174.2,79z"/>
</g>
<g>
	<path fill="#8FA358" d="M172.6,81.4c1.7,0.4,3.6,1.1,4.5,2.7c0.5,1.7,0.2,3.5,0.5,5.3c0,0,0.4,3.5,0.4,3.5
		c-0.4-2.3-0.7-4.7-0.9-7.1c0-0.6,0-1.2-0.2-1.7C176.1,82.6,174.2,81.9,172.6,81.4L172.6,81.4z"/>
</g>
<g>
	<path fill="#8FA358" d="M167.8,89.5l0.9,2.9c0,0.1,0.1,0.1-0.1,0.1c-1.1,0-2.3,0.2-3.3,0c1.1-0.2,2.2-0.2,3.3-0.2l-0.1,0.1
		C168.6,92.5,167.7,89.5,167.8,89.5L167.8,89.5z"/>
</g>
<g>
	<path fill="#8FA358" d="M171.6,94.3c-0.3,1.4-0.6,2.7-0.9,4.1c-0.7-0.2-1.4-0.3-2-0.5c-0.5-0.2-1.3-0.4-1.7-0.8
		c0.6,0,1.2,0.2,1.9,0.3c0.6,0.1,1.2,0.3,1.8,0.5l-0.3,0.1C170.8,96.8,171.1,95.4,171.6,94.3L171.6,94.3z"/>
</g>
<g>
	<path fill="#8FA358" d="M170.1,91.4c-0.3,1.4-0.6,2.7-0.9,4.1c-0.7-0.2-1.4-0.3-2-0.5c-0.5-0.2-1.3-0.4-1.7-0.8
		c0.6,0,1.2,0.2,1.9,0.3c0.6,0.1,1.2,0.3,1.8,0.5l-0.3,0.1C169.3,94,169.6,92.5,170.1,91.4L170.1,91.4z"/>
</g>
<g>
	<path fill="#8FA358" d="M165.6,88.9l0.5,2.1l0,0.1c-0.9-0.1-1.8-0.1-2.6-0.5c0.8,0,1.7,0.1,2.5,0.3l-0.1,0.1
		C165.9,91.1,165.5,88.9,165.6,88.9L165.6,88.9z"/>
</g>
<g>
	<path fill="#8FA358" d="M161.7,90.7c2.2-0.1,4.9-0.2,6.7,1.4c0.6,0.6,0.6,1.4,0.9,2.2c0.5,1.5,1.1,2.9,1.7,4.3l1.8,4.3
		c-1.5-3.1-2.9-6.3-4-9.6C167.9,90.6,163.9,90.8,161.7,90.7L161.7,90.7z"/>
</g>
<g>
	<path fill="#8FA358" d="M186.3,94.4c-2,0.7-4,1.4-6.1,1.5c-0.7,0-1.3,0.4-1.9,0.7c-2.3,1.6-4,4-5.6,6.2c1.5-2.4,3.2-4.7,5.4-6.4
		c0.6-0.4,1.2-0.8,2-0.8C182.2,95.5,184.2,94.8,186.3,94.4L186.3,94.4z"/>
</g>
<g>
	<path fill="#8FA358" d="M186.3,85.9c-0.8,0.8-1.9,1.5-3.1,1.5c-1.1,0.1-2.1,0.9-3,1.6c-1.7,1.6-3.2,3.4-4.5,5.3
		c1.2-2,2.6-3.9,4.3-5.5c0.9-0.8,1.9-1.6,3.1-1.7C184.3,87.2,185.3,86.5,186.3,85.9L186.3,85.9z"/>
</g>
<g>
	<path fill="#8FA358" d="M199.2,87c1.3-3.8,3-7.8,6.1-10.5c2.2-1.9,4.9-3.8,7.4-5.4c0.9-0.5,1.7-1.1,2.6-1.6
		c-3.2,2.5-6.4,4.9-9.5,7.5C202.8,79.7,201,83.4,199.2,87L199.2,87z"/>
</g>
<g>
	<path fill="#8FA358" d="M215.3,71.1c-0.8,0.1-1.6,0.1-2.4,0.1c0,0,0.1-0.3,0.1-0.3c0.1-0.4,0.4-1.3,0.8-1.5c0,0.6-0.1,1.1-0.4,1.6
		c0,0-0.2-0.3-0.2-0.3C213.9,70.9,214.7,70.9,215.3,71.1L215.3,71.1z"/>
</g>
<g>
	<path fill="#8FA358" d="M213.8,72.2c-0.8,0.1-1.6,0.1-2.4,0.1c0,0,0.1-0.3,0.1-0.3c0.1-0.4,0.4-1.3,0.8-1.5c0,0.6-0.1,1.1-0.4,1.6
		c0,0-0.2-0.3-0.2-0.3C212.4,72,213.2,71.9,213.8,72.2L213.8,72.2z"/>
</g>
<g>
	<path fill="#8FA358" d="M212.9,73.1c-1,0-1.9,0-2.9,0.1c0,0,0.1-0.3,0.1-0.3c0.2-0.6,0.5-1.4,0.9-1.8c0,0.7-0.2,1.3-0.5,1.9
		c0,0-0.2-0.3-0.2-0.3C211.2,72.9,212.2,72.9,212.9,73.1L212.9,73.1z"/>
</g>
<g>
	<path fill="#8FA358" d="M212.7,73.7c-1.3,0-2.7,0.1-4,0.1c0,0,0.1-0.3,0.1-0.3c0.3-0.9,0.6-2,1.3-2.7c-0.1,1-0.4,2-0.9,2.9
		l-0.2-0.3C210.2,73.5,211.6,73.4,212.7,73.7L212.7,73.7z"/>
</g>
<g>
	<path fill="#8FA358" d="M211.1,75.2c-1.3,0-2.7,0.1-4,0.1c0,0,0.1-0.3,0.1-0.3c0.3-0.9,0.6-2,1.3-2.7c-0.1,1-0.4,2-0.9,2.9
		l-0.2-0.3C208.6,75,210,75,211.1,75.2L211.1,75.2z"/>
</g>
<g>
	<path fill="#8FA358" d="M209.1,76.3c-1.3,0.4-2.5,0.7-3.8,1c0,0,0.1-0.4,0.1-0.4c0.3-1,0.7-2.3,1.4-3.1c-0.2,1.1-0.5,2.2-1,3.3
		l-0.3-0.3C206.7,76.6,208,76.3,209.1,76.3L209.1,76.3z"/>
</g>
<g>
	<path fill="#8FA358" d="M207.4,77.8c-1.3,0.3-2.6,0.6-3.9,0.9c0.4-1.2,0.9-2.4,1.7-3.5c-0.1,1.1-0.7,2.2-1.1,3.2
		c0,0-0.2-0.3-0.2-0.3C205,78.1,206.4,77.8,207.4,77.8L207.4,77.8z"/>
</g>
<g>
	<path fill="#8FA358" d="M207.1,78.8c-1.4,0.4-2.9,0.8-4.3,1.3c0,0,0-0.3,0-0.3c0.1-1.1,0.1-2.4,0.5-3.4c0.1,1.2,0.1,2.3-0.1,3.4
		l-0.3-0.2C204.3,79.3,205.8,78.8,207.1,78.8L207.1,78.8z"/>
</g>
<g>
	<path fill="#8FA358" d="M205.5,80.1c-1.4,0.6-2.8,1.1-4.2,1.6c0,0,0-0.3,0-0.3c0-1.1-0.1-2.4,0.2-3.4c0.2,1.1,0.3,2.3,0.2,3.4
		l-0.3-0.2C202.8,80.9,204.2,80.3,205.5,80.1L205.5,80.1z"/>
</g>
<g>
	<path fill="#8FA358" d="M216.7,70l-2.1,0l-0.1,0c0.2-0.6,0.4-1.2,0.7-1.6c-0.1,0.6-0.3,1.1-0.5,1.6l-0.1-0.2
		C214.6,69.8,216.8,70,216.7,70L216.7,70z"/>
</g>
<g>
	<path fill="#8FA358" d="M207.3,69.7l-0.6,2l0,0.1c-0.5-0.3-1.1-0.7-1.4-1.2c0.5,0.2,0.9,0.6,1.4,0.9l-0.2,0.1
		C206.5,71.6,207.2,69.6,207.3,69.7L207.3,69.7z"/>
</g>
<g>
	<path fill="#8FA358" d="M207,73.7c-0.6,0.8-1.2,1.5-1.8,2.3c0,0-0.2-0.3-0.2-0.3c-0.3-0.5-0.8-1.3-0.8-1.8c0.5,0.5,0.9,1,1.2,1.6
		c0,0-0.4,0-0.4,0C205.8,74.9,206.4,74.1,207,73.7L207,73.7z"/>
</g>
<g>
	<path fill="#8FA358" d="M206.1,67.3l-0.4,2.1l0,0.1c-0.5-0.3-1.1-0.6-1.5-1c0.5,0.2,1,0.5,1.5,0.8l-0.2,0.1
		C205.5,69.3,206,67.2,206.1,67.3L206.1,67.3z"/>
</g>
<g>
	<path fill="#8FA358" d="M204.5,68.5c1,0.6,2.1,1.6,2.1,2.9c-0.2,1.2-0.7,2.4-1,3.6c0,0-0.7,2.4-0.7,2.4c0.3-2,1-4,1.5-6
		C206.4,70.2,205.4,69.2,204.5,68.5L204.5,68.5z"/>
</g>
<g>
	<path fill="#8FA358" d="M210.7,67.8l-0.6,2l0,0.1c-0.5-0.3-1.1-0.7-1.4-1.2c0.5,0.2,0.9,0.6,1.4,0.9l-0.2,0.1
		C209.9,69.7,210.6,67.7,210.7,67.8L210.7,67.8z"/>
</g>
<g>
	<path fill="#8FA358" d="M210.4,71.7c-0.6,0.8-1.2,1.5-1.8,2.3c0,0-0.2-0.3-0.2-0.3c-0.3-0.5-0.8-1.3-0.8-1.8c0.5,0.5,0.9,1,1.2,1.6
		c0,0-0.4,0-0.4,0C209.1,72.9,209.8,72.1,210.4,71.7L210.4,71.7z"/>
</g>
<g>
	<path fill="#8FA358" d="M209.5,65.3l-0.4,2.1l0,0.1c-0.5-0.3-1.1-0.6-1.5-1c0.5,0.2,1,0.5,1.5,0.8l-0.2,0.1
		C208.8,67.3,209.4,65.3,209.5,65.3L209.5,65.3z"/>
</g>
<g>
	<path fill="#8FA358" d="M207.9,66.5c1,0.6,2.1,1.6,2.1,2.9c-0.2,1.2-0.7,2.4-1,3.6c0,0-0.7,2.4-0.7,2.4c0.3-2,1-4,1.5-6
		C209.7,68.2,208.8,67.3,207.9,66.5L207.9,66.5z"/>
</g>
<g>
	<path fill="#8FA358" d="M202.9,70.8l-0.1,2.1l0,0.1c-0.8-0.2-1.5-0.4-2.2-0.8c0.7,0,1.4,0.4,2.1,0.6c0,0-0.1,0.1-0.1,0.1
		C202.6,72.9,202.8,70.8,202.9,70.8L202.9,70.8z"/>
</g>
<g>
	<path fill="#8FA358" d="M204,74.8c-0.5,0.9-1,1.7-1.5,2.6c0,0-0.2-0.1-0.2-0.1c-0.7-0.4-1.5-1-1.8-1.7c0.8,0.3,1.5,0.8,2.1,1.4
		l-0.3,0C202.8,76.3,203.4,75.4,204,74.8L204,74.8z"/>
</g>
<g>
	<path fill="#8FA358" d="M203.8,72.6c-0.5,0.9-1,1.7-1.5,2.6c0,0-0.2-0.1-0.2-0.1c-0.7-0.4-1.5-1-1.8-1.7c0.8,0.3,1.5,0.8,2.1,1.4
		l-0.3,0C202.6,74.1,203.2,73.1,203.8,72.6L203.8,72.6z"/>
</g>
<g>
	<path fill="#8FA358" d="M201.6,69.9l-0.2,1.5l0,0.1c-0.5-0.3-1.2-0.5-1.5-1c0.6,0.1,1,0.4,1.5,0.7l-0.1,0.1
		C201.3,71.4,201.6,69.9,201.6,69.9L201.6,69.9z"/>
</g>
<g>
	<path fill="#8FA358" d="M198.7,70.2c1.5,0.4,3.3,1,3.9,2.6c0.1,0.6,0,1.1,0,1.6c-0.1,2.1,0,4.2,0,6.4c-0.2-2.1-0.3-4.2-0.2-6.4
		c0-0.5,0.1-1.1,0-1.5C201.9,71.4,200.1,70.7,198.7,70.2L198.7,70.2z"/>
</g>
<g>
	<path fill="#8FA358" d="M213.1,78.3c-1.4,0-2.9,0-4.3-0.4c-2.3-0.1-4.4,1.7-6.3,2.8c1.8-1.4,3.9-3.3,6.3-3.1
		C210.3,78.1,211.7,78.1,213.1,78.3L213.1,78.3z"/>
</g>
<g>
	<path fill="#8FA358" d="M215.2,72.7c-0.7,0.4-1.6,0.6-2.4,0.3c-2.3-0.2-4.4,1.7-6.3,2.8c1.8-1.4,3.9-3.3,6.4-3.1
		C213.7,73,214.5,72.9,215.2,72.7L215.2,72.7z"/>
</g>
<g>
	<path fill="#8FA358" d="M187,99.3c3.7-1.7,7.7-3.1,11.9-2.7c2.9,0.3,6.1,1,9,1.7c1,0.3,2,0.5,2.9,0.8c-4-0.6-8-1.4-12-1.8
		C194.8,96.9,190.8,98.2,187,99.3L187,99.3z"/>
</g>
<g>
	<path fill="#8FA358" d="M209.6,100.2c-0.6-0.5-1.1-1.1-1.7-1.7c0,0,0.3-0.2,0.3-0.2c0.4-0.2,1.2-0.6,1.6-0.4
		c-0.4,0.4-0.9,0.7-1.4,0.8c0,0,0.1-0.4,0.1-0.4C208.7,99,209.4,99.7,209.6,100.2L209.6,100.2z"/>
</g>
<g>
	<path fill="#8FA358" d="M207.8,99.9c-0.6-0.5-1.1-1.1-1.7-1.7c0,0,0.3-0.2,0.3-0.2c0.4-0.2,1.2-0.6,1.6-0.4
		c-0.4,0.4-0.9,0.7-1.4,0.8c0,0,0.1-0.4,0.1-0.4C207,98.7,207.6,99.3,207.8,99.9L207.8,99.9z"/>
</g>
<g>
	<path fill="#8FA358" d="M206.5,99.9c-0.7-0.7-1.4-1.4-2-2.1c0,0,0.3-0.2,0.3-0.2c0.5-0.3,1.4-0.6,1.9-0.5c-0.5,0.5-1.1,0.8-1.8,1
		c0,0,0.1-0.4,0.1-0.4C205.4,98.4,206.2,99.2,206.5,99.9L206.5,99.9z"/>
</g>
<g>
	<path fill="#8FA358" d="M205.9,100.1c-0.9-0.9-1.8-1.9-2.8-2.9c0,0,0.3-0.1,0.3-0.1c0.9-0.4,1.9-0.9,2.9-0.9
		c-0.8,0.6-1.7,1-2.7,1.3l0.1-0.3C204.4,98.1,205.4,99.1,205.9,100.1L205.9,100.1z"/>
</g>
<g>
	<path fill="#8FA358" d="M203.7,100c-0.9-0.9-1.8-1.9-2.8-2.9c0,0,0.3-0.1,0.3-0.1c0.9-0.4,1.9-0.9,2.9-0.9c-0.8,0.6-1.7,1-2.7,1.3
		l0.1-0.3C202.1,98,203.1,99,203.7,100L203.7,100z"/>
</g>
<g>
	<path fill="#8FA358" d="M201.6,99.2c-1.1-0.7-2.2-1.4-3.4-2.1c1.1-0.6,2.3-1.1,3.6-1.3c0,0,0,0,0,0c-1,0.6-2,1.1-3.1,1.5l0-0.4
		C199.7,97.7,200.8,98.4,201.6,99.2L201.6,99.2z"/>
</g>
<g>
	<path fill="#8FA358" d="M199.3,99.1c-1.1-0.7-2.2-1.5-3.3-2.2c0,0,0.4-0.2,0.4-0.2c1-0.4,2.2-0.9,3.3-0.9c-1,0.6-2.1,1-3.2,1.3
		l0.1-0.4C197.5,97.5,198.6,98.2,199.3,99.1L199.3,99.1z"/>
</g>
<g>
	<path fill="#8FA358" d="M198.4,99.5c-1.3-0.7-2.6-1.5-3.9-2.3c0,0,0.2-0.2,0.2-0.2c0.8-0.7,1.8-1.6,2.8-1.9
		c-0.8,0.9-1.6,1.6-2.6,2.3l0-0.4C196.1,97.8,197.5,98.6,198.4,99.5L198.4,99.5z"/>
</g>
<g>
	<path fill="#8FA358" d="M211.3,100.6l-1.4-1.5l-0.1-0.1c0.5-0.2,1.1-0.6,1.7-0.6c-0.5,0.3-1,0.5-1.5,0.7l0-0.2
		C210.1,98.9,211.4,100.6,211.3,100.6L211.3,100.6z"/>
</g>
<g>
	<path fill="#8FA358" d="M205.1,93.4l-1.9,0.9l-0.1,0.1c-0.1-0.6-0.2-1.3-0.1-1.8c0.2,0.5,0.2,1.1,0.3,1.6l-0.2-0.1
		C203.2,94.1,205.2,93.3,205.1,93.4L205.1,93.4z"/>
</g>
<g>
	<path fill="#8FA358" d="M202.1,95.9c-1,0.1-1.9,0.2-2.9,0.3c0,0,0.1-0.3,0.1-0.3c0.1-0.6,0.4-1.5,0.8-1.9c0,0.7-0.1,1.3-0.4,2
		c0,0-0.2-0.3-0.2-0.3C200.3,95.8,201.3,95.7,202.1,95.9L202.1,95.9z"/>
</g>
<g>
	<path fill="#8FA358" d="M206.1,90.9l-1.8,1.1l-0.1,0.1c-0.1-0.6-0.3-1.2-0.2-1.8c0.2,0.5,0.3,1,0.4,1.6l-0.2-0.1
		C204.2,91.8,206.1,90.8,206.1,90.9L206.1,90.9z"/>
</g>
<g>
	<path fill="#8FA358" d="M204.1,90.5c0.2,1.2,0.2,2.7-0.7,3.6c-1,0.7-2.2,1.1-3.3,1.7c0,0-2.2,1.1-2.2,1.1c1.7-1.2,3.6-2,5.4-3
		C204.2,93.1,204.2,91.7,204.1,90.5L204.1,90.5z"/>
</g>
<g>
	<path fill="#8FA358" d="M208.9,94.6l-1.9,0.9l-0.1,0.1c-0.1-0.6-0.2-1.3-0.1-1.8c0.2,0.5,0.2,1.1,0.3,1.6l-0.2-0.1
		C206.9,95.3,208.9,94.5,208.9,94.6L208.9,94.6z"/>
</g>
<g>
	<path fill="#8FA358" d="M205.8,97.1c-1,0.1-1.9,0.2-2.9,0.3c0,0,0.1-0.3,0.1-0.3c0.1-0.6,0.4-1.5,0.8-1.9c0,0.7-0.1,1.3-0.4,2
		c0,0-0.2-0.3-0.2-0.3C204,97,205.1,96.9,205.8,97.1L205.8,97.1z"/>
</g>
<g>
	<path fill="#8FA358" d="M209.8,92l-1.8,1.1l-0.1,0.1c-0.1-0.6-0.3-1.2-0.2-1.8c0.2,0.5,0.3,1,0.4,1.6l-0.2-0.1
		C207.9,93,209.8,92,209.8,92L209.8,92z"/>
</g>
<g>
	<path fill="#8FA358" d="M207.9,91.7c0.2,1.2,0.2,2.7-0.7,3.6c-1,0.7-2.2,1.1-3.3,1.7c0,0-2.2,1.1-2.2,1.1c1.7-1.2,3.6-2,5.4-3
		C207.9,94.2,207.9,92.8,207.9,91.7L207.9,91.7z"/>
</g>
<g>
	<path fill="#8FA358" d="M201.3,91l-1.6,1.4l-0.1,0.1c-0.4-0.7-0.7-1.4-0.9-2.2c0,0,0,0,0,0c0.4,0.6,0.7,1.3,1,2l-0.2,0
		C199.6,92.2,201.3,90.9,201.3,91L201.3,91z"/>
</g>
<g>
	<path fill="#8FA358" d="M199.2,94.5c-1,0.2-2,0.4-2.9,0.7c0,0,0-0.2,0-0.2c-0.1-0.8-0.3-1.8,0-2.5c0.3,0.8,0.4,1.6,0.4,2.4
		l-0.2-0.2C197.3,94.7,198.3,94.4,199.2,94.5L199.2,94.5z"/>
</g>
<g>
	<path fill="#8FA358" d="M200.6,92.8c-1,0.2-2,0.4-2.9,0.7c0,0,0-0.2,0-0.2c-0.1-0.8-0.3-1.8,0-2.5c0.3,0.8,0.4,1.6,0.4,2.4
		l-0.2-0.2C198.7,93,199.8,92.8,200.6,92.8L200.6,92.8z"/>
</g>
<g>
	<path fill="#8FA358" d="M201.1,89.4l-1.2,0.9l-0.1,0.1c-0.2-0.6-0.4-1.2-0.4-1.8c0.3,0.5,0.4,1,0.5,1.6l-0.1-0.1
		C199.8,90.2,201.1,89.4,201.1,89.4L201.1,89.4z"/>
</g>
<g>
	<path fill="#8FA358" d="M199,87.5c0.7,1.4,1.5,3.1,0.8,4.6c-0.3,0.5-0.8,0.7-1.2,1.1c-1.6,1.4-3.1,2.9-4.7,4.3
		c1.4-1.6,2.9-3.1,4.5-4.5c0.4-0.4,0.9-0.6,1.2-1C200.2,90.6,199.5,88.9,199,87.5L199,87.5z"/>
</g>
<g>
	<path fill="#8FA358" d="M208.4,101.2c-0.8-0.2-1.5-0.7-1.8-1.5c-1.4-1.8-4.2-2.1-6.4-2.7c2.2,0.4,5.1,0.6,6.6,2.6
		C207,100.4,207.7,100.8,208.4,101.2L208.4,101.2z"/>
</g>
<g>
	<path fill="#8FA358" d="M193,110.3c3.7-1.7,7.7-3.1,11.9-2.7c2.9,0.3,6.1,1,9,1.7c1,0.3,2,0.5,2.9,0.8c-4-0.6-8-1.4-12-1.8
		C200.8,107.9,196.8,109.2,193,110.3L193,110.3z"/>
</g>
<g>
	<path fill="#8FA358" d="M215.6,111.2c-0.6-0.5-1.1-1.1-1.7-1.7c0,0,0.3-0.2,0.3-0.2c0.4-0.2,1.2-0.6,1.6-0.4
		c-0.4,0.4-0.9,0.7-1.4,0.8c0,0,0.1-0.4,0.1-0.4C214.7,110,215.4,110.7,215.6,111.2L215.6,111.2z"/>
</g>
<g>
	<path fill="#8FA358" d="M213.8,110.9c-0.6-0.5-1.1-1.1-1.7-1.7c0,0,0.3-0.2,0.3-0.2c0.4-0.2,1.2-0.6,1.6-0.4
		c-0.4,0.4-0.9,0.7-1.4,0.8c0,0,0.1-0.4,0.1-0.4C213,109.7,213.6,110.3,213.8,110.9L213.8,110.9z"/>
</g>
<g>
	<path fill="#8FA358" d="M212.5,110.9c-0.7-0.7-1.4-1.4-2-2.1c0,0,0.3-0.2,0.3-0.2c0.5-0.3,1.4-0.6,1.9-0.5c-0.5,0.5-1.1,0.8-1.8,1
		c0,0,0.1-0.4,0.1-0.4C211.4,109.4,212.2,110.2,212.5,110.9L212.5,110.9z"/>
</g>
<g>
	<path fill="#8FA358" d="M211.9,111.1c-0.9-0.9-1.8-1.9-2.8-2.9c0,0,0.3-0.1,0.3-0.1c0.9-0.4,1.9-0.9,2.9-0.9
		c-0.8,0.6-1.7,1-2.7,1.3l0.1-0.3C210.4,109.1,211.4,110.1,211.9,111.1L211.9,111.1z"/>
</g>
<g>
	<path fill="#8FA358" d="M209.7,111c-0.9-0.9-1.8-1.9-2.8-2.9c0,0,0.3-0.1,0.3-0.1c0.9-0.4,1.9-0.9,2.9-0.9c-0.8,0.6-1.7,1-2.7,1.3
		l0.1-0.3C208.1,109,209.1,110,209.7,111L209.7,111z"/>
</g>
<g>
	<path fill="#8FA358" d="M207.6,110.2c-1.1-0.7-2.2-1.4-3.4-2.1c1.1-0.6,2.3-1.1,3.6-1.3c0,0,0,0,0,0c-1,0.6-2,1.1-3.1,1.5l0-0.4
		C205.7,108.7,206.8,109.4,207.6,110.2L207.6,110.2z"/>
</g>
<g>
	<path fill="#8FA358" d="M205.3,110.1c-1.1-0.7-2.2-1.5-3.3-2.2c0,0,0.4-0.2,0.4-0.2c1-0.4,2.2-0.9,3.3-0.9c-1,0.6-2.1,1-3.2,1.3
		l0.1-0.4C203.5,108.5,204.6,109.2,205.3,110.1L205.3,110.1z"/>
</g>
<g>
	<path fill="#8FA358" d="M204.4,110.5c-1.3-0.7-2.6-1.5-3.9-2.3c0,0,0.2-0.2,0.2-0.2c0.8-0.7,1.8-1.6,2.8-1.9
		c-0.8,0.9-1.6,1.6-2.6,2.3l0-0.4C202.1,108.8,203.5,109.6,204.4,110.5L204.4,110.5z"/>
</g>
<g>
	<path fill="#8FA358" d="M217.3,111.6l-1.4-1.5l-0.1-0.1c0.5-0.2,1.1-0.6,1.7-0.6c-0.5,0.3-1,0.5-1.5,0.7l0-0.2
		C216.1,109.9,217.4,111.6,217.3,111.6L217.3,111.6z"/>
</g>
<g>
	<path fill="#8FA358" d="M211.1,104.4l-1.9,0.9l-0.1,0.1c-0.1-0.6-0.2-1.3-0.1-1.8c0.2,0.5,0.2,1.1,0.3,1.6l-0.2-0.1
		C209.2,105.1,211.2,104.3,211.1,104.4L211.1,104.4z"/>
</g>
<g>
	<path fill="#8FA358" d="M208.1,106.9c-1,0.1-1.9,0.2-2.9,0.3c0,0,0.1-0.3,0.1-0.3c0.1-0.6,0.4-1.5,0.8-1.9c0,0.7-0.1,1.3-0.4,2
		c0,0-0.2-0.3-0.2-0.3C206.3,106.8,207.3,106.7,208.1,106.9L208.1,106.9z"/>
</g>
<g>
	<path fill="#8FA358" d="M212.1,101.9l-1.8,1.1l-0.1,0.1c-0.1-0.6-0.3-1.2-0.2-1.8c0.2,0.5,0.3,1,0.4,1.6l-0.2-0.1
		C210.2,102.8,212.1,101.8,212.1,101.9L212.1,101.9z"/>
</g>
<g>
	<path fill="#8FA358" d="M210.1,101.5c0.2,1.2,0.2,2.7-0.7,3.6c-1,0.7-2.2,1.1-3.3,1.7c0,0-2.2,1.1-2.2,1.1c1.7-1.2,3.6-2,5.4-3
		C210.2,104.1,210.2,102.7,210.1,101.5L210.1,101.5z"/>
</g>
<g>
	<path fill="#8FA358" d="M214.9,105.6l-1.9,0.9l-0.1,0.1c-0.1-0.6-0.2-1.3-0.1-1.8c0.2,0.5,0.2,1.1,0.3,1.6l-0.2-0.1
		C212.9,106.3,214.9,105.5,214.9,105.6L214.9,105.6z"/>
</g>
<g>
	<path fill="#8FA358" d="M211.8,108.1c-1,0.1-1.9,0.2-2.9,0.3c0,0,0.1-0.3,0.1-0.3c0.1-0.6,0.4-1.5,0.8-1.9c0,0.7-0.1,1.3-0.4,2
		c0,0-0.2-0.3-0.2-0.3C210,108,211.1,107.9,211.8,108.1L211.8,108.1z"/>
</g>
<g>
	<path fill="#8FA358" d="M215.8,103l-1.8,1.1l-0.1,0.1c-0.1-0.6-0.3-1.2-0.2-1.8c0.2,0.5,0.3,1,0.4,1.6l-0.2-0.1
		C213.9,104,215.8,103,215.8,103L215.8,103z"/>
</g>
<g>
	<path fill="#8FA358" d="M213.9,102.7c0.2,1.2,0.2,2.7-0.7,3.6c-1,0.7-2.2,1.1-3.3,1.7c0,0-2.2,1.1-2.2,1.1c1.7-1.2,3.6-2,5.4-3
		C213.9,105.2,213.9,103.8,213.9,102.7L213.9,102.7z"/>
</g>
<g>
	<path fill="#8FA358" d="M207.3,102l-1.6,1.4l-0.1,0.1c-0.4-0.7-0.7-1.4-0.9-2.2c0,0,0,0,0,0c0.4,0.6,0.7,1.3,1,2l-0.2,0
		C205.6,103.2,207.3,101.9,207.3,102L207.3,102z"/>
</g>
<g>
	<path fill="#8FA358" d="M205.2,105.5c-1,0.2-2,0.4-2.9,0.7c0,0,0-0.2,0-0.2c-0.1-0.8-0.3-1.8,0-2.5c0.3,0.8,0.4,1.6,0.4,2.4
		l-0.2-0.2C203.3,105.7,204.3,105.4,205.2,105.5L205.2,105.5z"/>
</g>
<g>
	<path fill="#8FA358" d="M206.6,103.8c-1,0.2-2,0.4-2.9,0.7c0,0,0-0.2,0-0.2c-0.1-0.8-0.3-1.8,0-2.5c0.3,0.8,0.4,1.6,0.4,2.4
		l-0.2-0.2C204.7,104,205.8,103.8,206.6,103.8L206.6,103.8z"/>
</g>
<g>
	<path fill="#8FA358" d="M207.1,100.4l-1.2,0.9l-0.1,0.1c-0.2-0.6-0.4-1.2-0.4-1.8c0.3,0.5,0.4,1,0.5,1.6l-0.1-0.1
		C205.8,101.2,207.1,100.4,207.1,100.4L207.1,100.4z"/>
</g>
<g>
	<path fill="#8FA358" d="M205,98.5c0.7,1.4,1.5,3.1,0.8,4.6c-0.3,0.5-0.8,0.7-1.2,1.1c-1.6,1.4-3.1,2.9-4.7,4.3
		c1.4-1.6,2.9-3.1,4.5-4.5c0.4-0.4,0.9-0.6,1.2-1C206.2,101.6,205.5,99.9,205,98.5L205,98.5z"/>
</g>
<g>
	<path fill="#8FA358" d="M214.4,112.2c-0.8-0.2-1.5-0.7-1.8-1.5c-1.4-1.8-4.2-2.1-6.4-2.7c2.2,0.4,5.1,0.6,6.6,2.6
		C213,111.4,213.7,111.8,214.4,112.2L214.4,112.2z"/>
</g>
</svg>
