<?xml version="1.0" encoding="UTF-8"?>
<svg id="Layer_1" data-name="Layer 1" xmlns="http://www.w3.org/2000/svg" xmlns:xlink="http://www.w3.org/1999/xlink" viewBox="0 0 300 300">
  <defs>
    <pattern id="blaadjes_pattern1" data-name="blaadjes pattern1" x="0" y="0" width="15" height="12.92" patternUnits="userSpaceOnUse" viewBox="0 0 15 12.92">
      <g>
        <rect width="15" height="12.92" style="fill: none; stroke-width: 0px;"/>
        <rect x="10" y="8.38" width="19.75" height="17.25" style="fill: #4e6622; stroke-width: 0px;"/>
        <g>
          <rect x="-5" y="8.38" width="19.75" height="17.25" style="fill: #4e6622; stroke-width: 0px;"/>
          <polygon points="13.25 13.38 12.92 13.38 12.5 12.88 12 12.88 11.25 13.13 11.75 13.63 11.75 13.88 12.03 14.26 13 14.63 13.38 14.26 13.75 13.88 13.25 13.38" style="fill: #8fa265; stroke-width: 0px;"/>
          <path d="M9.88,12.87l-1.2-.3s-1.5,0-.9.3,1.2.9,1.2.9l1.5-.3-.6-.6Z" style="fill: #8fa265; stroke-width: 0px;"/>
          <path d="M2.49,12.66s0,.02,0,.03c.04.28.25.63.56.72.46.13.99-.35.93-.56-.06-.22-.81-.19-.93-.19" style="fill: #8fa265; stroke-width: 0px;"/>
        </g>
        <rect x="10" y="-4.54" width="19.75" height="17.25" style="fill: #4e6622; stroke-width: 0px;"/>
        <g>
          <rect x="-5" y="-4.54" width="19.75" height="17.25" style="fill: #4e6622; stroke-width: 0px;"/>
          <polygon points="3.37 5.59 3.04 5.59 2.62 5.09 2.12 5.09 1.37 5.34 1.87 5.84 1.87 6.09 2.15 6.46 3.12 6.84 3.51 6.46 3.87 6.09 3.37 5.59" style="fill: #8fa265; stroke-width: 0px;"/>
          <polygon points="13.25 .46 12.92 .46 12.5 -.04 12 -.04 11.25 .21 11.75 .71 11.75 .96 12.03 1.34 13 1.71 13.38 1.34 13.75 .96 13.25 .46" style="fill: #8fa265; stroke-width: 0px;"/>
          <path d="M5.25,4.96l-1-.25s-1.25,0-.75.25,1,.75,1,.75l1.25-.25-.5-.5Z" style="fill: #8fa265; stroke-width: 0px;"/>
          <path d="M3.13,12.46l1,.25s1.25,0,.75-.25-1-.75-1-.75l-1.25.25.5.5Z" style="fill: #8fa265; opacity: .39; stroke-width: 0px;"/>
          <path d="M5.57,7.84l-.5-.12s-.62,0-.38.12.5.38.5.38l.62-.12-.25-.25Z" style="fill: #8fa265; stroke-width: 0px;"/>
          <path d="M1.82,4.09l-.5-.12s-.62,0-.38.12.5.38.5.38l.62-.12-.25-.25Z" style="fill: #8fa265; stroke-width: 0px;"/>
          <path d="M4.5,6.46s0,.01,0,.02c.03.23.21.53.46.6.38.11.83-.29.78-.47-.05-.18-.67-.16-.78-.16" style="fill: #8fa265; stroke-width: 0px;"/>
          <path d="M6.94,7.72s0,0,.01-.02c.1-.15.15-.42.04-.59-.17-.26-.64-.26-.7-.13-.07.13.31.44.38.5" style="fill: #8fa265; stroke-width: 0px;"/>
          <path d="M1.29,2.45s0,0-.01.02c-.1.15-.15.42-.04.59.17.26.64.26.7.13.07-.13-.31-.44-.38-.5" style="fill: #8fa265; stroke-width: 0px;"/>
          <path d="M2.65,7.51h0s.01.02.02.03c.21.25.63.45.99.34.52-.16.73-.96.55-1.13-.2-.18-.9.32-1.02.41" style="fill: #8fa265; stroke-width: 0px;"/>
          <path d="M6.11,5.71c-.3.13-.26.39,0,.5.45.19,1.61-.06,1.64-.25.02-.13-.46-.23-.55-.25-.11-.02-.73-.16-1.09,0Z" style="fill: #8fa265; stroke-width: 0px;"/>
          <path d="M2.61,3.46c-.3.13-.26.39,0,.5.45.19,1.61-.06,1.64-.25.02-.13-.46-.23-.55-.25-.11-.02-.73-.16-1.09,0Z" style="fill: #8fa265; opacity: .39; stroke-width: 0px;"/>
          <polygon points="7.14 .95 6.75 .95 6.25 .35 5.65 .35 4.75 .65 5.35 1.25 5.35 1.54 5.68 1.99 6.84 2.44 7.3 1.99 7.74 1.54 7.14 .95" style="fill: #8fa265; stroke-width: 0px;"/>
          <path d="M9.88-.05l-1.2-.3s-1.5,0-.9.3,1.2.9,1.2.9l1.5-.3-.6-.6Z" style="fill: #8fa265; stroke-width: 0px;"/>
          <path d="M8.76,4.64l-.6-.15s-.75,0-.45.15.6.45.6.45l.75-.15-.3-.3Z" style="fill: #8fa265; stroke-width: 0px;"/>
          <path d="M14.01,5.14l-.6-.15s-.75,0-.45.15.6.45.6.45l.75-.15-.3-.3Z" style="fill: #8fa265; stroke-width: 0px;"/>
          <path d="M7.49,2.99s0,.02,0,.03c.04.28.25.63.56.72.46.13.99-.35.93-.56-.06-.22-.81-.19-.93-.19" style="fill: #8fa265; stroke-width: 0px;"/>
          <path d="M4.81,2.49s0-.02,0-.03c.06-.27-.01-.68-.28-.86-.38-.28-1.05,0-1.07.21-.02.23.69.46.81.49" style="fill: #8fa265; stroke-width: 0px;"/>
          <path d="M2.49-.26s0,.02,0,.03c.04.28.25.63.56.72.46.13.99-.35.93-.56-.06-.22-.81-.19-.93-.19" style="fill: #8fa265; stroke-width: 0px;"/>
          <path d="M1.74,1.99s0,.02,0,.03c.04.28.25.63.56.72.46.13.99-.35.93-.56-.06-.22-.81-.19-.93-.19" style="fill: #8fa265; stroke-width: 0px;"/>
          <path d="M10.41,4.5s0-.01.01-.02c.12-.18.18-.5.05-.71-.2-.31-.76-.31-.84-.16-.08.16.37.53.45.59" style="fill: #8fa265; stroke-width: 0px;"/>
          <path d="M12.52,4.79s.01-.02.02-.03c.23-.33.35-.89.13-1.26-.33-.54-1.32-.49-1.46-.22-.15.29.62.92.75,1.02" style="fill: #8fa265; stroke-width: 0px;"/>
          <path d="M1.91,9.5s0-.01.01-.02c.12-.18.18-.5.05-.71-.2-.31-.76-.31-.84-.16-.08.16.37.53.45.59" style="fill: #8fa265; stroke-width: 0px;"/>
          <path d="M5.27,4.25h0s.01.02.03.03c.25.29.76.54,1.18.41.62-.2.88-1.15.66-1.35-.24-.21-1.08.39-1.22.49" style="fill: #8fa265; stroke-width: 0px;"/>
          <path d="M9.42,2.1c-.35.16-.31.47,0,.6.54.23,1.93-.07,1.96-.3.02-.15-.55-.28-.65-.3-.13-.03-.87-.19-1.31,0Z" style="fill: #8fa265; stroke-width: 0px;"/>
          <path d="M13.92,1.1c-.35.16-.31.47,0,.6.54.23,1.93-.07,1.96-.3.02-.15-.55-.28-.65-.3-.13-.03-.87-.19-1.31,0Z" style="fill: #8fa265; opacity: .39; stroke-width: 0px;"/>
          <polygon points="9.87 9.34 9.54 9.34 9.12 8.84 8.62 8.84 7.87 9.09 8.37 9.59 8.37 9.84 8.65 10.21 9.62 10.59 10.01 10.21 10.37 9.84 9.87 9.34" style="fill: #8fa265; stroke-width: 0px;"/>
          <path d="M11.75,8.71l-1-.25s-1.25,0-.75.25,1,.75,1,.75l1.25-.25-.5-.5Z" style="fill: #8fa265; stroke-width: 0px;"/>
          <path d="M7.85,12.37l-.12.5s0,.62.12.38.38-.5.38-.5l-.12-.62-.25.25Z" style="fill: #8fa265; stroke-width: 0px;"/>
          <path d="M.88,12.09l.5.12s.62,0,.37-.13-.5-.37-.5-.37l-.62.13.25.25Z" style="fill: #8fa265; stroke-width: 0px;"/>
          <path d="M8.32,7.84l-.5-.12s-.62,0-.38.12.5.38.5.38l.62-.12-.25-.25Z" style="fill: #8fa265; stroke-width: 0px;"/>
          <path d="M11,10.21s0,.01,0,.02c.03.23.21.53.46.6.38.11.83-.29.78-.47-.05-.18-.67-.16-.78-.16" style="fill: #8fa265; stroke-width: 0px;"/>
          <path d="M5.44,10.97s0,0,.01-.02c.1-.15.15-.42.04-.59-.17-.26-.64-.26-.7-.13-.07.13.31.44.38.5" style="fill: #8fa265; stroke-width: 0px;"/>
          <path d="M.94,6.47s0,0,.01-.02c.1-.15.15-.42.04-.59-.17-.26-.64-.26-.7-.13-.07.13.31.44.38.5" style="fill: #8fa265; opacity: .39; stroke-width: 0px;"/>
          <path d="M7.79,6.2s0,0-.01.02c-.1.15-.15.42-.04.59.17.26.64.26.7.13.07-.13-.31-.44-.38-.5" style="fill: #8fa265; stroke-width: 0px;"/>
          <path d="M1,9.72s-.01.02-.02.03c-.18.26-.26.71-.06,1.01.29.44,1.09.44,1.2.22.11-.23-.53-.76-.64-.85" style="fill: #8fa265; stroke-width: 0px;"/>
          <path d="M9.4,11.51h0s.01.02.02.03c.21.25.63.45.99.34.52-.16.73-.96.55-1.13-.2-.18-.9.32-1.02.41" style="fill: #8fa265; stroke-width: 0px;"/>
          <path d="M5.9,11.26h0s.01.02.02.03c.21.25.63.45.99.34.52-.16.73-.96.55-1.13-.2-.18-.9.32-1.02.41" style="fill: #8fa265; stroke-width: 0px;"/>
          <path d="M12.61,9.46c-.3.13-.26.39,0,.5.45.19,1.61-.06,1.64-.25.02-.13-.46-.23-.55-.25-.11-.02-.73-.16-1.09,0Z" style="fill: #8fa265; opacity: .39; stroke-width: 0px;"/>
          <path d="M9.11,7.21c-.3.13-.26.39,0,.5.45.19,1.61-.06,1.64-.25.02-.13-.46-.23-.55-.25-.11-.02-.73-.16-1.09,0Z" style="fill: #8fa265; stroke-width: 0px;"/>
          <polygon points="13.05 5.8 12.59 5.8 12 5.1 11.3 5.1 10.25 5.45 10.95 6.15 10.95 6.5 11.34 7.02 12.7 7.55 13.24 7.02 13.75 6.5 13.05 5.8" style="fill: #8fa265; stroke-width: 0px;"/>
          <path d="M15.13,2.95l-1.2-.3s-1.5,0-.9.3,1.2.9,1.2.9l1.5-.3-.6-.6Z" style="fill: #8fa265; stroke-width: 0px;"/>
          <path d="M3.76,10.14l-.6-.15s-.75,0-.45.15.6.45.6.45l.75-.15-.3-.3Z" style="fill: #8fa265; stroke-width: 0px;"/>
          <path d="M2.24,8.24s0,.02,0,.03c.04.28.25.63.56.72.46.13.99-.35.93-.56-.06-.22-.81-.19-.93-.19" style="fill: #8fa265; stroke-width: 0px;"/>
          <path d="M8.24,5.74s0,.02,0,.03c.04.28.25.63.56.72.46.13.99-.35.93-.56-.06-.22-.81-.19-.93-.19" style="fill: #8fa265; opacity: .39; stroke-width: 0px;"/>
          <path d="M7.41,9.75s0-.01.01-.02c.12-.18.18-.5.05-.71-.2-.31-.76-.31-.84-.16-.08.16.37.53.45.59" style="fill: #8fa265; stroke-width: 0px;"/>
          <path d="M13.66,12.25s0-.01.01-.02c.12-.18.18-.5.05-.71-.2-.31-.76-.31-.84-.16-.08.16.37.53.45.59" style="fill: #8fa265; stroke-width: 0px;"/>
          <path d="M13.52,8h0s.01.02.03.03c.25.29.76.54,1.18.41.62-.2.88-1.15.66-1.35-.24-.21-1.08.39-1.22.49" style="fill: #8fa265; stroke-width: 0px;"/>
          <path d="M4.42,8.85c-.35.16-.31.47,0,.6.54.23,1.93-.07,1.96-.3.02-.15-.55-.28-.65-.3-.13-.03-.87-.19-1.31,0Z" style="fill: #8fa265; opacity: .39; stroke-width: 0px;"/>
        </g>
        <g>
          <path d="M-1.08,1.1c-.35.16-.31.47,0,.6.54.23,1.93-.07,1.96-.3.02-.15-.55-.28-.65-.3-.13-.03-.87-.19-1.31,0Z" style="fill: #8fa265; opacity: .39; stroke-width: 0px;"/>
          <path d="M.13,2.95l-1.2-.3s-1.5,0-.9.3,1.2.9,1.2.9l1.5-.3-.6-.6Z" style="fill: #8fa265; stroke-width: 0px;"/>
          <path d="M-1.48,8h0s.01.02.03.03c.25.29.76.54,1.18.41.62-.2.88-1.15.66-1.35-.24-.21-1.08.39-1.22.49" style="fill: #8fa265; stroke-width: 0px;"/>
        </g>
        <path d="M7.85-.55l-.12.5s0,.62.12.38.38-.5.38-.5l-.12-.62-.25.25Z" style="fill: #8fa265; stroke-width: 0px;"/>
      </g>
    </pattern>
  </defs>
  <path d="M173.91,169.2h-49.83c-2.44,0-2.06,2.44-2.06,2.44v6.95c0,2.06,2.06,2.06,2.06,2.06h49.83s2.06,0,2.06-2.06v-6.95s.38-2.44-2.06-2.44Z" style="fill: #ad6f54; stroke: #000; stroke-miterlimit: 10;"/>
  <path d="M149.13,180.19h-25.04l2.44,32.98s1.22,7.33,7.33,7.33h30.28c6.11,0,7.33-7.33,7.33-7.33l2.44-32.98h-24.79Z" style="fill: #ad6f54; stroke: #000; stroke-miterlimit: 10;"/>
  <path d="M209.5,191.5s-10.64,4.69-13.82,9.84-7.18,16.16-7.18,16.16c0,0,17,3,22-3s5-16,5-16l-6-7Z" style="fill: url(#blaadjes_pattern1); stroke: #000; stroke-miterlimit: 10; stroke-width: .75px;"/>
  <path d="M165.5,136.5s-10.64,4.69-13.82,9.84-7.18,16.16-7.18,16.16c0,0,17,3,22-3s5-16,5-16l-6-7Z" style="fill: url(#blaadjes_pattern1); stroke: #000; stroke-miterlimit: 10; stroke-width: .75px;"/>
  <path d="M160.5,145.5s-10.64,4.69-13.82,9.84-7.18,16.16-7.18,16.16c0,0,17,3,22-3s5-16,5-16l-6-7Z" style="fill: url(#blaadjes_pattern1); stroke: #000; stroke-miterlimit: 10; stroke-width: .75px;"/>
  <path d="M192.5,186.5s6,7,14,9,15,1,15,1c0,0,5-4,5-9s2-11-2-14-22.5-3.12-22.5-3.12l-15.5,7.12,6,9Z" style="fill: url(#blaadjes_pattern1); stroke: #000; stroke-miterlimit: 10; stroke-width: .75px;"/>
  <path d="M171.5,160.5s-4,16-2,18,14,7,14,7c0,0,13.65-.87,14.33-1.94s-4.33-9.31-9.33-13.19-17-9.88-17-9.88Z" style="fill: url(#blaadjes_pattern1); stroke: #000; stroke-miterlimit: 10; stroke-width: .75px;"/>
  <path d="M167.5,124.5s-4,16-2,18,14,7,14,7c0,0,13.65-.87,14.33-1.94s-4.33-9.31-9.33-13.19-17-9.88-17-9.88Z" style="fill: url(#blaadjes_pattern1); stroke: #000; stroke-miterlimit: 10; stroke-width: .75px;"/>
  <path d="M124.5,123.5s-4,16-2,18,14,7,14,7c0,0,13.65-.87,14.33-1.94s-4.33-9.31-9.33-13.19-17-9.88-17-9.88Z" style="fill: url(#blaadjes_pattern1); stroke: #000; stroke-miterlimit: 10; stroke-width: .75px;"/>
  <path d="M217.5,151.5s-17.22,7.96-19.61,10.48-9.39,8.4-9.39,8.4l5.22,5.47s12.78-8.34,15.78-10.34,8-14,8-14Z" style="fill: url(#blaadjes_pattern1); stroke: #000; stroke-miterlimit: 10; stroke-width: .75px;"/>
  <path d="M90.09,132.17s14.13,12.67,17.38,13.87,11.42,5.3,11.42,5.3l2.95-6.96s-12.72-8.43-15.74-10.4-16.02-1.81-16.02-1.81Z" style="fill: url(#blaadjes_pattern1); stroke: #000; stroke-miterlimit: 10; stroke-width: .75px;"/>
  <path d="M208.5,131.5s3,13-5,21-8,11-19,10-15.56-4.97-15.56-4.97c0,0-5.44-9.03,4.56-16.03s13-6.49,13-6.49l22-3.51Z" style="fill: url(#blaadjes_pattern1); stroke: #000; stroke-miterlimit: 10; stroke-width: .75px;"/>
  <path d="M110.5,128.5l26-13s-3-5-11-4-15,9.1-15,11.05v5.95Z" style="fill: url(#blaadjes_pattern1); stroke: #000; stroke-miterlimit: 10; stroke-width: .75px;"/>
  <path d="M114.5,157.5l26-13s-3-5-11-4-15,9.1-15,11.05v5.95Z" style="fill: url(#blaadjes_pattern1); stroke: #000; stroke-miterlimit: 10; stroke-width: .75px;"/>
  <path d="M177.5,96.5s-24,6-26,21,3.5,28.33,3.5,28.33c0,0,22.5-10.33,24.5-20.33s-2-29-2-29Z" style="fill: url(#blaadjes_pattern1); stroke: #000; stroke-miterlimit: 10; stroke-width: .75px;"/>
  <path d="M200.5,118.5s-16,4-19,9-7.59,15.53-7.59,15.53c0,0,19.59-5.53,22.59-8.53s4-16,4-16Z" style="fill: url(#blaadjes_pattern1); stroke: #000; stroke-miterlimit: 10; stroke-width: .75px;"/>
  <path d="M143.5,152.5s-16,4-19,9-7.59,15.53-7.59,15.53c0,0,19.59-5.53,22.59-8.53s4-16,4-16Z" style="fill: url(#blaadjes_pattern1); stroke: #000; stroke-miterlimit: 10; stroke-width: .75px;"/>
  <path d="M107.5,143.5s-16,4-19,9-7.59,15.53-7.59,15.53c0,0,19.59-5.53,22.59-8.53s4-16,4-16Z" style="fill: url(#blaadjes_pattern1); stroke: #000; stroke-miterlimit: 10; stroke-width: .75px;"/>
  <path d="M204.5,152.5s-16,4-19,9-7.59,15.53-7.59,15.53c0,0,19.59-5.53,22.59-8.53s4-16,4-16Z" style="fill: url(#blaadjes_pattern1); stroke: #000; stroke-miterlimit: 10; stroke-width: .75px;"/>
  <path d="M150.5,141.5s-19.9,4.97-23.63,11.19c-3.73,6.22-9.43,19.31-9.43,19.31,0,0,24.35-6.87,28.08-10.6s4.97-19.9,4.97-19.9Z" style="fill: url(#blaadjes_pattern1); stroke: #000; stroke-miterlimit: 10; stroke-width: .75px;"/>
  <path d="M129.5,122.5s-16,4-19,9-7.59,15.53-7.59,15.53c0,0,19.59-5.53,22.59-8.53s4-16,4-16Z" style="fill: url(#blaadjes_pattern1); stroke: #000; stroke-miterlimit: 10; stroke-width: .75px;"/>
  <path d="M132.14,131.5s-17.64-2-18.64-3,12-10,12-10c0,0,17-6,20-3s5.56,6.24,5.56,6.24c0,0,1.56,8.76-4.5,9.76s-14.42,0-14.42,0Z" style="fill: url(#blaadjes_pattern1); stroke: #000; stroke-miterlimit: 10; stroke-width: .75px;"/>
  <path d="M155,130.76s-8.5,3.74-14.5,7.74c-3.67,2.45-5,10-5,10,0,0,8,6,14-1s5.5-16,5.5-16" style="fill: url(#blaadjes_pattern1); stroke: #000; stroke-miterlimit: 10; stroke-width: .75px;"/>
  <path d="M96.78,155.46s-7.39-5.62-13.8-8.92c-3.92-2.02-11.17.48-11.17.48,0,0-1.36,9.91,7.67,11.75s16.66-2.96,16.66-2.96" style="fill: url(#blaadjes_pattern1); stroke: #000; stroke-miterlimit: 10; stroke-width: .75px;"/>
  <path d="M132.16,168.63s-6.42-9.69-12.63-16.25c-3.8-4.01-13.4-4.04-13.4-4.04,0,0-5.7,11.15,4.21,17.06,9.91,5.92,20.91,3.38,20.91,3.38" style="fill: url(#blaadjes_pattern1); stroke: #000; stroke-miterlimit: 10; stroke-width: .75px;"/>
</svg>